<?xml version="1.0" standalone="no"?>
 <!DOCTYPE svg PUBLIC "-//W3C//DTD SVG 1.1//EN" 
 "http://www.w3.org/Graphics/SVG/1.1/DTD/svg11.dtd"> 
<svg xmlns="http://www.w3.org/2000/svg" version="1.1" 
    width="21.0007cm" height="29.7002cm" viewBox="0 0 82680 116930 ">
<title>SVG Picture created as BackPanel_Small-Edge_Cuts.svg date 2020/05/31 22:37:15 </title>
  <desc>Picture generated by PCBNEW </desc>
<g style="fill:#000000; fill-opacity:1;stroke:#000000; stroke-opacity:1;
stroke-linecap:round; stroke-linejoin:round; "
 transform="translate(0 0) scale(1 1)">
</g>
<g style="fill:#000000; fill-opacity:0.0; 
stroke:#000000; stroke-width:-0.000393701; stroke-opacity:1; 
stroke-linecap:round; stroke-linejoin:round;">
</g>
<g style="fill:#000000; fill-opacity:0.0; 
stroke:#000000; stroke-width:118.11; stroke-opacity:1; 
stroke-linecap:round; stroke-linejoin:round;">
<circle cx="63000" cy="40000" r="2362.2" /> 
<circle cx="22063" cy="40000" r="3937.01" /> 
<path d="M42150 37500
L42150 38050
" />
<path d="M43550 37500
L42150 37500
" />
<path d="M43550 38050
L43550 37500
" />
<path d="M45600 38050
L43550 38050
" />
<path d="M45600 38950
L45600 38050
" />
<path d="M46600 38950
L45600 38950
" />
<path d="M46600 40950
L46600 38950
" />
<path d="M45600 40950
L46600 40950
" />
<path d="M45600 41950
L45600 40950
" />
<path d="M40100 41950
L45600 41950
" />
<path d="M40100 41050
L40100 41950
" />
<path d="M39100 41050
L40100 41050
" />
<path d="M39100 39050
L39100 41050
" />
<path d="M40100 39050
L39100 39050
" />
<path d="M40100 38050
L40100 39050
" />
<path d="M42150 38050
L40100 38050
" />
<path d="M74900 40400
L73500 52500
" />
<path d="M74900 40400
L73500 28200
" />
<path d="M8100 40400
L9500 52500
" />
<path d="M8100 40400
L9500 28200
" />
<path d="M9500 28200
L73500 28200
" />
<path d="M73500 52500
L9500 52500
" />
<g >
</g>
<g >
</g>
<g >
</g>
<g >
</g>
<g >
</g>
</g> 
</svg>
