<?xml version="1.0" standalone="no"?>
 <!DOCTYPE svg PUBLIC "-//W3C//DTD SVG 1.1//EN" 
 "http://www.w3.org/Graphics/SVG/1.1/DTD/svg11.dtd"> 
<svg xmlns="http://www.w3.org/2000/svg" version="1.1" 
    width="29.7002cm" height="21.0007cm" viewBox="0 0 116930 82680 ">
<title>SVG Picture created as IOBoard-brd.svg date 2020/04/13 00:11:43 </title>
  <desc>Picture generated by PCBNEW </desc>
<g style="fill:#000000; fill-opacity:1;stroke:#000000; stroke-opacity:1;
stroke-linecap:round; stroke-linejoin:round; "
 transform="translate(0 0) scale(1 1)">
</g>
<g style="fill:#000000; fill-opacity:0.0; 
stroke:#000000; stroke-width:-0.000393701; stroke-opacity:1; 
stroke-linecap:round; stroke-linejoin:round;">
</g>
<g style="fill:#000000; fill-opacity:0.0; 
stroke:#000000; stroke-width:118.11; stroke-opacity:1; 
stroke-linecap:round; stroke-linejoin:round;">
<text x="54660" y="6455.28"
textLength="7191.51" font-size="787.402" lengthAdjust="spacingAndGlyphs"
text-anchor="middle" opacity="0">Mirrored = True</text>
<path d="M51243 6427
L51243 5836
L51440 6258
L51636 5836
L51636 6427
" />
<path d="M51918 6427
L51918 6033
" />
<path d="M51918 5836
L51890 5864
L51918 5892
L51946 5864
L51918 5836
L51918 5892
" />
<path d="M52199 6427
L52199 6033
" />
<path d="M52199 6145
L52227 6089
L52255 6061
L52311 6033
L52368 6033
" />
<path d="M52564 6427
L52564 6033
" />
<path d="M52564 6145
L52593 6089
L52621 6061
L52677 6033
L52733 6033
" />
<path d="M53014 6427
L52958 6399
L52930 6370
L52902 6314
L52902 6145
L52930 6089
L52958 6061
L53014 6033
L53099 6033
L53155 6061
L53183 6089
L53211 6145
L53211 6314
L53183 6370
L53155 6399
L53099 6427
L53014 6427
" />
<path d="M53464 6427
L53464 6033
" />
<path d="M53464 6145
L53492 6089
L53521 6061
L53577 6033
L53633 6033
" />
<path d="M54055 6399
L53999 6427
L53886 6427
L53830 6399
L53802 6342
L53802 6117
L53830 6061
L53886 6033
L53999 6033
L54055 6061
L54083 6117
L54083 6174
L53802 6230
" />
<path d="M54589 6427
L54589 5836
" />
<path d="M54589 6399
L54533 6427
L54420 6427
L54364 6399
L54336 6370
L54308 6314
L54308 6145
L54336 6089
L54364 6061
L54420 6033
L54533 6033
L54589 6061
" />
<path d="M55320 6117
L55770 6117
" />
<path d="M55770 6286
L55320 6286
" />
<path d="M56417 5836
L56755 5836
" />
<path d="M56586 6427
L56586 5836
" />
<path d="M56951 6427
L56951 6033
" />
<path d="M56951 6145
L56980 6089
L57008 6061
L57064 6033
L57120 6033
" />
<path d="M57570 6033
L57570 6427
" />
<path d="M57317 6033
L57317 6342
L57345 6399
L57401 6427
L57486 6427
L57542 6399
L57570 6370
" />
<path d="M58076 6399
L58020 6427
L57908 6427
L57851 6399
L57823 6342
L57823 6117
L57851 6061
L57908 6033
L58020 6033
L58076 6061
L58104 6117
L58104 6174
L57823 6230
" />
</g>
<g style="fill:#000000; fill-opacity:0.0; 
stroke:#000000; stroke-width:47.2441; stroke-opacity:1; 
stroke-linecap:round; stroke-linejoin:round;">
<path d="M60125 13800
L53825 13800
" />
<path d="M53825 13800
L53825 7500
" />
<path d="M60125 7500
L53825 7500
" />
<path d="M60125 7500
L60125 13800
" />
<path d="M60125 21700
L53825 21700
" />
<path d="M53825 21700
L53825 15400
" />
<path d="M60125 15400
L53825 15400
" />
<path d="M60125 15400
L60125 21700
" />
<path d="M60125 29600
L53825 29600
" />
<path d="M53825 29600
L53825 23300
" />
<path d="M60125 23300
L53825 23300
" />
<path d="M60125 23300
L60125 29600
" />
<path d="M52973 21073
L50926 21073
" />
<path d="M52973 16026
L50926 16026
" />
<path d="M53540 20849
L52973 20849
" />
<path d="M52973 21073
L52973 20849
" />
<path d="M50926 21073
L50926 20849
" />
<path d="M52973 16250
L52973 16026
" />
<path d="M50926 16250
L50926 16026
" />
<path d="M52973 20250
L52973 19849
" />
<path d="M50926 20250
L50926 19849
" />
<path d="M52973 19250
L52973 18849
" />
<path d="M50926 19250
L50926 18849
" />
<path d="M52973 18250
L52973 17849
" />
<path d="M50926 18250
L50926 17849
" />
<path d="M52973 17250
L52973 16849
" />
<path d="M50926 17250
L50926 16849
" />
</g>
<g style="fill:#000000; fill-opacity:0.0; 
stroke:#000000; stroke-width:59.0551; stroke-opacity:1; 
stroke-linecap:round; stroke-linejoin:round;">
<text x="56975" y="13846.9"
textLength="828.459" font-size="524.934" lengthAdjust="spacingAndGlyphs"
text-anchor="middle" opacity="0">J4</text>
<path d="M56843 13434
L56843 13715
L56825 13771
L56787 13809
L56731 13828
L56693 13828
" />
<path d="M57199 13565
L57199 13828
" />
<path d="M57106 13415
L57012 13696
L57256 13696
" />
<text x="56975" y="21746.9"
textLength="751.687" font-size="524.934" lengthAdjust="spacingAndGlyphs"
text-anchor="middle" opacity="0">J3</text>
<path d="M56843 21334
L56843 21615
L56825 21671
L56787 21709
L56731 21728
L56693 21728
" />
<path d="M56993 21334
L57237 21334
L57106 21484
L57162 21484
L57199 21503
L57218 21521
L57237 21559
L57237 21653
L57218 21690
L57199 21709
L57162 21728
L57049 21728
L57012 21709
L56993 21690
" />
<text x="56975" y="29646.9"
textLength="751.687" font-size="524.934" lengthAdjust="spacingAndGlyphs"
text-anchor="middle" opacity="0">J2</text>
<path d="M56843 29234
L56843 29515
L56825 29571
L56787 29609
L56731 29628
L56693 29628
" />
<path d="M57012 29271
L57031 29253
L57068 29234
L57162 29234
L57199 29253
L57218 29271
L57237 29309
L57237 29346
L57218 29403
L56993 29628
L57237 29628
" />
<text x="51950" y="21664.2"
textLength="751.687" font-size="524.934" lengthAdjust="spacingAndGlyphs"
text-anchor="middle" opacity="0">J1</text>
<path d="M51818 21251
L51818 21532
L51800 21589
L51762 21626
L51706 21645
L51668 21645
" />
<path d="M52212 21645
L51987 21645
" />
<path d="M52099 21645
L52099 21251
L52062 21307
L52024 21345
L51987 21364
" />
<g >
</g>
</g>
<g style="fill:#000000; fill-opacity:0.0; 
stroke:#000000; stroke-width:59.0551; stroke-opacity:1; 
stroke-linecap:round; stroke-linejoin:round;">
</g>
<g style="fill:#000000; fill-opacity:0.0; 
stroke:#000000; stroke-width:78.7402; stroke-opacity:1; 
stroke-linecap:round; stroke-linejoin:round;">
<circle cx="56975" cy="10650" r="2710.07" /> 
<circle cx="56975" cy="10650" r="3920.82" /> 
<circle cx="56975" cy="18550" r="2710.07" /> 
<circle cx="56975" cy="18550" r="3920.82" /> 
<circle cx="56975" cy="26450" r="2710.07" /> 
<circle cx="56975" cy="26450" r="3920.82" /> 
</g>
<g style="fill:#000000; fill-opacity:0.0; 
stroke:#000000; stroke-width:39.3701; stroke-opacity:1; 
stroke-linecap:round; stroke-linejoin:round;">
<path d="M50950 16050
L52950 16050
" />
<path d="M52575 21050
L50950 21050
" />
<path d="M52950 16050
L52950 20675
" />
<path d="M52950 20675
L52575 21050
" />
<path d="M50950 21050
L50950 16050
" />
<path d="M52950 20675
L53367 20675
" />
<path d="M53367 20675
L53367 20424
" />
<path d="M53367 20424
L52950 20424
" />
<path d="M50950 20675
L50532 20675
" />
<path d="M50532 20675
L50532 20424
" />
<path d="M50532 20424
L50950 20424
" />
<path d="M52950 19675
L53367 19675
" />
<path d="M53367 19675
L53367 19424
" />
<path d="M53367 19424
L52950 19424
" />
<path d="M50950 19675
L50532 19675
" />
<path d="M50532 19675
L50532 19424
" />
<path d="M50532 19424
L50950 19424
" />
<path d="M52950 18675
L53367 18675
" />
<path d="M53367 18675
L53367 18424
" />
<path d="M53367 18424
L52950 18424
" />
<path d="M50950 18675
L50532 18675
" />
<path d="M50532 18675
L50532 18424
" />
<path d="M50532 18424
L50950 18424
" />
<path d="M52950 17675
L53367 17675
" />
<path d="M53367 17675
L53367 17424
" />
<path d="M53367 17424
L52950 17424
" />
<path d="M50950 17675
L50532 17675
" />
<path d="M50532 17675
L50532 17424
" />
<path d="M50532 17424
L50950 17424
" />
<path d="M52950 16675
L53367 16675
" />
<path d="M53367 16675
L53367 16424
" />
<path d="M53367 16424
L52950 16424
" />
<path d="M50950 16675
L50532 16675
" />
<path d="M50532 16675
L50532 16424
" />
<path d="M50532 16424
L50950 16424
" />
<g >
</g>
<g >
</g>
<g >
</g>
<g >
</g>
</g>
<g style="fill:#000000; fill-opacity:0.0; 
stroke:#000000; stroke-width:39.3701; stroke-opacity:1; 
stroke-linecap:round; stroke-linejoin:round;">
</g>
<g style="fill:#000000; fill-opacity:0.0; 
stroke:#000000; stroke-width:59.0551; stroke-opacity:1; 
stroke-linecap:round; stroke-linejoin:round;">
<text x="56975" y="14846.9"
textLength="4013.78" font-size="524.934" lengthAdjust="spacingAndGlyphs"
text-anchor="middle" opacity="0">Conn_Coaxial</text>
<path d="M55325 14790
L55306 14809
L55250 14828
L55212 14828
L55156 14809
L55118 14771
L55100 14734
L55081 14659
L55081 14603
L55100 14528
L55118 14490
L55156 14453
L55212 14434
L55250 14434
L55306 14453
L55325 14471
" />
<path d="M55550 14828
L55512 14809
L55493 14790
L55475 14753
L55475 14640
L55493 14603
L55512 14584
L55550 14565
L55606 14565
L55643 14584
L55662 14603
L55681 14640
L55681 14753
L55662 14790
L55643 14809
L55606 14828
L55550 14828
" />
<path d="M55850 14565
L55850 14828
" />
<path d="M55850 14603
L55868 14584
L55906 14565
L55962 14565
L56000 14584
L56018 14621
L56018 14828
" />
<path d="M56206 14565
L56206 14828
" />
<path d="M56206 14603
L56225 14584
L56262 14565
L56318 14565
L56356 14584
L56375 14621
L56375 14828
" />
<path d="M56468 14865
L56768 14865
" />
<path d="M57087 14790
L57068 14809
L57012 14828
L56975 14828
L56918 14809
L56881 14771
L56862 14734
L56843 14659
L56843 14603
L56862 14528
L56881 14490
L56918 14453
L56975 14434
L57012 14434
L57068 14453
L57087 14471
" />
<path d="M57312 14828
L57274 14809
L57256 14790
L57237 14753
L57237 14640
L57256 14603
L57274 14584
L57312 14565
L57368 14565
L57406 14584
L57424 14603
L57443 14640
L57443 14753
L57424 14790
L57406 14809
L57368 14828
L57312 14828
" />
<path d="M57781 14828
L57781 14621
L57762 14584
L57724 14565
L57649 14565
L57612 14584
" />
<path d="M57781 14809
L57743 14828
L57649 14828
L57612 14809
L57593 14771
L57593 14734
L57612 14696
L57649 14678
L57743 14678
L57781 14659
" />
<path d="M57931 14828
L58137 14565
" />
<path d="M57931 14565
L58137 14828
" />
<path d="M58287 14828
L58287 14565
" />
<path d="M58287 14434
L58268 14453
L58287 14471
L58306 14453
L58287 14434
L58287 14471
" />
<path d="M58643 14828
L58643 14621
L58624 14584
L58587 14565
L58512 14565
L58474 14584
" />
<path d="M58643 14809
L58606 14828
L58512 14828
L58474 14809
L58456 14771
L58456 14734
L58474 14696
L58512 14678
L58606 14678
L58643 14659
" />
<path d="M58887 14828
L58849 14809
L58831 14771
L58831 14434
" />
<text x="56975" y="22746.9"
textLength="4013.78" font-size="524.934" lengthAdjust="spacingAndGlyphs"
text-anchor="middle" opacity="0">Conn_Coaxial</text>
<path d="M55325 22690
L55306 22709
L55250 22728
L55212 22728
L55156 22709
L55118 22671
L55100 22634
L55081 22559
L55081 22503
L55100 22428
L55118 22390
L55156 22353
L55212 22334
L55250 22334
L55306 22353
L55325 22371
" />
<path d="M55550 22728
L55512 22709
L55493 22690
L55475 22653
L55475 22540
L55493 22503
L55512 22484
L55550 22465
L55606 22465
L55643 22484
L55662 22503
L55681 22540
L55681 22653
L55662 22690
L55643 22709
L55606 22728
L55550 22728
" />
<path d="M55850 22465
L55850 22728
" />
<path d="M55850 22503
L55868 22484
L55906 22465
L55962 22465
L56000 22484
L56018 22521
L56018 22728
" />
<path d="M56206 22465
L56206 22728
" />
<path d="M56206 22503
L56225 22484
L56262 22465
L56318 22465
L56356 22484
L56375 22521
L56375 22728
" />
<path d="M56468 22765
L56768 22765
" />
<path d="M57087 22690
L57068 22709
L57012 22728
L56975 22728
L56918 22709
L56881 22671
L56862 22634
L56843 22559
L56843 22503
L56862 22428
L56881 22390
L56918 22353
L56975 22334
L57012 22334
L57068 22353
L57087 22371
" />
<path d="M57312 22728
L57274 22709
L57256 22690
L57237 22653
L57237 22540
L57256 22503
L57274 22484
L57312 22465
L57368 22465
L57406 22484
L57424 22503
L57443 22540
L57443 22653
L57424 22690
L57406 22709
L57368 22728
L57312 22728
" />
<path d="M57781 22728
L57781 22521
L57762 22484
L57724 22465
L57649 22465
L57612 22484
" />
<path d="M57781 22709
L57743 22728
L57649 22728
L57612 22709
L57593 22671
L57593 22634
L57612 22596
L57649 22578
L57743 22578
L57781 22559
" />
<path d="M57931 22728
L58137 22465
" />
<path d="M57931 22465
L58137 22728
" />
<path d="M58287 22728
L58287 22465
" />
<path d="M58287 22334
L58268 22353
L58287 22371
L58306 22353
L58287 22334
L58287 22371
" />
<path d="M58643 22728
L58643 22521
L58624 22484
L58587 22465
L58512 22465
L58474 22484
" />
<path d="M58643 22709
L58606 22728
L58512 22728
L58474 22709
L58456 22671
L58456 22634
L58474 22596
L58512 22578
L58606 22578
L58643 22559
" />
<path d="M58887 22728
L58849 22709
L58831 22671
L58831 22334
" />
<text x="56975" y="30646.9"
textLength="4013.78" font-size="524.934" lengthAdjust="spacingAndGlyphs"
text-anchor="middle" opacity="0">Conn_Coaxial</text>
<path d="M55325 30590
L55306 30609
L55250 30628
L55212 30628
L55156 30609
L55118 30571
L55100 30534
L55081 30459
L55081 30403
L55100 30328
L55118 30290
L55156 30253
L55212 30234
L55250 30234
L55306 30253
L55325 30271
" />
<path d="M55550 30628
L55512 30609
L55493 30590
L55475 30553
L55475 30440
L55493 30403
L55512 30384
L55550 30365
L55606 30365
L55643 30384
L55662 30403
L55681 30440
L55681 30553
L55662 30590
L55643 30609
L55606 30628
L55550 30628
" />
<path d="M55850 30365
L55850 30628
" />
<path d="M55850 30403
L55868 30384
L55906 30365
L55962 30365
L56000 30384
L56018 30421
L56018 30628
" />
<path d="M56206 30365
L56206 30628
" />
<path d="M56206 30403
L56225 30384
L56262 30365
L56318 30365
L56356 30384
L56375 30421
L56375 30628
" />
<path d="M56468 30665
L56768 30665
" />
<path d="M57087 30590
L57068 30609
L57012 30628
L56975 30628
L56918 30609
L56881 30571
L56862 30534
L56843 30459
L56843 30403
L56862 30328
L56881 30290
L56918 30253
L56975 30234
L57012 30234
L57068 30253
L57087 30271
" />
<path d="M57312 30628
L57274 30609
L57256 30590
L57237 30553
L57237 30440
L57256 30403
L57274 30384
L57312 30365
L57368 30365
L57406 30384
L57424 30403
L57443 30440
L57443 30553
L57424 30590
L57406 30609
L57368 30628
L57312 30628
" />
<path d="M57781 30628
L57781 30421
L57762 30384
L57724 30365
L57649 30365
L57612 30384
" />
<path d="M57781 30609
L57743 30628
L57649 30628
L57612 30609
L57593 30571
L57593 30534
L57612 30496
L57649 30478
L57743 30478
L57781 30459
" />
<path d="M57931 30628
L58137 30365
" />
<path d="M57931 30365
L58137 30628
" />
<path d="M58287 30628
L58287 30365
" />
<path d="M58287 30234
L58268 30253
L58287 30271
L58306 30253
L58287 30234
L58287 30271
" />
<path d="M58643 30628
L58643 30421
L58624 30384
L58587 30365
L58512 30365
L58474 30384
" />
<path d="M58643 30609
L58606 30628
L58512 30628
L58474 30609
L58456 30571
L58456 30534
L58474 30496
L58512 30478
L58606 30478
L58643 30459
" />
<path d="M58887 30628
L58849 30609
L58831 30571
L58831 30234
" />
<text x="51950" y="15829.5"
textLength="6732.19" font-size="524.934" lengthAdjust="spacingAndGlyphs"
text-anchor="middle" opacity="0">Conn_02x05_Odd_Even</text>
<path d="M48941 15773
L48922 15792
L48866 15810
L48828 15810
L48772 15792
L48734 15754
L48716 15717
L48697 15642
L48697 15585
L48716 15510
L48734 15473
L48772 15435
L48828 15417
L48866 15417
L48922 15435
L48941 15454
" />
<path d="M49165 15810
L49128 15792
L49109 15773
L49090 15735
L49090 15623
L49109 15585
L49128 15567
L49165 15548
L49222 15548
L49259 15567
L49278 15585
L49297 15623
L49297 15735
L49278 15773
L49259 15792
L49222 15810
L49165 15810
" />
<path d="M49465 15548
L49465 15810
" />
<path d="M49465 15585
L49484 15567
L49522 15548
L49578 15548
L49615 15567
L49634 15604
L49634 15810
" />
<path d="M49822 15548
L49822 15810
" />
<path d="M49822 15585
L49840 15567
L49878 15548
L49934 15548
L49972 15567
L49990 15604
L49990 15810
" />
<path d="M50084 15848
L50384 15848
" />
<path d="M50553 15417
L50590 15417
L50628 15435
L50647 15454
L50665 15492
L50684 15567
L50684 15660
L50665 15735
L50647 15773
L50628 15792
L50590 15810
L50553 15810
L50515 15792
L50497 15773
L50478 15735
L50459 15660
L50459 15567
L50478 15492
L50497 15454
L50515 15435
L50553 15417
" />
<path d="M50834 15454
L50853 15435
L50890 15417
L50984 15417
L51021 15435
L51040 15454
L51059 15492
L51059 15529
L51040 15585
L50815 15810
L51059 15810
" />
<path d="M51190 15810
L51396 15548
" />
<path d="M51190 15548
L51396 15810
" />
<path d="M51621 15417
L51659 15417
L51696 15435
L51715 15454
L51734 15492
L51753 15567
L51753 15660
L51734 15735
L51715 15773
L51696 15792
L51659 15810
L51621 15810
L51584 15792
L51565 15773
L51546 15735
L51528 15660
L51528 15567
L51546 15492
L51565 15454
L51584 15435
L51621 15417
" />
<path d="M52109 15417
L51921 15417
L51903 15604
L51921 15585
L51959 15567
L52053 15567
L52090 15585
L52109 15604
L52128 15642
L52128 15735
L52109 15773
L52090 15792
L52053 15810
L51959 15810
L51921 15792
L51903 15773
" />
<path d="M52203 15848
L52503 15848
" />
<path d="M52671 15417
L52746 15417
L52784 15435
L52821 15473
L52840 15548
L52840 15679
L52821 15754
L52784 15792
L52746 15810
L52671 15810
L52634 15792
L52596 15754
L52578 15679
L52578 15548
L52596 15473
L52634 15435
L52671 15417
" />
<path d="M53177 15810
L53177 15417
" />
<path d="M53177 15792
L53140 15810
L53065 15810
L53027 15792
L53009 15773
L52990 15735
L52990 15623
L53009 15585
L53027 15567
L53065 15548
L53140 15548
L53177 15567
" />
<path d="M53534 15810
L53534 15417
" />
<path d="M53534 15792
L53496 15810
L53421 15810
L53384 15792
L53365 15773
L53346 15735
L53346 15623
L53365 15585
L53384 15567
L53421 15548
L53496 15548
L53534 15567
" />
<path d="M53627 15848
L53927 15848
" />
<path d="M54021 15604
L54152 15604
" />
<path d="M54209 15810
L54021 15810
L54021 15417
L54209 15417
" />
<path d="M54340 15548
L54434 15810
L54527 15548
" />
<path d="M54827 15792
L54790 15810
L54715 15810
L54677 15792
L54659 15754
L54659 15604
L54677 15567
L54715 15548
L54790 15548
L54827 15567
L54846 15604
L54846 15642
L54659 15679
" />
<path d="M55015 15548
L55015 15810
" />
<path d="M55015 15585
L55033 15567
L55071 15548
L55127 15548
L55165 15567
L55183 15604
L55183 15810
" />
<g transform="rotate(-90 51950 18550)">
<text x="51950" y="18746.9"
textLength="751.687" font-size="524.934" lengthAdjust="spacingAndGlyphs"
text-anchor="middle" opacity="0">J1</text>
</g>
<path d="M51734 18681
L52015 18681
L52071 18699
L52109 18737
L52128 18793
L52128 18831
" />
<path d="M52128 18287
L52128 18512
" />
<path d="M52128 18400
L51734 18400
L51790 18437
L51828 18475
L51846 18512
" />
<g >
</g>
</g>
<g style="fill:#000000; fill-opacity:0.0; 
stroke:#000000; stroke-width:59.0551; stroke-opacity:1; 
stroke-linecap:round; stroke-linejoin:round;">
</g>
<g style="fill:#000000; fill-opacity:0.0; 
stroke:#000000; stroke-width:19.685; stroke-opacity:1; 
stroke-linecap:round; stroke-linejoin:round;">
<path d="M50000 7500
L50000 29625
" />
<path d="M50000 29625
L60250 29625
" />
<path d="M60250 29625
L60250 7500
" />
<path d="M60250 7500
L50000 7500
" />
<g >
</g>
<g >
</g>
<g >
</g>
<g >
</g>
<g >
</g>
</g> 
</svg>
