G04 #@! TF.GenerationSoftware,KiCad,Pcbnew,(5.1.5-0-10_14)*
G04 #@! TF.CreationDate,2020-03-04T03:31:15+00:00*
G04 #@! TF.ProjectId,FunctionGeneratorCortexM4,46756e63-7469-46f6-9e47-656e65726174,rev?*
G04 #@! TF.SameCoordinates,Original*
G04 #@! TF.FileFunction,Copper,L2,Bot*
G04 #@! TF.FilePolarity,Positive*
%FSLAX46Y46*%
G04 Gerber Fmt 4.6, Leading zero omitted, Abs format (unit mm)*
G04 Created by KiCad (PCBNEW (5.1.5-0-10_14)) date 2020-03-04 03:31:15*
%MOMM*%
%LPD*%
G04 APERTURE LIST*
%ADD10O,1.727200X1.727200*%
%ADD11R,1.727200X1.727200*%
%ADD12O,1.700000X1.700000*%
%ADD13R,1.700000X1.700000*%
%ADD14O,1.000000X1.000000*%
%ADD15R,1.000000X1.000000*%
%ADD16C,3.000000*%
%ADD17R,3.000000X3.000000*%
%ADD18C,0.400000*%
%ADD19C,0.800000*%
%ADD20C,0.600000*%
%ADD21C,0.300000*%
%ADD22C,0.650000*%
%ADD23C,0.254000*%
G04 APERTURE END LIST*
D10*
X190500000Y-124460000D03*
X190500000Y-127000000D03*
X187960000Y-124460000D03*
X187960000Y-127000000D03*
X185420000Y-124460000D03*
X185420000Y-127000000D03*
X182880000Y-124460000D03*
X182880000Y-127000000D03*
X180340000Y-124460000D03*
X180340000Y-127000000D03*
X177800000Y-124460000D03*
D11*
X177800000Y-127000000D03*
D10*
X147320000Y-127000000D03*
X147320000Y-124460000D03*
X149860000Y-127000000D03*
X149860000Y-124460000D03*
X152400000Y-127000000D03*
X152400000Y-124460000D03*
X154940000Y-127000000D03*
X154940000Y-124460000D03*
X157480000Y-127000000D03*
X157480000Y-124460000D03*
X160020000Y-127000000D03*
D11*
X160020000Y-124460000D03*
D12*
X108712000Y-96139000D03*
D13*
X106172000Y-96139000D03*
D10*
X113030000Y-127000000D03*
X113030000Y-124460000D03*
X115570000Y-127000000D03*
X115570000Y-124460000D03*
X118110000Y-127000000D03*
X118110000Y-124460000D03*
X120650000Y-127000000D03*
D11*
X120650000Y-124460000D03*
D14*
X146113500Y-117221000D03*
X144843500Y-117221000D03*
D15*
X143573500Y-117221000D03*
D12*
X106680000Y-72542400D03*
X109220000Y-72542400D03*
X111760000Y-72542400D03*
X114300000Y-72542400D03*
X116840000Y-72542400D03*
D13*
X119380000Y-72542400D03*
D16*
X182245000Y-57150000D03*
D17*
X187325000Y-57150000D03*
D18*
X162560000Y-88900000D03*
X167640000Y-88900000D03*
D19*
X174625000Y-89535000D03*
X174625000Y-97028000D03*
D18*
X118999000Y-88646000D03*
X106680000Y-88646000D03*
X125603000Y-92456000D03*
X109474000Y-89916000D03*
D19*
X115570000Y-63017400D03*
X116840000Y-66192400D03*
D18*
X137159988Y-92202000D03*
X144589500Y-92202000D03*
X117627400Y-92125800D03*
X111023400Y-92125800D03*
X137541000Y-110998000D03*
X132969000Y-110998000D03*
X145161000Y-96520000D03*
D19*
X146685000Y-92710000D03*
X155575000Y-99060000D03*
X116078000Y-50952400D03*
X140335000Y-70866000D03*
X134620000Y-79756000D03*
X130683000Y-79502000D03*
X120577500Y-76526500D03*
X110617000Y-99695000D03*
D18*
X142113000Y-112776000D03*
X119432000Y-92200000D03*
X123444000Y-81534000D03*
D19*
X174244000Y-67691000D03*
X156464000Y-54610000D03*
X141935200Y-47040800D03*
D18*
X128524000Y-93091000D03*
X133477000Y-87884000D03*
X133477000Y-85979000D03*
D19*
X165354000Y-96266000D03*
X142875000Y-74676000D03*
X139827000Y-74676000D03*
X138430000Y-57150000D03*
X138430000Y-59690000D03*
X138430000Y-62230000D03*
X138430000Y-64770000D03*
X149860000Y-54610000D03*
X149860000Y-57150000D03*
X149860000Y-59690000D03*
X149860000Y-62230000D03*
X149860000Y-64770000D03*
X147320000Y-64770000D03*
X147320000Y-62230000D03*
X147320000Y-59690000D03*
X147320000Y-57150000D03*
X140970000Y-57150000D03*
X140970000Y-59690000D03*
X140970000Y-62230000D03*
X140970000Y-64770000D03*
X145415000Y-62230000D03*
X145415000Y-64770000D03*
X142875000Y-64770000D03*
X142875000Y-62230000D03*
X138430000Y-54610000D03*
X142875000Y-59690000D03*
X145415000Y-59690000D03*
X172974000Y-93980000D03*
X163195000Y-73533000D03*
X175641000Y-60706000D03*
X193929000Y-100711000D03*
X189901500Y-72553500D03*
X136017000Y-48006000D03*
X126873000Y-52705000D03*
X161961500Y-85053500D03*
X181610000Y-109601000D03*
X178435000Y-83312000D03*
X165925500Y-109474000D03*
D18*
X147764500Y-114109500D03*
X147764500Y-112839500D03*
D19*
X182880000Y-96012000D03*
X185928004Y-96520000D03*
X154940000Y-94742000D03*
X157988000Y-94742000D03*
D18*
X133731000Y-112141000D03*
X137541000Y-112141000D03*
X137541000Y-112141000D03*
D19*
X183515000Y-101600000D03*
X174625000Y-101600000D03*
D20*
X162560000Y-88900000D02*
X167640000Y-88900000D01*
X174625000Y-89535000D02*
X174625000Y-97028000D01*
D21*
X112776000Y-88646000D02*
X106680000Y-88646000D01*
X118999000Y-88646000D02*
X112776000Y-88646000D01*
X125603000Y-92456000D02*
X123063000Y-89916000D01*
X123063000Y-89916000D02*
X109756842Y-89916000D01*
X109756842Y-89916000D02*
X109474000Y-89916000D01*
D22*
X115570000Y-63017400D02*
X115570000Y-64922400D01*
X115570000Y-64922400D02*
X116840000Y-66192400D01*
D21*
X137159988Y-92202000D02*
X144589500Y-92202000D01*
X117627400Y-92125800D02*
X111023400Y-92125800D01*
X132969000Y-110998000D02*
X137287000Y-110998000D01*
X137287000Y-110998000D02*
X137541000Y-110998000D01*
X147764500Y-114109500D02*
X147764500Y-112839500D01*
D20*
X182880000Y-96012000D02*
X185420004Y-96012000D01*
X185420004Y-96012000D02*
X185928004Y-96520000D01*
X154940000Y-94742000D02*
X157988000Y-94742000D01*
D21*
X133731000Y-112141000D02*
X137541000Y-112141000D01*
D20*
X183515000Y-101600000D02*
X174625000Y-101600000D01*
D23*
G36*
X205080001Y-133960000D02*
G01*
X97180000Y-133960000D01*
X97180000Y-129369117D01*
X99865000Y-129369117D01*
X99865000Y-129710883D01*
X99931675Y-130046081D01*
X100062463Y-130361831D01*
X100252337Y-130645998D01*
X100494002Y-130887663D01*
X100778169Y-131077537D01*
X101093919Y-131208325D01*
X101429117Y-131275000D01*
X101770883Y-131275000D01*
X102106081Y-131208325D01*
X102421831Y-131077537D01*
X102705998Y-130887663D01*
X102947663Y-130645998D01*
X103137537Y-130361831D01*
X103268325Y-130046081D01*
X103335000Y-129710883D01*
X103335000Y-129369117D01*
X198925000Y-129369117D01*
X198925000Y-129710883D01*
X198991675Y-130046081D01*
X199122463Y-130361831D01*
X199312337Y-130645998D01*
X199554002Y-130887663D01*
X199838169Y-131077537D01*
X200153919Y-131208325D01*
X200489117Y-131275000D01*
X200830883Y-131275000D01*
X201166081Y-131208325D01*
X201481831Y-131077537D01*
X201765998Y-130887663D01*
X202007663Y-130645998D01*
X202197537Y-130361831D01*
X202328325Y-130046081D01*
X202395000Y-129710883D01*
X202395000Y-129369117D01*
X202328325Y-129033919D01*
X202197537Y-128718169D01*
X202007663Y-128434002D01*
X201765998Y-128192337D01*
X201481831Y-128002463D01*
X201166081Y-127871675D01*
X200830883Y-127805000D01*
X200489117Y-127805000D01*
X200153919Y-127871675D01*
X199838169Y-128002463D01*
X199554002Y-128192337D01*
X199312337Y-128434002D01*
X199122463Y-128718169D01*
X198991675Y-129033919D01*
X198925000Y-129369117D01*
X103335000Y-129369117D01*
X103268325Y-129033919D01*
X103137537Y-128718169D01*
X102947663Y-128434002D01*
X102705998Y-128192337D01*
X102421831Y-128002463D01*
X102106081Y-127871675D01*
X101770883Y-127805000D01*
X101429117Y-127805000D01*
X101093919Y-127871675D01*
X100778169Y-128002463D01*
X100494002Y-128192337D01*
X100252337Y-128434002D01*
X100062463Y-128718169D01*
X99931675Y-129033919D01*
X99865000Y-129369117D01*
X97180000Y-129369117D01*
X97180000Y-124312401D01*
X111531400Y-124312401D01*
X111531400Y-124607599D01*
X111588990Y-124897125D01*
X111701958Y-125169853D01*
X111865961Y-125415302D01*
X112074698Y-125624039D01*
X112233281Y-125730000D01*
X112074698Y-125835961D01*
X111865961Y-126044698D01*
X111701958Y-126290147D01*
X111588990Y-126562875D01*
X111531400Y-126852401D01*
X111531400Y-127147599D01*
X111588990Y-127437125D01*
X111701958Y-127709853D01*
X111865961Y-127955302D01*
X112074698Y-128164039D01*
X112320147Y-128328042D01*
X112592875Y-128441010D01*
X112882401Y-128498600D01*
X113177599Y-128498600D01*
X113467125Y-128441010D01*
X113739853Y-128328042D01*
X113985302Y-128164039D01*
X114194039Y-127955302D01*
X114300000Y-127796719D01*
X114405961Y-127955302D01*
X114614698Y-128164039D01*
X114860147Y-128328042D01*
X115132875Y-128441010D01*
X115422401Y-128498600D01*
X115717599Y-128498600D01*
X116007125Y-128441010D01*
X116279853Y-128328042D01*
X116525302Y-128164039D01*
X116734039Y-127955302D01*
X116840000Y-127796719D01*
X116945961Y-127955302D01*
X117154698Y-128164039D01*
X117400147Y-128328042D01*
X117672875Y-128441010D01*
X117962401Y-128498600D01*
X118257599Y-128498600D01*
X118547125Y-128441010D01*
X118819853Y-128328042D01*
X119065302Y-128164039D01*
X119274039Y-127955302D01*
X119438042Y-127709853D01*
X119551010Y-127437125D01*
X119608600Y-127147599D01*
X119608600Y-126852401D01*
X119551010Y-126562875D01*
X119438042Y-126290147D01*
X119274039Y-126044698D01*
X119065302Y-125835961D01*
X118906719Y-125730000D01*
X119065302Y-125624039D01*
X119179364Y-125509977D01*
X119196898Y-125567780D01*
X119255863Y-125678094D01*
X119335215Y-125774785D01*
X119431906Y-125854137D01*
X119542220Y-125913102D01*
X119661918Y-125949412D01*
X119786400Y-125961672D01*
X121513600Y-125961672D01*
X121638082Y-125949412D01*
X121757780Y-125913102D01*
X121868094Y-125854137D01*
X121964785Y-125774785D01*
X122044137Y-125678094D01*
X122103102Y-125567780D01*
X122139412Y-125448082D01*
X122151672Y-125323600D01*
X122151672Y-124312401D01*
X148361400Y-124312401D01*
X148361400Y-124607599D01*
X148418990Y-124897125D01*
X148531958Y-125169853D01*
X148695961Y-125415302D01*
X148904698Y-125624039D01*
X149063281Y-125730000D01*
X148904698Y-125835961D01*
X148695961Y-126044698D01*
X148531958Y-126290147D01*
X148418990Y-126562875D01*
X148361400Y-126852401D01*
X148361400Y-127147599D01*
X148418990Y-127437125D01*
X148531958Y-127709853D01*
X148695961Y-127955302D01*
X148904698Y-128164039D01*
X149150147Y-128328042D01*
X149422875Y-128441010D01*
X149712401Y-128498600D01*
X150007599Y-128498600D01*
X150297125Y-128441010D01*
X150569853Y-128328042D01*
X150815302Y-128164039D01*
X151024039Y-127955302D01*
X151130000Y-127796719D01*
X151235961Y-127955302D01*
X151444698Y-128164039D01*
X151690147Y-128328042D01*
X151962875Y-128441010D01*
X152252401Y-128498600D01*
X152547599Y-128498600D01*
X152837125Y-128441010D01*
X153109853Y-128328042D01*
X153355302Y-128164039D01*
X153564039Y-127955302D01*
X153670000Y-127796719D01*
X153775961Y-127955302D01*
X153984698Y-128164039D01*
X154230147Y-128328042D01*
X154502875Y-128441010D01*
X154792401Y-128498600D01*
X155087599Y-128498600D01*
X155377125Y-128441010D01*
X155649853Y-128328042D01*
X155895302Y-128164039D01*
X156104039Y-127955302D01*
X156210000Y-127796719D01*
X156315961Y-127955302D01*
X156524698Y-128164039D01*
X156770147Y-128328042D01*
X157042875Y-128441010D01*
X157332401Y-128498600D01*
X157627599Y-128498600D01*
X157917125Y-128441010D01*
X158189853Y-128328042D01*
X158435302Y-128164039D01*
X158644039Y-127955302D01*
X158750000Y-127796719D01*
X158855961Y-127955302D01*
X159064698Y-128164039D01*
X159310147Y-128328042D01*
X159582875Y-128441010D01*
X159872401Y-128498600D01*
X160167599Y-128498600D01*
X160457125Y-128441010D01*
X160729853Y-128328042D01*
X160975302Y-128164039D01*
X161184039Y-127955302D01*
X161348042Y-127709853D01*
X161461010Y-127437125D01*
X161518600Y-127147599D01*
X161518600Y-126852401D01*
X161461010Y-126562875D01*
X161348042Y-126290147D01*
X161245313Y-126136400D01*
X176298328Y-126136400D01*
X176298328Y-127863600D01*
X176310588Y-127988082D01*
X176346898Y-128107780D01*
X176405863Y-128218094D01*
X176485215Y-128314785D01*
X176581906Y-128394137D01*
X176692220Y-128453102D01*
X176811918Y-128489412D01*
X176936400Y-128501672D01*
X178663600Y-128501672D01*
X178788082Y-128489412D01*
X178907780Y-128453102D01*
X179018094Y-128394137D01*
X179114785Y-128314785D01*
X179194137Y-128218094D01*
X179253102Y-128107780D01*
X179289412Y-127988082D01*
X179301672Y-127863600D01*
X179301672Y-126852401D01*
X181381400Y-126852401D01*
X181381400Y-127147599D01*
X181438990Y-127437125D01*
X181551958Y-127709853D01*
X181715961Y-127955302D01*
X181924698Y-128164039D01*
X182170147Y-128328042D01*
X182442875Y-128441010D01*
X182732401Y-128498600D01*
X183027599Y-128498600D01*
X183317125Y-128441010D01*
X183589853Y-128328042D01*
X183835302Y-128164039D01*
X184044039Y-127955302D01*
X184208042Y-127709853D01*
X184321010Y-127437125D01*
X184378600Y-127147599D01*
X184378600Y-126852401D01*
X186461400Y-126852401D01*
X186461400Y-127147599D01*
X186518990Y-127437125D01*
X186631958Y-127709853D01*
X186795961Y-127955302D01*
X187004698Y-128164039D01*
X187250147Y-128328042D01*
X187522875Y-128441010D01*
X187812401Y-128498600D01*
X188107599Y-128498600D01*
X188397125Y-128441010D01*
X188669853Y-128328042D01*
X188915302Y-128164039D01*
X189124039Y-127955302D01*
X189230000Y-127796719D01*
X189335961Y-127955302D01*
X189544698Y-128164039D01*
X189790147Y-128328042D01*
X190062875Y-128441010D01*
X190352401Y-128498600D01*
X190647599Y-128498600D01*
X190937125Y-128441010D01*
X191209853Y-128328042D01*
X191455302Y-128164039D01*
X191664039Y-127955302D01*
X191828042Y-127709853D01*
X191941010Y-127437125D01*
X191998600Y-127147599D01*
X191998600Y-126852401D01*
X191941010Y-126562875D01*
X191828042Y-126290147D01*
X191664039Y-126044698D01*
X191455302Y-125835961D01*
X191296719Y-125730000D01*
X191455302Y-125624039D01*
X191664039Y-125415302D01*
X191828042Y-125169853D01*
X191941010Y-124897125D01*
X191998600Y-124607599D01*
X191998600Y-124312401D01*
X191941010Y-124022875D01*
X191828042Y-123750147D01*
X191664039Y-123504698D01*
X191455302Y-123295961D01*
X191209853Y-123131958D01*
X190937125Y-123018990D01*
X190647599Y-122961400D01*
X190352401Y-122961400D01*
X190062875Y-123018990D01*
X189790147Y-123131958D01*
X189544698Y-123295961D01*
X189335961Y-123504698D01*
X189171958Y-123750147D01*
X189058990Y-124022875D01*
X189001400Y-124312401D01*
X189001400Y-124607599D01*
X189058990Y-124897125D01*
X189171958Y-125169853D01*
X189335961Y-125415302D01*
X189544698Y-125624039D01*
X189703281Y-125730000D01*
X189544698Y-125835961D01*
X189335961Y-126044698D01*
X189230000Y-126203281D01*
X189124039Y-126044698D01*
X188915302Y-125835961D01*
X188669853Y-125671958D01*
X188397125Y-125558990D01*
X188107599Y-125501400D01*
X187812401Y-125501400D01*
X187522875Y-125558990D01*
X187250147Y-125671958D01*
X187004698Y-125835961D01*
X186795961Y-126044698D01*
X186631958Y-126290147D01*
X186518990Y-126562875D01*
X186461400Y-126852401D01*
X184378600Y-126852401D01*
X184321010Y-126562875D01*
X184208042Y-126290147D01*
X184044039Y-126044698D01*
X183835302Y-125835961D01*
X183589853Y-125671958D01*
X183317125Y-125558990D01*
X183027599Y-125501400D01*
X182732401Y-125501400D01*
X182442875Y-125558990D01*
X182170147Y-125671958D01*
X181924698Y-125835961D01*
X181715961Y-126044698D01*
X181551958Y-126290147D01*
X181438990Y-126562875D01*
X181381400Y-126852401D01*
X179301672Y-126852401D01*
X179301672Y-126136400D01*
X179289412Y-126011918D01*
X179253102Y-125892220D01*
X179194137Y-125781906D01*
X179114785Y-125685215D01*
X179018094Y-125605863D01*
X178907780Y-125546898D01*
X178788082Y-125510588D01*
X178663600Y-125498328D01*
X176936400Y-125498328D01*
X176811918Y-125510588D01*
X176692220Y-125546898D01*
X176581906Y-125605863D01*
X176485215Y-125685215D01*
X176405863Y-125781906D01*
X176346898Y-125892220D01*
X176310588Y-126011918D01*
X176298328Y-126136400D01*
X161245313Y-126136400D01*
X161184039Y-126044698D01*
X161069977Y-125930636D01*
X161127780Y-125913102D01*
X161238094Y-125854137D01*
X161334785Y-125774785D01*
X161414137Y-125678094D01*
X161473102Y-125567780D01*
X161509412Y-125448082D01*
X161521672Y-125323600D01*
X161521672Y-123596400D01*
X161509412Y-123471918D01*
X161473102Y-123352220D01*
X161414137Y-123241906D01*
X161334785Y-123145215D01*
X161238094Y-123065863D01*
X161127780Y-123006898D01*
X161008082Y-122970588D01*
X160883600Y-122958328D01*
X159156400Y-122958328D01*
X159031918Y-122970588D01*
X158912220Y-123006898D01*
X158801906Y-123065863D01*
X158705215Y-123145215D01*
X158625863Y-123241906D01*
X158566898Y-123352220D01*
X158549364Y-123410023D01*
X158435302Y-123295961D01*
X158189853Y-123131958D01*
X157917125Y-123018990D01*
X157627599Y-122961400D01*
X157332401Y-122961400D01*
X157042875Y-123018990D01*
X156770147Y-123131958D01*
X156524698Y-123295961D01*
X156315961Y-123504698D01*
X156151958Y-123750147D01*
X156038990Y-124022875D01*
X155981400Y-124312401D01*
X155981400Y-124607599D01*
X156038990Y-124897125D01*
X156151958Y-125169853D01*
X156315961Y-125415302D01*
X156524698Y-125624039D01*
X156683281Y-125730000D01*
X156524698Y-125835961D01*
X156315961Y-126044698D01*
X156210000Y-126203281D01*
X156104039Y-126044698D01*
X155895302Y-125835961D01*
X155649853Y-125671958D01*
X155377125Y-125558990D01*
X155087599Y-125501400D01*
X154792401Y-125501400D01*
X154502875Y-125558990D01*
X154230147Y-125671958D01*
X153984698Y-125835961D01*
X153775961Y-126044698D01*
X153670000Y-126203281D01*
X153564039Y-126044698D01*
X153355302Y-125835961D01*
X153196719Y-125730000D01*
X153355302Y-125624039D01*
X153564039Y-125415302D01*
X153728042Y-125169853D01*
X153841010Y-124897125D01*
X153898600Y-124607599D01*
X153898600Y-124312401D01*
X153841010Y-124022875D01*
X153728042Y-123750147D01*
X153564039Y-123504698D01*
X153355302Y-123295961D01*
X153109853Y-123131958D01*
X152837125Y-123018990D01*
X152547599Y-122961400D01*
X152252401Y-122961400D01*
X151962875Y-123018990D01*
X151690147Y-123131958D01*
X151444698Y-123295961D01*
X151235961Y-123504698D01*
X151130000Y-123663281D01*
X151024039Y-123504698D01*
X150815302Y-123295961D01*
X150569853Y-123131958D01*
X150297125Y-123018990D01*
X150007599Y-122961400D01*
X149712401Y-122961400D01*
X149422875Y-123018990D01*
X149150147Y-123131958D01*
X148904698Y-123295961D01*
X148695961Y-123504698D01*
X148531958Y-123750147D01*
X148418990Y-124022875D01*
X148361400Y-124312401D01*
X122151672Y-124312401D01*
X122151672Y-123596400D01*
X122139412Y-123471918D01*
X122103102Y-123352220D01*
X122044137Y-123241906D01*
X121964785Y-123145215D01*
X121868094Y-123065863D01*
X121757780Y-123006898D01*
X121638082Y-122970588D01*
X121513600Y-122958328D01*
X119786400Y-122958328D01*
X119661918Y-122970588D01*
X119542220Y-123006898D01*
X119431906Y-123065863D01*
X119335215Y-123145215D01*
X119255863Y-123241906D01*
X119196898Y-123352220D01*
X119179364Y-123410023D01*
X119065302Y-123295961D01*
X118819853Y-123131958D01*
X118547125Y-123018990D01*
X118257599Y-122961400D01*
X117962401Y-122961400D01*
X117672875Y-123018990D01*
X117400147Y-123131958D01*
X117154698Y-123295961D01*
X116945961Y-123504698D01*
X116840000Y-123663281D01*
X116734039Y-123504698D01*
X116525302Y-123295961D01*
X116279853Y-123131958D01*
X116007125Y-123018990D01*
X115717599Y-122961400D01*
X115422401Y-122961400D01*
X115132875Y-123018990D01*
X114860147Y-123131958D01*
X114614698Y-123295961D01*
X114405961Y-123504698D01*
X114300000Y-123663281D01*
X114194039Y-123504698D01*
X113985302Y-123295961D01*
X113739853Y-123131958D01*
X113467125Y-123018990D01*
X113177599Y-122961400D01*
X112882401Y-122961400D01*
X112592875Y-123018990D01*
X112320147Y-123131958D01*
X112074698Y-123295961D01*
X111865961Y-123504698D01*
X111701958Y-123750147D01*
X111588990Y-124022875D01*
X111531400Y-124312401D01*
X97180000Y-124312401D01*
X97180000Y-116721000D01*
X142435428Y-116721000D01*
X142435428Y-117721000D01*
X142447688Y-117845482D01*
X142483998Y-117965180D01*
X142542963Y-118075494D01*
X142622315Y-118172185D01*
X142719006Y-118251537D01*
X142829320Y-118310502D01*
X142949018Y-118346812D01*
X143073500Y-118359072D01*
X144073500Y-118359072D01*
X144197982Y-118346812D01*
X144317680Y-118310502D01*
X144400726Y-118266112D01*
X144512433Y-118312383D01*
X144731712Y-118356000D01*
X144955288Y-118356000D01*
X145174567Y-118312383D01*
X145381124Y-118226824D01*
X145478500Y-118161759D01*
X145575876Y-118226824D01*
X145782433Y-118312383D01*
X146001712Y-118356000D01*
X146225288Y-118356000D01*
X146444567Y-118312383D01*
X146651124Y-118226824D01*
X146837020Y-118102612D01*
X146995112Y-117944520D01*
X147119324Y-117758624D01*
X147204883Y-117552067D01*
X147248500Y-117332788D01*
X147248500Y-117109212D01*
X147204883Y-116889933D01*
X147119324Y-116683376D01*
X146995112Y-116497480D01*
X146837020Y-116339388D01*
X146651124Y-116215176D01*
X146444567Y-116129617D01*
X146225288Y-116086000D01*
X146001712Y-116086000D01*
X145782433Y-116129617D01*
X145575876Y-116215176D01*
X145478500Y-116280241D01*
X145381124Y-116215176D01*
X145174567Y-116129617D01*
X144955288Y-116086000D01*
X144731712Y-116086000D01*
X144512433Y-116129617D01*
X144400726Y-116175888D01*
X144317680Y-116131498D01*
X144197982Y-116095188D01*
X144073500Y-116082928D01*
X143073500Y-116082928D01*
X142949018Y-116095188D01*
X142829320Y-116131498D01*
X142719006Y-116190463D01*
X142622315Y-116269815D01*
X142542963Y-116366506D01*
X142483998Y-116476820D01*
X142447688Y-116596518D01*
X142435428Y-116721000D01*
X97180000Y-116721000D01*
X97180000Y-110915760D01*
X132134000Y-110915760D01*
X132134000Y-111080240D01*
X132166089Y-111241560D01*
X132229033Y-111393521D01*
X132320413Y-111530281D01*
X132436719Y-111646587D01*
X132573479Y-111737967D01*
X132725440Y-111800911D01*
X132886760Y-111833000D01*
X132954781Y-111833000D01*
X132928089Y-111897440D01*
X132896000Y-112058760D01*
X132896000Y-112223240D01*
X132928089Y-112384560D01*
X132991033Y-112536521D01*
X133082413Y-112673281D01*
X133198719Y-112789587D01*
X133335479Y-112880967D01*
X133487440Y-112943911D01*
X133648760Y-112976000D01*
X133813240Y-112976000D01*
X133974560Y-112943911D01*
X134017801Y-112926000D01*
X137254199Y-112926000D01*
X137297440Y-112943911D01*
X137458760Y-112976000D01*
X137623240Y-112976000D01*
X137784560Y-112943911D01*
X137936521Y-112880967D01*
X138073281Y-112789587D01*
X138105608Y-112757260D01*
X146929500Y-112757260D01*
X146929500Y-112921740D01*
X146961589Y-113083060D01*
X146979501Y-113126303D01*
X146979500Y-113822698D01*
X146961589Y-113865940D01*
X146929500Y-114027260D01*
X146929500Y-114191740D01*
X146961589Y-114353060D01*
X147024533Y-114505021D01*
X147115913Y-114641781D01*
X147232219Y-114758087D01*
X147368979Y-114849467D01*
X147520940Y-114912411D01*
X147682260Y-114944500D01*
X147846740Y-114944500D01*
X148008060Y-114912411D01*
X148160021Y-114849467D01*
X148296781Y-114758087D01*
X148413087Y-114641781D01*
X148504467Y-114505021D01*
X148567411Y-114353060D01*
X148599500Y-114191740D01*
X148599500Y-114027260D01*
X148567411Y-113865940D01*
X148549500Y-113822699D01*
X148549500Y-113126301D01*
X148567411Y-113083060D01*
X148599500Y-112921740D01*
X148599500Y-112757260D01*
X148567411Y-112595940D01*
X148504467Y-112443979D01*
X148413087Y-112307219D01*
X148296781Y-112190913D01*
X148160021Y-112099533D01*
X148008060Y-112036589D01*
X147846740Y-112004500D01*
X147682260Y-112004500D01*
X147520940Y-112036589D01*
X147368979Y-112099533D01*
X147232219Y-112190913D01*
X147115913Y-112307219D01*
X147024533Y-112443979D01*
X146961589Y-112595940D01*
X146929500Y-112757260D01*
X138105608Y-112757260D01*
X138189587Y-112673281D01*
X138280967Y-112536521D01*
X138343911Y-112384560D01*
X138376000Y-112223240D01*
X138376000Y-112058760D01*
X138343911Y-111897440D01*
X138280967Y-111745479D01*
X138189587Y-111608719D01*
X138150368Y-111569500D01*
X138189587Y-111530281D01*
X138280967Y-111393521D01*
X138343911Y-111241560D01*
X138376000Y-111080240D01*
X138376000Y-110915760D01*
X138343911Y-110754440D01*
X138280967Y-110602479D01*
X138189587Y-110465719D01*
X138073281Y-110349413D01*
X137936521Y-110258033D01*
X137784560Y-110195089D01*
X137623240Y-110163000D01*
X137458760Y-110163000D01*
X137297440Y-110195089D01*
X137254199Y-110213000D01*
X133255801Y-110213000D01*
X133212560Y-110195089D01*
X133051240Y-110163000D01*
X132886760Y-110163000D01*
X132725440Y-110195089D01*
X132573479Y-110258033D01*
X132436719Y-110349413D01*
X132320413Y-110465719D01*
X132229033Y-110602479D01*
X132166089Y-110754440D01*
X132134000Y-110915760D01*
X97180000Y-110915760D01*
X97180000Y-101498061D01*
X173590000Y-101498061D01*
X173590000Y-101701939D01*
X173629774Y-101901898D01*
X173707795Y-102090256D01*
X173821063Y-102259774D01*
X173965226Y-102403937D01*
X174134744Y-102517205D01*
X174323102Y-102595226D01*
X174523061Y-102635000D01*
X174726939Y-102635000D01*
X174926898Y-102595226D01*
X175072295Y-102535000D01*
X183067705Y-102535000D01*
X183213102Y-102595226D01*
X183413061Y-102635000D01*
X183616939Y-102635000D01*
X183816898Y-102595226D01*
X184005256Y-102517205D01*
X184174774Y-102403937D01*
X184318937Y-102259774D01*
X184432205Y-102090256D01*
X184510226Y-101901898D01*
X184550000Y-101701939D01*
X184550000Y-101498061D01*
X184510226Y-101298102D01*
X184432205Y-101109744D01*
X184318937Y-100940226D01*
X184174774Y-100796063D01*
X184005256Y-100682795D01*
X183816898Y-100604774D01*
X183616939Y-100565000D01*
X183413061Y-100565000D01*
X183213102Y-100604774D01*
X183067705Y-100665000D01*
X175072295Y-100665000D01*
X174926898Y-100604774D01*
X174726939Y-100565000D01*
X174523061Y-100565000D01*
X174323102Y-100604774D01*
X174134744Y-100682795D01*
X173965226Y-100796063D01*
X173821063Y-100940226D01*
X173707795Y-101109744D01*
X173629774Y-101298102D01*
X173590000Y-101498061D01*
X97180000Y-101498061D01*
X97180000Y-95289000D01*
X104683928Y-95289000D01*
X104683928Y-96989000D01*
X104696188Y-97113482D01*
X104732498Y-97233180D01*
X104791463Y-97343494D01*
X104870815Y-97440185D01*
X104967506Y-97519537D01*
X105077820Y-97578502D01*
X105197518Y-97614812D01*
X105322000Y-97627072D01*
X107022000Y-97627072D01*
X107146482Y-97614812D01*
X107266180Y-97578502D01*
X107376494Y-97519537D01*
X107473185Y-97440185D01*
X107552537Y-97343494D01*
X107611502Y-97233180D01*
X107633513Y-97160620D01*
X107765368Y-97292475D01*
X108008589Y-97454990D01*
X108278842Y-97566932D01*
X108565740Y-97624000D01*
X108858260Y-97624000D01*
X109145158Y-97566932D01*
X109415411Y-97454990D01*
X109658632Y-97292475D01*
X109865475Y-97085632D01*
X110027990Y-96842411D01*
X110139932Y-96572158D01*
X110197000Y-96285260D01*
X110197000Y-95992740D01*
X110139932Y-95705842D01*
X110027990Y-95435589D01*
X109865475Y-95192368D01*
X109658632Y-94985525D01*
X109415411Y-94823010D01*
X109145158Y-94711068D01*
X108858260Y-94654000D01*
X108565740Y-94654000D01*
X108278842Y-94711068D01*
X108008589Y-94823010D01*
X107765368Y-94985525D01*
X107633513Y-95117380D01*
X107611502Y-95044820D01*
X107552537Y-94934506D01*
X107473185Y-94837815D01*
X107376494Y-94758463D01*
X107266180Y-94699498D01*
X107146482Y-94663188D01*
X107022000Y-94650928D01*
X105322000Y-94650928D01*
X105197518Y-94663188D01*
X105077820Y-94699498D01*
X104967506Y-94758463D01*
X104870815Y-94837815D01*
X104791463Y-94934506D01*
X104732498Y-95044820D01*
X104696188Y-95164518D01*
X104683928Y-95289000D01*
X97180000Y-95289000D01*
X97180000Y-94640061D01*
X153905000Y-94640061D01*
X153905000Y-94843939D01*
X153944774Y-95043898D01*
X154022795Y-95232256D01*
X154136063Y-95401774D01*
X154280226Y-95545937D01*
X154449744Y-95659205D01*
X154638102Y-95737226D01*
X154838061Y-95777000D01*
X155041939Y-95777000D01*
X155241898Y-95737226D01*
X155387295Y-95677000D01*
X157540705Y-95677000D01*
X157686102Y-95737226D01*
X157886061Y-95777000D01*
X158089939Y-95777000D01*
X158289898Y-95737226D01*
X158478256Y-95659205D01*
X158647774Y-95545937D01*
X158791937Y-95401774D01*
X158905205Y-95232256D01*
X158983226Y-95043898D01*
X159023000Y-94843939D01*
X159023000Y-94640061D01*
X158983226Y-94440102D01*
X158905205Y-94251744D01*
X158791937Y-94082226D01*
X158647774Y-93938063D01*
X158478256Y-93824795D01*
X158289898Y-93746774D01*
X158089939Y-93707000D01*
X157886061Y-93707000D01*
X157686102Y-93746774D01*
X157540705Y-93807000D01*
X155387295Y-93807000D01*
X155241898Y-93746774D01*
X155041939Y-93707000D01*
X154838061Y-93707000D01*
X154638102Y-93746774D01*
X154449744Y-93824795D01*
X154280226Y-93938063D01*
X154136063Y-94082226D01*
X154022795Y-94251744D01*
X153944774Y-94440102D01*
X153905000Y-94640061D01*
X97180000Y-94640061D01*
X97180000Y-92043560D01*
X110188400Y-92043560D01*
X110188400Y-92208040D01*
X110220489Y-92369360D01*
X110283433Y-92521321D01*
X110374813Y-92658081D01*
X110491119Y-92774387D01*
X110627879Y-92865767D01*
X110779840Y-92928711D01*
X110941160Y-92960800D01*
X111105640Y-92960800D01*
X111266960Y-92928711D01*
X111310201Y-92910800D01*
X117340599Y-92910800D01*
X117383840Y-92928711D01*
X117545160Y-92960800D01*
X117709640Y-92960800D01*
X117870960Y-92928711D01*
X118022921Y-92865767D01*
X118159681Y-92774387D01*
X118275987Y-92658081D01*
X118367367Y-92521321D01*
X118430311Y-92369360D01*
X118462400Y-92208040D01*
X118462400Y-92043560D01*
X118430311Y-91882240D01*
X118367367Y-91730279D01*
X118275987Y-91593519D01*
X118159681Y-91477213D01*
X118022921Y-91385833D01*
X117870960Y-91322889D01*
X117709640Y-91290800D01*
X117545160Y-91290800D01*
X117383840Y-91322889D01*
X117340599Y-91340800D01*
X111310201Y-91340800D01*
X111266960Y-91322889D01*
X111105640Y-91290800D01*
X110941160Y-91290800D01*
X110779840Y-91322889D01*
X110627879Y-91385833D01*
X110491119Y-91477213D01*
X110374813Y-91593519D01*
X110283433Y-91730279D01*
X110220489Y-91882240D01*
X110188400Y-92043560D01*
X97180000Y-92043560D01*
X97180000Y-88563760D01*
X105845000Y-88563760D01*
X105845000Y-88728240D01*
X105877089Y-88889560D01*
X105940033Y-89041521D01*
X106031413Y-89178281D01*
X106147719Y-89294587D01*
X106284479Y-89385967D01*
X106436440Y-89448911D01*
X106597760Y-89481000D01*
X106762240Y-89481000D01*
X106923560Y-89448911D01*
X106966801Y-89431000D01*
X108793821Y-89431000D01*
X108734033Y-89520479D01*
X108671089Y-89672440D01*
X108639000Y-89833760D01*
X108639000Y-89998240D01*
X108671089Y-90159560D01*
X108734033Y-90311521D01*
X108825413Y-90448281D01*
X108941719Y-90564587D01*
X109078479Y-90655967D01*
X109230440Y-90718911D01*
X109391760Y-90751000D01*
X109556240Y-90751000D01*
X109717560Y-90718911D01*
X109760801Y-90701000D01*
X122737843Y-90701000D01*
X124845122Y-92808280D01*
X124863033Y-92851521D01*
X124954413Y-92988281D01*
X125070719Y-93104587D01*
X125207479Y-93195967D01*
X125359440Y-93258911D01*
X125520760Y-93291000D01*
X125685240Y-93291000D01*
X125846560Y-93258911D01*
X125998521Y-93195967D01*
X126135281Y-93104587D01*
X126251587Y-92988281D01*
X126342967Y-92851521D01*
X126405911Y-92699560D01*
X126438000Y-92538240D01*
X126438000Y-92373760D01*
X126405911Y-92212440D01*
X126367522Y-92119760D01*
X136324988Y-92119760D01*
X136324988Y-92284240D01*
X136357077Y-92445560D01*
X136420021Y-92597521D01*
X136511401Y-92734281D01*
X136627707Y-92850587D01*
X136764467Y-92941967D01*
X136916428Y-93004911D01*
X137077748Y-93037000D01*
X137242228Y-93037000D01*
X137403548Y-93004911D01*
X137446789Y-92987000D01*
X144302699Y-92987000D01*
X144345940Y-93004911D01*
X144507260Y-93037000D01*
X144671740Y-93037000D01*
X144833060Y-93004911D01*
X144985021Y-92941967D01*
X145121781Y-92850587D01*
X145238087Y-92734281D01*
X145329467Y-92597521D01*
X145392411Y-92445560D01*
X145424500Y-92284240D01*
X145424500Y-92119760D01*
X145392411Y-91958440D01*
X145329467Y-91806479D01*
X145238087Y-91669719D01*
X145121781Y-91553413D01*
X144985021Y-91462033D01*
X144833060Y-91399089D01*
X144671740Y-91367000D01*
X144507260Y-91367000D01*
X144345940Y-91399089D01*
X144302699Y-91417000D01*
X137446789Y-91417000D01*
X137403548Y-91399089D01*
X137242228Y-91367000D01*
X137077748Y-91367000D01*
X136916428Y-91399089D01*
X136764467Y-91462033D01*
X136627707Y-91553413D01*
X136511401Y-91669719D01*
X136420021Y-91806479D01*
X136357077Y-91958440D01*
X136324988Y-92119760D01*
X126367522Y-92119760D01*
X126342967Y-92060479D01*
X126251587Y-91923719D01*
X126135281Y-91807413D01*
X125998521Y-91716033D01*
X125955280Y-91698122D01*
X123645347Y-89388190D01*
X123620764Y-89358236D01*
X123501233Y-89260138D01*
X123364860Y-89187246D01*
X123216887Y-89142359D01*
X123101561Y-89131000D01*
X123101553Y-89131000D01*
X123063000Y-89127203D01*
X123024447Y-89131000D01*
X119679179Y-89131000D01*
X119738967Y-89041521D01*
X119797586Y-88900000D01*
X161620476Y-88900000D01*
X161638529Y-89083292D01*
X161691993Y-89259540D01*
X161778814Y-89421972D01*
X161895656Y-89564344D01*
X162038028Y-89681186D01*
X162200460Y-89768007D01*
X162376708Y-89821471D01*
X162514068Y-89835000D01*
X167685932Y-89835000D01*
X167823292Y-89821471D01*
X167999540Y-89768007D01*
X168161972Y-89681186D01*
X168304344Y-89564344D01*
X168412085Y-89433061D01*
X173590000Y-89433061D01*
X173590000Y-89636939D01*
X173629774Y-89836898D01*
X173690000Y-89982296D01*
X173690001Y-96580702D01*
X173629774Y-96726102D01*
X173590000Y-96926061D01*
X173590000Y-97129939D01*
X173629774Y-97329898D01*
X173707795Y-97518256D01*
X173821063Y-97687774D01*
X173965226Y-97831937D01*
X174134744Y-97945205D01*
X174323102Y-98023226D01*
X174523061Y-98063000D01*
X174726939Y-98063000D01*
X174926898Y-98023226D01*
X175115256Y-97945205D01*
X175284774Y-97831937D01*
X175428937Y-97687774D01*
X175542205Y-97518256D01*
X175620226Y-97329898D01*
X175660000Y-97129939D01*
X175660000Y-96926061D01*
X175620226Y-96726102D01*
X175560000Y-96580705D01*
X175560000Y-95910061D01*
X181845000Y-95910061D01*
X181845000Y-96113939D01*
X181884774Y-96313898D01*
X181962795Y-96502256D01*
X182076063Y-96671774D01*
X182220226Y-96815937D01*
X182389744Y-96929205D01*
X182578102Y-97007226D01*
X182778061Y-97047000D01*
X182981939Y-97047000D01*
X183181898Y-97007226D01*
X183327295Y-96947000D01*
X184984597Y-96947000D01*
X185010799Y-97010256D01*
X185124067Y-97179774D01*
X185268230Y-97323937D01*
X185437748Y-97437205D01*
X185626106Y-97515226D01*
X185826065Y-97555000D01*
X186029943Y-97555000D01*
X186229902Y-97515226D01*
X186418260Y-97437205D01*
X186587778Y-97323937D01*
X186731941Y-97179774D01*
X186845209Y-97010256D01*
X186923230Y-96821898D01*
X186963004Y-96621939D01*
X186963004Y-96418061D01*
X186923230Y-96218102D01*
X186845209Y-96029744D01*
X186731941Y-95860226D01*
X186587778Y-95716063D01*
X186418260Y-95602795D01*
X186272862Y-95542569D01*
X186113634Y-95383341D01*
X186084348Y-95347656D01*
X185941976Y-95230814D01*
X185779544Y-95143993D01*
X185603296Y-95090529D01*
X185465936Y-95077000D01*
X185420004Y-95072476D01*
X185374072Y-95077000D01*
X183327295Y-95077000D01*
X183181898Y-95016774D01*
X182981939Y-94977000D01*
X182778061Y-94977000D01*
X182578102Y-95016774D01*
X182389744Y-95094795D01*
X182220226Y-95208063D01*
X182076063Y-95352226D01*
X181962795Y-95521744D01*
X181884774Y-95710102D01*
X181845000Y-95910061D01*
X175560000Y-95910061D01*
X175560000Y-89982295D01*
X175620226Y-89836898D01*
X175660000Y-89636939D01*
X175660000Y-89433061D01*
X175620226Y-89233102D01*
X175542205Y-89044744D01*
X175428937Y-88875226D01*
X175284774Y-88731063D01*
X175115256Y-88617795D01*
X174926898Y-88539774D01*
X174726939Y-88500000D01*
X174523061Y-88500000D01*
X174323102Y-88539774D01*
X174134744Y-88617795D01*
X173965226Y-88731063D01*
X173821063Y-88875226D01*
X173707795Y-89044744D01*
X173629774Y-89233102D01*
X173590000Y-89433061D01*
X168412085Y-89433061D01*
X168421186Y-89421972D01*
X168508007Y-89259540D01*
X168561471Y-89083292D01*
X168579524Y-88900000D01*
X168561471Y-88716708D01*
X168508007Y-88540460D01*
X168421186Y-88378028D01*
X168304344Y-88235656D01*
X168161972Y-88118814D01*
X167999540Y-88031993D01*
X167823292Y-87978529D01*
X167685932Y-87965000D01*
X162514068Y-87965000D01*
X162376708Y-87978529D01*
X162200460Y-88031993D01*
X162038028Y-88118814D01*
X161895656Y-88235656D01*
X161778814Y-88378028D01*
X161691993Y-88540460D01*
X161638529Y-88716708D01*
X161620476Y-88900000D01*
X119797586Y-88900000D01*
X119801911Y-88889560D01*
X119834000Y-88728240D01*
X119834000Y-88563760D01*
X119801911Y-88402440D01*
X119738967Y-88250479D01*
X119647587Y-88113719D01*
X119531281Y-87997413D01*
X119394521Y-87906033D01*
X119242560Y-87843089D01*
X119081240Y-87811000D01*
X118916760Y-87811000D01*
X118755440Y-87843089D01*
X118712199Y-87861000D01*
X106966801Y-87861000D01*
X106923560Y-87843089D01*
X106762240Y-87811000D01*
X106597760Y-87811000D01*
X106436440Y-87843089D01*
X106284479Y-87906033D01*
X106147719Y-87997413D01*
X106031413Y-88113719D01*
X105940033Y-88250479D01*
X105877089Y-88402440D01*
X105845000Y-88563760D01*
X97180000Y-88563760D01*
X97180000Y-72396140D01*
X105195000Y-72396140D01*
X105195000Y-72688660D01*
X105252068Y-72975558D01*
X105364010Y-73245811D01*
X105526525Y-73489032D01*
X105733368Y-73695875D01*
X105976589Y-73858390D01*
X106246842Y-73970332D01*
X106533740Y-74027400D01*
X106826260Y-74027400D01*
X107113158Y-73970332D01*
X107383411Y-73858390D01*
X107626632Y-73695875D01*
X107833475Y-73489032D01*
X107950000Y-73314640D01*
X108066525Y-73489032D01*
X108273368Y-73695875D01*
X108516589Y-73858390D01*
X108786842Y-73970332D01*
X109073740Y-74027400D01*
X109366260Y-74027400D01*
X109653158Y-73970332D01*
X109923411Y-73858390D01*
X110166632Y-73695875D01*
X110373475Y-73489032D01*
X110490000Y-73314640D01*
X110606525Y-73489032D01*
X110813368Y-73695875D01*
X111056589Y-73858390D01*
X111326842Y-73970332D01*
X111613740Y-74027400D01*
X111906260Y-74027400D01*
X112193158Y-73970332D01*
X112463411Y-73858390D01*
X112706632Y-73695875D01*
X112913475Y-73489032D01*
X113075990Y-73245811D01*
X113187932Y-72975558D01*
X113245000Y-72688660D01*
X113245000Y-72396140D01*
X115355000Y-72396140D01*
X115355000Y-72688660D01*
X115412068Y-72975558D01*
X115524010Y-73245811D01*
X115686525Y-73489032D01*
X115893368Y-73695875D01*
X116136589Y-73858390D01*
X116406842Y-73970332D01*
X116693740Y-74027400D01*
X116986260Y-74027400D01*
X117273158Y-73970332D01*
X117543411Y-73858390D01*
X117786632Y-73695875D01*
X117918487Y-73564020D01*
X117940498Y-73636580D01*
X117999463Y-73746894D01*
X118078815Y-73843585D01*
X118175506Y-73922937D01*
X118285820Y-73981902D01*
X118405518Y-74018212D01*
X118530000Y-74030472D01*
X120230000Y-74030472D01*
X120354482Y-74018212D01*
X120474180Y-73981902D01*
X120584494Y-73922937D01*
X120681185Y-73843585D01*
X120760537Y-73746894D01*
X120819502Y-73636580D01*
X120855812Y-73516882D01*
X120868072Y-73392400D01*
X120868072Y-71692400D01*
X120855812Y-71567918D01*
X120819502Y-71448220D01*
X120760537Y-71337906D01*
X120681185Y-71241215D01*
X120584494Y-71161863D01*
X120474180Y-71102898D01*
X120354482Y-71066588D01*
X120230000Y-71054328D01*
X118530000Y-71054328D01*
X118405518Y-71066588D01*
X118285820Y-71102898D01*
X118175506Y-71161863D01*
X118078815Y-71241215D01*
X117999463Y-71337906D01*
X117940498Y-71448220D01*
X117918487Y-71520780D01*
X117786632Y-71388925D01*
X117543411Y-71226410D01*
X117273158Y-71114468D01*
X116986260Y-71057400D01*
X116693740Y-71057400D01*
X116406842Y-71114468D01*
X116136589Y-71226410D01*
X115893368Y-71388925D01*
X115686525Y-71595768D01*
X115524010Y-71838989D01*
X115412068Y-72109242D01*
X115355000Y-72396140D01*
X113245000Y-72396140D01*
X113187932Y-72109242D01*
X113075990Y-71838989D01*
X112913475Y-71595768D01*
X112706632Y-71388925D01*
X112463411Y-71226410D01*
X112193158Y-71114468D01*
X111906260Y-71057400D01*
X111613740Y-71057400D01*
X111326842Y-71114468D01*
X111056589Y-71226410D01*
X110813368Y-71388925D01*
X110606525Y-71595768D01*
X110490000Y-71770160D01*
X110373475Y-71595768D01*
X110166632Y-71388925D01*
X109923411Y-71226410D01*
X109653158Y-71114468D01*
X109366260Y-71057400D01*
X109073740Y-71057400D01*
X108786842Y-71114468D01*
X108516589Y-71226410D01*
X108273368Y-71388925D01*
X108066525Y-71595768D01*
X107950000Y-71770160D01*
X107833475Y-71595768D01*
X107626632Y-71388925D01*
X107383411Y-71226410D01*
X107113158Y-71114468D01*
X106826260Y-71057400D01*
X106533740Y-71057400D01*
X106246842Y-71114468D01*
X105976589Y-71226410D01*
X105733368Y-71388925D01*
X105526525Y-71595768D01*
X105364010Y-71838989D01*
X105252068Y-72109242D01*
X105195000Y-72396140D01*
X97180000Y-72396140D01*
X97180000Y-62915461D01*
X114535000Y-62915461D01*
X114535000Y-63119339D01*
X114574774Y-63319298D01*
X114610000Y-63404341D01*
X114610001Y-64875238D01*
X114605356Y-64922400D01*
X114623891Y-65110592D01*
X114678784Y-65291553D01*
X114767927Y-65458328D01*
X114857829Y-65567873D01*
X114887894Y-65604507D01*
X114924526Y-65634570D01*
X115887569Y-66597614D01*
X115922795Y-66682656D01*
X116036063Y-66852174D01*
X116180226Y-66996337D01*
X116349744Y-67109605D01*
X116538102Y-67187626D01*
X116738061Y-67227400D01*
X116941939Y-67227400D01*
X117141898Y-67187626D01*
X117330256Y-67109605D01*
X117499774Y-66996337D01*
X117643937Y-66852174D01*
X117757205Y-66682656D01*
X117835226Y-66494298D01*
X117875000Y-66294339D01*
X117875000Y-66090461D01*
X117835226Y-65890502D01*
X117757205Y-65702144D01*
X117643937Y-65532626D01*
X117499774Y-65388463D01*
X117330256Y-65275195D01*
X117245214Y-65239969D01*
X116530000Y-64524756D01*
X116530000Y-63404340D01*
X116565226Y-63319298D01*
X116605000Y-63119339D01*
X116605000Y-62915461D01*
X116565226Y-62715502D01*
X116487205Y-62527144D01*
X116373937Y-62357626D01*
X116229774Y-62213463D01*
X116060256Y-62100195D01*
X115871898Y-62022174D01*
X115671939Y-61982400D01*
X115468061Y-61982400D01*
X115268102Y-62022174D01*
X115079744Y-62100195D01*
X114910226Y-62213463D01*
X114766063Y-62357626D01*
X114652795Y-62527144D01*
X114574774Y-62715502D01*
X114535000Y-62915461D01*
X97180000Y-62915461D01*
X97180000Y-55650000D01*
X185186928Y-55650000D01*
X185186928Y-58650000D01*
X185199188Y-58774482D01*
X185235498Y-58894180D01*
X185294463Y-59004494D01*
X185373815Y-59101185D01*
X185470506Y-59180537D01*
X185580820Y-59239502D01*
X185700518Y-59275812D01*
X185825000Y-59288072D01*
X188825000Y-59288072D01*
X188949482Y-59275812D01*
X189069180Y-59239502D01*
X189179494Y-59180537D01*
X189276185Y-59101185D01*
X189355537Y-59004494D01*
X189414502Y-58894180D01*
X189450812Y-58774482D01*
X189463072Y-58650000D01*
X189463072Y-55650000D01*
X189450812Y-55525518D01*
X189414502Y-55405820D01*
X189355537Y-55295506D01*
X189276185Y-55198815D01*
X189179494Y-55119463D01*
X189069180Y-55060498D01*
X188949482Y-55024188D01*
X188825000Y-55011928D01*
X185825000Y-55011928D01*
X185700518Y-55024188D01*
X185580820Y-55060498D01*
X185470506Y-55119463D01*
X185373815Y-55198815D01*
X185294463Y-55295506D01*
X185235498Y-55405820D01*
X185199188Y-55525518D01*
X185186928Y-55650000D01*
X97180000Y-55650000D01*
X97180000Y-48089117D01*
X99865000Y-48089117D01*
X99865000Y-48430883D01*
X99931675Y-48766081D01*
X100062463Y-49081831D01*
X100252337Y-49365998D01*
X100494002Y-49607663D01*
X100778169Y-49797537D01*
X101093919Y-49928325D01*
X101429117Y-49995000D01*
X101770883Y-49995000D01*
X102106081Y-49928325D01*
X102421831Y-49797537D01*
X102705998Y-49607663D01*
X102947663Y-49365998D01*
X103137537Y-49081831D01*
X103268325Y-48766081D01*
X103335000Y-48430883D01*
X103335000Y-48089117D01*
X198925000Y-48089117D01*
X198925000Y-48430883D01*
X198991675Y-48766081D01*
X199122463Y-49081831D01*
X199312337Y-49365998D01*
X199554002Y-49607663D01*
X199838169Y-49797537D01*
X200153919Y-49928325D01*
X200489117Y-49995000D01*
X200830883Y-49995000D01*
X201166081Y-49928325D01*
X201481831Y-49797537D01*
X201765998Y-49607663D01*
X202007663Y-49365998D01*
X202197537Y-49081831D01*
X202328325Y-48766081D01*
X202395000Y-48430883D01*
X202395000Y-48089117D01*
X202328325Y-47753919D01*
X202197537Y-47438169D01*
X202007663Y-47154002D01*
X201765998Y-46912337D01*
X201481831Y-46722463D01*
X201166081Y-46591675D01*
X200830883Y-46525000D01*
X200489117Y-46525000D01*
X200153919Y-46591675D01*
X199838169Y-46722463D01*
X199554002Y-46912337D01*
X199312337Y-47154002D01*
X199122463Y-47438169D01*
X198991675Y-47753919D01*
X198925000Y-48089117D01*
X103335000Y-48089117D01*
X103268325Y-47753919D01*
X103137537Y-47438169D01*
X102947663Y-47154002D01*
X102705998Y-46912337D01*
X102421831Y-46722463D01*
X102106081Y-46591675D01*
X101770883Y-46525000D01*
X101429117Y-46525000D01*
X101093919Y-46591675D01*
X100778169Y-46722463D01*
X100494002Y-46912337D01*
X100252337Y-47154002D01*
X100062463Y-47438169D01*
X99931675Y-47753919D01*
X99865000Y-48089117D01*
X97180000Y-48089117D01*
X97180000Y-43840000D01*
X205080000Y-43840000D01*
X205080001Y-133960000D01*
G37*
X205080001Y-133960000D02*
X97180000Y-133960000D01*
X97180000Y-129369117D01*
X99865000Y-129369117D01*
X99865000Y-129710883D01*
X99931675Y-130046081D01*
X100062463Y-130361831D01*
X100252337Y-130645998D01*
X100494002Y-130887663D01*
X100778169Y-131077537D01*
X101093919Y-131208325D01*
X101429117Y-131275000D01*
X101770883Y-131275000D01*
X102106081Y-131208325D01*
X102421831Y-131077537D01*
X102705998Y-130887663D01*
X102947663Y-130645998D01*
X103137537Y-130361831D01*
X103268325Y-130046081D01*
X103335000Y-129710883D01*
X103335000Y-129369117D01*
X198925000Y-129369117D01*
X198925000Y-129710883D01*
X198991675Y-130046081D01*
X199122463Y-130361831D01*
X199312337Y-130645998D01*
X199554002Y-130887663D01*
X199838169Y-131077537D01*
X200153919Y-131208325D01*
X200489117Y-131275000D01*
X200830883Y-131275000D01*
X201166081Y-131208325D01*
X201481831Y-131077537D01*
X201765998Y-130887663D01*
X202007663Y-130645998D01*
X202197537Y-130361831D01*
X202328325Y-130046081D01*
X202395000Y-129710883D01*
X202395000Y-129369117D01*
X202328325Y-129033919D01*
X202197537Y-128718169D01*
X202007663Y-128434002D01*
X201765998Y-128192337D01*
X201481831Y-128002463D01*
X201166081Y-127871675D01*
X200830883Y-127805000D01*
X200489117Y-127805000D01*
X200153919Y-127871675D01*
X199838169Y-128002463D01*
X199554002Y-128192337D01*
X199312337Y-128434002D01*
X199122463Y-128718169D01*
X198991675Y-129033919D01*
X198925000Y-129369117D01*
X103335000Y-129369117D01*
X103268325Y-129033919D01*
X103137537Y-128718169D01*
X102947663Y-128434002D01*
X102705998Y-128192337D01*
X102421831Y-128002463D01*
X102106081Y-127871675D01*
X101770883Y-127805000D01*
X101429117Y-127805000D01*
X101093919Y-127871675D01*
X100778169Y-128002463D01*
X100494002Y-128192337D01*
X100252337Y-128434002D01*
X100062463Y-128718169D01*
X99931675Y-129033919D01*
X99865000Y-129369117D01*
X97180000Y-129369117D01*
X97180000Y-124312401D01*
X111531400Y-124312401D01*
X111531400Y-124607599D01*
X111588990Y-124897125D01*
X111701958Y-125169853D01*
X111865961Y-125415302D01*
X112074698Y-125624039D01*
X112233281Y-125730000D01*
X112074698Y-125835961D01*
X111865961Y-126044698D01*
X111701958Y-126290147D01*
X111588990Y-126562875D01*
X111531400Y-126852401D01*
X111531400Y-127147599D01*
X111588990Y-127437125D01*
X111701958Y-127709853D01*
X111865961Y-127955302D01*
X112074698Y-128164039D01*
X112320147Y-128328042D01*
X112592875Y-128441010D01*
X112882401Y-128498600D01*
X113177599Y-128498600D01*
X113467125Y-128441010D01*
X113739853Y-128328042D01*
X113985302Y-128164039D01*
X114194039Y-127955302D01*
X114300000Y-127796719D01*
X114405961Y-127955302D01*
X114614698Y-128164039D01*
X114860147Y-128328042D01*
X115132875Y-128441010D01*
X115422401Y-128498600D01*
X115717599Y-128498600D01*
X116007125Y-128441010D01*
X116279853Y-128328042D01*
X116525302Y-128164039D01*
X116734039Y-127955302D01*
X116840000Y-127796719D01*
X116945961Y-127955302D01*
X117154698Y-128164039D01*
X117400147Y-128328042D01*
X117672875Y-128441010D01*
X117962401Y-128498600D01*
X118257599Y-128498600D01*
X118547125Y-128441010D01*
X118819853Y-128328042D01*
X119065302Y-128164039D01*
X119274039Y-127955302D01*
X119438042Y-127709853D01*
X119551010Y-127437125D01*
X119608600Y-127147599D01*
X119608600Y-126852401D01*
X119551010Y-126562875D01*
X119438042Y-126290147D01*
X119274039Y-126044698D01*
X119065302Y-125835961D01*
X118906719Y-125730000D01*
X119065302Y-125624039D01*
X119179364Y-125509977D01*
X119196898Y-125567780D01*
X119255863Y-125678094D01*
X119335215Y-125774785D01*
X119431906Y-125854137D01*
X119542220Y-125913102D01*
X119661918Y-125949412D01*
X119786400Y-125961672D01*
X121513600Y-125961672D01*
X121638082Y-125949412D01*
X121757780Y-125913102D01*
X121868094Y-125854137D01*
X121964785Y-125774785D01*
X122044137Y-125678094D01*
X122103102Y-125567780D01*
X122139412Y-125448082D01*
X122151672Y-125323600D01*
X122151672Y-124312401D01*
X148361400Y-124312401D01*
X148361400Y-124607599D01*
X148418990Y-124897125D01*
X148531958Y-125169853D01*
X148695961Y-125415302D01*
X148904698Y-125624039D01*
X149063281Y-125730000D01*
X148904698Y-125835961D01*
X148695961Y-126044698D01*
X148531958Y-126290147D01*
X148418990Y-126562875D01*
X148361400Y-126852401D01*
X148361400Y-127147599D01*
X148418990Y-127437125D01*
X148531958Y-127709853D01*
X148695961Y-127955302D01*
X148904698Y-128164039D01*
X149150147Y-128328042D01*
X149422875Y-128441010D01*
X149712401Y-128498600D01*
X150007599Y-128498600D01*
X150297125Y-128441010D01*
X150569853Y-128328042D01*
X150815302Y-128164039D01*
X151024039Y-127955302D01*
X151130000Y-127796719D01*
X151235961Y-127955302D01*
X151444698Y-128164039D01*
X151690147Y-128328042D01*
X151962875Y-128441010D01*
X152252401Y-128498600D01*
X152547599Y-128498600D01*
X152837125Y-128441010D01*
X153109853Y-128328042D01*
X153355302Y-128164039D01*
X153564039Y-127955302D01*
X153670000Y-127796719D01*
X153775961Y-127955302D01*
X153984698Y-128164039D01*
X154230147Y-128328042D01*
X154502875Y-128441010D01*
X154792401Y-128498600D01*
X155087599Y-128498600D01*
X155377125Y-128441010D01*
X155649853Y-128328042D01*
X155895302Y-128164039D01*
X156104039Y-127955302D01*
X156210000Y-127796719D01*
X156315961Y-127955302D01*
X156524698Y-128164039D01*
X156770147Y-128328042D01*
X157042875Y-128441010D01*
X157332401Y-128498600D01*
X157627599Y-128498600D01*
X157917125Y-128441010D01*
X158189853Y-128328042D01*
X158435302Y-128164039D01*
X158644039Y-127955302D01*
X158750000Y-127796719D01*
X158855961Y-127955302D01*
X159064698Y-128164039D01*
X159310147Y-128328042D01*
X159582875Y-128441010D01*
X159872401Y-128498600D01*
X160167599Y-128498600D01*
X160457125Y-128441010D01*
X160729853Y-128328042D01*
X160975302Y-128164039D01*
X161184039Y-127955302D01*
X161348042Y-127709853D01*
X161461010Y-127437125D01*
X161518600Y-127147599D01*
X161518600Y-126852401D01*
X161461010Y-126562875D01*
X161348042Y-126290147D01*
X161245313Y-126136400D01*
X176298328Y-126136400D01*
X176298328Y-127863600D01*
X176310588Y-127988082D01*
X176346898Y-128107780D01*
X176405863Y-128218094D01*
X176485215Y-128314785D01*
X176581906Y-128394137D01*
X176692220Y-128453102D01*
X176811918Y-128489412D01*
X176936400Y-128501672D01*
X178663600Y-128501672D01*
X178788082Y-128489412D01*
X178907780Y-128453102D01*
X179018094Y-128394137D01*
X179114785Y-128314785D01*
X179194137Y-128218094D01*
X179253102Y-128107780D01*
X179289412Y-127988082D01*
X179301672Y-127863600D01*
X179301672Y-126852401D01*
X181381400Y-126852401D01*
X181381400Y-127147599D01*
X181438990Y-127437125D01*
X181551958Y-127709853D01*
X181715961Y-127955302D01*
X181924698Y-128164039D01*
X182170147Y-128328042D01*
X182442875Y-128441010D01*
X182732401Y-128498600D01*
X183027599Y-128498600D01*
X183317125Y-128441010D01*
X183589853Y-128328042D01*
X183835302Y-128164039D01*
X184044039Y-127955302D01*
X184208042Y-127709853D01*
X184321010Y-127437125D01*
X184378600Y-127147599D01*
X184378600Y-126852401D01*
X186461400Y-126852401D01*
X186461400Y-127147599D01*
X186518990Y-127437125D01*
X186631958Y-127709853D01*
X186795961Y-127955302D01*
X187004698Y-128164039D01*
X187250147Y-128328042D01*
X187522875Y-128441010D01*
X187812401Y-128498600D01*
X188107599Y-128498600D01*
X188397125Y-128441010D01*
X188669853Y-128328042D01*
X188915302Y-128164039D01*
X189124039Y-127955302D01*
X189230000Y-127796719D01*
X189335961Y-127955302D01*
X189544698Y-128164039D01*
X189790147Y-128328042D01*
X190062875Y-128441010D01*
X190352401Y-128498600D01*
X190647599Y-128498600D01*
X190937125Y-128441010D01*
X191209853Y-128328042D01*
X191455302Y-128164039D01*
X191664039Y-127955302D01*
X191828042Y-127709853D01*
X191941010Y-127437125D01*
X191998600Y-127147599D01*
X191998600Y-126852401D01*
X191941010Y-126562875D01*
X191828042Y-126290147D01*
X191664039Y-126044698D01*
X191455302Y-125835961D01*
X191296719Y-125730000D01*
X191455302Y-125624039D01*
X191664039Y-125415302D01*
X191828042Y-125169853D01*
X191941010Y-124897125D01*
X191998600Y-124607599D01*
X191998600Y-124312401D01*
X191941010Y-124022875D01*
X191828042Y-123750147D01*
X191664039Y-123504698D01*
X191455302Y-123295961D01*
X191209853Y-123131958D01*
X190937125Y-123018990D01*
X190647599Y-122961400D01*
X190352401Y-122961400D01*
X190062875Y-123018990D01*
X189790147Y-123131958D01*
X189544698Y-123295961D01*
X189335961Y-123504698D01*
X189171958Y-123750147D01*
X189058990Y-124022875D01*
X189001400Y-124312401D01*
X189001400Y-124607599D01*
X189058990Y-124897125D01*
X189171958Y-125169853D01*
X189335961Y-125415302D01*
X189544698Y-125624039D01*
X189703281Y-125730000D01*
X189544698Y-125835961D01*
X189335961Y-126044698D01*
X189230000Y-126203281D01*
X189124039Y-126044698D01*
X188915302Y-125835961D01*
X188669853Y-125671958D01*
X188397125Y-125558990D01*
X188107599Y-125501400D01*
X187812401Y-125501400D01*
X187522875Y-125558990D01*
X187250147Y-125671958D01*
X187004698Y-125835961D01*
X186795961Y-126044698D01*
X186631958Y-126290147D01*
X186518990Y-126562875D01*
X186461400Y-126852401D01*
X184378600Y-126852401D01*
X184321010Y-126562875D01*
X184208042Y-126290147D01*
X184044039Y-126044698D01*
X183835302Y-125835961D01*
X183589853Y-125671958D01*
X183317125Y-125558990D01*
X183027599Y-125501400D01*
X182732401Y-125501400D01*
X182442875Y-125558990D01*
X182170147Y-125671958D01*
X181924698Y-125835961D01*
X181715961Y-126044698D01*
X181551958Y-126290147D01*
X181438990Y-126562875D01*
X181381400Y-126852401D01*
X179301672Y-126852401D01*
X179301672Y-126136400D01*
X179289412Y-126011918D01*
X179253102Y-125892220D01*
X179194137Y-125781906D01*
X179114785Y-125685215D01*
X179018094Y-125605863D01*
X178907780Y-125546898D01*
X178788082Y-125510588D01*
X178663600Y-125498328D01*
X176936400Y-125498328D01*
X176811918Y-125510588D01*
X176692220Y-125546898D01*
X176581906Y-125605863D01*
X176485215Y-125685215D01*
X176405863Y-125781906D01*
X176346898Y-125892220D01*
X176310588Y-126011918D01*
X176298328Y-126136400D01*
X161245313Y-126136400D01*
X161184039Y-126044698D01*
X161069977Y-125930636D01*
X161127780Y-125913102D01*
X161238094Y-125854137D01*
X161334785Y-125774785D01*
X161414137Y-125678094D01*
X161473102Y-125567780D01*
X161509412Y-125448082D01*
X161521672Y-125323600D01*
X161521672Y-123596400D01*
X161509412Y-123471918D01*
X161473102Y-123352220D01*
X161414137Y-123241906D01*
X161334785Y-123145215D01*
X161238094Y-123065863D01*
X161127780Y-123006898D01*
X161008082Y-122970588D01*
X160883600Y-122958328D01*
X159156400Y-122958328D01*
X159031918Y-122970588D01*
X158912220Y-123006898D01*
X158801906Y-123065863D01*
X158705215Y-123145215D01*
X158625863Y-123241906D01*
X158566898Y-123352220D01*
X158549364Y-123410023D01*
X158435302Y-123295961D01*
X158189853Y-123131958D01*
X157917125Y-123018990D01*
X157627599Y-122961400D01*
X157332401Y-122961400D01*
X157042875Y-123018990D01*
X156770147Y-123131958D01*
X156524698Y-123295961D01*
X156315961Y-123504698D01*
X156151958Y-123750147D01*
X156038990Y-124022875D01*
X155981400Y-124312401D01*
X155981400Y-124607599D01*
X156038990Y-124897125D01*
X156151958Y-125169853D01*
X156315961Y-125415302D01*
X156524698Y-125624039D01*
X156683281Y-125730000D01*
X156524698Y-125835961D01*
X156315961Y-126044698D01*
X156210000Y-126203281D01*
X156104039Y-126044698D01*
X155895302Y-125835961D01*
X155649853Y-125671958D01*
X155377125Y-125558990D01*
X155087599Y-125501400D01*
X154792401Y-125501400D01*
X154502875Y-125558990D01*
X154230147Y-125671958D01*
X153984698Y-125835961D01*
X153775961Y-126044698D01*
X153670000Y-126203281D01*
X153564039Y-126044698D01*
X153355302Y-125835961D01*
X153196719Y-125730000D01*
X153355302Y-125624039D01*
X153564039Y-125415302D01*
X153728042Y-125169853D01*
X153841010Y-124897125D01*
X153898600Y-124607599D01*
X153898600Y-124312401D01*
X153841010Y-124022875D01*
X153728042Y-123750147D01*
X153564039Y-123504698D01*
X153355302Y-123295961D01*
X153109853Y-123131958D01*
X152837125Y-123018990D01*
X152547599Y-122961400D01*
X152252401Y-122961400D01*
X151962875Y-123018990D01*
X151690147Y-123131958D01*
X151444698Y-123295961D01*
X151235961Y-123504698D01*
X151130000Y-123663281D01*
X151024039Y-123504698D01*
X150815302Y-123295961D01*
X150569853Y-123131958D01*
X150297125Y-123018990D01*
X150007599Y-122961400D01*
X149712401Y-122961400D01*
X149422875Y-123018990D01*
X149150147Y-123131958D01*
X148904698Y-123295961D01*
X148695961Y-123504698D01*
X148531958Y-123750147D01*
X148418990Y-124022875D01*
X148361400Y-124312401D01*
X122151672Y-124312401D01*
X122151672Y-123596400D01*
X122139412Y-123471918D01*
X122103102Y-123352220D01*
X122044137Y-123241906D01*
X121964785Y-123145215D01*
X121868094Y-123065863D01*
X121757780Y-123006898D01*
X121638082Y-122970588D01*
X121513600Y-122958328D01*
X119786400Y-122958328D01*
X119661918Y-122970588D01*
X119542220Y-123006898D01*
X119431906Y-123065863D01*
X119335215Y-123145215D01*
X119255863Y-123241906D01*
X119196898Y-123352220D01*
X119179364Y-123410023D01*
X119065302Y-123295961D01*
X118819853Y-123131958D01*
X118547125Y-123018990D01*
X118257599Y-122961400D01*
X117962401Y-122961400D01*
X117672875Y-123018990D01*
X117400147Y-123131958D01*
X117154698Y-123295961D01*
X116945961Y-123504698D01*
X116840000Y-123663281D01*
X116734039Y-123504698D01*
X116525302Y-123295961D01*
X116279853Y-123131958D01*
X116007125Y-123018990D01*
X115717599Y-122961400D01*
X115422401Y-122961400D01*
X115132875Y-123018990D01*
X114860147Y-123131958D01*
X114614698Y-123295961D01*
X114405961Y-123504698D01*
X114300000Y-123663281D01*
X114194039Y-123504698D01*
X113985302Y-123295961D01*
X113739853Y-123131958D01*
X113467125Y-123018990D01*
X113177599Y-122961400D01*
X112882401Y-122961400D01*
X112592875Y-123018990D01*
X112320147Y-123131958D01*
X112074698Y-123295961D01*
X111865961Y-123504698D01*
X111701958Y-123750147D01*
X111588990Y-124022875D01*
X111531400Y-124312401D01*
X97180000Y-124312401D01*
X97180000Y-116721000D01*
X142435428Y-116721000D01*
X142435428Y-117721000D01*
X142447688Y-117845482D01*
X142483998Y-117965180D01*
X142542963Y-118075494D01*
X142622315Y-118172185D01*
X142719006Y-118251537D01*
X142829320Y-118310502D01*
X142949018Y-118346812D01*
X143073500Y-118359072D01*
X144073500Y-118359072D01*
X144197982Y-118346812D01*
X144317680Y-118310502D01*
X144400726Y-118266112D01*
X144512433Y-118312383D01*
X144731712Y-118356000D01*
X144955288Y-118356000D01*
X145174567Y-118312383D01*
X145381124Y-118226824D01*
X145478500Y-118161759D01*
X145575876Y-118226824D01*
X145782433Y-118312383D01*
X146001712Y-118356000D01*
X146225288Y-118356000D01*
X146444567Y-118312383D01*
X146651124Y-118226824D01*
X146837020Y-118102612D01*
X146995112Y-117944520D01*
X147119324Y-117758624D01*
X147204883Y-117552067D01*
X147248500Y-117332788D01*
X147248500Y-117109212D01*
X147204883Y-116889933D01*
X147119324Y-116683376D01*
X146995112Y-116497480D01*
X146837020Y-116339388D01*
X146651124Y-116215176D01*
X146444567Y-116129617D01*
X146225288Y-116086000D01*
X146001712Y-116086000D01*
X145782433Y-116129617D01*
X145575876Y-116215176D01*
X145478500Y-116280241D01*
X145381124Y-116215176D01*
X145174567Y-116129617D01*
X144955288Y-116086000D01*
X144731712Y-116086000D01*
X144512433Y-116129617D01*
X144400726Y-116175888D01*
X144317680Y-116131498D01*
X144197982Y-116095188D01*
X144073500Y-116082928D01*
X143073500Y-116082928D01*
X142949018Y-116095188D01*
X142829320Y-116131498D01*
X142719006Y-116190463D01*
X142622315Y-116269815D01*
X142542963Y-116366506D01*
X142483998Y-116476820D01*
X142447688Y-116596518D01*
X142435428Y-116721000D01*
X97180000Y-116721000D01*
X97180000Y-110915760D01*
X132134000Y-110915760D01*
X132134000Y-111080240D01*
X132166089Y-111241560D01*
X132229033Y-111393521D01*
X132320413Y-111530281D01*
X132436719Y-111646587D01*
X132573479Y-111737967D01*
X132725440Y-111800911D01*
X132886760Y-111833000D01*
X132954781Y-111833000D01*
X132928089Y-111897440D01*
X132896000Y-112058760D01*
X132896000Y-112223240D01*
X132928089Y-112384560D01*
X132991033Y-112536521D01*
X133082413Y-112673281D01*
X133198719Y-112789587D01*
X133335479Y-112880967D01*
X133487440Y-112943911D01*
X133648760Y-112976000D01*
X133813240Y-112976000D01*
X133974560Y-112943911D01*
X134017801Y-112926000D01*
X137254199Y-112926000D01*
X137297440Y-112943911D01*
X137458760Y-112976000D01*
X137623240Y-112976000D01*
X137784560Y-112943911D01*
X137936521Y-112880967D01*
X138073281Y-112789587D01*
X138105608Y-112757260D01*
X146929500Y-112757260D01*
X146929500Y-112921740D01*
X146961589Y-113083060D01*
X146979501Y-113126303D01*
X146979500Y-113822698D01*
X146961589Y-113865940D01*
X146929500Y-114027260D01*
X146929500Y-114191740D01*
X146961589Y-114353060D01*
X147024533Y-114505021D01*
X147115913Y-114641781D01*
X147232219Y-114758087D01*
X147368979Y-114849467D01*
X147520940Y-114912411D01*
X147682260Y-114944500D01*
X147846740Y-114944500D01*
X148008060Y-114912411D01*
X148160021Y-114849467D01*
X148296781Y-114758087D01*
X148413087Y-114641781D01*
X148504467Y-114505021D01*
X148567411Y-114353060D01*
X148599500Y-114191740D01*
X148599500Y-114027260D01*
X148567411Y-113865940D01*
X148549500Y-113822699D01*
X148549500Y-113126301D01*
X148567411Y-113083060D01*
X148599500Y-112921740D01*
X148599500Y-112757260D01*
X148567411Y-112595940D01*
X148504467Y-112443979D01*
X148413087Y-112307219D01*
X148296781Y-112190913D01*
X148160021Y-112099533D01*
X148008060Y-112036589D01*
X147846740Y-112004500D01*
X147682260Y-112004500D01*
X147520940Y-112036589D01*
X147368979Y-112099533D01*
X147232219Y-112190913D01*
X147115913Y-112307219D01*
X147024533Y-112443979D01*
X146961589Y-112595940D01*
X146929500Y-112757260D01*
X138105608Y-112757260D01*
X138189587Y-112673281D01*
X138280967Y-112536521D01*
X138343911Y-112384560D01*
X138376000Y-112223240D01*
X138376000Y-112058760D01*
X138343911Y-111897440D01*
X138280967Y-111745479D01*
X138189587Y-111608719D01*
X138150368Y-111569500D01*
X138189587Y-111530281D01*
X138280967Y-111393521D01*
X138343911Y-111241560D01*
X138376000Y-111080240D01*
X138376000Y-110915760D01*
X138343911Y-110754440D01*
X138280967Y-110602479D01*
X138189587Y-110465719D01*
X138073281Y-110349413D01*
X137936521Y-110258033D01*
X137784560Y-110195089D01*
X137623240Y-110163000D01*
X137458760Y-110163000D01*
X137297440Y-110195089D01*
X137254199Y-110213000D01*
X133255801Y-110213000D01*
X133212560Y-110195089D01*
X133051240Y-110163000D01*
X132886760Y-110163000D01*
X132725440Y-110195089D01*
X132573479Y-110258033D01*
X132436719Y-110349413D01*
X132320413Y-110465719D01*
X132229033Y-110602479D01*
X132166089Y-110754440D01*
X132134000Y-110915760D01*
X97180000Y-110915760D01*
X97180000Y-101498061D01*
X173590000Y-101498061D01*
X173590000Y-101701939D01*
X173629774Y-101901898D01*
X173707795Y-102090256D01*
X173821063Y-102259774D01*
X173965226Y-102403937D01*
X174134744Y-102517205D01*
X174323102Y-102595226D01*
X174523061Y-102635000D01*
X174726939Y-102635000D01*
X174926898Y-102595226D01*
X175072295Y-102535000D01*
X183067705Y-102535000D01*
X183213102Y-102595226D01*
X183413061Y-102635000D01*
X183616939Y-102635000D01*
X183816898Y-102595226D01*
X184005256Y-102517205D01*
X184174774Y-102403937D01*
X184318937Y-102259774D01*
X184432205Y-102090256D01*
X184510226Y-101901898D01*
X184550000Y-101701939D01*
X184550000Y-101498061D01*
X184510226Y-101298102D01*
X184432205Y-101109744D01*
X184318937Y-100940226D01*
X184174774Y-100796063D01*
X184005256Y-100682795D01*
X183816898Y-100604774D01*
X183616939Y-100565000D01*
X183413061Y-100565000D01*
X183213102Y-100604774D01*
X183067705Y-100665000D01*
X175072295Y-100665000D01*
X174926898Y-100604774D01*
X174726939Y-100565000D01*
X174523061Y-100565000D01*
X174323102Y-100604774D01*
X174134744Y-100682795D01*
X173965226Y-100796063D01*
X173821063Y-100940226D01*
X173707795Y-101109744D01*
X173629774Y-101298102D01*
X173590000Y-101498061D01*
X97180000Y-101498061D01*
X97180000Y-95289000D01*
X104683928Y-95289000D01*
X104683928Y-96989000D01*
X104696188Y-97113482D01*
X104732498Y-97233180D01*
X104791463Y-97343494D01*
X104870815Y-97440185D01*
X104967506Y-97519537D01*
X105077820Y-97578502D01*
X105197518Y-97614812D01*
X105322000Y-97627072D01*
X107022000Y-97627072D01*
X107146482Y-97614812D01*
X107266180Y-97578502D01*
X107376494Y-97519537D01*
X107473185Y-97440185D01*
X107552537Y-97343494D01*
X107611502Y-97233180D01*
X107633513Y-97160620D01*
X107765368Y-97292475D01*
X108008589Y-97454990D01*
X108278842Y-97566932D01*
X108565740Y-97624000D01*
X108858260Y-97624000D01*
X109145158Y-97566932D01*
X109415411Y-97454990D01*
X109658632Y-97292475D01*
X109865475Y-97085632D01*
X110027990Y-96842411D01*
X110139932Y-96572158D01*
X110197000Y-96285260D01*
X110197000Y-95992740D01*
X110139932Y-95705842D01*
X110027990Y-95435589D01*
X109865475Y-95192368D01*
X109658632Y-94985525D01*
X109415411Y-94823010D01*
X109145158Y-94711068D01*
X108858260Y-94654000D01*
X108565740Y-94654000D01*
X108278842Y-94711068D01*
X108008589Y-94823010D01*
X107765368Y-94985525D01*
X107633513Y-95117380D01*
X107611502Y-95044820D01*
X107552537Y-94934506D01*
X107473185Y-94837815D01*
X107376494Y-94758463D01*
X107266180Y-94699498D01*
X107146482Y-94663188D01*
X107022000Y-94650928D01*
X105322000Y-94650928D01*
X105197518Y-94663188D01*
X105077820Y-94699498D01*
X104967506Y-94758463D01*
X104870815Y-94837815D01*
X104791463Y-94934506D01*
X104732498Y-95044820D01*
X104696188Y-95164518D01*
X104683928Y-95289000D01*
X97180000Y-95289000D01*
X97180000Y-94640061D01*
X153905000Y-94640061D01*
X153905000Y-94843939D01*
X153944774Y-95043898D01*
X154022795Y-95232256D01*
X154136063Y-95401774D01*
X154280226Y-95545937D01*
X154449744Y-95659205D01*
X154638102Y-95737226D01*
X154838061Y-95777000D01*
X155041939Y-95777000D01*
X155241898Y-95737226D01*
X155387295Y-95677000D01*
X157540705Y-95677000D01*
X157686102Y-95737226D01*
X157886061Y-95777000D01*
X158089939Y-95777000D01*
X158289898Y-95737226D01*
X158478256Y-95659205D01*
X158647774Y-95545937D01*
X158791937Y-95401774D01*
X158905205Y-95232256D01*
X158983226Y-95043898D01*
X159023000Y-94843939D01*
X159023000Y-94640061D01*
X158983226Y-94440102D01*
X158905205Y-94251744D01*
X158791937Y-94082226D01*
X158647774Y-93938063D01*
X158478256Y-93824795D01*
X158289898Y-93746774D01*
X158089939Y-93707000D01*
X157886061Y-93707000D01*
X157686102Y-93746774D01*
X157540705Y-93807000D01*
X155387295Y-93807000D01*
X155241898Y-93746774D01*
X155041939Y-93707000D01*
X154838061Y-93707000D01*
X154638102Y-93746774D01*
X154449744Y-93824795D01*
X154280226Y-93938063D01*
X154136063Y-94082226D01*
X154022795Y-94251744D01*
X153944774Y-94440102D01*
X153905000Y-94640061D01*
X97180000Y-94640061D01*
X97180000Y-92043560D01*
X110188400Y-92043560D01*
X110188400Y-92208040D01*
X110220489Y-92369360D01*
X110283433Y-92521321D01*
X110374813Y-92658081D01*
X110491119Y-92774387D01*
X110627879Y-92865767D01*
X110779840Y-92928711D01*
X110941160Y-92960800D01*
X111105640Y-92960800D01*
X111266960Y-92928711D01*
X111310201Y-92910800D01*
X117340599Y-92910800D01*
X117383840Y-92928711D01*
X117545160Y-92960800D01*
X117709640Y-92960800D01*
X117870960Y-92928711D01*
X118022921Y-92865767D01*
X118159681Y-92774387D01*
X118275987Y-92658081D01*
X118367367Y-92521321D01*
X118430311Y-92369360D01*
X118462400Y-92208040D01*
X118462400Y-92043560D01*
X118430311Y-91882240D01*
X118367367Y-91730279D01*
X118275987Y-91593519D01*
X118159681Y-91477213D01*
X118022921Y-91385833D01*
X117870960Y-91322889D01*
X117709640Y-91290800D01*
X117545160Y-91290800D01*
X117383840Y-91322889D01*
X117340599Y-91340800D01*
X111310201Y-91340800D01*
X111266960Y-91322889D01*
X111105640Y-91290800D01*
X110941160Y-91290800D01*
X110779840Y-91322889D01*
X110627879Y-91385833D01*
X110491119Y-91477213D01*
X110374813Y-91593519D01*
X110283433Y-91730279D01*
X110220489Y-91882240D01*
X110188400Y-92043560D01*
X97180000Y-92043560D01*
X97180000Y-88563760D01*
X105845000Y-88563760D01*
X105845000Y-88728240D01*
X105877089Y-88889560D01*
X105940033Y-89041521D01*
X106031413Y-89178281D01*
X106147719Y-89294587D01*
X106284479Y-89385967D01*
X106436440Y-89448911D01*
X106597760Y-89481000D01*
X106762240Y-89481000D01*
X106923560Y-89448911D01*
X106966801Y-89431000D01*
X108793821Y-89431000D01*
X108734033Y-89520479D01*
X108671089Y-89672440D01*
X108639000Y-89833760D01*
X108639000Y-89998240D01*
X108671089Y-90159560D01*
X108734033Y-90311521D01*
X108825413Y-90448281D01*
X108941719Y-90564587D01*
X109078479Y-90655967D01*
X109230440Y-90718911D01*
X109391760Y-90751000D01*
X109556240Y-90751000D01*
X109717560Y-90718911D01*
X109760801Y-90701000D01*
X122737843Y-90701000D01*
X124845122Y-92808280D01*
X124863033Y-92851521D01*
X124954413Y-92988281D01*
X125070719Y-93104587D01*
X125207479Y-93195967D01*
X125359440Y-93258911D01*
X125520760Y-93291000D01*
X125685240Y-93291000D01*
X125846560Y-93258911D01*
X125998521Y-93195967D01*
X126135281Y-93104587D01*
X126251587Y-92988281D01*
X126342967Y-92851521D01*
X126405911Y-92699560D01*
X126438000Y-92538240D01*
X126438000Y-92373760D01*
X126405911Y-92212440D01*
X126367522Y-92119760D01*
X136324988Y-92119760D01*
X136324988Y-92284240D01*
X136357077Y-92445560D01*
X136420021Y-92597521D01*
X136511401Y-92734281D01*
X136627707Y-92850587D01*
X136764467Y-92941967D01*
X136916428Y-93004911D01*
X137077748Y-93037000D01*
X137242228Y-93037000D01*
X137403548Y-93004911D01*
X137446789Y-92987000D01*
X144302699Y-92987000D01*
X144345940Y-93004911D01*
X144507260Y-93037000D01*
X144671740Y-93037000D01*
X144833060Y-93004911D01*
X144985021Y-92941967D01*
X145121781Y-92850587D01*
X145238087Y-92734281D01*
X145329467Y-92597521D01*
X145392411Y-92445560D01*
X145424500Y-92284240D01*
X145424500Y-92119760D01*
X145392411Y-91958440D01*
X145329467Y-91806479D01*
X145238087Y-91669719D01*
X145121781Y-91553413D01*
X144985021Y-91462033D01*
X144833060Y-91399089D01*
X144671740Y-91367000D01*
X144507260Y-91367000D01*
X144345940Y-91399089D01*
X144302699Y-91417000D01*
X137446789Y-91417000D01*
X137403548Y-91399089D01*
X137242228Y-91367000D01*
X137077748Y-91367000D01*
X136916428Y-91399089D01*
X136764467Y-91462033D01*
X136627707Y-91553413D01*
X136511401Y-91669719D01*
X136420021Y-91806479D01*
X136357077Y-91958440D01*
X136324988Y-92119760D01*
X126367522Y-92119760D01*
X126342967Y-92060479D01*
X126251587Y-91923719D01*
X126135281Y-91807413D01*
X125998521Y-91716033D01*
X125955280Y-91698122D01*
X123645347Y-89388190D01*
X123620764Y-89358236D01*
X123501233Y-89260138D01*
X123364860Y-89187246D01*
X123216887Y-89142359D01*
X123101561Y-89131000D01*
X123101553Y-89131000D01*
X123063000Y-89127203D01*
X123024447Y-89131000D01*
X119679179Y-89131000D01*
X119738967Y-89041521D01*
X119797586Y-88900000D01*
X161620476Y-88900000D01*
X161638529Y-89083292D01*
X161691993Y-89259540D01*
X161778814Y-89421972D01*
X161895656Y-89564344D01*
X162038028Y-89681186D01*
X162200460Y-89768007D01*
X162376708Y-89821471D01*
X162514068Y-89835000D01*
X167685932Y-89835000D01*
X167823292Y-89821471D01*
X167999540Y-89768007D01*
X168161972Y-89681186D01*
X168304344Y-89564344D01*
X168412085Y-89433061D01*
X173590000Y-89433061D01*
X173590000Y-89636939D01*
X173629774Y-89836898D01*
X173690000Y-89982296D01*
X173690001Y-96580702D01*
X173629774Y-96726102D01*
X173590000Y-96926061D01*
X173590000Y-97129939D01*
X173629774Y-97329898D01*
X173707795Y-97518256D01*
X173821063Y-97687774D01*
X173965226Y-97831937D01*
X174134744Y-97945205D01*
X174323102Y-98023226D01*
X174523061Y-98063000D01*
X174726939Y-98063000D01*
X174926898Y-98023226D01*
X175115256Y-97945205D01*
X175284774Y-97831937D01*
X175428937Y-97687774D01*
X175542205Y-97518256D01*
X175620226Y-97329898D01*
X175660000Y-97129939D01*
X175660000Y-96926061D01*
X175620226Y-96726102D01*
X175560000Y-96580705D01*
X175560000Y-95910061D01*
X181845000Y-95910061D01*
X181845000Y-96113939D01*
X181884774Y-96313898D01*
X181962795Y-96502256D01*
X182076063Y-96671774D01*
X182220226Y-96815937D01*
X182389744Y-96929205D01*
X182578102Y-97007226D01*
X182778061Y-97047000D01*
X182981939Y-97047000D01*
X183181898Y-97007226D01*
X183327295Y-96947000D01*
X184984597Y-96947000D01*
X185010799Y-97010256D01*
X185124067Y-97179774D01*
X185268230Y-97323937D01*
X185437748Y-97437205D01*
X185626106Y-97515226D01*
X185826065Y-97555000D01*
X186029943Y-97555000D01*
X186229902Y-97515226D01*
X186418260Y-97437205D01*
X186587778Y-97323937D01*
X186731941Y-97179774D01*
X186845209Y-97010256D01*
X186923230Y-96821898D01*
X186963004Y-96621939D01*
X186963004Y-96418061D01*
X186923230Y-96218102D01*
X186845209Y-96029744D01*
X186731941Y-95860226D01*
X186587778Y-95716063D01*
X186418260Y-95602795D01*
X186272862Y-95542569D01*
X186113634Y-95383341D01*
X186084348Y-95347656D01*
X185941976Y-95230814D01*
X185779544Y-95143993D01*
X185603296Y-95090529D01*
X185465936Y-95077000D01*
X185420004Y-95072476D01*
X185374072Y-95077000D01*
X183327295Y-95077000D01*
X183181898Y-95016774D01*
X182981939Y-94977000D01*
X182778061Y-94977000D01*
X182578102Y-95016774D01*
X182389744Y-95094795D01*
X182220226Y-95208063D01*
X182076063Y-95352226D01*
X181962795Y-95521744D01*
X181884774Y-95710102D01*
X181845000Y-95910061D01*
X175560000Y-95910061D01*
X175560000Y-89982295D01*
X175620226Y-89836898D01*
X175660000Y-89636939D01*
X175660000Y-89433061D01*
X175620226Y-89233102D01*
X175542205Y-89044744D01*
X175428937Y-88875226D01*
X175284774Y-88731063D01*
X175115256Y-88617795D01*
X174926898Y-88539774D01*
X174726939Y-88500000D01*
X174523061Y-88500000D01*
X174323102Y-88539774D01*
X174134744Y-88617795D01*
X173965226Y-88731063D01*
X173821063Y-88875226D01*
X173707795Y-89044744D01*
X173629774Y-89233102D01*
X173590000Y-89433061D01*
X168412085Y-89433061D01*
X168421186Y-89421972D01*
X168508007Y-89259540D01*
X168561471Y-89083292D01*
X168579524Y-88900000D01*
X168561471Y-88716708D01*
X168508007Y-88540460D01*
X168421186Y-88378028D01*
X168304344Y-88235656D01*
X168161972Y-88118814D01*
X167999540Y-88031993D01*
X167823292Y-87978529D01*
X167685932Y-87965000D01*
X162514068Y-87965000D01*
X162376708Y-87978529D01*
X162200460Y-88031993D01*
X162038028Y-88118814D01*
X161895656Y-88235656D01*
X161778814Y-88378028D01*
X161691993Y-88540460D01*
X161638529Y-88716708D01*
X161620476Y-88900000D01*
X119797586Y-88900000D01*
X119801911Y-88889560D01*
X119834000Y-88728240D01*
X119834000Y-88563760D01*
X119801911Y-88402440D01*
X119738967Y-88250479D01*
X119647587Y-88113719D01*
X119531281Y-87997413D01*
X119394521Y-87906033D01*
X119242560Y-87843089D01*
X119081240Y-87811000D01*
X118916760Y-87811000D01*
X118755440Y-87843089D01*
X118712199Y-87861000D01*
X106966801Y-87861000D01*
X106923560Y-87843089D01*
X106762240Y-87811000D01*
X106597760Y-87811000D01*
X106436440Y-87843089D01*
X106284479Y-87906033D01*
X106147719Y-87997413D01*
X106031413Y-88113719D01*
X105940033Y-88250479D01*
X105877089Y-88402440D01*
X105845000Y-88563760D01*
X97180000Y-88563760D01*
X97180000Y-72396140D01*
X105195000Y-72396140D01*
X105195000Y-72688660D01*
X105252068Y-72975558D01*
X105364010Y-73245811D01*
X105526525Y-73489032D01*
X105733368Y-73695875D01*
X105976589Y-73858390D01*
X106246842Y-73970332D01*
X106533740Y-74027400D01*
X106826260Y-74027400D01*
X107113158Y-73970332D01*
X107383411Y-73858390D01*
X107626632Y-73695875D01*
X107833475Y-73489032D01*
X107950000Y-73314640D01*
X108066525Y-73489032D01*
X108273368Y-73695875D01*
X108516589Y-73858390D01*
X108786842Y-73970332D01*
X109073740Y-74027400D01*
X109366260Y-74027400D01*
X109653158Y-73970332D01*
X109923411Y-73858390D01*
X110166632Y-73695875D01*
X110373475Y-73489032D01*
X110490000Y-73314640D01*
X110606525Y-73489032D01*
X110813368Y-73695875D01*
X111056589Y-73858390D01*
X111326842Y-73970332D01*
X111613740Y-74027400D01*
X111906260Y-74027400D01*
X112193158Y-73970332D01*
X112463411Y-73858390D01*
X112706632Y-73695875D01*
X112913475Y-73489032D01*
X113075990Y-73245811D01*
X113187932Y-72975558D01*
X113245000Y-72688660D01*
X113245000Y-72396140D01*
X115355000Y-72396140D01*
X115355000Y-72688660D01*
X115412068Y-72975558D01*
X115524010Y-73245811D01*
X115686525Y-73489032D01*
X115893368Y-73695875D01*
X116136589Y-73858390D01*
X116406842Y-73970332D01*
X116693740Y-74027400D01*
X116986260Y-74027400D01*
X117273158Y-73970332D01*
X117543411Y-73858390D01*
X117786632Y-73695875D01*
X117918487Y-73564020D01*
X117940498Y-73636580D01*
X117999463Y-73746894D01*
X118078815Y-73843585D01*
X118175506Y-73922937D01*
X118285820Y-73981902D01*
X118405518Y-74018212D01*
X118530000Y-74030472D01*
X120230000Y-74030472D01*
X120354482Y-74018212D01*
X120474180Y-73981902D01*
X120584494Y-73922937D01*
X120681185Y-73843585D01*
X120760537Y-73746894D01*
X120819502Y-73636580D01*
X120855812Y-73516882D01*
X120868072Y-73392400D01*
X120868072Y-71692400D01*
X120855812Y-71567918D01*
X120819502Y-71448220D01*
X120760537Y-71337906D01*
X120681185Y-71241215D01*
X120584494Y-71161863D01*
X120474180Y-71102898D01*
X120354482Y-71066588D01*
X120230000Y-71054328D01*
X118530000Y-71054328D01*
X118405518Y-71066588D01*
X118285820Y-71102898D01*
X118175506Y-71161863D01*
X118078815Y-71241215D01*
X117999463Y-71337906D01*
X117940498Y-71448220D01*
X117918487Y-71520780D01*
X117786632Y-71388925D01*
X117543411Y-71226410D01*
X117273158Y-71114468D01*
X116986260Y-71057400D01*
X116693740Y-71057400D01*
X116406842Y-71114468D01*
X116136589Y-71226410D01*
X115893368Y-71388925D01*
X115686525Y-71595768D01*
X115524010Y-71838989D01*
X115412068Y-72109242D01*
X115355000Y-72396140D01*
X113245000Y-72396140D01*
X113187932Y-72109242D01*
X113075990Y-71838989D01*
X112913475Y-71595768D01*
X112706632Y-71388925D01*
X112463411Y-71226410D01*
X112193158Y-71114468D01*
X111906260Y-71057400D01*
X111613740Y-71057400D01*
X111326842Y-71114468D01*
X111056589Y-71226410D01*
X110813368Y-71388925D01*
X110606525Y-71595768D01*
X110490000Y-71770160D01*
X110373475Y-71595768D01*
X110166632Y-71388925D01*
X109923411Y-71226410D01*
X109653158Y-71114468D01*
X109366260Y-71057400D01*
X109073740Y-71057400D01*
X108786842Y-71114468D01*
X108516589Y-71226410D01*
X108273368Y-71388925D01*
X108066525Y-71595768D01*
X107950000Y-71770160D01*
X107833475Y-71595768D01*
X107626632Y-71388925D01*
X107383411Y-71226410D01*
X107113158Y-71114468D01*
X106826260Y-71057400D01*
X106533740Y-71057400D01*
X106246842Y-71114468D01*
X105976589Y-71226410D01*
X105733368Y-71388925D01*
X105526525Y-71595768D01*
X105364010Y-71838989D01*
X105252068Y-72109242D01*
X105195000Y-72396140D01*
X97180000Y-72396140D01*
X97180000Y-62915461D01*
X114535000Y-62915461D01*
X114535000Y-63119339D01*
X114574774Y-63319298D01*
X114610000Y-63404341D01*
X114610001Y-64875238D01*
X114605356Y-64922400D01*
X114623891Y-65110592D01*
X114678784Y-65291553D01*
X114767927Y-65458328D01*
X114857829Y-65567873D01*
X114887894Y-65604507D01*
X114924526Y-65634570D01*
X115887569Y-66597614D01*
X115922795Y-66682656D01*
X116036063Y-66852174D01*
X116180226Y-66996337D01*
X116349744Y-67109605D01*
X116538102Y-67187626D01*
X116738061Y-67227400D01*
X116941939Y-67227400D01*
X117141898Y-67187626D01*
X117330256Y-67109605D01*
X117499774Y-66996337D01*
X117643937Y-66852174D01*
X117757205Y-66682656D01*
X117835226Y-66494298D01*
X117875000Y-66294339D01*
X117875000Y-66090461D01*
X117835226Y-65890502D01*
X117757205Y-65702144D01*
X117643937Y-65532626D01*
X117499774Y-65388463D01*
X117330256Y-65275195D01*
X117245214Y-65239969D01*
X116530000Y-64524756D01*
X116530000Y-63404340D01*
X116565226Y-63319298D01*
X116605000Y-63119339D01*
X116605000Y-62915461D01*
X116565226Y-62715502D01*
X116487205Y-62527144D01*
X116373937Y-62357626D01*
X116229774Y-62213463D01*
X116060256Y-62100195D01*
X115871898Y-62022174D01*
X115671939Y-61982400D01*
X115468061Y-61982400D01*
X115268102Y-62022174D01*
X115079744Y-62100195D01*
X114910226Y-62213463D01*
X114766063Y-62357626D01*
X114652795Y-62527144D01*
X114574774Y-62715502D01*
X114535000Y-62915461D01*
X97180000Y-62915461D01*
X97180000Y-55650000D01*
X185186928Y-55650000D01*
X185186928Y-58650000D01*
X185199188Y-58774482D01*
X185235498Y-58894180D01*
X185294463Y-59004494D01*
X185373815Y-59101185D01*
X185470506Y-59180537D01*
X185580820Y-59239502D01*
X185700518Y-59275812D01*
X185825000Y-59288072D01*
X188825000Y-59288072D01*
X188949482Y-59275812D01*
X189069180Y-59239502D01*
X189179494Y-59180537D01*
X189276185Y-59101185D01*
X189355537Y-59004494D01*
X189414502Y-58894180D01*
X189450812Y-58774482D01*
X189463072Y-58650000D01*
X189463072Y-55650000D01*
X189450812Y-55525518D01*
X189414502Y-55405820D01*
X189355537Y-55295506D01*
X189276185Y-55198815D01*
X189179494Y-55119463D01*
X189069180Y-55060498D01*
X188949482Y-55024188D01*
X188825000Y-55011928D01*
X185825000Y-55011928D01*
X185700518Y-55024188D01*
X185580820Y-55060498D01*
X185470506Y-55119463D01*
X185373815Y-55198815D01*
X185294463Y-55295506D01*
X185235498Y-55405820D01*
X185199188Y-55525518D01*
X185186928Y-55650000D01*
X97180000Y-55650000D01*
X97180000Y-48089117D01*
X99865000Y-48089117D01*
X99865000Y-48430883D01*
X99931675Y-48766081D01*
X100062463Y-49081831D01*
X100252337Y-49365998D01*
X100494002Y-49607663D01*
X100778169Y-49797537D01*
X101093919Y-49928325D01*
X101429117Y-49995000D01*
X101770883Y-49995000D01*
X102106081Y-49928325D01*
X102421831Y-49797537D01*
X102705998Y-49607663D01*
X102947663Y-49365998D01*
X103137537Y-49081831D01*
X103268325Y-48766081D01*
X103335000Y-48430883D01*
X103335000Y-48089117D01*
X198925000Y-48089117D01*
X198925000Y-48430883D01*
X198991675Y-48766081D01*
X199122463Y-49081831D01*
X199312337Y-49365998D01*
X199554002Y-49607663D01*
X199838169Y-49797537D01*
X200153919Y-49928325D01*
X200489117Y-49995000D01*
X200830883Y-49995000D01*
X201166081Y-49928325D01*
X201481831Y-49797537D01*
X201765998Y-49607663D01*
X202007663Y-49365998D01*
X202197537Y-49081831D01*
X202328325Y-48766081D01*
X202395000Y-48430883D01*
X202395000Y-48089117D01*
X202328325Y-47753919D01*
X202197537Y-47438169D01*
X202007663Y-47154002D01*
X201765998Y-46912337D01*
X201481831Y-46722463D01*
X201166081Y-46591675D01*
X200830883Y-46525000D01*
X200489117Y-46525000D01*
X200153919Y-46591675D01*
X199838169Y-46722463D01*
X199554002Y-46912337D01*
X199312337Y-47154002D01*
X199122463Y-47438169D01*
X198991675Y-47753919D01*
X198925000Y-48089117D01*
X103335000Y-48089117D01*
X103268325Y-47753919D01*
X103137537Y-47438169D01*
X102947663Y-47154002D01*
X102705998Y-46912337D01*
X102421831Y-46722463D01*
X102106081Y-46591675D01*
X101770883Y-46525000D01*
X101429117Y-46525000D01*
X101093919Y-46591675D01*
X100778169Y-46722463D01*
X100494002Y-46912337D01*
X100252337Y-47154002D01*
X100062463Y-47438169D01*
X99931675Y-47753919D01*
X99865000Y-48089117D01*
X97180000Y-48089117D01*
X97180000Y-43840000D01*
X205080000Y-43840000D01*
X205080001Y-133960000D01*
M02*
