<?xml version="1.0" standalone="no"?>
 <!DOCTYPE svg PUBLIC "-//W3C//DTD SVG 1.1//EN" 
 "http://www.w3.org/Graphics/SVG/1.1/DTD/svg11.dtd"> 
<svg xmlns="http://www.w3.org/2000/svg" version="1.1" 
    width="29.7002cm" height="21.0007cm" viewBox="0 0 116930 82680 ">
<title>SVG Picture created as DisplayBoard-B_SilkS.svg date 2020/03/27 00:33:00 </title>
  <desc>Picture generated by PCBNEW </desc>
<g style="fill:#000000; fill-opacity:1;stroke:#000000; stroke-opacity:1;
stroke-linecap:round; stroke-linejoin:round; "
 transform="translate(0 0) scale(1 1)">
</g>
<g style="fill:#000000; fill-opacity:0.0; 
stroke:#000000; stroke-width:-0.000393701; stroke-opacity:1; 
stroke-linecap:round; stroke-linejoin:round;">
</g>
<g style="fill:#000000; fill-opacity:0.0; 
stroke:#000000; stroke-width:59.0551; stroke-opacity:1; 
stroke-linecap:round; stroke-linejoin:round;">
<g transform="rotate(-90 69000 50250)">
<text x="69000" y="50446.9"
textLength="-1048.09" font-size="-524.934" lengthAdjust="spacingAndGlyphs"
text-anchor="middle" opacity="0">VCC</text>
</g>
<path d="M68784 49725
L69178 49856
L68784 49987
" />
<path d="M69140 50343
L69159 50324
L69178 50268
L69178 50231
L69159 50175
L69121 50137
L69084 50118
L69009 50100
L68953 50100
L68878 50118
L68840 50137
L68803 50175
L68784 50231
L68784 50268
L68803 50324
L68821 50343
" />
<path d="M69140 50737
L69159 50718
L69178 50662
L69178 50624
L69159 50568
L69121 50531
L69084 50512
L69009 50493
L68953 50493
L68878 50512
L68840 50531
L68803 50568
L68784 50624
L68784 50662
L68803 50718
L68821 50737
" />
</g>
<g style="fill:#000000; fill-opacity:0.0; 
stroke:#000000; stroke-width:19.685; stroke-opacity:1; 
stroke-linecap:round; stroke-linejoin:round;">
<path d="M75500 60000
L75500 40000
" />
<path d="M58000 60000
L75500 60000
" />
<path d="M75500 40000
L58000 40000
" />
<path d="M58000 40000
L58000 60000
" />
</g>
<g style="fill:#000000; fill-opacity:0.0; 
stroke:#000000; stroke-width:59.0551; stroke-opacity:1; 
stroke-linecap:round; stroke-linejoin:round;">
<g transform="rotate(-90 51000 50250)">
<text x="51000" y="50446.9"
textLength="-1048.09" font-size="-524.934" lengthAdjust="spacingAndGlyphs"
text-anchor="middle" opacity="0">VCC</text>
</g>
<path d="M50784 49725
L51178 49856
L50784 49987
" />
<path d="M51140 50343
L51159 50324
L51178 50268
L51178 50231
L51159 50175
L51121 50137
L51084 50118
L51009 50100
L50953 50100
L50878 50118
L50840 50137
L50803 50175
L50784 50231
L50784 50268
L50803 50324
L50821 50343
" />
<path d="M51140 50737
L51159 50718
L51178 50662
L51178 50624
L51159 50568
L51121 50531
L51084 50512
L51009 50493
L50953 50493
L50878 50512
L50840 50531
L50803 50568
L50784 50624
L50784 50662
L50803 50718
L50821 50737
" />
</g>
<g style="fill:#000000; fill-opacity:0.0; 
stroke:#000000; stroke-width:19.685; stroke-opacity:1; 
stroke-linecap:round; stroke-linejoin:round;">
<path d="M57500 40000
L40000 40000
" />
<path d="M57500 60000
L57500 40000
" />
<path d="M40000 60000
L57500 60000
" />
<path d="M40000 40000
L40000 60000
" />
</g>
<g style="fill:#000000; fill-opacity:0.0; 
stroke:#000000; stroke-width:47.2441; stroke-opacity:1; 
stroke-linecap:round; stroke-linejoin:round;">
<path d="M69523 48523
L69523 46476
" />
<path d="M65476 48523
L65476 46476
" />
<path d="M69299 49090
L69299 48523
" />
<path d="M69523 48523
L69299 48523
" />
<path d="M69523 46476
L69299 46476
" />
<path d="M65700 48523
L65476 48523
" />
<path d="M65700 46476
L65476 46476
" />
<path d="M68700 48523
L68299 48523
" />
<path d="M68700 46476
L68299 46476
" />
<path d="M67700 48523
L67299 48523
" />
<path d="M67700 46476
L67299 46476
" />
<path d="M66700 48523
L66299 48523
" />
<path d="M66700 46476
L66299 46476
" />
<path d="M48700 46476
L48299 46476
" />
<path d="M48700 48523
L48299 48523
" />
<path d="M49700 46476
L49299 46476
" />
<path d="M49700 48523
L49299 48523
" />
<path d="M50700 46476
L50299 46476
" />
<path d="M50700 48523
L50299 48523
" />
<path d="M47700 46476
L47476 46476
" />
<path d="M47700 48523
L47476 48523
" />
<path d="M51523 46476
L51299 46476
" />
<path d="M51523 48523
L51299 48523
" />
<path d="M51299 49090
L51299 48523
" />
<path d="M47476 48523
L47476 46476
" />
<path d="M51523 48523
L51523 46476
" />
<g >
</g>
<g >
</g>
<g >
</g>
<g >
</g>
<g >
</g>
<g >
</g>
<g >
</g>
<g >
</g>
<g >
</g>
<g >
</g>
<g >
</g>
<g >
</g>
</g>
<g style="fill:#000000; fill-opacity:0.0; 
stroke:#000000; stroke-width:47.2441; stroke-opacity:1; 
stroke-linecap:round; stroke-linejoin:round;">
</g>
<g style="fill:#000000; fill-opacity:0.0; 
stroke:#000000; stroke-width:59.0551; stroke-opacity:1; 
stroke-linecap:round; stroke-linejoin:round;">
<text x="70500" y="47696.9"
textLength="-598.144" font-size="-524.934" lengthAdjust="spacingAndGlyphs"
text-anchor="middle" opacity="0">J1</text>
<path d="M70631 47284
L70631 47565
L70649 47621
L70687 47659
L70743 47678
L70781 47678
" />
<path d="M70237 47678
L70462 47678
" />
<path d="M70350 47678
L70350 47284
L70387 47340
L70425 47378
L70462 47396
" />
<text x="52500" y="47696.9"
textLength="-598.144" font-size="-524.934" lengthAdjust="spacingAndGlyphs"
text-anchor="middle" opacity="0">J1</text>
<path d="M52631 47284
L52631 47565
L52649 47621
L52687 47659
L52743 47678
L52781 47678
" />
<path d="M52237 47678
L52462 47678
" />
<path d="M52350 47678
L52350 47284
L52387 47340
L52425 47378
L52462 47396
" />
<g >
</g>
</g> 
</svg>
