<?xml version="1.0" encoding="UTF-8" standalone="no"?>
<svg
   xmlns:dc="http://purl.org/dc/elements/1.1/"
   xmlns:cc="http://creativecommons.org/ns#"
   xmlns:rdf="http://www.w3.org/1999/02/22-rdf-syntax-ns#"
   xmlns:svg="http://www.w3.org/2000/svg"
   xmlns="http://www.w3.org/2000/svg"
   xmlns:sodipodi="http://sodipodi.sourceforge.net/DTD/sodipodi-0.dtd"
   xmlns:inkscape="http://www.inkscape.org/namespaces/inkscape"
   version="1.1"
   width="29.7002cm"
   height="21.0007cm"
   viewBox="0 0 116930 82680 "
   id="svg134"
   sodipodi:docname="DisplayBoard-B_Mask.svg"
   inkscape:version="0.92.4 (unknown)">
  <metadata
     id="metadata140">
    <rdf:RDF>
      <cc:Work
         rdf:about="">
        <dc:format>image/svg+xml</dc:format>
        <dc:type
           rdf:resource="http://purl.org/dc/dcmitype/StillImage" />
      </cc:Work>
    </rdf:RDF>
  </metadata>
  <defs
     id="defs138" />
  <sodipodi:namedview
     pagecolor="#ffffff"
     bordercolor="#666666"
     borderopacity="1"
     objecttolerance="10"
     gridtolerance="10"
     guidetolerance="10"
     inkscape:pageopacity="0"
     inkscape:pageshadow="2"
     inkscape:window-width="1853"
     inkscape:window-height="1025"
     id="namedview136"
     showgrid="false"
     inkscape:zoom="2.3786509"
     inkscape:cx="531.7846"
     inkscape:cy="304.02998"
     inkscape:window-x="67"
     inkscape:window-y="27"
     inkscape:window-maximized="1"
     inkscape:current-layer="svg134" />
  <title
     id="title2">SVG Picture created as DisplayBoard-B_Mask.svg date 2020/03/27 00:34:46 </title>
  <desc
     id="desc4">Picture generated by PCBNEW </desc>
  <g
     style="fill:#000000; fill-opacity:1;stroke:#000000; stroke-opacity:1; stroke-linecap:round; stroke-linejoin:round; "
     transform="translate(0 0) scale(1 1)"
     id="g6" />
  <g
     style="fill:#000000; fill-opacity:0.0;  stroke:#000000; stroke-width:-0.000393701; stroke-opacity:1;  stroke-linecap:round; stroke-linejoin:round;"
     id="g8" />
  <g
     id="g347"
     transform="translate(18000)">
    <path
       d="M 57500,40000 H 40000"
       id="path18"
       inkscape:connector-curvature="0"
       style="fill:#000000;fill-opacity:0;stroke:#000000;stroke-width:19.68499947;stroke-linecap:round;stroke-linejoin:round;stroke-opacity:1" />
    <path
       d="M 57500,60000 V 40000"
       id="path20"
       inkscape:connector-curvature="0"
       style="fill:#000000;fill-opacity:0;stroke:#000000;stroke-width:19.68499947;stroke-linecap:round;stroke-linejoin:round;stroke-opacity:1" />
    <path
       d="M 40000,60000 H 57500"
       id="path22"
       inkscape:connector-curvature="0"
       style="fill:#000000;fill-opacity:0;stroke:#000000;stroke-width:19.68499947;stroke-linecap:round;stroke-linejoin:round;stroke-opacity:1" />
    <path
       d="M 40000,40000 V 60000"
       id="path24"
       inkscape:connector-curvature="0"
       style="fill:#000000;fill-opacity:0;stroke:#000000;stroke-width:19.68499947;stroke-linecap:round;stroke-linejoin:round;stroke-opacity:1" />
    <g
       id="g248">
      <path
         inkscape:connector-curvature="0"
         id="path28"
         d="m 54647.7,58116.7 41.9,8.3 118.3,49 106.5,71.1 90.5,90.5 71.1,106.5 49,118.3 25,125.6 v 128 l -25,125.6 -49,118.3 -71.1,106.5 -90.5,90.5 -106.5,71.1 -118.3,49 -41.9,8.3 -83.7,16.7 h -128 l -83.7,-16.7 -41.9,-8.3 -118.3,-49 -106.5,-71.1 -90.5,-90.5 -71.1,-106.5 -49,-118.3 -25,-125.6 v -128 l 25,-125.6 49,-118.3 71.1,-106.5 90.5,-90.5 106.5,-71.1 118.3,-49 41.9,-8.3 83.7,-16.7 h 128 z"
         style="fill:#000000;fill-opacity:1;fill-rule:evenodd;stroke:#000000;stroke-width:0;stroke-linecap:round;stroke-linejoin:round;stroke-opacity:1" />
      <path
         inkscape:connector-curvature="0"
         id="path30"
         d="m 43897.7,58116.7 41.9,8.3 118.3,49 106.5,71.1 90.5,90.5 71.1,106.5 49,118.3 25,125.6 v 128 l -25,125.6 -49,118.3 -71.1,106.5 -90.5,90.5 -106.5,71.1 -118.3,49 -41.9,8.3 -83.7,16.7 h -128 l -83.7,-16.7 -41.9,-8.3 -118.3,-49 -106.5,-71.1 -90.5,-90.5 -71.1,-106.5 -49,-118.3 -25,-125.6 v -128 l 25,-125.6 49,-118.3 71.1,-106.5 90.5,-90.5 106.5,-71.1 118.3,-49 41.9,-8.3 83.7,-16.7 h 128 z"
         style="fill:#000000;fill-opacity:1;fill-rule:evenodd;stroke:#000000;stroke-width:0;stroke-linecap:round;stroke-linejoin:round;stroke-opacity:1" />
      <path
         inkscape:connector-curvature="0"
         id="path38"
         d="m 41544.7,56147.2 58.8,11.7 64.5,26.7 58.1,38.9 49.4,49.4 38.9,58.1 26.7,64.5 13.6,68.6 v 69.8 l -13.6,68.6 -26.7,64.5 -38.9,58.1 -49.4,49.4 -58.1,38.9 -64.5,26.7 -58.8,11.7 -9.8,1.9 h -69.8 l -9.8,-1.9 -58.8,-11.7 -64.5,-26.7 -58.1,-38.9 -49.4,-49.4 -38.9,-58.1 -26.7,-64.5 -13.6,-68.6 v -69.8 l 13.6,-68.6 26.7,-64.5 38.9,-58.1 49.4,-49.4 58.1,-38.9 64.5,-26.7 58.8,-11.7 9.8,-1.9 h 69.8 z"
         style="fill:#000000;fill-opacity:1;fill-rule:evenodd;stroke:#000000;stroke-width:0;stroke-linecap:round;stroke-linejoin:round;stroke-opacity:1" />
      <path
         inkscape:connector-curvature="0"
         id="path40"
         d="m 41544.7,55147.2 58.8,11.7 64.5,26.7 58.1,38.9 49.4,49.4 38.9,58.1 26.7,64.5 13.6,68.6 v 69.8 l -13.6,68.6 -26.7,64.5 -38.9,58.1 -49.4,49.4 -58.1,38.9 -64.5,26.7 -58.8,11.7 -9.8,1.9 h -69.8 l -9.8,-1.9 -58.8,-11.7 -64.5,-26.7 -58.1,-38.9 -49.4,-49.4 -38.9,-58.1 -26.7,-64.5 -13.6,-68.6 v -69.8 l 13.6,-68.6 26.7,-64.5 38.9,-58.1 49.4,-49.4 58.1,-38.9 64.5,-26.7 58.8,-11.7 9.8,-1.9 h 69.8 z"
         style="fill:#000000;fill-opacity:1;fill-rule:evenodd;stroke:#000000;stroke-width:0;stroke-linecap:round;stroke-linejoin:round;stroke-opacity:1" />
      <path
         inkscape:connector-curvature="0"
         id="path46"
         d="m 41544.7,54147.2 58.8,11.7 64.5,26.7 58.1,38.9 49.4,49.4 38.9,58.1 26.7,64.5 13.6,68.6 v 69.8 l -13.6,68.6 -26.7,64.5 -38.9,58.1 -49.4,49.4 -58.1,38.9 -64.5,26.7 -58.8,11.7 -9.8,1.9 h -69.8 l -9.8,-1.9 -58.8,-11.7 -64.5,-26.7 -58.1,-38.9 -49.4,-49.4 -38.9,-58.1 -26.7,-64.5 -13.6,-68.6 v -69.8 l 13.6,-68.6 26.7,-64.5 38.9,-58.1 49.4,-49.4 58.1,-38.9 64.5,-26.7 58.8,-11.7 9.8,-1.9 h 69.8 z"
         style="fill:#000000;fill-opacity:1;fill-rule:evenodd;stroke:#000000;stroke-width:0;stroke-linecap:round;stroke-linejoin:round;stroke-opacity:1" />
      <path
         inkscape:connector-curvature="0"
         id="path50"
         d="m 41544.7,53147.2 58.8,11.7 64.5,26.7 58.1,38.9 49.4,49.4 38.9,58.1 26.7,64.5 13.6,68.6 v 69.8 l -13.6,68.6 -26.7,64.5 -38.9,58.1 -49.4,49.4 -58.1,38.9 -64.5,26.7 -58.8,11.7 -9.8,1.9 h -69.8 l -9.8,-1.9 -58.8,-11.7 -64.5,-26.7 -58.1,-38.9 -49.4,-49.4 -38.9,-58.1 -26.7,-64.5 -13.6,-68.6 v -69.8 l 13.6,-68.6 26.7,-64.5 38.9,-58.1 49.4,-49.4 58.1,-38.9 64.5,-26.7 58.8,-11.7 9.8,-1.9 h 69.8 z"
         style="fill:#000000;fill-opacity:1;fill-rule:evenodd;stroke:#000000;stroke-width:0;stroke-linecap:round;stroke-linejoin:round;stroke-opacity:1" />
      <path
         inkscape:connector-curvature="0"
         id="path54"
         d="m 41544.7,52147.2 58.8,11.7 64.5,26.7 58.1,38.9 49.4,49.4 38.9,58.1 26.7,64.5 13.6,68.6 v 69.8 l -13.6,68.6 -26.7,64.5 -38.9,58.1 -49.4,49.4 -58.1,38.9 -64.5,26.7 -58.8,11.7 -9.8,1.9 h -69.8 l -9.8,-1.9 -58.8,-11.7 -64.5,-26.7 -58.1,-38.9 -49.4,-49.4 -38.9,-58.1 -26.7,-64.5 -13.6,-68.6 v -69.8 l 13.6,-68.6 26.7,-64.5 38.9,-58.1 49.4,-49.4 58.1,-38.9 64.5,-26.7 58.8,-11.7 9.8,-1.9 h 69.8 z"
         style="fill:#000000;fill-opacity:1;fill-rule:evenodd;stroke:#000000;stroke-width:0;stroke-linecap:round;stroke-linejoin:round;stroke-opacity:1" />
      <path
         inkscape:connector-curvature="0"
         id="path58"
         d="m 41544.7,51147.2 58.8,11.7 64.5,26.7 58.1,38.9 49.4,49.4 38.9,58.1 26.7,64.5 13.6,68.6 v 69.8 l -13.6,68.6 -26.7,64.5 -38.9,58.1 -49.4,49.4 -58.1,38.9 -64.5,26.7 -58.8,11.7 -9.8,1.9 h -69.8 l -9.8,-1.9 -58.8,-11.7 -64.5,-26.7 -58.1,-38.9 -49.4,-49.4 -38.9,-58.1 -26.7,-64.5 -13.6,-68.6 v -69.8 l 13.6,-68.6 26.7,-64.5 38.9,-58.1 49.4,-49.4 58.1,-38.9 64.5,-26.7 58.8,-11.7 9.8,-1.9 h 69.8 z"
         style="fill:#000000;fill-opacity:1;fill-rule:evenodd;stroke:#000000;stroke-width:0;stroke-linecap:round;stroke-linejoin:round;stroke-opacity:1" />
      <path
         inkscape:connector-curvature="0"
         id="path62"
         d="m 41544.7,50147.2 58.8,11.7 64.5,26.7 58.1,38.9 49.4,49.4 38.9,58.1 26.7,64.5 13.6,68.6 v 69.8 l -13.6,68.6 -26.7,64.5 -38.9,58.1 -49.4,49.4 -58.1,38.9 -64.5,26.7 -58.8,11.7 -9.8,1.9 h -69.8 l -9.8,-1.9 -58.8,-11.7 -64.5,-26.7 -58.1,-38.9 -49.4,-49.4 -38.9,-58.1 -26.7,-64.5 -13.6,-68.6 v -69.8 l 13.6,-68.6 26.7,-64.5 38.9,-58.1 49.4,-49.4 58.1,-38.9 64.5,-26.7 58.8,-11.7 9.8,-1.9 h 69.8 z"
         style="fill:#000000;fill-opacity:1;fill-rule:evenodd;stroke:#000000;stroke-width:0;stroke-linecap:round;stroke-linejoin:round;stroke-opacity:1" />
      <path
         inkscape:connector-curvature="0"
         id="path66"
         d="m 41544.7,49147.2 58.8,11.7 64.5,26.7 58.1,38.9 49.4,49.4 38.9,58.1 26.7,64.5 13.6,68.6 v 69.8 l -13.6,68.6 -26.7,64.5 -38.9,58.1 -49.4,49.4 -58.1,38.9 -64.5,26.7 -58.8,11.7 -9.8,1.9 h -69.8 l -9.8,-1.9 -58.8,-11.7 -64.5,-26.7 -58.1,-38.9 -49.4,-49.4 -38.9,-58.1 -26.7,-64.5 -13.6,-68.6 v -69.8 l 13.6,-68.6 26.7,-64.5 38.9,-58.1 49.4,-49.4 58.1,-38.9 64.5,-26.7 58.8,-11.7 9.8,-1.9 h 69.8 z"
         style="fill:#000000;fill-opacity:1;fill-rule:evenodd;stroke:#000000;stroke-width:0;stroke-linecap:round;stroke-linejoin:round;stroke-opacity:1" />
      <path
         inkscape:connector-curvature="0"
         id="path76"
         d="m 49216.9,49134.3 h -433.8 v -1280.4 h 433.8 z"
         style="fill:#000000;fill-opacity:1;fill-rule:evenodd;stroke:#000000;stroke-width:0;stroke-linecap:round;stroke-linejoin:round;stroke-opacity:1" />
      <path
         inkscape:connector-curvature="0"
         id="path78"
         d="m 48216.9,49134.3 h -433.8 v -1280.4 h 433.8 z"
         style="fill:#000000;fill-opacity:1;fill-rule:evenodd;stroke:#000000;stroke-width:0;stroke-linecap:round;stroke-linejoin:round;stroke-opacity:1" />
      <path
         inkscape:connector-curvature="0"
         id="path80"
         d="m 51216.9,49134.3 h -433.8 v -1280.4 h 433.8 z"
         style="fill:#000000;fill-opacity:1;fill-rule:evenodd;stroke:#000000;stroke-width:0;stroke-linecap:round;stroke-linejoin:round;stroke-opacity:1" />
      <path
         inkscape:connector-curvature="0"
         id="path82"
         d="m 50216.9,49134.3 h -433.8 v -1280.4 h 433.8 z"
         style="fill:#000000;fill-opacity:1;fill-rule:evenodd;stroke:#000000;stroke-width:0;stroke-linecap:round;stroke-linejoin:round;stroke-opacity:1" />
      <path
         inkscape:connector-curvature="0"
         id="path86"
         d="m 41544.7,48147.2 58.8,11.7 64.5,26.7 58.1,38.9 49.4,49.4 38.9,58.1 26.7,64.5 13.6,68.6 v 69.8 l -13.6,68.6 -26.7,64.5 -38.9,58.1 -49.4,49.4 -58.1,38.9 -64.5,26.7 -58.8,11.7 -9.8,1.9 h -69.8 l -9.8,-1.9 -58.8,-11.7 -64.5,-26.7 -58.1,-38.9 -49.4,-49.4 -38.9,-58.1 -26.7,-64.5 -13.6,-68.6 v -69.8 l 13.6,-68.6 26.7,-64.5 38.9,-58.1 49.4,-49.4 58.1,-38.9 64.5,-26.7 58.8,-11.7 9.8,-1.9 h 69.8 z"
         style="fill:#000000;fill-opacity:1;fill-rule:evenodd;stroke:#000000;stroke-width:0;stroke-linecap:round;stroke-linejoin:round;stroke-opacity:1" />
      <path
         inkscape:connector-curvature="0"
         id="path88"
         d="m 41544.7,47147.2 58.8,11.7 64.5,26.7 58.1,38.9 49.4,49.4 38.9,58.1 26.7,64.5 13.6,68.6 v 69.8 l -13.6,68.6 -26.7,64.5 -38.9,58.1 -49.4,49.4 -58.1,38.9 -64.5,26.7 -58.8,11.7 -9.8,1.9 h -69.8 l -9.8,-1.9 -58.8,-11.7 -64.5,-26.7 -58.1,-38.9 -49.4,-49.4 -38.9,-58.1 -26.7,-64.5 -13.6,-68.6 v -69.8 l 13.6,-68.6 26.7,-64.5 38.9,-58.1 49.4,-49.4 58.1,-38.9 64.5,-26.7 58.8,-11.7 9.8,-1.9 h 69.8 z"
         style="fill:#000000;fill-opacity:1;fill-rule:evenodd;stroke:#000000;stroke-width:0;stroke-linecap:round;stroke-linejoin:round;stroke-opacity:1" />
      <path
         inkscape:connector-curvature="0"
         id="path94"
         d="m 51216.9,47146.1 h -433.8 v -1280.4 h 433.8 z"
         style="fill:#000000;fill-opacity:1;fill-rule:evenodd;stroke:#000000;stroke-width:0;stroke-linecap:round;stroke-linejoin:round;stroke-opacity:1" />
      <path
         inkscape:connector-curvature="0"
         id="path98"
         d="m 50216.9,47146.1 h -433.8 v -1280.4 h 433.8 z"
         style="fill:#000000;fill-opacity:1;fill-rule:evenodd;stroke:#000000;stroke-width:0;stroke-linecap:round;stroke-linejoin:round;stroke-opacity:1" />
      <path
         inkscape:connector-curvature="0"
         id="path100"
         d="m 48216.9,47146.1 h -433.8 v -1280.4 h 433.8 z"
         style="fill:#000000;fill-opacity:1;fill-rule:evenodd;stroke:#000000;stroke-width:0;stroke-linecap:round;stroke-linejoin:round;stroke-opacity:1" />
      <path
         inkscape:connector-curvature="0"
         id="path102"
         d="m 49216.9,47146.1 h -433.8 v -1280.4 h 433.8 z"
         style="fill:#000000;fill-opacity:1;fill-rule:evenodd;stroke:#000000;stroke-width:0;stroke-linecap:round;stroke-linejoin:round;stroke-opacity:1" />
      <path
         inkscape:connector-curvature="0"
         id="path110"
         d="m 41544.7,46147.2 58.8,11.7 64.5,26.7 58.1,38.9 49.4,49.4 38.9,58.1 26.7,64.5 13.6,68.6 v 69.8 l -13.6,68.6 -26.7,64.5 -38.9,58.1 -49.4,49.4 -58.1,38.9 -64.5,26.7 -58.8,11.7 -9.8,1.9 h -69.8 l -9.8,-1.9 -58.8,-11.7 -64.5,-26.7 -58.1,-38.9 -49.4,-49.4 -38.9,-58.1 -26.7,-64.5 -13.6,-68.6 v -69.8 l 13.6,-68.6 26.7,-64.5 38.9,-58.1 49.4,-49.4 58.1,-38.9 64.5,-26.7 58.8,-11.7 9.8,-1.9 h 69.8 z"
         style="fill:#000000;fill-opacity:1;fill-rule:evenodd;stroke:#000000;stroke-width:0;stroke-linecap:round;stroke-linejoin:round;stroke-opacity:1" />
      <path
         inkscape:connector-curvature="0"
         id="path112"
         d="m 41544.7,45147.2 58.8,11.7 64.5,26.7 58.1,38.9 49.4,49.4 38.9,58.1 26.7,64.5 13.6,68.6 v 69.8 l -13.6,68.6 -26.7,64.5 -38.9,58.1 -49.4,49.4 -58.1,38.9 -64.5,26.7 -58.8,11.7 -9.8,1.9 h -69.8 l -9.8,-1.9 -58.8,-11.7 -64.5,-26.7 -58.1,-38.9 -49.4,-49.4 -38.9,-58.1 -26.7,-64.5 -13.6,-68.6 v -69.8 l 13.6,-68.6 26.7,-64.5 38.9,-58.1 49.4,-49.4 58.1,-38.9 64.5,-26.7 58.8,-11.7 9.8,-1.9 h 69.8 z"
         style="fill:#000000;fill-opacity:1;fill-rule:evenodd;stroke:#000000;stroke-width:0;stroke-linecap:round;stroke-linejoin:round;stroke-opacity:1" />
      <path
         inkscape:connector-curvature="0"
         id="path116"
         d="m 41544.7,44147.2 58.8,11.7 64.5,26.7 58.1,38.9 49.4,49.4 38.9,58.1 26.7,64.5 13.6,68.6 v 69.8 l -13.6,68.6 -26.7,64.5 -38.9,58.1 -49.4,49.4 -58.1,38.9 -64.5,26.7 -58.8,11.7 -9.8,1.9 h -69.8 l -9.8,-1.9 -58.8,-11.7 -64.5,-26.7 -58.1,-38.9 -49.4,-49.4 -38.9,-58.1 -26.7,-64.5 -13.6,-68.6 v -69.8 l 13.6,-68.6 26.7,-64.5 38.9,-58.1 49.4,-49.4 58.1,-38.9 64.5,-26.7 58.8,-11.7 9.8,-1.9 h 69.8 z"
         style="fill:#000000;fill-opacity:1;fill-rule:evenodd;stroke:#000000;stroke-width:0;stroke-linecap:round;stroke-linejoin:round;stroke-opacity:1" />
      <path
         inkscape:connector-curvature="0"
         id="path120"
         d="m 41854.7,43854.7 h -709.4 v -709.4 h 709.4 z"
         style="fill:#000000;fill-opacity:1;fill-rule:evenodd;stroke:#000000;stroke-width:0;stroke-linecap:round;stroke-linejoin:round;stroke-opacity:1" />
      <path
         inkscape:connector-curvature="0"
         id="path126"
         d="m 43897.7,40616.7 41.9,8.3 118.3,49 106.5,71.1 90.5,90.5 71.1,106.5 49,118.3 25,125.6 v 128 l -25,125.6 -49,118.3 -71.1,106.5 -90.5,90.5 -106.5,71.1 -118.3,49 -41.9,8.3 -83.7,16.7 h -128 l -83.7,-16.7 -41.9,-8.3 -118.3,-49 -106.5,-71.1 -90.5,-90.5 -71.1,-106.5 -49,-118.3 -25,-125.6 v -128 l 25,-125.6 49,-118.3 71.1,-106.5 90.5,-90.5 106.5,-71.1 118.3,-49 41.9,-8.3 83.7,-16.7 h 128 z"
         style="fill:#000000;fill-opacity:1;fill-rule:evenodd;stroke:#000000;stroke-width:0;stroke-linecap:round;stroke-linejoin:round;stroke-opacity:1" />
      <path
         inkscape:connector-curvature="0"
         id="path128"
         d="m 54647.7,40616.7 41.9,8.3 118.3,49 106.5,71.1 90.5,90.5 71.1,106.5 49,118.3 25,125.6 v 128 l -25,125.6 -49,118.3 -71.1,106.5 -90.5,90.5 -106.5,71.1 -118.3,49 -41.9,8.3 -83.7,16.7 h -128 l -83.7,-16.7 -41.9,-8.3 -118.3,-49 -106.5,-71.1 -90.5,-90.5 -71.1,-106.5 -49,-118.3 -25,-125.6 v -128 l 25,-125.6 49,-118.3 71.1,-106.5 90.5,-90.5 106.5,-71.1 118.3,-49 41.9,-8.3 83.7,-16.7 h 128 z"
         style="fill:#000000;fill-opacity:1;fill-rule:evenodd;stroke:#000000;stroke-width:0;stroke-linecap:round;stroke-linejoin:round;stroke-opacity:1" />
    </g>
  </g>
  <g
     id="g314"
     transform="translate(-19583.335)">
    <path
       d="M 75500,60000 V 40000"
       id="path10"
       inkscape:connector-curvature="0"
       style="fill:#000000;fill-opacity:0;stroke:#000000;stroke-width:19.68499947;stroke-linecap:round;stroke-linejoin:round;stroke-opacity:1" />
    <path
       d="M 58000,60000 H 75500"
       id="path12"
       inkscape:connector-curvature="0"
       style="fill:#000000;fill-opacity:0;stroke:#000000;stroke-width:19.68499947;stroke-linecap:round;stroke-linejoin:round;stroke-opacity:1" />
    <path
       d="M 75500,40000 H 58000"
       id="path14"
       inkscape:connector-curvature="0"
       style="fill:#000000;fill-opacity:0;stroke:#000000;stroke-width:19.68499947;stroke-linecap:round;stroke-linejoin:round;stroke-opacity:1" />
    <path
       d="M 58000,40000 V 60000"
       id="path16"
       inkscape:connector-curvature="0"
       style="fill:#000000;fill-opacity:0;stroke:#000000;stroke-width:19.68499947;stroke-linecap:round;stroke-linejoin:round;stroke-opacity:1" />
    <path
       style="fill:#000000;fill-opacity:1;fill-rule:evenodd;stroke:#000000;stroke-width:0;stroke-linecap:round;stroke-linejoin:round;stroke-opacity:1"
       d="m 72647.7,58116.7 41.9,8.3 118.3,49 106.5,71.1 90.5,90.5 71.1,106.5 49,118.3 25,125.6 v 128 l -25,125.6 -49,118.3 -71.1,106.5 -90.5,90.5 -106.5,71.1 -118.3,49 -41.9,8.3 -83.7,16.7 h -128 l -83.7,-16.7 -41.9,-8.3 -118.3,-49 -106.5,-71.1 -90.5,-90.5 -71.1,-106.5 -49,-118.3 -25,-125.6 v -128 l 25,-125.6 49,-118.3 71.1,-106.5 90.5,-90.5 106.5,-71.1 118.3,-49 41.9,-8.3 83.7,-16.7 h 128 z"
       id="path32"
       inkscape:connector-curvature="0" />
    <path
       style="fill:#000000;fill-opacity:1;fill-rule:evenodd;stroke:#000000;stroke-width:0;stroke-linecap:round;stroke-linejoin:round;stroke-opacity:1"
       d="m 61897.7,58116.7 41.9,8.3 118.3,49 106.5,71.1 90.5,90.5 71.1,106.5 49,118.3 25,125.6 v 128 l -25,125.6 -49,118.3 -71.1,106.5 -90.5,90.5 -106.5,71.1 -118.3,49 -41.9,8.3 -83.7,16.7 h -128 l -83.7,-16.7 -41.9,-8.3 -118.3,-49 -106.5,-71.1 -90.5,-90.5 -71.1,-106.5 -49,-118.3 -25,-125.6 v -128 l 25,-125.6 49,-118.3 71.1,-106.5 90.5,-90.5 106.5,-71.1 118.3,-49 41.9,-8.3 83.7,-16.7 h 128 z"
       id="path34"
       inkscape:connector-curvature="0" />
    <path
       style="fill:#000000;fill-opacity:1;fill-rule:evenodd;stroke:#000000;stroke-width:0;stroke-linecap:round;stroke-linejoin:round;stroke-opacity:1"
       d="m 59544.7,56147.2 58.8,11.7 64.5,26.7 58.1,38.9 49.4,49.4 38.9,58.1 26.7,64.5 13.6,68.6 v 69.8 l -13.6,68.6 -26.7,64.5 -38.9,58.1 -49.4,49.4 -58.1,38.9 -64.5,26.7 -58.8,11.7 -9.8,1.9 h -69.8 l -9.8,-1.9 -58.8,-11.7 -64.5,-26.7 -58.1,-38.9 -49.4,-49.4 -38.9,-58.1 -26.7,-64.5 -13.6,-68.6 v -69.8 l 13.6,-68.6 26.7,-64.5 38.9,-58.1 49.4,-49.4 58.1,-38.9 64.5,-26.7 58.8,-11.7 9.8,-1.9 h 69.8 z"
       id="path36"
       inkscape:connector-curvature="0" />
    <path
       style="fill:#000000;fill-opacity:1;fill-rule:evenodd;stroke:#000000;stroke-width:0;stroke-linecap:round;stroke-linejoin:round;stroke-opacity:1"
       d="m 59544.7,55147.2 58.8,11.7 64.5,26.7 58.1,38.9 49.4,49.4 38.9,58.1 26.7,64.5 13.6,68.6 v 69.8 l -13.6,68.6 -26.7,64.5 -38.9,58.1 -49.4,49.4 -58.1,38.9 -64.5,26.7 -58.8,11.7 -9.8,1.9 h -69.8 l -9.8,-1.9 -58.8,-11.7 -64.5,-26.7 -58.1,-38.9 -49.4,-49.4 -38.9,-58.1 -26.7,-64.5 -13.6,-68.6 v -69.8 l 13.6,-68.6 26.7,-64.5 38.9,-58.1 49.4,-49.4 58.1,-38.9 64.5,-26.7 58.8,-11.7 9.8,-1.9 h 69.8 z"
       id="path42"
       inkscape:connector-curvature="0" />
    <path
       style="fill:#000000;fill-opacity:1;fill-rule:evenodd;stroke:#000000;stroke-width:0;stroke-linecap:round;stroke-linejoin:round;stroke-opacity:1"
       d="m 59544.7,54147.2 58.8,11.7 64.5,26.7 58.1,38.9 49.4,49.4 38.9,58.1 26.7,64.5 13.6,68.6 v 69.8 l -13.6,68.6 -26.7,64.5 -38.9,58.1 -49.4,49.4 -58.1,38.9 -64.5,26.7 -58.8,11.7 -9.8,1.9 h -69.8 l -9.8,-1.9 -58.8,-11.7 -64.5,-26.7 -58.1,-38.9 -49.4,-49.4 -38.9,-58.1 -26.7,-64.5 -13.6,-68.6 v -69.8 l 13.6,-68.6 26.7,-64.5 38.9,-58.1 49.4,-49.4 58.1,-38.9 64.5,-26.7 58.8,-11.7 9.8,-1.9 h 69.8 z"
       id="path44"
       inkscape:connector-curvature="0" />
    <path
       style="fill:#000000;fill-opacity:1;fill-rule:evenodd;stroke:#000000;stroke-width:0;stroke-linecap:round;stroke-linejoin:round;stroke-opacity:1"
       d="m 59544.7,53147.2 58.8,11.7 64.5,26.7 58.1,38.9 49.4,49.4 38.9,58.1 26.7,64.5 13.6,68.6 v 69.8 l -13.6,68.6 -26.7,64.5 -38.9,58.1 -49.4,49.4 -58.1,38.9 -64.5,26.7 -58.8,11.7 -9.8,1.9 h -69.8 l -9.8,-1.9 -58.8,-11.7 -64.5,-26.7 -58.1,-38.9 -49.4,-49.4 -38.9,-58.1 -26.7,-64.5 -13.6,-68.6 v -69.8 l 13.6,-68.6 26.7,-64.5 38.9,-58.1 49.4,-49.4 58.1,-38.9 64.5,-26.7 58.8,-11.7 9.8,-1.9 h 69.8 z"
       id="path48"
       inkscape:connector-curvature="0" />
    <path
       style="fill:#000000;fill-opacity:1;fill-rule:evenodd;stroke:#000000;stroke-width:0;stroke-linecap:round;stroke-linejoin:round;stroke-opacity:1"
       d="m 59544.7,52147.2 58.8,11.7 64.5,26.7 58.1,38.9 49.4,49.4 38.9,58.1 26.7,64.5 13.6,68.6 v 69.8 l -13.6,68.6 -26.7,64.5 -38.9,58.1 -49.4,49.4 -58.1,38.9 -64.5,26.7 -58.8,11.7 -9.8,1.9 h -69.8 l -9.8,-1.9 -58.8,-11.7 -64.5,-26.7 -58.1,-38.9 -49.4,-49.4 -38.9,-58.1 -26.7,-64.5 -13.6,-68.6 v -69.8 l 13.6,-68.6 26.7,-64.5 38.9,-58.1 49.4,-49.4 58.1,-38.9 64.5,-26.7 58.8,-11.7 9.8,-1.9 h 69.8 z"
       id="path52"
       inkscape:connector-curvature="0" />
    <path
       style="fill:#000000;fill-opacity:1;fill-rule:evenodd;stroke:#000000;stroke-width:0;stroke-linecap:round;stroke-linejoin:round;stroke-opacity:1"
       d="m 59544.7,51147.2 58.8,11.7 64.5,26.7 58.1,38.9 49.4,49.4 38.9,58.1 26.7,64.5 13.6,68.6 v 69.8 l -13.6,68.6 -26.7,64.5 -38.9,58.1 -49.4,49.4 -58.1,38.9 -64.5,26.7 -58.8,11.7 -9.8,1.9 h -69.8 l -9.8,-1.9 -58.8,-11.7 -64.5,-26.7 -58.1,-38.9 -49.4,-49.4 -38.9,-58.1 -26.7,-64.5 -13.6,-68.6 v -69.8 l 13.6,-68.6 26.7,-64.5 38.9,-58.1 49.4,-49.4 58.1,-38.9 64.5,-26.7 58.8,-11.7 9.8,-1.9 h 69.8 z"
       id="path56"
       inkscape:connector-curvature="0" />
    <path
       style="fill:#000000;fill-opacity:1;fill-rule:evenodd;stroke:#000000;stroke-width:0;stroke-linecap:round;stroke-linejoin:round;stroke-opacity:1"
       d="m 59544.7,50147.2 58.8,11.7 64.5,26.7 58.1,38.9 49.4,49.4 38.9,58.1 26.7,64.5 13.6,68.6 v 69.8 l -13.6,68.6 -26.7,64.5 -38.9,58.1 -49.4,49.4 -58.1,38.9 -64.5,26.7 -58.8,11.7 -9.8,1.9 h -69.8 l -9.8,-1.9 -58.8,-11.7 -64.5,-26.7 -58.1,-38.9 -49.4,-49.4 -38.9,-58.1 -26.7,-64.5 -13.6,-68.6 v -69.8 l 13.6,-68.6 26.7,-64.5 38.9,-58.1 49.4,-49.4 58.1,-38.9 64.5,-26.7 58.8,-11.7 9.8,-1.9 h 69.8 z"
       id="path60"
       inkscape:connector-curvature="0" />
    <path
       style="fill:#000000;fill-opacity:1;fill-rule:evenodd;stroke:#000000;stroke-width:0;stroke-linecap:round;stroke-linejoin:round;stroke-opacity:1"
       d="m 59544.7,49147.2 58.8,11.7 64.5,26.7 58.1,38.9 49.4,49.4 38.9,58.1 26.7,64.5 13.6,68.6 v 69.8 l -13.6,68.6 -26.7,64.5 -38.9,58.1 -49.4,49.4 -58.1,38.9 -64.5,26.7 -58.8,11.7 -9.8,1.9 h -69.8 l -9.8,-1.9 -58.8,-11.7 -64.5,-26.7 -58.1,-38.9 -49.4,-49.4 -38.9,-58.1 -26.7,-64.5 -13.6,-68.6 v -69.8 l 13.6,-68.6 26.7,-64.5 38.9,-58.1 49.4,-49.4 58.1,-38.9 64.5,-26.7 58.8,-11.7 9.8,-1.9 h 69.8 z"
       id="path64"
       inkscape:connector-curvature="0" />
    <path
       style="fill:#000000;fill-opacity:1;fill-rule:evenodd;stroke:#000000;stroke-width:0;stroke-linecap:round;stroke-linejoin:round;stroke-opacity:1"
       d="m 69216.9,49134.3 h -433.8 v -1280.4 h 433.8 z"
       id="path68"
       inkscape:connector-curvature="0" />
    <path
       style="fill:#000000;fill-opacity:1;fill-rule:evenodd;stroke:#000000;stroke-width:0;stroke-linecap:round;stroke-linejoin:round;stroke-opacity:1"
       d="m 68216.9,49134.3 h -433.8 v -1280.4 h 433.8 z"
       id="path70"
       inkscape:connector-curvature="0" />
    <path
       style="fill:#000000;fill-opacity:1;fill-rule:evenodd;stroke:#000000;stroke-width:0;stroke-linecap:round;stroke-linejoin:round;stroke-opacity:1"
       d="m 67216.9,49134.3 h -433.8 v -1280.4 h 433.8 z"
       id="path72"
       inkscape:connector-curvature="0" />
    <path
       style="fill:#000000;fill-opacity:1;fill-rule:evenodd;stroke:#000000;stroke-width:0;stroke-linecap:round;stroke-linejoin:round;stroke-opacity:1"
       d="m 66216.9,49134.3 h -433.8 v -1280.4 h 433.8 z"
       id="path74"
       inkscape:connector-curvature="0" />
    <path
       style="fill:#000000;fill-opacity:1;fill-rule:evenodd;stroke:#000000;stroke-width:0;stroke-linecap:round;stroke-linejoin:round;stroke-opacity:1"
       d="m 59544.7,48147.2 58.8,11.7 64.5,26.7 58.1,38.9 49.4,49.4 38.9,58.1 26.7,64.5 13.6,68.6 v 69.8 l -13.6,68.6 -26.7,64.5 -38.9,58.1 -49.4,49.4 -58.1,38.9 -64.5,26.7 -58.8,11.7 -9.8,1.9 h -69.8 l -9.8,-1.9 -58.8,-11.7 -64.5,-26.7 -58.1,-38.9 -49.4,-49.4 -38.9,-58.1 -26.7,-64.5 -13.6,-68.6 v -69.8 l 13.6,-68.6 26.7,-64.5 38.9,-58.1 49.4,-49.4 58.1,-38.9 64.5,-26.7 58.8,-11.7 9.8,-1.9 h 69.8 z"
       id="path84"
       inkscape:connector-curvature="0" />
    <path
       style="fill:#000000;fill-opacity:1;fill-rule:evenodd;stroke:#000000;stroke-width:0;stroke-linecap:round;stroke-linejoin:round;stroke-opacity:1"
       d="m 59544.7,47147.2 58.8,11.7 64.5,26.7 58.1,38.9 49.4,49.4 38.9,58.1 26.7,64.5 13.6,68.6 v 69.8 l -13.6,68.6 -26.7,64.5 -38.9,58.1 -49.4,49.4 -58.1,38.9 -64.5,26.7 -58.8,11.7 -9.8,1.9 h -69.8 l -9.8,-1.9 -58.8,-11.7 -64.5,-26.7 -58.1,-38.9 -49.4,-49.4 -38.9,-58.1 -26.7,-64.5 -13.6,-68.6 v -69.8 l 13.6,-68.6 26.7,-64.5 38.9,-58.1 49.4,-49.4 58.1,-38.9 64.5,-26.7 58.8,-11.7 9.8,-1.9 h 69.8 z"
       id="path90"
       inkscape:connector-curvature="0" />
    <path
       style="fill:#000000;fill-opacity:1;fill-rule:evenodd;stroke:#000000;stroke-width:0;stroke-linecap:round;stroke-linejoin:round;stroke-opacity:1"
       d="m 66216.9,47146.1 h -433.8 v -1280.4 h 433.8 z"
       id="path92"
       inkscape:connector-curvature="0" />
    <path
       style="fill:#000000;fill-opacity:1;fill-rule:evenodd;stroke:#000000;stroke-width:0;stroke-linecap:round;stroke-linejoin:round;stroke-opacity:1"
       d="m 67216.9,47146.1 h -433.8 v -1280.4 h 433.8 z"
       id="path96"
       inkscape:connector-curvature="0" />
    <path
       style="fill:#000000;fill-opacity:1;fill-rule:evenodd;stroke:#000000;stroke-width:0;stroke-linecap:round;stroke-linejoin:round;stroke-opacity:1"
       d="m 68216.9,47146.1 h -433.8 v -1280.4 h 433.8 z"
       id="path104"
       inkscape:connector-curvature="0" />
    <path
       style="fill:#000000;fill-opacity:1;fill-rule:evenodd;stroke:#000000;stroke-width:0;stroke-linecap:round;stroke-linejoin:round;stroke-opacity:1"
       d="m 69216.9,47146.1 h -433.8 v -1280.4 h 433.8 z"
       id="path106"
       inkscape:connector-curvature="0" />
    <path
       style="fill:#000000;fill-opacity:1;fill-rule:evenodd;stroke:#000000;stroke-width:0;stroke-linecap:round;stroke-linejoin:round;stroke-opacity:1"
       d="m 59544.7,46147.2 58.8,11.7 64.5,26.7 58.1,38.9 49.4,49.4 38.9,58.1 26.7,64.5 13.6,68.6 v 69.8 l -13.6,68.6 -26.7,64.5 -38.9,58.1 -49.4,49.4 -58.1,38.9 -64.5,26.7 -58.8,11.7 -9.8,1.9 h -69.8 l -9.8,-1.9 -58.8,-11.7 -64.5,-26.7 -58.1,-38.9 -49.4,-49.4 -38.9,-58.1 -26.7,-64.5 -13.6,-68.6 v -69.8 l 13.6,-68.6 26.7,-64.5 38.9,-58.1 49.4,-49.4 58.1,-38.9 64.5,-26.7 58.8,-11.7 9.8,-1.9 h 69.8 z"
       id="path108"
       inkscape:connector-curvature="0" />
    <path
       style="fill:#000000;fill-opacity:1;fill-rule:evenodd;stroke:#000000;stroke-width:0;stroke-linecap:round;stroke-linejoin:round;stroke-opacity:1"
       d="m 59544.7,45147.2 58.8,11.7 64.5,26.7 58.1,38.9 49.4,49.4 38.9,58.1 26.7,64.5 13.6,68.6 v 69.8 l -13.6,68.6 -26.7,64.5 -38.9,58.1 -49.4,49.4 -58.1,38.9 -64.5,26.7 -58.8,11.7 -9.8,1.9 h -69.8 l -9.8,-1.9 -58.8,-11.7 -64.5,-26.7 -58.1,-38.9 -49.4,-49.4 -38.9,-58.1 -26.7,-64.5 -13.6,-68.6 v -69.8 l 13.6,-68.6 26.7,-64.5 38.9,-58.1 49.4,-49.4 58.1,-38.9 64.5,-26.7 58.8,-11.7 9.8,-1.9 h 69.8 z"
       id="path114"
       inkscape:connector-curvature="0" />
    <path
       style="fill:#000000;fill-opacity:1;fill-rule:evenodd;stroke:#000000;stroke-width:0;stroke-linecap:round;stroke-linejoin:round;stroke-opacity:1"
       d="m 59544.7,44147.2 58.8,11.7 64.5,26.7 58.1,38.9 49.4,49.4 38.9,58.1 26.7,64.5 13.6,68.6 v 69.8 l -13.6,68.6 -26.7,64.5 -38.9,58.1 -49.4,49.4 -58.1,38.9 -64.5,26.7 -58.8,11.7 -9.8,1.9 h -69.8 l -9.8,-1.9 -58.8,-11.7 -64.5,-26.7 -58.1,-38.9 -49.4,-49.4 -38.9,-58.1 -26.7,-64.5 -13.6,-68.6 v -69.8 l 13.6,-68.6 26.7,-64.5 38.9,-58.1 49.4,-49.4 58.1,-38.9 64.5,-26.7 58.8,-11.7 9.8,-1.9 h 69.8 z"
       id="path118"
       inkscape:connector-curvature="0" />
    <path
       style="fill:#000000;fill-opacity:1;fill-rule:evenodd;stroke:#000000;stroke-width:0;stroke-linecap:round;stroke-linejoin:round;stroke-opacity:1"
       d="m 59854.7,43854.7 h -709.4 v -709.4 h 709.4 z"
       id="path122"
       inkscape:connector-curvature="0" />
    <path
       style="fill:#000000;fill-opacity:1;fill-rule:evenodd;stroke:#000000;stroke-width:0;stroke-linecap:round;stroke-linejoin:round;stroke-opacity:1"
       d="m 61897.7,40616.7 41.9,8.3 118.3,49 106.5,71.1 90.5,90.5 71.1,106.5 49,118.3 25,125.6 v 128 l -25,125.6 -49,118.3 -71.1,106.5 -90.5,90.5 -106.5,71.1 -118.3,49 -41.9,8.3 -83.7,16.7 h -128 l -83.7,-16.7 -41.9,-8.3 -118.3,-49 -106.5,-71.1 -90.5,-90.5 -71.1,-106.5 -49,-118.3 -25,-125.6 v -128 l 25,-125.6 49,-118.3 71.1,-106.5 90.5,-90.5 106.5,-71.1 118.3,-49 41.9,-8.3 83.7,-16.7 h 128 z"
       id="path124"
       inkscape:connector-curvature="0" />
    <path
       style="fill:#000000;fill-opacity:1;fill-rule:evenodd;stroke:#000000;stroke-width:0;stroke-linecap:round;stroke-linejoin:round;stroke-opacity:1"
       d="m 72647.7,40616.7 41.9,8.3 118.3,49 106.5,71.1 90.5,90.5 71.1,106.5 49,118.3 25,125.6 v 128 l -25,125.6 -49,118.3 -71.1,106.5 -90.5,90.5 -106.5,71.1 -118.3,49 -41.9,8.3 -83.7,16.7 h -128 l -83.7,-16.7 -41.9,-8.3 -118.3,-49 -106.5,-71.1 -90.5,-90.5 -71.1,-106.5 -49,-118.3 -25,-125.6 v -128 l 25,-125.6 49,-118.3 71.1,-106.5 90.5,-90.5 106.5,-71.1 118.3,-49 41.9,-8.3 83.7,-16.7 h 128 z"
       id="path130"
       inkscape:connector-curvature="0" />
  </g>
</svg>
