<?xml version="1.0" standalone="no"?>
 <!DOCTYPE svg PUBLIC "-//W3C//DTD SVG 1.1//EN" 
 "http://www.w3.org/Graphics/SVG/1.1/DTD/svg11.dtd"> 
<svg xmlns="http://www.w3.org/2000/svg" version="1.1" 
    width="29.7002cm" height="21.0007cm" viewBox="0 0 116930 82680 ">
<title>SVG Picture created as ControlsBoard-B_SilkS.svg date 2020/05/27 22:20:23 </title>
  <desc>Picture generated by PCBNEW </desc>
<g style="fill:#000000; fill-opacity:1;stroke:#000000; stroke-opacity:1;
stroke-linecap:round; stroke-linejoin:round; "
 transform="translate(0 0) scale(1 1)">
</g>
<g style="fill:#000000; fill-opacity:0.0; 
stroke:#000000; stroke-width:-0.000393701; stroke-opacity:1; 
stroke-linecap:round; stroke-linejoin:round;">
</g>
<g style="fill:#000000; fill-opacity:0.0; 
stroke:#000000; stroke-width:19.685; stroke-opacity:1; 
stroke-linecap:round; stroke-linejoin:round;">
<path d="M45000 28000
L45000 20000
" />
<path d="M66500 28000
L45000 28000
" />
<path d="M66500 20000
L66500 28000
" />
<path d="M45000 20000
L66500 20000
" />
</g>
<g style="fill:#000000; fill-opacity:0.0; 
stroke:#000000; stroke-width:47.2441; stroke-opacity:1; 
stroke-linecap:round; stroke-linejoin:round;">
<path d="M50257 25793
L50257 26384
" />
<path d="M49765 27368
L47993 27368
" />
<path d="M47501 26384
L47501 25793
" />
<path d="M47993 24809
L49765 24809
" />
<path d="M51502 26381
L51502 25790
" />
<path d="M51994 24806
L53766 24806
" />
<path d="M54258 25790
L54258 26381
" />
<path d="M53766 27365
L51994 27365
" />
<path d="M54257 21543
L54257 22134
" />
<path d="M53765 23118
L51993 23118
" />
<path d="M51501 22134
L51501 21543
" />
<path d="M51993 20559
L53765 20559
" />
<path d="M47492 22131
L47492 21540
" />
<path d="M47984 20556
L49756 20556
" />
<path d="M50248 21540
L50248 22131
" />
<path d="M49756 23115
L47984 23115
" />
<path d="M61735 24104
L61735 23710
" />
<path d="M61932 23907
L61538 23907
" />
<path d="M60357 21505
L59412 21505
" />
<path d="M62247 21505
L61223 21505
" />
<path d="M64058 21505
L63113 21505
" />
<path d="M63349 26741
L63231 26860
" />
<path d="M63349 26978
L63349 26741
" />
<path d="M63231 26860
L63349 26978
" />
<path d="M64058 26308
L59412 26308
" />
<path d="M64058 24694
L64058 26308
" />
<path d="M59412 24694
L59412 26308
" />
<path d="M59412 21505
L59412 23119
" />
<path d="M64058 23119
L64058 21505
" />
<circle cx="61735.7" cy="23907.2" r="1181.1" /> 
<g >
</g>
<g >
</g>
<g >
</g>
<g >
</g>
<g >
</g>
<g >
</g>
<g >
</g>
<g >
</g>
<g >
</g>
<g >
</g>
<g >
</g>
<g >
</g>
<g >
</g>
</g> 
</svg>
