<?xml version="1.0" standalone="no"?>
 <!DOCTYPE svg PUBLIC "-//W3C//DTD SVG 1.1//EN" 
 "http://www.w3.org/Graphics/SVG/1.1/DTD/svg11.dtd"> 
<svg xmlns="http://www.w3.org/2000/svg" version="1.1" 
    width="29.7002cm" height="21.0007cm" viewBox="0 0 116930 82680 ">
<title>SVG Picture created as ControlsBoard-brd.svg date 2020/04/13 00:03:24 </title>
  <desc>Picture generated by PCBNEW </desc>
<g style="fill:#000000; fill-opacity:1;stroke:#000000; stroke-opacity:1;
stroke-linecap:round; stroke-linejoin:round; "
 transform="translate(0 0) scale(1 1)">
</g>
<g style="fill:#000000; fill-opacity:0.0; 
stroke:#000000; stroke-width:-0.000393701; stroke-opacity:1; 
stroke-linecap:round; stroke-linejoin:round;">
</g>
<g style="fill:#000000; fill-opacity:0.0; 
stroke:#000000; stroke-width:590.551; stroke-opacity:1; 
stroke-linecap:round; stroke-linejoin:round;">
<circle cx="33400" cy="39700" r="950.027" /> 
<circle cx="17250" cy="39700" r="950.027" /> 
<circle cx="17200" cy="21800" r="950.027" /> 
<circle cx="33400" cy="21792.9" r="950.027" /> 
<g >
</g>
<g >
</g>
<g >
</g>
<g >
</g>
<g >
</g>
<g style="fill:#000000; fill-opacity:0.0; 
stroke:#000000; stroke-width:590.551; stroke-opacity:1; 
stroke-linecap:round; stroke-linejoin:round;">
</g>
<g style="fill:#000000; fill-opacity:0.0; 
stroke:#000000; stroke-width:0; stroke-opacity:1; 
stroke-linecap:round; stroke-linejoin:round;">
</g>
<g style="fill:#000000; fill-opacity:1.0; 
stroke:#000000; stroke-width:0; stroke-opacity:1; 
stroke-linecap:round; stroke-linejoin:round;">
<path style="fill:#000000; fill-opacity:1.0; 
stroke:#000000; stroke-width:0; stroke-opacity:1; 
stroke-linecap:round; stroke-linejoin:round;fill-rule:evenodd;"
d="M 27883.1,24617.3
28276.9,24617.3
28276.9,25798.4
27883.1,25798.4
Z" /> 
<path style="fill:#000000; fill-opacity:1.0; 
stroke:#000000; stroke-width:0; stroke-opacity:1; 
stroke-linecap:round; stroke-linejoin:round;fill-rule:evenodd;"
d="M 27883.1,26601.6
28276.9,26601.6
28276.9,27782.7
27883.1,27782.7
Z" /> 
<path style="fill:#000000; fill-opacity:1.0; 
stroke:#000000; stroke-width:0; stroke-opacity:1; 
stroke-linecap:round; stroke-linejoin:round;fill-rule:evenodd;"
d="M 28883.1,24617.3
29276.9,24617.3
29276.9,25798.4
28883.1,25798.4
Z" /> 
<path style="fill:#000000; fill-opacity:1.0; 
stroke:#000000; stroke-width:0; stroke-opacity:1; 
stroke-linecap:round; stroke-linejoin:round;fill-rule:evenodd;"
d="M 28883.1,26601.6
29276.9,26601.6
29276.9,27782.7
28883.1,27782.7
Z" /> 
<path style="fill:#000000; fill-opacity:1.0; 
stroke:#000000; stroke-width:0; stroke-opacity:1; 
stroke-linecap:round; stroke-linejoin:round;fill-rule:evenodd;"
d="M 29883.1,24617.3
30276.9,24617.3
30276.9,25798.4
29883.1,25798.4
Z" /> 
<path style="fill:#000000; fill-opacity:1.0; 
stroke:#000000; stroke-width:0; stroke-opacity:1; 
stroke-linecap:round; stroke-linejoin:round;fill-rule:evenodd;"
d="M 29883.1,26601.6
30276.9,26601.6
30276.9,27782.7
29883.1,27782.7
Z" /> 
<path style="fill:#000000; fill-opacity:1.0; 
stroke:#000000; stroke-width:0; stroke-opacity:1; 
stroke-linecap:round; stroke-linejoin:round;fill-rule:evenodd;"
d="M 30883.1,24617.3
31276.9,24617.3
31276.9,25798.4
30883.1,25798.4
Z" /> 
<path style="fill:#000000; fill-opacity:1.0; 
stroke:#000000; stroke-width:0; stroke-opacity:1; 
stroke-linecap:round; stroke-linejoin:round;fill-rule:evenodd;"
d="M 30883.1,26601.6
31276.9,26601.6
31276.9,27782.7
30883.1,27782.7
Z" /> 
<path style="fill:#000000; fill-opacity:1.0; 
stroke:#000000; stroke-width:0; stroke-opacity:1; 
stroke-linecap:round; stroke-linejoin:round;fill-rule:evenodd;"
d="M 31883.1,24617.3
32276.9,24617.3
32276.9,25798.4
31883.1,25798.4
Z" /> 
<path style="fill:#000000; fill-opacity:1.0; 
stroke:#000000; stroke-width:0; stroke-opacity:1; 
stroke-linecap:round; stroke-linejoin:round;fill-rule:evenodd;"
d="M 31883.1,26601.6
32276.9,26601.6
32276.9,27782.7
31883.1,27782.7
Z" /> 
<path style="fill:#000000; fill-opacity:1.0; 
stroke:#000000; stroke-width:0; stroke-opacity:1; 
stroke-linecap:round; stroke-linejoin:round;fill-rule:evenodd;"
d="M 32883.1,24617.3
33276.9,24617.3
33276.9,25798.4
32883.1,25798.4
Z" /> 
<path style="fill:#000000; fill-opacity:1.0; 
stroke:#000000; stroke-width:0; stroke-opacity:1; 
stroke-linecap:round; stroke-linejoin:round;fill-rule:evenodd;"
d="M 32883.1,26601.6
33276.9,26601.6
33276.9,27782.7
32883.1,27782.7
Z" /> 
</g>
<g >
</g>
<g style="fill:#000000; fill-opacity:1.0; 
stroke:#000000; stroke-width:0; stroke-opacity:1; 
stroke-linecap:round; stroke-linejoin:round;">
<circle cx="17925" cy="37600" r="393.701" /> 
</g>
<g style="fill:#000000; fill-opacity:1.0; 
stroke:#000000; stroke-width:39.3701; stroke-opacity:1; 
stroke-linecap:round; stroke-linejoin:round;">
</g>
<g style="fill:#000000; fill-opacity:1.0; 
stroke:#000000; stroke-width:0; stroke-opacity:1; 
stroke-linecap:round; stroke-linejoin:round;">
<circle cx="17925" cy="32600" r="393.701" /> 
</g>
<g style="fill:#000000; fill-opacity:1.0; 
stroke:#000000; stroke-width:39.3701; stroke-opacity:1; 
stroke-linecap:round; stroke-linejoin:round;">
</g>
<g style="fill:#000000; fill-opacity:1.0; 
stroke:#000000; stroke-width:0; stroke-opacity:1; 
stroke-linecap:round; stroke-linejoin:round;">
<circle cx="19925" cy="37600" r="393.701" /> 
</g>
<g style="fill:#000000; fill-opacity:1.0; 
stroke:#000000; stroke-width:39.3701; stroke-opacity:1; 
stroke-linecap:round; stroke-linejoin:round;">
</g>
<g style="fill:#000000; fill-opacity:1.0; 
stroke:#000000; stroke-width:0; stroke-opacity:1; 
stroke-linecap:round; stroke-linejoin:round;">
<circle cx="19925" cy="32600" r="393.701" /> 
</g>
<g style="fill:#000000; fill-opacity:1.0; 
stroke:#000000; stroke-width:39.3701; stroke-opacity:1; 
stroke-linecap:round; stroke-linejoin:round;">
</g>
<g >
</g>
<g style="fill:#000000; fill-opacity:1.0; 
stroke:#000000; stroke-width:39.3701; stroke-opacity:1; 
stroke-linecap:round; stroke-linejoin:round;">
</g>
<g style="fill:#000000; fill-opacity:1.0; 
stroke:#000000; stroke-width:0; stroke-opacity:1; 
stroke-linecap:round; stroke-linejoin:round;">
<path style="fill:#000000; fill-opacity:1.0; 
stroke:#000000; stroke-width:0; stroke-opacity:1; 
stroke-linecap:round; stroke-linejoin:round;fill-rule:evenodd;"
d="M 32555.7,37180.6
32565.3,37182
32574.6,37184.4
32583.7,37187.6
32592.5,37191.7
32600.7,37196.7
32608.5,37202.5
32615.7,37208.9
32622.1,37216.1
32627.9,37223.9
32632.9,37232.1
32637,37240.9
32640.2,37250
32642.6,37259.3
32644,37268.9
32644.5,37278.5
32644.5,37642.7
32644,37652.4
32642.6,37661.9
32640.2,37671.3
32637,37680.4
32632.9,37689.1
32627.9,37697.4
32622.1,37705.2
32615.7,37712.3
32608.5,37718.8
32600.7,37724.6
32592.5,37729.5
32583.7,37733.6
32574.6,37736.9
32565.3,37739.3
32555.7,37740.7
32546.1,37741.1
32053.9,37741.1
32044.3,37740.7
32034.7,37739.3
32025.4,37736.9
32016.3,37733.6
32007.5,37729.5
31999.3,37724.6
31991.5,37718.8
31984.3,37712.3
31977.9,37705.2
31972.1,37697.4
31967.1,37689.1
31963,37680.4
31959.8,37671.3
31957.4,37661.9
31956,37652.4
31955.5,37642.7
31955.5,37278.5
31956,37268.9
31957.4,37259.3
31959.8,37250
31963,37240.9
31967.1,37232.1
31972.1,37223.9
31977.9,37216.1
31984.3,37208.9
31991.5,37202.5
31999.3,37196.7
32007.5,37191.7
32016.3,37187.6
32025.4,37184.4
32034.7,37182
32044.3,37180.6
32053.9,37180.1
32546.1,37180.1
Z" /> 
<path style="fill:#000000; fill-opacity:1.0; 
stroke:#000000; stroke-width:0; stroke-opacity:1; 
stroke-linecap:round; stroke-linejoin:round;fill-rule:evenodd;"
d="M 32555.7,36009.3
32565.3,36010.7
32574.6,36013.1
32583.7,36016.4
32592.5,36020.5
32600.7,36025.4
32608.5,36031.2
32615.7,36037.7
32622.1,36044.8
32627.9,36052.6
32632.9,36060.9
32637,36069.6
32640.2,36078.7
32642.6,36088.1
32644,36097.6
32644.5,36107.3
32644.5,36471.5
32644,36481.1
32642.6,36490.7
32640.2,36500
32637,36509.1
32632.9,36517.9
32627.9,36526.1
32622.1,36533.9
32615.7,36541.1
32608.5,36547.5
32600.7,36553.3
32592.5,36558.3
32583.7,36562.4
32574.6,36565.6
32565.3,36568
32555.7,36569.4
32546.1,36569.9
32053.9,36569.9
32044.3,36569.4
32034.7,36568
32025.4,36565.6
32016.3,36562.4
32007.5,36558.3
31999.3,36553.3
31991.5,36547.5
31984.3,36541.1
31977.9,36533.9
31972.1,36526.1
31967.1,36517.9
31963,36509.1
31959.8,36500
31957.4,36490.7
31956,36481.1
31955.5,36471.5
31955.5,36107.3
31956,36097.6
31957.4,36088.1
31959.8,36078.7
31963,36069.6
31967.1,36060.9
31972.1,36052.6
31977.9,36044.8
31984.3,36037.7
31991.5,36031.2
31999.3,36025.4
32007.5,36020.5
32016.3,36016.4
32025.4,36013.1
32034.7,36010.7
32044.3,36009.3
32053.9,36008.9
32546.1,36008.9
Z" /> 
</g>
<g >
</g>
<g style="fill:#000000; fill-opacity:1.0; 
stroke:#000000; stroke-width:0; stroke-opacity:1; 
stroke-linecap:round; stroke-linejoin:round;">
<path style="fill:#000000; fill-opacity:1.0; 
stroke:#000000; stroke-width:0; stroke-opacity:1; 
stroke-linecap:round; stroke-linejoin:round;fill-rule:evenodd;"
d="M 28930.7,37180.6
28940.3,37182
28949.6,37184.4
28958.7,37187.6
28967.5,37191.7
28975.7,37196.7
28983.5,37202.5
28990.7,37208.9
28997.1,37216.1
29002.9,37223.9
29007.9,37232.1
29012,37240.9
29015.2,37250
29017.6,37259.3
29019,37268.9
29019.5,37278.5
29019.5,37642.7
29019,37652.4
29017.6,37661.9
29015.2,37671.3
29012,37680.4
29007.9,37689.1
29002.9,37697.4
28997.1,37705.2
28990.7,37712.3
28983.5,37718.8
28975.7,37724.6
28967.5,37729.5
28958.7,37733.6
28949.6,37736.9
28940.3,37739.3
28930.7,37740.7
28921.1,37741.1
28428.9,37741.1
28419.3,37740.7
28409.7,37739.3
28400.4,37736.9
28391.3,37733.6
28382.5,37729.5
28374.3,37724.6
28366.5,37718.8
28359.3,37712.3
28352.9,37705.2
28347.1,37697.4
28342.1,37689.1
28338,37680.4
28334.8,37671.3
28332.4,37661.9
28331,37652.4
28330.5,37642.7
28330.5,37278.5
28331,37268.9
28332.4,37259.3
28334.8,37250
28338,37240.9
28342.1,37232.1
28347.1,37223.9
28352.9,37216.1
28359.3,37208.9
28366.5,37202.5
28374.3,37196.7
28382.5,37191.7
28391.3,37187.6
28400.4,37184.4
28409.7,37182
28419.3,37180.6
28428.9,37180.1
28921.1,37180.1
Z" /> 
<path style="fill:#000000; fill-opacity:1.0; 
stroke:#000000; stroke-width:0; stroke-opacity:1; 
stroke-linecap:round; stroke-linejoin:round;fill-rule:evenodd;"
d="M 28930.7,36009.3
28940.3,36010.7
28949.6,36013.1
28958.7,36016.4
28967.5,36020.5
28975.7,36025.4
28983.5,36031.2
28990.7,36037.7
28997.1,36044.8
29002.9,36052.6
29007.9,36060.9
29012,36069.6
29015.2,36078.7
29017.6,36088.1
29019,36097.6
29019.5,36107.3
29019.5,36471.5
29019,36481.1
29017.6,36490.7
29015.2,36500
29012,36509.1
29007.9,36517.9
29002.9,36526.1
28997.1,36533.9
28990.7,36541.1
28983.5,36547.5
28975.7,36553.3
28967.5,36558.3
28958.7,36562.4
28949.6,36565.6
28940.3,36568
28930.7,36569.4
28921.1,36569.9
28428.9,36569.9
28419.3,36569.4
28409.7,36568
28400.4,36565.6
28391.3,36562.4
28382.5,36558.3
28374.3,36553.3
28366.5,36547.5
28359.3,36541.1
28352.9,36533.9
28347.1,36526.1
28342.1,36517.9
28338,36509.1
28334.8,36500
28332.4,36490.7
28331,36481.1
28330.5,36471.5
28330.5,36107.3
28331,36097.6
28332.4,36088.1
28334.8,36078.7
28338,36069.6
28342.1,36060.9
28347.1,36052.6
28352.9,36044.8
28359.3,36037.7
28366.5,36031.2
28374.3,36025.4
28382.5,36020.5
28391.3,36016.4
28400.4,36013.1
28409.7,36010.7
28419.3,36009.3
28428.9,36008.9
28921.1,36008.9
Z" /> 
</g>
<g >
</g>
<g style="fill:#000000; fill-opacity:1.0; 
stroke:#000000; stroke-width:0; stroke-opacity:1; 
stroke-linecap:round; stroke-linejoin:round;">
<path style="fill:#000000; fill-opacity:1.0; 
stroke:#000000; stroke-width:0; stroke-opacity:1; 
stroke-linecap:round; stroke-linejoin:round;fill-rule:evenodd;"
d="M 27406.3,31318.7
27406.3,30531.3
28193.7,30531.3
28193.7,31318.7
Z" /> 
<circle cx="27800" cy="31909.3" r="393.701" /> 
</g>
<g style="fill:#000000; fill-opacity:1.0; 
stroke:#000000; stroke-width:39.3701; stroke-opacity:1; 
stroke-linecap:round; stroke-linejoin:round;">
</g>
<g style="fill:#000000; fill-opacity:1.0; 
stroke:#000000; stroke-width:0; stroke-opacity:1; 
stroke-linecap:round; stroke-linejoin:round;">
<circle cx="27800" cy="32893.5" r="393.701" /> 
</g>
<g style="fill:#000000; fill-opacity:1.0; 
stroke:#000000; stroke-width:39.3701; stroke-opacity:1; 
stroke-linecap:round; stroke-linejoin:round;">
</g>
<g style="fill:#000000; fill-opacity:1.0; 
stroke:#000000; stroke-width:0; stroke-opacity:1; 
stroke-linecap:round; stroke-linejoin:round;">
<path style="fill:#000000; fill-opacity:1.0; 
stroke:#000000; stroke-width:0; stroke-opacity:1; 
stroke-linecap:round; stroke-linejoin:round;fill-rule:evenodd;"
d="M 30122.8,30098.2
30122.8,29310.8
31382.7,29310.8
31382.7,30098.2
Z" /> 
<path style="fill:#000000; fill-opacity:1.0; 
stroke:#000000; stroke-width:0; stroke-opacity:1; 
stroke-linecap:round; stroke-linejoin:round;fill-rule:evenodd;"
d="M 30122.8,34507.7
30122.8,33720.3
31382.7,33720.3
31382.7,34507.7
Z" /> 
<circle cx="33508.7" cy="30925" r="393.701" /> 
</g>
<g style="fill:#000000; fill-opacity:1.0; 
stroke:#000000; stroke-width:39.3701; stroke-opacity:1; 
stroke-linecap:round; stroke-linejoin:round;">
</g>
<g style="fill:#000000; fill-opacity:1.0; 
stroke:#000000; stroke-width:0; stroke-opacity:1; 
stroke-linecap:round; stroke-linejoin:round;">
<circle cx="33508.7" cy="32893.5" r="393.701" /> 
</g>
<g style="fill:#000000; fill-opacity:1.0; 
stroke:#000000; stroke-width:39.3701; stroke-opacity:1; 
stroke-linecap:round; stroke-linejoin:round;">
</g>
<g >
</g>
<g style="fill:#000000; fill-opacity:1.0; 
stroke:#000000; stroke-width:39.3701; stroke-opacity:1; 
stroke-linecap:round; stroke-linejoin:round;">
</g>
<g style="fill:#000000; fill-opacity:1.0; 
stroke:#000000; stroke-width:0; stroke-opacity:1; 
stroke-linecap:round; stroke-linejoin:round;">
<circle cx="23225" cy="31275" r="393.701" /> 
</g>
<g style="fill:#000000; fill-opacity:1.0; 
stroke:#000000; stroke-width:39.3701; stroke-opacity:1; 
stroke-linecap:round; stroke-linejoin:round;">
</g>
<g style="fill:#000000; fill-opacity:1.0; 
stroke:#000000; stroke-width:0; stroke-opacity:1; 
stroke-linecap:round; stroke-linejoin:round;">
<circle cx="23225" cy="26275" r="393.701" /> 
</g>
<g style="fill:#000000; fill-opacity:1.0; 
stroke:#000000; stroke-width:39.3701; stroke-opacity:1; 
stroke-linecap:round; stroke-linejoin:round;">
</g>
<g style="fill:#000000; fill-opacity:1.0; 
stroke:#000000; stroke-width:0; stroke-opacity:1; 
stroke-linecap:round; stroke-linejoin:round;">
<circle cx="25225" cy="31275" r="393.701" /> 
</g>
<g style="fill:#000000; fill-opacity:1.0; 
stroke:#000000; stroke-width:39.3701; stroke-opacity:1; 
stroke-linecap:round; stroke-linejoin:round;">
</g>
<g style="fill:#000000; fill-opacity:1.0; 
stroke:#000000; stroke-width:0; stroke-opacity:1; 
stroke-linecap:round; stroke-linejoin:round;">
<circle cx="25225" cy="26275" r="393.701" /> 
</g>
<g style="fill:#000000; fill-opacity:1.0; 
stroke:#000000; stroke-width:39.3701; stroke-opacity:1; 
stroke-linecap:round; stroke-linejoin:round;">
</g>
<g >
</g>
<g style="fill:#000000; fill-opacity:1.0; 
stroke:#000000; stroke-width:39.3701; stroke-opacity:1; 
stroke-linecap:round; stroke-linejoin:round;">
</g>
<g style="fill:#000000; fill-opacity:1.0; 
stroke:#000000; stroke-width:0; stroke-opacity:1; 
stroke-linecap:round; stroke-linejoin:round;">
<circle cx="19950" cy="26275" r="393.701" /> 
</g>
<g style="fill:#000000; fill-opacity:1.0; 
stroke:#000000; stroke-width:39.3701; stroke-opacity:1; 
stroke-linecap:round; stroke-linejoin:round;">
</g>
<g style="fill:#000000; fill-opacity:1.0; 
stroke:#000000; stroke-width:0; stroke-opacity:1; 
stroke-linecap:round; stroke-linejoin:round;">
<circle cx="19950" cy="31275" r="393.701" /> 
</g>
<g style="fill:#000000; fill-opacity:1.0; 
stroke:#000000; stroke-width:39.3701; stroke-opacity:1; 
stroke-linecap:round; stroke-linejoin:round;">
</g>
<g style="fill:#000000; fill-opacity:1.0; 
stroke:#000000; stroke-width:0; stroke-opacity:1; 
stroke-linecap:round; stroke-linejoin:round;">
<circle cx="17950" cy="26275" r="393.701" /> 
</g>
<g style="fill:#000000; fill-opacity:1.0; 
stroke:#000000; stroke-width:39.3701; stroke-opacity:1; 
stroke-linecap:round; stroke-linejoin:round;">
</g>
<g style="fill:#000000; fill-opacity:1.0; 
stroke:#000000; stroke-width:0; stroke-opacity:1; 
stroke-linecap:round; stroke-linejoin:round;">
<circle cx="17950" cy="31275" r="393.701" /> 
</g>
<g style="fill:#000000; fill-opacity:1.0; 
stroke:#000000; stroke-width:39.3701; stroke-opacity:1; 
stroke-linecap:round; stroke-linejoin:round;">
</g>
<g >
</g>
<g style="fill:#000000; fill-opacity:1.0; 
stroke:#000000; stroke-width:39.3701; stroke-opacity:1; 
stroke-linecap:round; stroke-linejoin:round;">
</g>
<g style="fill:#000000; fill-opacity:1.0; 
stroke:#000000; stroke-width:0; stroke-opacity:1; 
stroke-linecap:round; stroke-linejoin:round;">
<circle cx="25250" cy="32575" r="393.701" /> 
</g>
<g style="fill:#000000; fill-opacity:1.0; 
stroke:#000000; stroke-width:39.3701; stroke-opacity:1; 
stroke-linecap:round; stroke-linejoin:round;">
</g>
<g style="fill:#000000; fill-opacity:1.0; 
stroke:#000000; stroke-width:0; stroke-opacity:1; 
stroke-linecap:round; stroke-linejoin:round;">
<circle cx="25250" cy="37575" r="393.701" /> 
</g>
<g style="fill:#000000; fill-opacity:1.0; 
stroke:#000000; stroke-width:39.3701; stroke-opacity:1; 
stroke-linecap:round; stroke-linejoin:round;">
</g>
<g style="fill:#000000; fill-opacity:1.0; 
stroke:#000000; stroke-width:0; stroke-opacity:1; 
stroke-linecap:round; stroke-linejoin:round;">
<circle cx="23250" cy="32575" r="393.701" /> 
</g>
<g style="fill:#000000; fill-opacity:1.0; 
stroke:#000000; stroke-width:39.3701; stroke-opacity:1; 
stroke-linecap:round; stroke-linejoin:round;">
</g>
<g style="fill:#000000; fill-opacity:1.0; 
stroke:#000000; stroke-width:0; stroke-opacity:1; 
stroke-linecap:round; stroke-linejoin:round;">
<circle cx="23250" cy="37575" r="393.701" /> 
</g>
<g style="fill:#000000; fill-opacity:1.0; 
stroke:#000000; stroke-width:39.3701; stroke-opacity:1; 
stroke-linecap:round; stroke-linejoin:round;">
</g>
<g >
</g>
<g style="fill:#000000; fill-opacity:1.0; 
stroke:#000000; stroke-width:39.3701; stroke-opacity:1; 
stroke-linecap:round; stroke-linejoin:round;">
</g>
<g style="fill:#000000; fill-opacity:1.0; 
stroke:#000000; stroke-width:0; stroke-opacity:1; 
stroke-linecap:round; stroke-linejoin:round;">
<circle cx="23225" cy="25225" r="393.701" /> 
</g>
<g style="fill:#000000; fill-opacity:1.0; 
stroke:#000000; stroke-width:39.3701; stroke-opacity:1; 
stroke-linecap:round; stroke-linejoin:round;">
</g>
<g style="fill:#000000; fill-opacity:1.0; 
stroke:#000000; stroke-width:0; stroke-opacity:1; 
stroke-linecap:round; stroke-linejoin:round;">
<circle cx="28559.3" cy="31909.3" r="393.701" /> 
</g>
<g style="fill:#000000; fill-opacity:1.0; 
stroke:#000000; stroke-width:39.3701; stroke-opacity:1; 
stroke-linecap:round; stroke-linejoin:round;">
</g>
<g style="fill:#000000; fill-opacity:1.0; 
stroke:#000000; stroke-width:0; stroke-opacity:1; 
stroke-linecap:round; stroke-linejoin:round;">
<circle cx="33520" cy="29750" r="393.701" /> 
</g>
<g style="fill:#000000; fill-opacity:1.0; 
stroke:#000000; stroke-width:39.3701; stroke-opacity:1; 
stroke-linecap:round; stroke-linejoin:round;">
</g>
<g style="fill:#000000; fill-opacity:1.0; 
stroke:#000000; stroke-width:0; stroke-opacity:1; 
stroke-linecap:round; stroke-linejoin:round;">
<circle cx="31100" cy="28525" r="393.701" /> 
</g>
<g style="fill:#000000; fill-opacity:1.0; 
stroke:#000000; stroke-width:39.3701; stroke-opacity:1; 
stroke-linecap:round; stroke-linejoin:round;">
</g>
<g >
</g>
<g style="fill:#000000; fill-opacity:1.0; 
stroke:#000000; stroke-width:39.3701; stroke-opacity:1; 
stroke-linecap:round; stroke-linejoin:round;">
</g>
<g style="fill:#000000; fill-opacity:1.0; 
stroke:#000000; stroke-width:393.701; stroke-opacity:1; 
stroke-linecap:round; stroke-linejoin:round;">
</g>
<g style="fill:#000000; fill-opacity:0.0; 
stroke:#000000; stroke-width:393.701; stroke-opacity:1; 
stroke-linecap:round; stroke-linejoin:round;">
<path d="M23225 27980
L23225 26275
" />
<path d="M23225 27975
L23225 28950
" />
<path d="M28559 31909
L27800 31909
" />
<path d="M23225 28950
L23225 27980
" />
<path d="M24200 28950
L23225 28950
" />
<path d="M25175 34675
L24250 34675
" />
<path d="M25250 34750
L25175 34675
" />
<path d="M25250 37575
L25250 34750
" />
<path d="M24250 34675
L24230 34655
" />
<path d="M24230 34655
L24230 28980
" />
<path d="M24230 28980
L24200 28950
" />
<path d="M20025 28950
L23225 28950
" />
<path d="M19950 31275
L19950 29025
" />
<path d="M19950 29025
L20025 28950
" />
<path d="M18925 32600
L17925 32600
" />
<path d="M18925 31350
L18925 32600
" />
<path d="M19950 31275
L19000 31275
" />
<path d="M19000 31275
L18925 31350
" />
<path d="M33508 29761
L33508 31025
" />
<path d="M33520 29750
L33508 29761
" />
<path d="M26017 27192
L24230 28980
" />
<path d="M28080 27192
L26017 27192
" />
<path d="M31090 28515
L31100 28525
" />
<path d="M31090 27402
L31090 28515
" />
<path d="M23225 25225
L23225 26275
" />
<path d="M28080 25207
L23242 25207
" />
<path d="M23242 25207
L23225 25225
" />
</g>
<g style="fill:#000000; fill-opacity:0.0; 
stroke:#000000; stroke-width:275.591; stroke-opacity:1; 
stroke-linecap:round; stroke-linejoin:round;">
<path d="M25325 26175
L25225 26275
" />
<path d="M29080 25387
L29080 26175
" />
<path d="M29080 26175
L25325 26175
" />
</g>
<g style="fill:#000000; fill-opacity:0.0; 
stroke:#000000; stroke-width:393.701; stroke-opacity:1; 
stroke-linecap:round; stroke-linejoin:round;">
<path d="M26400 36289
L28675 36289
" />
<path d="M27850 30925
L26400 30925
" />
<path d="M26400 30925
L26400 36289
" />
<path d="M27800 29420
L27800 30875
" />
<path d="M29080 27372
L29080 28140
" />
<path d="M29080 28140
L27800 29420
" />
</g>
<g style="fill:#000000; fill-opacity:0.0; 
stroke:#000000; stroke-width:275.591; stroke-opacity:1; 
stroke-linecap:round; stroke-linejoin:round;">
<path d="M30070 25612
L30050 25592
" />
</g>
<g style="fill:#000000; fill-opacity:0.0; 
stroke:#000000; stroke-width:393.701; stroke-opacity:1; 
stroke-linecap:round; stroke-linejoin:round;">
<path d="M17950 27925
L17950 31275
" />
<path d="M30080 25387
L30080 23700
" />
<path d="M30080 23700
L22625 23700
" />
<path d="M22625 23700
L21725 24600
" />
<path d="M21725 24600
L21725 27750
" />
<path d="M18075 27800
L17950 27925
" />
<path d="M21725 27750
L21675 27800
" />
<path d="M21675 27800
L18075 27800
" />
<path d="M27800 32893
L27800 35325
" />
<path d="M27800 35325
L32300 35325
" />
<path d="M32300 35325
L32300 36289
" />
<path d="M29425 28835
L29425 32900
" />
<path d="M27806 32900
L27800 32893
" />
<path d="M29425 32900
L27806 32900
" />
<path d="M30080 27372
L30080 28180
" />
<path d="M30080 28180
L29425 28835
" />
<path d="M19925 34500
L19925 32600
" />
<path d="M30600 22900
L19700 22900
" />
<path d="M31080 23380
L30600 22900
" />
<path d="M31080 25562
L31080 23380
" />
<path d="M19700 22900
L16950 25650
" />
<path d="M16950 25650
L16950 34500
" />
<path d="M16950 34500
L19925 34500
" />
<path d="M32080 23130
L32080 25562
" />
<path d="M23250 35800
L16300 35800
" />
<path d="M23250 37575
L23250 35800
" />
<path d="M16300 35800
L16300 25300
" />
<path d="M16300 25300
L19600 22000
" />
<path d="M19600 22000
L30950 22000
" />
<path d="M30950 22000
L32080 23130
" />
<path d="M33350 32875
L33450 32975
" />
</g>
<g style="fill:#000000; fill-opacity:0.0; 
stroke:#000000; stroke-width:196.85; stroke-opacity:1; 
stroke-linecap:round; stroke-linejoin:round;">
<path d="M33308 32993
L33568 32993
" />
</g>
<g style="fill:#000000; fill-opacity:0.0; 
stroke:#000000; stroke-width:393.701; stroke-opacity:1; 
stroke-linecap:round; stroke-linejoin:round;">
<path d="M32080 32893
L32080 27372
" />
<path d="M33508 32893
L32080 32893
" />
<path d="M33070 27597
L33070 25612
" />
<path d="M34355 37460
L28675 37460
" />
<path d="M34355 26680
L34355 37460
" />
<path d="M33070 26055
L33730 26055
" />
<path d="M33730 26055
L34355 26680
" />
<path d="M17950 37625
L17925 37600
" />
</g>
<g >
</g>
</g>
<g style="fill:#FFFFFF; fill-opacity:0.0; 
stroke:#FFFFFF; stroke-width:393.701; stroke-opacity:1; 
stroke-linecap:round; stroke-linejoin:round;">
</g>
<g style="fill:#FFFFFF; fill-opacity:1.0; 
stroke:#FFFFFF; stroke-width:0; stroke-opacity:1; 
stroke-linecap:round; stroke-linejoin:round;">
<circle cx="23225" cy="25225" r="196.85" /> 
</g>
<g style="fill:#FFFFFF; fill-opacity:1.0; 
stroke:#FFFFFF; stroke-width:39.3701; stroke-opacity:1; 
stroke-linecap:round; stroke-linejoin:round;">
</g>
<g style="fill:#FFFFFF; fill-opacity:1.0; 
stroke:#FFFFFF; stroke-width:0; stroke-opacity:1; 
stroke-linecap:round; stroke-linejoin:round;">
<circle cx="28559.3" cy="31909.3" r="196.85" /> 
</g>
<g style="fill:#FFFFFF; fill-opacity:1.0; 
stroke:#FFFFFF; stroke-width:39.3701; stroke-opacity:1; 
stroke-linecap:round; stroke-linejoin:round;">
</g>
<g style="fill:#FFFFFF; fill-opacity:1.0; 
stroke:#FFFFFF; stroke-width:0; stroke-opacity:1; 
stroke-linecap:round; stroke-linejoin:round;">
<circle cx="33520" cy="29750" r="196.85" /> 
</g>
<g style="fill:#FFFFFF; fill-opacity:1.0; 
stroke:#FFFFFF; stroke-width:39.3701; stroke-opacity:1; 
stroke-linecap:round; stroke-linejoin:round;">
</g>
<g style="fill:#FFFFFF; fill-opacity:1.0; 
stroke:#FFFFFF; stroke-width:0; stroke-opacity:1; 
stroke-linecap:round; stroke-linejoin:round;">
<circle cx="31100" cy="28525" r="196.85" /> 
</g>
<g style="fill:#FFFFFF; fill-opacity:1.0; 
stroke:#FFFFFF; stroke-width:39.3701; stroke-opacity:1; 
stroke-linecap:round; stroke-linejoin:round;">
</g>
<g style="fill:#FFFFFF; fill-opacity:1.0; 
stroke:#FFFFFF; stroke-width:0; stroke-opacity:1; 
stroke-linecap:round; stroke-linejoin:round;">
<circle cx="17250" cy="39700" r="629.921" /> 
</g>
<g style="fill:#FFFFFF; fill-opacity:1.0; 
stroke:#FFFFFF; stroke-width:39.3701; stroke-opacity:1; 
stroke-linecap:round; stroke-linejoin:round;">
</g>
<g style="fill:#FFFFFF; fill-opacity:1.0; 
stroke:#FFFFFF; stroke-width:0; stroke-opacity:1; 
stroke-linecap:round; stroke-linejoin:round;">
<circle cx="33400" cy="39700" r="629.921" /> 
</g>
<g style="fill:#FFFFFF; fill-opacity:1.0; 
stroke:#FFFFFF; stroke-width:39.3701; stroke-opacity:1; 
stroke-linecap:round; stroke-linejoin:round;">
</g>
<g style="fill:#FFFFFF; fill-opacity:1.0; 
stroke:#FFFFFF; stroke-width:0; stroke-opacity:1; 
stroke-linecap:round; stroke-linejoin:round;">
<circle cx="17200" cy="21800" r="629.921" /> 
</g>
<g style="fill:#FFFFFF; fill-opacity:1.0; 
stroke:#FFFFFF; stroke-width:39.3701; stroke-opacity:1; 
stroke-linecap:round; stroke-linejoin:round;">
</g>
<g style="fill:#FFFFFF; fill-opacity:1.0; 
stroke:#FFFFFF; stroke-width:0; stroke-opacity:1; 
stroke-linecap:round; stroke-linejoin:round;">
<circle cx="33400" cy="21800" r="629.921" /> 
</g>
<g style="fill:#FFFFFF; fill-opacity:1.0; 
stroke:#FFFFFF; stroke-width:39.3701; stroke-opacity:1; 
stroke-linecap:round; stroke-linejoin:round;">
</g>
<g style="fill:#FFFFFF; fill-opacity:1.0; 
stroke:#FFFFFF; stroke-width:0; stroke-opacity:1; 
stroke-linecap:round; stroke-linejoin:round;">
<circle cx="17925" cy="37600" r="236.22" /> 
</g>
<g style="fill:#FFFFFF; fill-opacity:1.0; 
stroke:#FFFFFF; stroke-width:39.3701; stroke-opacity:1; 
stroke-linecap:round; stroke-linejoin:round;">
</g>
<g style="fill:#FFFFFF; fill-opacity:1.0; 
stroke:#FFFFFF; stroke-width:0; stroke-opacity:1; 
stroke-linecap:round; stroke-linejoin:round;">
<circle cx="17925" cy="32600" r="236.22" /> 
</g>
<g style="fill:#FFFFFF; fill-opacity:1.0; 
stroke:#FFFFFF; stroke-width:39.3701; stroke-opacity:1; 
stroke-linecap:round; stroke-linejoin:round;">
</g>
<g style="fill:#FFFFFF; fill-opacity:1.0; 
stroke:#FFFFFF; stroke-width:0; stroke-opacity:1; 
stroke-linecap:round; stroke-linejoin:round;">
<circle cx="19925" cy="37600" r="236.22" /> 
</g>
<g style="fill:#FFFFFF; fill-opacity:1.0; 
stroke:#FFFFFF; stroke-width:39.3701; stroke-opacity:1; 
stroke-linecap:round; stroke-linejoin:round;">
</g>
<g style="fill:#FFFFFF; fill-opacity:1.0; 
stroke:#FFFFFF; stroke-width:0; stroke-opacity:1; 
stroke-linecap:round; stroke-linejoin:round;">
<circle cx="19925" cy="32600" r="236.22" /> 
</g>
<g style="fill:#FFFFFF; fill-opacity:1.0; 
stroke:#FFFFFF; stroke-width:39.3701; stroke-opacity:1; 
stroke-linecap:round; stroke-linejoin:round;">
</g>
<g style="fill:#FFFFFF; fill-opacity:1.0; 
stroke:#FFFFFF; stroke-width:0; stroke-opacity:1; 
stroke-linecap:round; stroke-linejoin:round;">
<circle cx="27800" cy="30925" r="196.85" /> 
</g>
<g style="fill:#FFFFFF; fill-opacity:1.0; 
stroke:#FFFFFF; stroke-width:39.3701; stroke-opacity:1; 
stroke-linecap:round; stroke-linejoin:round;">
</g>
<g style="fill:#FFFFFF; fill-opacity:1.0; 
stroke:#FFFFFF; stroke-width:0; stroke-opacity:1; 
stroke-linecap:round; stroke-linejoin:round;">
<circle cx="27800" cy="31909.3" r="196.85" /> 
</g>
<g style="fill:#FFFFFF; fill-opacity:1.0; 
stroke:#FFFFFF; stroke-width:39.3701; stroke-opacity:1; 
stroke-linecap:round; stroke-linejoin:round;">
</g>
<g style="fill:#FFFFFF; fill-opacity:1.0; 
stroke:#FFFFFF; stroke-width:0; stroke-opacity:1; 
stroke-linecap:round; stroke-linejoin:round;">
<circle cx="27800" cy="32893.5" r="196.85" /> 
</g>
<g style="fill:#FFFFFF; fill-opacity:1.0; 
stroke:#FFFFFF; stroke-width:39.3701; stroke-opacity:1; 
stroke-linecap:round; stroke-linejoin:round;">
</g>
<g style="fill:#FFFFFF; fill-opacity:1.0; 
stroke:#FFFFFF; stroke-width:590.551; stroke-opacity:1; 
stroke-linecap:round; stroke-linejoin:round;">
</g>
<g style="fill:#FFFFFF; fill-opacity:0.0; 
stroke:#FFFFFF; stroke-width:590.551; stroke-opacity:1; 
stroke-linecap:round; stroke-linejoin:round;">
<path d="M30496 29704
L31008 29704
" />
<path d="M30496 34113
L31008 34113
" />
</g>
<g style="fill:#FFFFFF; fill-opacity:1.0; 
stroke:#FFFFFF; stroke-width:0; stroke-opacity:1; 
stroke-linecap:round; stroke-linejoin:round;">
<circle cx="33508.7" cy="30925" r="196.85" /> 
</g>
<g style="fill:#FFFFFF; fill-opacity:1.0; 
stroke:#FFFFFF; stroke-width:39.3701; stroke-opacity:1; 
stroke-linecap:round; stroke-linejoin:round;">
</g>
<g style="fill:#FFFFFF; fill-opacity:1.0; 
stroke:#FFFFFF; stroke-width:0; stroke-opacity:1; 
stroke-linecap:round; stroke-linejoin:round;">
<circle cx="33508.7" cy="32893.5" r="196.85" /> 
</g>
<g style="fill:#FFFFFF; fill-opacity:1.0; 
stroke:#FFFFFF; stroke-width:39.3701; stroke-opacity:1; 
stroke-linecap:round; stroke-linejoin:round;">
</g>
<g style="fill:#FFFFFF; fill-opacity:1.0; 
stroke:#FFFFFF; stroke-width:0; stroke-opacity:1; 
stroke-linecap:round; stroke-linejoin:round;">
<circle cx="23225" cy="31275" r="236.22" /> 
</g>
<g style="fill:#FFFFFF; fill-opacity:1.0; 
stroke:#FFFFFF; stroke-width:39.3701; stroke-opacity:1; 
stroke-linecap:round; stroke-linejoin:round;">
</g>
<g style="fill:#FFFFFF; fill-opacity:1.0; 
stroke:#FFFFFF; stroke-width:0; stroke-opacity:1; 
stroke-linecap:round; stroke-linejoin:round;">
<circle cx="23225" cy="26275" r="236.22" /> 
</g>
<g style="fill:#FFFFFF; fill-opacity:1.0; 
stroke:#FFFFFF; stroke-width:39.3701; stroke-opacity:1; 
stroke-linecap:round; stroke-linejoin:round;">
</g>
<g style="fill:#FFFFFF; fill-opacity:1.0; 
stroke:#FFFFFF; stroke-width:0; stroke-opacity:1; 
stroke-linecap:round; stroke-linejoin:round;">
<circle cx="25225" cy="31275" r="236.22" /> 
</g>
<g style="fill:#FFFFFF; fill-opacity:1.0; 
stroke:#FFFFFF; stroke-width:39.3701; stroke-opacity:1; 
stroke-linecap:round; stroke-linejoin:round;">
</g>
<g style="fill:#FFFFFF; fill-opacity:1.0; 
stroke:#FFFFFF; stroke-width:0; stroke-opacity:1; 
stroke-linecap:round; stroke-linejoin:round;">
<circle cx="25225" cy="26275" r="236.22" /> 
</g>
<g style="fill:#FFFFFF; fill-opacity:1.0; 
stroke:#FFFFFF; stroke-width:39.3701; stroke-opacity:1; 
stroke-linecap:round; stroke-linejoin:round;">
</g>
<g style="fill:#FFFFFF; fill-opacity:1.0; 
stroke:#FFFFFF; stroke-width:0; stroke-opacity:1; 
stroke-linecap:round; stroke-linejoin:round;">
<circle cx="19950" cy="26275" r="236.22" /> 
</g>
<g style="fill:#FFFFFF; fill-opacity:1.0; 
stroke:#FFFFFF; stroke-width:39.3701; stroke-opacity:1; 
stroke-linecap:round; stroke-linejoin:round;">
</g>
<g style="fill:#FFFFFF; fill-opacity:1.0; 
stroke:#FFFFFF; stroke-width:0; stroke-opacity:1; 
stroke-linecap:round; stroke-linejoin:round;">
<circle cx="19950" cy="31275" r="236.22" /> 
</g>
<g style="fill:#FFFFFF; fill-opacity:1.0; 
stroke:#FFFFFF; stroke-width:39.3701; stroke-opacity:1; 
stroke-linecap:round; stroke-linejoin:round;">
</g>
<g style="fill:#FFFFFF; fill-opacity:1.0; 
stroke:#FFFFFF; stroke-width:0; stroke-opacity:1; 
stroke-linecap:round; stroke-linejoin:round;">
<circle cx="17950" cy="26275" r="236.22" /> 
</g>
<g style="fill:#FFFFFF; fill-opacity:1.0; 
stroke:#FFFFFF; stroke-width:39.3701; stroke-opacity:1; 
stroke-linecap:round; stroke-linejoin:round;">
</g>
<g style="fill:#FFFFFF; fill-opacity:1.0; 
stroke:#FFFFFF; stroke-width:0; stroke-opacity:1; 
stroke-linecap:round; stroke-linejoin:round;">
<circle cx="17950" cy="31275" r="236.22" /> 
</g>
<g style="fill:#FFFFFF; fill-opacity:1.0; 
stroke:#FFFFFF; stroke-width:39.3701; stroke-opacity:1; 
stroke-linecap:round; stroke-linejoin:round;">
</g>
<g style="fill:#FFFFFF; fill-opacity:1.0; 
stroke:#FFFFFF; stroke-width:0; stroke-opacity:1; 
stroke-linecap:round; stroke-linejoin:round;">
<circle cx="25250" cy="32575" r="236.22" /> 
</g>
<g style="fill:#FFFFFF; fill-opacity:1.0; 
stroke:#FFFFFF; stroke-width:39.3701; stroke-opacity:1; 
stroke-linecap:round; stroke-linejoin:round;">
</g>
<g style="fill:#FFFFFF; fill-opacity:1.0; 
stroke:#FFFFFF; stroke-width:0; stroke-opacity:1; 
stroke-linecap:round; stroke-linejoin:round;">
<circle cx="25250" cy="37575" r="236.22" /> 
</g>
<g style="fill:#FFFFFF; fill-opacity:1.0; 
stroke:#FFFFFF; stroke-width:39.3701; stroke-opacity:1; 
stroke-linecap:round; stroke-linejoin:round;">
</g>
<g style="fill:#FFFFFF; fill-opacity:1.0; 
stroke:#FFFFFF; stroke-width:0; stroke-opacity:1; 
stroke-linecap:round; stroke-linejoin:round;">
<circle cx="23250" cy="32575" r="236.22" /> 
</g>
<g style="fill:#FFFFFF; fill-opacity:1.0; 
stroke:#FFFFFF; stroke-width:39.3701; stroke-opacity:1; 
stroke-linecap:round; stroke-linejoin:round;">
</g>
<g style="fill:#FFFFFF; fill-opacity:1.0; 
stroke:#FFFFFF; stroke-width:0; stroke-opacity:1; 
stroke-linecap:round; stroke-linejoin:round;">
<circle cx="23250" cy="37575" r="236.22" /> 
</g>
<g style="fill:#FFFFFF; fill-opacity:1.0; 
stroke:#FFFFFF; stroke-width:39.3701; stroke-opacity:1; 
stroke-linecap:round; stroke-linejoin:round;">
</g>
<g style="fill:#000000; fill-opacity:1.0; 
stroke:#000000; stroke-width:39.3701; stroke-opacity:1; 
stroke-linecap:round; stroke-linejoin:round;">
</g>
<g style="fill:#000000; fill-opacity:1.0; 
stroke:#000000; stroke-width:47.2441; stroke-opacity:1; 
stroke-linecap:round; stroke-linejoin:round;">
</g>
<g style="fill:#000000; fill-opacity:0.0; 
stroke:#000000; stroke-width:47.2441; stroke-opacity:1; 
stroke-linecap:round; stroke-linejoin:round;">
<path d="M33379 27223
L33379 27759
" />
<path d="M27780 25176
L27556 25176
" />
<path d="M28780 25176
L28379 25176
" />
<path d="M29780 25176
L29379 25176
" />
<path d="M30780 25176
L30379 25176
" />
<path d="M31780 25176
L31379 25176
" />
<path d="M32780 25176
L32379 25176
" />
<path d="M33603 25176
L33379 25176
" />
<path d="M27556 25176
L27556 27223
" />
<path d="M27780 27223
L27556 27223
" />
<path d="M28780 27223
L28379 27223
" />
<path d="M29780 27223
L29379 27223
" />
<path d="M30780 27223
L30379 27223
" />
<path d="M31780 27223
L31379 27223
" />
<path d="M32780 27223
L32379 27223
" />
<path d="M33603 27223
L33379 27223
" />
<path d="M33603 25176
L33603 27223
" />
</g>
<g style="fill:#000000; fill-opacity:0.0; 
stroke:#000000; stroke-width:59.0551; stroke-opacity:1; 
stroke-linecap:round; stroke-linejoin:round;">
<path d="M18925 37600
L16425 37600
" />
<path d="M16425 37600
L16425 32600
" />
<path d="M16425 32600
L21425 32600
" />
<path d="M21425 32600
L21425 37600
" />
<path d="M21425 37600
L18925 37600
" />
<circle cx="18925" cy="35100" r="1900" /> 
</g>
<g style="fill:#000000; fill-opacity:0.0; 
stroke:#000000; stroke-width:47.2441; stroke-opacity:1; 
stroke-linecap:round; stroke-linejoin:round;">
<path d="M31941 37112
L31941 36637
" />
<path d="M32658 37112
L32658 36637
" />
<path d="M28316 37112
L28316 36637
" />
<path d="M29033 37112
L29033 36637
" />
<circle cx="30752.8" cy="31909.3" r="1181.1" /> 
<path d="M31540 29586
L33154 29586
" />
<path d="M33154 34232
L31540 34232
" />
<path d="M29965 34232
L28351 34232
" />
<path d="M29965 29586
L28351 29586
" />
<path d="M28351 29586
L28351 34232
" />
<path d="M27800 30413
L27681 30295
" />
<path d="M27681 30295
L27918 30295
" />
<path d="M27918 30295
L27800 30413
" />
<path d="M33154 29586
L33154 30531
" />
<path d="M33154 31397
L33154 32421
" />
<path d="M33154 33287
L33154 34232
" />
<path d="M30752 31712
L30752 32106
" />
<path d="M30555 31909
L30949 31909
" />
</g>
<g style="fill:#000000; fill-opacity:0.0; 
stroke:#000000; stroke-width:59.0551; stroke-opacity:1; 
stroke-linecap:round; stroke-linejoin:round;">
<path d="M24225 31275
L21725 31275
" />
<path d="M21725 31275
L21725 26275
" />
<path d="M21725 26275
L26725 26275
" />
<path d="M26725 26275
L26725 31275
" />
<path d="M26725 31275
L24225 31275
" />
<circle cx="24225" cy="28775" r="1900" /> 
<path d="M18950 26275
L21450 26275
" />
<path d="M21450 26275
L21450 31275
" />
<path d="M21450 31275
L16450 31275
" />
<path d="M16450 31275
L16450 26275
" />
<path d="M16450 26275
L18950 26275
" />
<circle cx="18950" cy="28775" r="1900" /> 
<path d="M24250 32575
L26750 32575
" />
<path d="M26750 32575
L26750 37575
" />
<path d="M26750 37575
L21750 37575
" />
<path d="M21750 37575
L21750 32575
" />
<path d="M21750 32575
L24250 32575
" />
<circle cx="24250" cy="35075" r="1900" /> 
<g transform="rotate(-90 34170.6 26200)">
<text x="34170.6" y="26396.9"
textLength="751.687" font-size="524.934" lengthAdjust="spacingAndGlyphs"
text-anchor="middle" opacity="0">J1</text>
</g>
<path d="M33954 26331
L34236 26331
L34292 26349
L34329 26387
L34348 26443
L34348 26481
" />
<path d="M34348 25937
L34348 26162
" />
<path d="M34348 26050
L33954 26050
L34011 26087
L34048 26125
L34067 26162
" />
<text x="18925" y="31896.9"
textLength="864.173" font-size="524.934" lengthAdjust="spacingAndGlyphs"
text-anchor="middle" opacity="0">U2</text>
<path d="M18625 31484
L18625 31803
L18643 31840
L18662 31859
L18700 31878
L18775 31878
L18812 31859
L18831 31840
L18850 31803
L18850 31484
" />
<path d="M19018 31521
L19037 31503
L19074 31484
L19168 31484
L19206 31503
L19224 31521
L19243 31559
L19243 31596
L19224 31653
L18999 31878
L19243 31878
" />
<g transform="rotate(-90 33000 37275)">
<text x="33000" y="37471.9"
textLength="845.426" font-size="524.934" lengthAdjust="spacingAndGlyphs"
text-anchor="middle" opacity="0">R7</text>
</g>
<path d="M33178 37340
L32990 37471
" />
<path d="M33178 37565
L32784 37565
L32784 37415
L32803 37378
L32821 37359
L32859 37340
L32915 37340
L32953 37359
L32971 37378
L32990 37415
L32990 37565
" />
<path d="M32784 37209
L32784 36946
L33178 37115
" />
<g transform="rotate(-90 27875 36875)">
<text x="27875" y="37071.9"
textLength="845.426" font-size="524.934" lengthAdjust="spacingAndGlyphs"
text-anchor="middle" opacity="0">R5</text>
</g>
<path d="M28053 36940
L27865 37071
" />
<path d="M28053 37165
L27659 37165
L27659 37015
L27678 36978
L27696 36959
L27734 36940
L27790 36940
L27828 36959
L27846 36978
L27865 37015
L27865 37165
" />
<path d="M27659 36584
L27659 36771
L27846 36790
L27828 36771
L27809 36734
L27809 36640
L27828 36603
L27846 36584
L27884 36565
L27978 36565
L28015 36584
L28034 36603
L28053 36640
L28053 36734
L28034 36771
L28015 36790
" />
<g transform="rotate(-90 34350 34125)">
<text x="34350" y="34321.9"
textLength="1276.62" font-size="524.934" lengthAdjust="spacingAndGlyphs"
text-anchor="middle" opacity="0">SW1</text>
</g>
<path d="M34509 34649
L34528 34593
L34528 34499
L34509 34462
L34490 34443
L34453 34424
L34415 34424
L34378 34443
L34359 34462
L34340 34499
L34321 34574
L34303 34612
L34284 34631
L34246 34649
L34209 34649
L34171 34631
L34153 34612
L34134 34574
L34134 34481
L34153 34424
" />
<path d="M34134 34293
L34528 34199
L34246 34125
L34528 34050
L34134 33956
" />
<path d="M34528 33600
L34528 33825
" />
<path d="M34528 33712
L34134 33712
L34190 33750
L34228 33787
L34246 33825
" />
<text x="24225" y="25571.9"
textLength="864.173" font-size="524.934" lengthAdjust="spacingAndGlyphs"
text-anchor="middle" opacity="0">U4</text>
<path d="M23925 25159
L23925 25478
L23943 25515
L23962 25534
L24000 25553
L24075 25553
L24112 25534
L24131 25515
L24150 25478
L24150 25159
" />
<path d="M24506 25290
L24506 25553
" />
<path d="M24412 25140
L24318 25421
L24562 25421
" />
<text x="18950" y="32371.9"
textLength="864.173" font-size="524.934" lengthAdjust="spacingAndGlyphs"
text-anchor="middle" opacity="0">U3</text>
<path d="M18650 31959
L18650 32278
L18668 32315
L18687 32334
L18725 32353
L18800 32353
L18837 32334
L18856 32315
L18875 32278
L18875 31959
" />
<path d="M19024 31959
L19268 31959
L19137 32109
L19193 32109
L19231 32128
L19249 32146
L19268 32184
L19268 32278
L19249 32315
L19231 32334
L19193 32353
L19081 32353
L19043 32334
L19024 32315
" />
<text x="24250" y="38671.9"
textLength="864.173" font-size="524.934" lengthAdjust="spacingAndGlyphs"
text-anchor="middle" opacity="0">U1</text>
<path d="M23950 38259
L23950 38578
L23968 38615
L23987 38634
L24025 38653
L24100 38653
L24137 38634
L24156 38615
L24175 38578
L24175 38259
" />
<path d="M24568 38653
L24343 38653
" />
<path d="M24456 38653
L24456 38259
L24418 38315
L24381 38353
L24343 38371
" />
<g >
</g>
</g>
<g style="fill:#000000; fill-opacity:0.0; 
stroke:#000000; stroke-width:59.0551; stroke-opacity:1; 
stroke-linecap:round; stroke-linejoin:round;">
</g>
<g style="fill:#000000; fill-opacity:0.0; 
stroke:#000000; stroke-width:19.685; stroke-opacity:1; 
stroke-linecap:round; stroke-linejoin:round;">
<path d="M15800 20400
L34800 20400
" />
<path d="M15800 41100
L15800 20400
" />
<path d="M34800 41100
L15800 41100
" />
<path d="M34800 20400
L34800 41100
" />
<g >
</g>
<g >
</g>
<g >
</g>
<g >
</g>
<g >
</g>
<g >
</g>
<g >
</g>
<g >
</g>
<g >
</g>
<g >
</g>
<g >
</g>
<g >
</g>
<g >
</g>
</g> 
</svg>
