<?xml version="1.0" standalone="no"?>
 <!DOCTYPE svg PUBLIC "-//W3C//DTD SVG 1.1//EN" 
 "http://www.w3.org/Graphics/SVG/1.1/DTD/svg11.dtd"> 
<svg xmlns="http://www.w3.org/2000/svg" version="1.1" 
    width="29.7002cm" height="21.0007cm" viewBox="0 0 116930 82680 ">
<title>SVG Picture created as ControlsBoard-F_SilkS.svg date 2020/05/27 22:03:12 </title>
  <desc>Picture generated by PCBNEW </desc>
<g style="fill:#000000; fill-opacity:1;stroke:#000000; stroke-opacity:1;
stroke-linecap:round; stroke-linejoin:round; "
 transform="translate(0 0) scale(1 1)">
</g>
<g style="fill:#000000; fill-opacity:0.0; 
stroke:#000000; stroke-width:-0.000393701; stroke-opacity:1; 
stroke-linecap:round; stroke-linejoin:round;">
</g>
<g style="fill:#000000; fill-opacity:0.0; 
stroke:#000000; stroke-width:47.2441; stroke-opacity:1; 
stroke-linecap:round; stroke-linejoin:round;">
<path d="M57903 21220
L58439 21220
" />
<path d="M55856 26819
L55856 27043
" />
<path d="M55856 25819
L55856 26220
" />
<path d="M55856 24819
L55856 25220
" />
<path d="M55856 23819
L55856 24220
" />
<path d="M55856 22819
L55856 23220
" />
<path d="M55856 21819
L55856 22220
" />
<path d="M55856 20996
L55856 21220
" />
<path d="M55856 27043
L57903 27043
" />
<path d="M57903 26819
L57903 27043
" />
<path d="M57903 25819
L57903 26220
" />
<path d="M57903 24819
L57903 25220
" />
<path d="M57903 23819
L57903 24220
" />
<path d="M57903 22819
L57903 23220
" />
<path d="M57903 21819
L57903 22220
" />
<path d="M57903 20996
L57903 21220
" />
<path d="M55856 20996
L57903 20996
" />
<path d="M60691 23762
L60691 24237
" />
<path d="M61408 23762
L61408 24237
" />
<path d="M62066 23762
L62066 24237
" />
<path d="M62783 23762
L62783 24237
" />
</g>
<g style="fill:#000000; fill-opacity:0.0; 
stroke:#000000; stroke-width:59.0551; stroke-opacity:1; 
stroke-linecap:round; stroke-linejoin:round;">
<g transform="rotate(-90 59125 21275)">
<text x="59125" y="21471.9"
textLength="751.687" font-size="524.934" lengthAdjust="spacingAndGlyphs"
text-anchor="middle" opacity="0">J1</text>
</g>
<path d="M58909 21406
L59190 21406
L59246 21424
L59284 21462
L59303 21518
L59303 21556
" />
<path d="M59303 21012
L59303 21237
" />
<path d="M59303 21125
L58909 21125
L58965 21162
L59003 21200
L59021 21237
" />
<g transform="rotate(-90 61075 22525)">
<text x="61075" y="22721.9"
textLength="845.426" font-size="524.934" lengthAdjust="spacingAndGlyphs"
text-anchor="middle" opacity="0">R7</text>
</g>
<path d="M61253 22590
L61065 22721
" />
<path d="M61253 22815
L60859 22815
L60859 22665
L60878 22628
L60896 22609
L60934 22590
L60990 22590
L61028 22609
L61046 22628
L61065 22665
L61065 22815
" />
<path d="M60859 22459
L60859 22196
L61253 22365
" />
<g transform="rotate(-90 62425 22525)">
<text x="62425" y="22721.9"
textLength="845.426" font-size="524.934" lengthAdjust="spacingAndGlyphs"
text-anchor="middle" opacity="0">R5</text>
</g>
<path d="M62603 22590
L62415 22721
" />
<path d="M62603 22815
L62209 22815
L62209 22665
L62228 22628
L62246 22609
L62284 22590
L62340 22590
L62378 22609
L62396 22628
L62415 22665
L62415 22815
" />
<path d="M62209 22234
L62209 22421
L62396 22440
L62378 22421
L62359 22384
L62359 22290
L62378 22253
L62396 22234
L62434 22215
L62528 22215
L62565 22234
L62584 22253
L62603 22290
L62603 22384
L62584 22421
L62565 22440
" />
<g >
</g>
</g>
<g style="fill:#000000; fill-opacity:0.0; 
stroke:#000000; stroke-width:59.0551; stroke-opacity:1; 
stroke-linecap:round; stroke-linejoin:round;">
</g>
<g style="fill:#000000; fill-opacity:0.0; 
stroke:#000000; stroke-width:19.685; stroke-opacity:1; 
stroke-linecap:round; stroke-linejoin:round;">
<path d="M45000 28000
L45000 20000
" />
<path d="M66500 28000
L45000 28000
" />
<path d="M66500 20000
L66500 28000
" />
<path d="M45000 20000
L66500 20000
" />
<g >
</g>
<g >
</g>
<g >
</g>
<g >
</g>
<g >
</g>
<g >
</g>
<g >
</g>
<g >
</g>
<g >
</g>
<g >
</g>
<g >
</g>
<g >
</g>
<g >
</g>
</g> 
</svg>
