M48
; DRILL file {KiCad 5.1.5-52549c5~84~ubuntu18.04.1} date Sun 15 Mar 2020 18:43:25 GMT
; FORMAT={-:-/ absolute / inch / decimal}
; #@! TF.CreationDate,2020-03-15T18:43:25+00:00
; #@! TF.GenerationSoftware,Kicad,Pcbnew,5.1.5-52549c5~84~ubuntu18.04.1
; #@! TF.FileFunction,Plated,1,2,PTH
FMAT,2
INCH
T1C0.0079
T2C0.0157
T3C0.0394
T4C0.0400
T5C0.0598
%
G90
G05
T1
X4.2Y-3.69
X4.31Y-3.74
X4.371Y-3.827
X4.631Y-3.827
X4.685Y-3.69
X4.7Y-3.39
X4.702Y-3.8299
X4.715Y-3.945
X4.72Y-4.39
X4.7375Y-3.965
X4.7555Y-4.2275
X4.7875Y-3.9625
X4.805Y-3.98
X4.825Y-3.9975
X4.86Y-3.41
X4.86Y-3.74
X4.915Y-3.745
X4.9375Y-3.765
X4.965Y-3.5275
X4.965Y-3.5925
X4.9675Y-3.82
X4.9675Y-3.845
X4.9675Y-3.87
X4.9925Y-3.5275
X4.9925Y-3.575
X5.03Y-3.39
X5.09Y-3.9825
X5.148Y-3.651
X5.245Y-3.5725
X5.675Y-4.0275
X5.675Y-4.085
X5.894Y-3.1905
X5.894Y-3.3182
X5.9235Y-3.055
X5.9295Y-3.405
X6.047Y-3.4055
X6.055Y-4.26
X6.139Y-2.7785
X6.205Y-4.16
X6.49Y-4.015
X6.5145Y-3.96
X6.5405Y-4.205
T2
X4.295Y-3.985
X4.55Y-2.481
X4.57Y-2.006
X4.6Y-2.606
X5.0925Y-2.0815
X5.279Y-3.212
X5.287Y-2.5345
X5.353Y-2.02
X5.46Y-3.578
X5.5785Y-2.509
X5.6275Y-2.206
X5.63Y-2.365
X5.656Y-2.825
X5.7435Y-2.575
X5.7641Y-2.8244
X5.84Y-3.94
X5.9Y-2.98
X6.0555Y-3.9545
X6.125Y-3.7495
X6.1786Y-3.9486
X6.2087Y-1.9094
X6.31Y-3.4725
X6.3114Y-3.9761
X6.319Y-4.4481
X6.36Y-3.1
X6.47Y-3.7294
X6.4725Y-3.825
X6.5436Y-1.8295
X6.5436Y-1.9295
X6.5436Y-2.0295
X6.5436Y-2.1295
X6.545Y-2.385
X6.6436Y-1.8295
X6.6436Y-1.9295
X6.6436Y-2.0295
X6.6436Y-2.1295
X6.675Y-2.425
X6.7186Y-1.8295
X6.7186Y-1.9295
X6.7186Y-2.0295
X6.755Y-3.4925
X6.8186Y-1.8295
X6.8186Y-1.9295
X6.8186Y-2.0295
X6.84Y-3.245
X6.8626Y-3.4924
X6.8936Y-1.8295
X6.8936Y-1.9295
X6.8936Y-2.0295
X6.8936Y-2.1295
X6.9806Y-2.3937
X6.9936Y-1.8295
X6.9936Y-1.9295
X6.9936Y-2.0295
X6.9936Y-2.1295
X7.0314Y-3.6136
X7.1471Y-2.0125
X7.15Y-3.885
X7.205Y-2.93
X7.215Y-3.405
X7.625Y-3.36
T3
X4.18Y-4.125
X4.28Y-4.125
X4.2Y-2.733
X4.3Y-2.733
X4.4Y-2.733
X4.5Y-2.733
X4.6Y-2.733
X4.7Y-2.733
T4
X5.8Y-4.9
X5.8Y-5.0
X5.9Y-4.9
X5.9Y-5.0
X6.0Y-4.9
X6.0Y-5.0
X6.1Y-4.9
X6.1Y-5.0
X6.2Y-4.9
X6.2Y-5.0
X6.3Y-4.9
X6.3Y-5.0
X4.45Y-4.9
X4.45Y-5.0
X4.55Y-4.9
X4.55Y-5.0
X4.65Y-4.9
X4.65Y-5.0
X4.75Y-4.9
X4.75Y-5.0
X7.0Y-4.9
X7.0Y-5.0
X7.1Y-4.9
X7.1Y-5.0
X7.2Y-4.9
X7.2Y-5.0
X7.3Y-4.9
X7.3Y-5.0
X7.4Y-4.9
X7.4Y-5.0
T5
X7.6299Y-2.2094
X7.6299Y-2.4094
T0
M30
