G04 #@! TF.GenerationSoftware,KiCad,Pcbnew,5.1.5-52549c5~84~ubuntu18.04.1*
G04 #@! TF.CreationDate,2020-03-15T18:43:17+00:00*
G04 #@! TF.ProjectId,FunctionGeneratorCortexM4,46756e63-7469-46f6-9e47-656e65726174,B*
G04 #@! TF.SameCoordinates,Original*
G04 #@! TF.FileFunction,Soldermask,Bot*
G04 #@! TF.FilePolarity,Negative*
%FSLAX46Y46*%
G04 Gerber Fmt 4.6, Leading zero omitted, Abs format (unit mm)*
G04 Created by KiCad (PCBNEW 5.1.5-52549c5~84~ubuntu18.04.1) date 2020-03-15 18:43:17*
%MOMM*%
%LPD*%
G04 APERTURE LIST*
%ADD10C,0.100000*%
G04 APERTURE END LIST*
D10*
G36*
X202345049Y-128411116D02*
G01*
X202456234Y-128433232D01*
X202665703Y-128519997D01*
X202854220Y-128645960D01*
X203014540Y-128806280D01*
X203140503Y-128994797D01*
X203227268Y-129204266D01*
X203271500Y-129426636D01*
X203271500Y-129653364D01*
X203227268Y-129875734D01*
X203140503Y-130085203D01*
X203014540Y-130273720D01*
X202854220Y-130434040D01*
X202665703Y-130560003D01*
X202456234Y-130646768D01*
X202345049Y-130668884D01*
X202233865Y-130691000D01*
X202007135Y-130691000D01*
X201895951Y-130668884D01*
X201784766Y-130646768D01*
X201575297Y-130560003D01*
X201386780Y-130434040D01*
X201226460Y-130273720D01*
X201100497Y-130085203D01*
X201013732Y-129875734D01*
X200969500Y-129653364D01*
X200969500Y-129426636D01*
X201013732Y-129204266D01*
X201100497Y-128994797D01*
X201226460Y-128806280D01*
X201386780Y-128645960D01*
X201575297Y-128519997D01*
X201784766Y-128433232D01*
X201895951Y-128411116D01*
X202007135Y-128389000D01*
X202233865Y-128389000D01*
X202345049Y-128411116D01*
G37*
G36*
X103221549Y-128347616D02*
G01*
X103332734Y-128369732D01*
X103542203Y-128456497D01*
X103730720Y-128582460D01*
X103891040Y-128742780D01*
X104017003Y-128931297D01*
X104103768Y-129140766D01*
X104148000Y-129363136D01*
X104148000Y-129589864D01*
X104103768Y-129812234D01*
X104017003Y-130021703D01*
X103891040Y-130210220D01*
X103730720Y-130370540D01*
X103542203Y-130496503D01*
X103332734Y-130583268D01*
X103221549Y-130605384D01*
X103110365Y-130627500D01*
X102883635Y-130627500D01*
X102772451Y-130605384D01*
X102661266Y-130583268D01*
X102451797Y-130496503D01*
X102263280Y-130370540D01*
X102102960Y-130210220D01*
X101976997Y-130021703D01*
X101890232Y-129812234D01*
X101846000Y-129589864D01*
X101846000Y-129363136D01*
X101890232Y-129140766D01*
X101976997Y-128931297D01*
X102102960Y-128742780D01*
X102263280Y-128582460D01*
X102451797Y-128456497D01*
X102661266Y-128369732D01*
X102772451Y-128347616D01*
X102883635Y-128325500D01*
X103110365Y-128325500D01*
X103221549Y-128347616D01*
G37*
G36*
X178714600Y-127914600D02*
G01*
X176885400Y-127914600D01*
X176885400Y-126085400D01*
X178714600Y-126085400D01*
X178714600Y-127914600D01*
G37*
G36*
X120916778Y-126120547D02*
G01*
X121083224Y-126189491D01*
X121233022Y-126289583D01*
X121360417Y-126416978D01*
X121460509Y-126566776D01*
X121529453Y-126733222D01*
X121564600Y-126909918D01*
X121564600Y-127090082D01*
X121529453Y-127266778D01*
X121460509Y-127433224D01*
X121360417Y-127583022D01*
X121233022Y-127710417D01*
X121083224Y-127810509D01*
X120916778Y-127879453D01*
X120740082Y-127914600D01*
X120559918Y-127914600D01*
X120383222Y-127879453D01*
X120216776Y-127810509D01*
X120066978Y-127710417D01*
X119939583Y-127583022D01*
X119839491Y-127433224D01*
X119770547Y-127266778D01*
X119735400Y-127090082D01*
X119735400Y-126909918D01*
X119770547Y-126733222D01*
X119839491Y-126566776D01*
X119939583Y-126416978D01*
X120066978Y-126289583D01*
X120216776Y-126189491D01*
X120383222Y-126120547D01*
X120559918Y-126085400D01*
X120740082Y-126085400D01*
X120916778Y-126120547D01*
G37*
G36*
X188226778Y-126120547D02*
G01*
X188393224Y-126189491D01*
X188543022Y-126289583D01*
X188670417Y-126416978D01*
X188770509Y-126566776D01*
X188839453Y-126733222D01*
X188874600Y-126909918D01*
X188874600Y-127090082D01*
X188839453Y-127266778D01*
X188770509Y-127433224D01*
X188670417Y-127583022D01*
X188543022Y-127710417D01*
X188393224Y-127810509D01*
X188226778Y-127879453D01*
X188050082Y-127914600D01*
X187869918Y-127914600D01*
X187693222Y-127879453D01*
X187526776Y-127810509D01*
X187376978Y-127710417D01*
X187249583Y-127583022D01*
X187149491Y-127433224D01*
X187080547Y-127266778D01*
X187045400Y-127090082D01*
X187045400Y-126909918D01*
X187080547Y-126733222D01*
X187149491Y-126566776D01*
X187249583Y-126416978D01*
X187376978Y-126289583D01*
X187526776Y-126189491D01*
X187693222Y-126120547D01*
X187869918Y-126085400D01*
X188050082Y-126085400D01*
X188226778Y-126120547D01*
G37*
G36*
X183146778Y-126120547D02*
G01*
X183313224Y-126189491D01*
X183463022Y-126289583D01*
X183590417Y-126416978D01*
X183690509Y-126566776D01*
X183759453Y-126733222D01*
X183794600Y-126909918D01*
X183794600Y-127090082D01*
X183759453Y-127266778D01*
X183690509Y-127433224D01*
X183590417Y-127583022D01*
X183463022Y-127710417D01*
X183313224Y-127810509D01*
X183146778Y-127879453D01*
X182970082Y-127914600D01*
X182789918Y-127914600D01*
X182613222Y-127879453D01*
X182446776Y-127810509D01*
X182296978Y-127710417D01*
X182169583Y-127583022D01*
X182069491Y-127433224D01*
X182000547Y-127266778D01*
X181965400Y-127090082D01*
X181965400Y-126909918D01*
X182000547Y-126733222D01*
X182069491Y-126566776D01*
X182169583Y-126416978D01*
X182296978Y-126289583D01*
X182446776Y-126189491D01*
X182613222Y-126120547D01*
X182789918Y-126085400D01*
X182970082Y-126085400D01*
X183146778Y-126120547D01*
G37*
G36*
X180606778Y-126120547D02*
G01*
X180773224Y-126189491D01*
X180923022Y-126289583D01*
X181050417Y-126416978D01*
X181150509Y-126566776D01*
X181219453Y-126733222D01*
X181254600Y-126909918D01*
X181254600Y-127090082D01*
X181219453Y-127266778D01*
X181150509Y-127433224D01*
X181050417Y-127583022D01*
X180923022Y-127710417D01*
X180773224Y-127810509D01*
X180606778Y-127879453D01*
X180430082Y-127914600D01*
X180249918Y-127914600D01*
X180073222Y-127879453D01*
X179906776Y-127810509D01*
X179756978Y-127710417D01*
X179629583Y-127583022D01*
X179529491Y-127433224D01*
X179460547Y-127266778D01*
X179425400Y-127090082D01*
X179425400Y-126909918D01*
X179460547Y-126733222D01*
X179529491Y-126566776D01*
X179629583Y-126416978D01*
X179756978Y-126289583D01*
X179906776Y-126189491D01*
X180073222Y-126120547D01*
X180249918Y-126085400D01*
X180430082Y-126085400D01*
X180606778Y-126120547D01*
G37*
G36*
X147586778Y-126120547D02*
G01*
X147753224Y-126189491D01*
X147903022Y-126289583D01*
X148030417Y-126416978D01*
X148130509Y-126566776D01*
X148199453Y-126733222D01*
X148234600Y-126909918D01*
X148234600Y-127090082D01*
X148199453Y-127266778D01*
X148130509Y-127433224D01*
X148030417Y-127583022D01*
X147903022Y-127710417D01*
X147753224Y-127810509D01*
X147586778Y-127879453D01*
X147410082Y-127914600D01*
X147229918Y-127914600D01*
X147053222Y-127879453D01*
X146886776Y-127810509D01*
X146736978Y-127710417D01*
X146609583Y-127583022D01*
X146509491Y-127433224D01*
X146440547Y-127266778D01*
X146405400Y-127090082D01*
X146405400Y-126909918D01*
X146440547Y-126733222D01*
X146509491Y-126566776D01*
X146609583Y-126416978D01*
X146736978Y-126289583D01*
X146886776Y-126189491D01*
X147053222Y-126120547D01*
X147229918Y-126085400D01*
X147410082Y-126085400D01*
X147586778Y-126120547D01*
G37*
G36*
X150126778Y-126120547D02*
G01*
X150293224Y-126189491D01*
X150443022Y-126289583D01*
X150570417Y-126416978D01*
X150670509Y-126566776D01*
X150739453Y-126733222D01*
X150774600Y-126909918D01*
X150774600Y-127090082D01*
X150739453Y-127266778D01*
X150670509Y-127433224D01*
X150570417Y-127583022D01*
X150443022Y-127710417D01*
X150293224Y-127810509D01*
X150126778Y-127879453D01*
X149950082Y-127914600D01*
X149769918Y-127914600D01*
X149593222Y-127879453D01*
X149426776Y-127810509D01*
X149276978Y-127710417D01*
X149149583Y-127583022D01*
X149049491Y-127433224D01*
X148980547Y-127266778D01*
X148945400Y-127090082D01*
X148945400Y-126909918D01*
X148980547Y-126733222D01*
X149049491Y-126566776D01*
X149149583Y-126416978D01*
X149276978Y-126289583D01*
X149426776Y-126189491D01*
X149593222Y-126120547D01*
X149769918Y-126085400D01*
X149950082Y-126085400D01*
X150126778Y-126120547D01*
G37*
G36*
X152666778Y-126120547D02*
G01*
X152833224Y-126189491D01*
X152983022Y-126289583D01*
X153110417Y-126416978D01*
X153210509Y-126566776D01*
X153279453Y-126733222D01*
X153314600Y-126909918D01*
X153314600Y-127090082D01*
X153279453Y-127266778D01*
X153210509Y-127433224D01*
X153110417Y-127583022D01*
X152983022Y-127710417D01*
X152833224Y-127810509D01*
X152666778Y-127879453D01*
X152490082Y-127914600D01*
X152309918Y-127914600D01*
X152133222Y-127879453D01*
X151966776Y-127810509D01*
X151816978Y-127710417D01*
X151689583Y-127583022D01*
X151589491Y-127433224D01*
X151520547Y-127266778D01*
X151485400Y-127090082D01*
X151485400Y-126909918D01*
X151520547Y-126733222D01*
X151589491Y-126566776D01*
X151689583Y-126416978D01*
X151816978Y-126289583D01*
X151966776Y-126189491D01*
X152133222Y-126120547D01*
X152309918Y-126085400D01*
X152490082Y-126085400D01*
X152666778Y-126120547D01*
G37*
G36*
X155206778Y-126120547D02*
G01*
X155373224Y-126189491D01*
X155523022Y-126289583D01*
X155650417Y-126416978D01*
X155750509Y-126566776D01*
X155819453Y-126733222D01*
X155854600Y-126909918D01*
X155854600Y-127090082D01*
X155819453Y-127266778D01*
X155750509Y-127433224D01*
X155650417Y-127583022D01*
X155523022Y-127710417D01*
X155373224Y-127810509D01*
X155206778Y-127879453D01*
X155030082Y-127914600D01*
X154849918Y-127914600D01*
X154673222Y-127879453D01*
X154506776Y-127810509D01*
X154356978Y-127710417D01*
X154229583Y-127583022D01*
X154129491Y-127433224D01*
X154060547Y-127266778D01*
X154025400Y-127090082D01*
X154025400Y-126909918D01*
X154060547Y-126733222D01*
X154129491Y-126566776D01*
X154229583Y-126416978D01*
X154356978Y-126289583D01*
X154506776Y-126189491D01*
X154673222Y-126120547D01*
X154849918Y-126085400D01*
X155030082Y-126085400D01*
X155206778Y-126120547D01*
G37*
G36*
X157746778Y-126120547D02*
G01*
X157913224Y-126189491D01*
X158063022Y-126289583D01*
X158190417Y-126416978D01*
X158290509Y-126566776D01*
X158359453Y-126733222D01*
X158394600Y-126909918D01*
X158394600Y-127090082D01*
X158359453Y-127266778D01*
X158290509Y-127433224D01*
X158190417Y-127583022D01*
X158063022Y-127710417D01*
X157913224Y-127810509D01*
X157746778Y-127879453D01*
X157570082Y-127914600D01*
X157389918Y-127914600D01*
X157213222Y-127879453D01*
X157046776Y-127810509D01*
X156896978Y-127710417D01*
X156769583Y-127583022D01*
X156669491Y-127433224D01*
X156600547Y-127266778D01*
X156565400Y-127090082D01*
X156565400Y-126909918D01*
X156600547Y-126733222D01*
X156669491Y-126566776D01*
X156769583Y-126416978D01*
X156896978Y-126289583D01*
X157046776Y-126189491D01*
X157213222Y-126120547D01*
X157389918Y-126085400D01*
X157570082Y-126085400D01*
X157746778Y-126120547D01*
G37*
G36*
X160286778Y-126120547D02*
G01*
X160453224Y-126189491D01*
X160603022Y-126289583D01*
X160730417Y-126416978D01*
X160830509Y-126566776D01*
X160899453Y-126733222D01*
X160934600Y-126909918D01*
X160934600Y-127090082D01*
X160899453Y-127266778D01*
X160830509Y-127433224D01*
X160730417Y-127583022D01*
X160603022Y-127710417D01*
X160453224Y-127810509D01*
X160286778Y-127879453D01*
X160110082Y-127914600D01*
X159929918Y-127914600D01*
X159753222Y-127879453D01*
X159586776Y-127810509D01*
X159436978Y-127710417D01*
X159309583Y-127583022D01*
X159209491Y-127433224D01*
X159140547Y-127266778D01*
X159105400Y-127090082D01*
X159105400Y-126909918D01*
X159140547Y-126733222D01*
X159209491Y-126566776D01*
X159309583Y-126416978D01*
X159436978Y-126289583D01*
X159586776Y-126189491D01*
X159753222Y-126120547D01*
X159929918Y-126085400D01*
X160110082Y-126085400D01*
X160286778Y-126120547D01*
G37*
G36*
X113296778Y-126120547D02*
G01*
X113463224Y-126189491D01*
X113613022Y-126289583D01*
X113740417Y-126416978D01*
X113840509Y-126566776D01*
X113909453Y-126733222D01*
X113944600Y-126909918D01*
X113944600Y-127090082D01*
X113909453Y-127266778D01*
X113840509Y-127433224D01*
X113740417Y-127583022D01*
X113613022Y-127710417D01*
X113463224Y-127810509D01*
X113296778Y-127879453D01*
X113120082Y-127914600D01*
X112939918Y-127914600D01*
X112763222Y-127879453D01*
X112596776Y-127810509D01*
X112446978Y-127710417D01*
X112319583Y-127583022D01*
X112219491Y-127433224D01*
X112150547Y-127266778D01*
X112115400Y-127090082D01*
X112115400Y-126909918D01*
X112150547Y-126733222D01*
X112219491Y-126566776D01*
X112319583Y-126416978D01*
X112446978Y-126289583D01*
X112596776Y-126189491D01*
X112763222Y-126120547D01*
X112939918Y-126085400D01*
X113120082Y-126085400D01*
X113296778Y-126120547D01*
G37*
G36*
X115836778Y-126120547D02*
G01*
X116003224Y-126189491D01*
X116153022Y-126289583D01*
X116280417Y-126416978D01*
X116380509Y-126566776D01*
X116449453Y-126733222D01*
X116484600Y-126909918D01*
X116484600Y-127090082D01*
X116449453Y-127266778D01*
X116380509Y-127433224D01*
X116280417Y-127583022D01*
X116153022Y-127710417D01*
X116003224Y-127810509D01*
X115836778Y-127879453D01*
X115660082Y-127914600D01*
X115479918Y-127914600D01*
X115303222Y-127879453D01*
X115136776Y-127810509D01*
X114986978Y-127710417D01*
X114859583Y-127583022D01*
X114759491Y-127433224D01*
X114690547Y-127266778D01*
X114655400Y-127090082D01*
X114655400Y-126909918D01*
X114690547Y-126733222D01*
X114759491Y-126566776D01*
X114859583Y-126416978D01*
X114986978Y-126289583D01*
X115136776Y-126189491D01*
X115303222Y-126120547D01*
X115479918Y-126085400D01*
X115660082Y-126085400D01*
X115836778Y-126120547D01*
G37*
G36*
X185686778Y-126120547D02*
G01*
X185853224Y-126189491D01*
X186003022Y-126289583D01*
X186130417Y-126416978D01*
X186230509Y-126566776D01*
X186299453Y-126733222D01*
X186334600Y-126909918D01*
X186334600Y-127090082D01*
X186299453Y-127266778D01*
X186230509Y-127433224D01*
X186130417Y-127583022D01*
X186003022Y-127710417D01*
X185853224Y-127810509D01*
X185686778Y-127879453D01*
X185510082Y-127914600D01*
X185329918Y-127914600D01*
X185153222Y-127879453D01*
X184986776Y-127810509D01*
X184836978Y-127710417D01*
X184709583Y-127583022D01*
X184609491Y-127433224D01*
X184540547Y-127266778D01*
X184505400Y-127090082D01*
X184505400Y-126909918D01*
X184540547Y-126733222D01*
X184609491Y-126566776D01*
X184709583Y-126416978D01*
X184836978Y-126289583D01*
X184986776Y-126189491D01*
X185153222Y-126120547D01*
X185329918Y-126085400D01*
X185510082Y-126085400D01*
X185686778Y-126120547D01*
G37*
G36*
X118376778Y-126120547D02*
G01*
X118543224Y-126189491D01*
X118693022Y-126289583D01*
X118820417Y-126416978D01*
X118920509Y-126566776D01*
X118989453Y-126733222D01*
X119024600Y-126909918D01*
X119024600Y-127090082D01*
X118989453Y-127266778D01*
X118920509Y-127433224D01*
X118820417Y-127583022D01*
X118693022Y-127710417D01*
X118543224Y-127810509D01*
X118376778Y-127879453D01*
X118200082Y-127914600D01*
X118019918Y-127914600D01*
X117843222Y-127879453D01*
X117676776Y-127810509D01*
X117526978Y-127710417D01*
X117399583Y-127583022D01*
X117299491Y-127433224D01*
X117230547Y-127266778D01*
X117195400Y-127090082D01*
X117195400Y-126909918D01*
X117230547Y-126733222D01*
X117299491Y-126566776D01*
X117399583Y-126416978D01*
X117526978Y-126289583D01*
X117676776Y-126189491D01*
X117843222Y-126120547D01*
X118019918Y-126085400D01*
X118200082Y-126085400D01*
X118376778Y-126120547D01*
G37*
G36*
X147586778Y-123580547D02*
G01*
X147753224Y-123649491D01*
X147903022Y-123749583D01*
X148030417Y-123876978D01*
X148130509Y-124026776D01*
X148199453Y-124193222D01*
X148234600Y-124369918D01*
X148234600Y-124550082D01*
X148199453Y-124726778D01*
X148130509Y-124893224D01*
X148030417Y-125043022D01*
X147903022Y-125170417D01*
X147753224Y-125270509D01*
X147586778Y-125339453D01*
X147410082Y-125374600D01*
X147229918Y-125374600D01*
X147053222Y-125339453D01*
X146886776Y-125270509D01*
X146736978Y-125170417D01*
X146609583Y-125043022D01*
X146509491Y-124893224D01*
X146440547Y-124726778D01*
X146405400Y-124550082D01*
X146405400Y-124369918D01*
X146440547Y-124193222D01*
X146509491Y-124026776D01*
X146609583Y-123876978D01*
X146736978Y-123749583D01*
X146886776Y-123649491D01*
X147053222Y-123580547D01*
X147229918Y-123545400D01*
X147410082Y-123545400D01*
X147586778Y-123580547D01*
G37*
G36*
X185686778Y-123580547D02*
G01*
X185853224Y-123649491D01*
X186003022Y-123749583D01*
X186130417Y-123876978D01*
X186230509Y-124026776D01*
X186299453Y-124193222D01*
X186334600Y-124369918D01*
X186334600Y-124550082D01*
X186299453Y-124726778D01*
X186230509Y-124893224D01*
X186130417Y-125043022D01*
X186003022Y-125170417D01*
X185853224Y-125270509D01*
X185686778Y-125339453D01*
X185510082Y-125374600D01*
X185329918Y-125374600D01*
X185153222Y-125339453D01*
X184986776Y-125270509D01*
X184836978Y-125170417D01*
X184709583Y-125043022D01*
X184609491Y-124893224D01*
X184540547Y-124726778D01*
X184505400Y-124550082D01*
X184505400Y-124369918D01*
X184540547Y-124193222D01*
X184609491Y-124026776D01*
X184709583Y-123876978D01*
X184836978Y-123749583D01*
X184986776Y-123649491D01*
X185153222Y-123580547D01*
X185329918Y-123545400D01*
X185510082Y-123545400D01*
X185686778Y-123580547D01*
G37*
G36*
X118376778Y-123580547D02*
G01*
X118543224Y-123649491D01*
X118693022Y-123749583D01*
X118820417Y-123876978D01*
X118920509Y-124026776D01*
X118989453Y-124193222D01*
X119024600Y-124369918D01*
X119024600Y-124550082D01*
X118989453Y-124726778D01*
X118920509Y-124893224D01*
X118820417Y-125043022D01*
X118693022Y-125170417D01*
X118543224Y-125270509D01*
X118376778Y-125339453D01*
X118200082Y-125374600D01*
X118019918Y-125374600D01*
X117843222Y-125339453D01*
X117676776Y-125270509D01*
X117526978Y-125170417D01*
X117399583Y-125043022D01*
X117299491Y-124893224D01*
X117230547Y-124726778D01*
X117195400Y-124550082D01*
X117195400Y-124369918D01*
X117230547Y-124193222D01*
X117299491Y-124026776D01*
X117399583Y-123876978D01*
X117526978Y-123749583D01*
X117676776Y-123649491D01*
X117843222Y-123580547D01*
X118019918Y-123545400D01*
X118200082Y-123545400D01*
X118376778Y-123580547D01*
G37*
G36*
X121564600Y-125374600D02*
G01*
X119735400Y-125374600D01*
X119735400Y-123545400D01*
X121564600Y-123545400D01*
X121564600Y-125374600D01*
G37*
G36*
X115836778Y-123580547D02*
G01*
X116003224Y-123649491D01*
X116153022Y-123749583D01*
X116280417Y-123876978D01*
X116380509Y-124026776D01*
X116449453Y-124193222D01*
X116484600Y-124369918D01*
X116484600Y-124550082D01*
X116449453Y-124726778D01*
X116380509Y-124893224D01*
X116280417Y-125043022D01*
X116153022Y-125170417D01*
X116003224Y-125270509D01*
X115836778Y-125339453D01*
X115660082Y-125374600D01*
X115479918Y-125374600D01*
X115303222Y-125339453D01*
X115136776Y-125270509D01*
X114986978Y-125170417D01*
X114859583Y-125043022D01*
X114759491Y-124893224D01*
X114690547Y-124726778D01*
X114655400Y-124550082D01*
X114655400Y-124369918D01*
X114690547Y-124193222D01*
X114759491Y-124026776D01*
X114859583Y-123876978D01*
X114986978Y-123749583D01*
X115136776Y-123649491D01*
X115303222Y-123580547D01*
X115479918Y-123545400D01*
X115660082Y-123545400D01*
X115836778Y-123580547D01*
G37*
G36*
X113296778Y-123580547D02*
G01*
X113463224Y-123649491D01*
X113613022Y-123749583D01*
X113740417Y-123876978D01*
X113840509Y-124026776D01*
X113909453Y-124193222D01*
X113944600Y-124369918D01*
X113944600Y-124550082D01*
X113909453Y-124726778D01*
X113840509Y-124893224D01*
X113740417Y-125043022D01*
X113613022Y-125170417D01*
X113463224Y-125270509D01*
X113296778Y-125339453D01*
X113120082Y-125374600D01*
X112939918Y-125374600D01*
X112763222Y-125339453D01*
X112596776Y-125270509D01*
X112446978Y-125170417D01*
X112319583Y-125043022D01*
X112219491Y-124893224D01*
X112150547Y-124726778D01*
X112115400Y-124550082D01*
X112115400Y-124369918D01*
X112150547Y-124193222D01*
X112219491Y-124026776D01*
X112319583Y-123876978D01*
X112446978Y-123749583D01*
X112596776Y-123649491D01*
X112763222Y-123580547D01*
X112939918Y-123545400D01*
X113120082Y-123545400D01*
X113296778Y-123580547D01*
G37*
G36*
X160934600Y-125374600D02*
G01*
X159105400Y-125374600D01*
X159105400Y-123545400D01*
X160934600Y-123545400D01*
X160934600Y-125374600D01*
G37*
G36*
X157746778Y-123580547D02*
G01*
X157913224Y-123649491D01*
X158063022Y-123749583D01*
X158190417Y-123876978D01*
X158290509Y-124026776D01*
X158359453Y-124193222D01*
X158394600Y-124369918D01*
X158394600Y-124550082D01*
X158359453Y-124726778D01*
X158290509Y-124893224D01*
X158190417Y-125043022D01*
X158063022Y-125170417D01*
X157913224Y-125270509D01*
X157746778Y-125339453D01*
X157570082Y-125374600D01*
X157389918Y-125374600D01*
X157213222Y-125339453D01*
X157046776Y-125270509D01*
X156896978Y-125170417D01*
X156769583Y-125043022D01*
X156669491Y-124893224D01*
X156600547Y-124726778D01*
X156565400Y-124550082D01*
X156565400Y-124369918D01*
X156600547Y-124193222D01*
X156669491Y-124026776D01*
X156769583Y-123876978D01*
X156896978Y-123749583D01*
X157046776Y-123649491D01*
X157213222Y-123580547D01*
X157389918Y-123545400D01*
X157570082Y-123545400D01*
X157746778Y-123580547D01*
G37*
G36*
X152666778Y-123580547D02*
G01*
X152833224Y-123649491D01*
X152983022Y-123749583D01*
X153110417Y-123876978D01*
X153210509Y-124026776D01*
X153279453Y-124193222D01*
X153314600Y-124369918D01*
X153314600Y-124550082D01*
X153279453Y-124726778D01*
X153210509Y-124893224D01*
X153110417Y-125043022D01*
X152983022Y-125170417D01*
X152833224Y-125270509D01*
X152666778Y-125339453D01*
X152490082Y-125374600D01*
X152309918Y-125374600D01*
X152133222Y-125339453D01*
X151966776Y-125270509D01*
X151816978Y-125170417D01*
X151689583Y-125043022D01*
X151589491Y-124893224D01*
X151520547Y-124726778D01*
X151485400Y-124550082D01*
X151485400Y-124369918D01*
X151520547Y-124193222D01*
X151589491Y-124026776D01*
X151689583Y-123876978D01*
X151816978Y-123749583D01*
X151966776Y-123649491D01*
X152133222Y-123580547D01*
X152309918Y-123545400D01*
X152490082Y-123545400D01*
X152666778Y-123580547D01*
G37*
G36*
X188226778Y-123580547D02*
G01*
X188393224Y-123649491D01*
X188543022Y-123749583D01*
X188670417Y-123876978D01*
X188770509Y-124026776D01*
X188839453Y-124193222D01*
X188874600Y-124369918D01*
X188874600Y-124550082D01*
X188839453Y-124726778D01*
X188770509Y-124893224D01*
X188670417Y-125043022D01*
X188543022Y-125170417D01*
X188393224Y-125270509D01*
X188226778Y-125339453D01*
X188050082Y-125374600D01*
X187869918Y-125374600D01*
X187693222Y-125339453D01*
X187526776Y-125270509D01*
X187376978Y-125170417D01*
X187249583Y-125043022D01*
X187149491Y-124893224D01*
X187080547Y-124726778D01*
X187045400Y-124550082D01*
X187045400Y-124369918D01*
X187080547Y-124193222D01*
X187149491Y-124026776D01*
X187249583Y-123876978D01*
X187376978Y-123749583D01*
X187526776Y-123649491D01*
X187693222Y-123580547D01*
X187869918Y-123545400D01*
X188050082Y-123545400D01*
X188226778Y-123580547D01*
G37*
G36*
X183146778Y-123580547D02*
G01*
X183313224Y-123649491D01*
X183463022Y-123749583D01*
X183590417Y-123876978D01*
X183690509Y-124026776D01*
X183759453Y-124193222D01*
X183794600Y-124369918D01*
X183794600Y-124550082D01*
X183759453Y-124726778D01*
X183690509Y-124893224D01*
X183590417Y-125043022D01*
X183463022Y-125170417D01*
X183313224Y-125270509D01*
X183146778Y-125339453D01*
X182970082Y-125374600D01*
X182789918Y-125374600D01*
X182613222Y-125339453D01*
X182446776Y-125270509D01*
X182296978Y-125170417D01*
X182169583Y-125043022D01*
X182069491Y-124893224D01*
X182000547Y-124726778D01*
X181965400Y-124550082D01*
X181965400Y-124369918D01*
X182000547Y-124193222D01*
X182069491Y-124026776D01*
X182169583Y-123876978D01*
X182296978Y-123749583D01*
X182446776Y-123649491D01*
X182613222Y-123580547D01*
X182789918Y-123545400D01*
X182970082Y-123545400D01*
X183146778Y-123580547D01*
G37*
G36*
X178066778Y-123580547D02*
G01*
X178233224Y-123649491D01*
X178383022Y-123749583D01*
X178510417Y-123876978D01*
X178610509Y-124026776D01*
X178679453Y-124193222D01*
X178714600Y-124369918D01*
X178714600Y-124550082D01*
X178679453Y-124726778D01*
X178610509Y-124893224D01*
X178510417Y-125043022D01*
X178383022Y-125170417D01*
X178233224Y-125270509D01*
X178066778Y-125339453D01*
X177890082Y-125374600D01*
X177709918Y-125374600D01*
X177533222Y-125339453D01*
X177366776Y-125270509D01*
X177216978Y-125170417D01*
X177089583Y-125043022D01*
X176989491Y-124893224D01*
X176920547Y-124726778D01*
X176885400Y-124550082D01*
X176885400Y-124369918D01*
X176920547Y-124193222D01*
X176989491Y-124026776D01*
X177089583Y-123876978D01*
X177216978Y-123749583D01*
X177366776Y-123649491D01*
X177533222Y-123580547D01*
X177709918Y-123545400D01*
X177890082Y-123545400D01*
X178066778Y-123580547D01*
G37*
G36*
X180606778Y-123580547D02*
G01*
X180773224Y-123649491D01*
X180923022Y-123749583D01*
X181050417Y-123876978D01*
X181150509Y-124026776D01*
X181219453Y-124193222D01*
X181254600Y-124369918D01*
X181254600Y-124550082D01*
X181219453Y-124726778D01*
X181150509Y-124893224D01*
X181050417Y-125043022D01*
X180923022Y-125170417D01*
X180773224Y-125270509D01*
X180606778Y-125339453D01*
X180430082Y-125374600D01*
X180249918Y-125374600D01*
X180073222Y-125339453D01*
X179906776Y-125270509D01*
X179756978Y-125170417D01*
X179629583Y-125043022D01*
X179529491Y-124893224D01*
X179460547Y-124726778D01*
X179425400Y-124550082D01*
X179425400Y-124369918D01*
X179460547Y-124193222D01*
X179529491Y-124026776D01*
X179629583Y-123876978D01*
X179756978Y-123749583D01*
X179906776Y-123649491D01*
X180073222Y-123580547D01*
X180249918Y-123545400D01*
X180430082Y-123545400D01*
X180606778Y-123580547D01*
G37*
G36*
X150126778Y-123580547D02*
G01*
X150293224Y-123649491D01*
X150443022Y-123749583D01*
X150570417Y-123876978D01*
X150670509Y-124026776D01*
X150739453Y-124193222D01*
X150774600Y-124369918D01*
X150774600Y-124550082D01*
X150739453Y-124726778D01*
X150670509Y-124893224D01*
X150570417Y-125043022D01*
X150443022Y-125170417D01*
X150293224Y-125270509D01*
X150126778Y-125339453D01*
X149950082Y-125374600D01*
X149769918Y-125374600D01*
X149593222Y-125339453D01*
X149426776Y-125270509D01*
X149276978Y-125170417D01*
X149149583Y-125043022D01*
X149049491Y-124893224D01*
X148980547Y-124726778D01*
X148945400Y-124550082D01*
X148945400Y-124369918D01*
X148980547Y-124193222D01*
X149049491Y-124026776D01*
X149149583Y-123876978D01*
X149276978Y-123749583D01*
X149426776Y-123649491D01*
X149593222Y-123580547D01*
X149769918Y-123545400D01*
X149950082Y-123545400D01*
X150126778Y-123580547D01*
G37*
G36*
X155206778Y-123580547D02*
G01*
X155373224Y-123649491D01*
X155523022Y-123749583D01*
X155650417Y-123876978D01*
X155750509Y-124026776D01*
X155819453Y-124193222D01*
X155854600Y-124369918D01*
X155854600Y-124550082D01*
X155819453Y-124726778D01*
X155750509Y-124893224D01*
X155650417Y-125043022D01*
X155523022Y-125170417D01*
X155373224Y-125270509D01*
X155206778Y-125339453D01*
X155030082Y-125374600D01*
X154849918Y-125374600D01*
X154673222Y-125339453D01*
X154506776Y-125270509D01*
X154356978Y-125170417D01*
X154229583Y-125043022D01*
X154129491Y-124893224D01*
X154060547Y-124726778D01*
X154025400Y-124550082D01*
X154025400Y-124369918D01*
X154060547Y-124193222D01*
X154129491Y-124026776D01*
X154229583Y-123876978D01*
X154356978Y-123749583D01*
X154506776Y-123649491D01*
X154673222Y-123580547D01*
X154849918Y-123545400D01*
X155030082Y-123545400D01*
X155206778Y-123580547D01*
G37*
G36*
X107073000Y-105676000D02*
G01*
X105271000Y-105676000D01*
X105271000Y-103874000D01*
X107073000Y-103874000D01*
X107073000Y-105676000D01*
G37*
G36*
X108825512Y-103878927D02*
G01*
X108974812Y-103908624D01*
X109138784Y-103976544D01*
X109286354Y-104075147D01*
X109411853Y-104200646D01*
X109510456Y-104348216D01*
X109578376Y-104512188D01*
X109613000Y-104686259D01*
X109613000Y-104863741D01*
X109578376Y-105037812D01*
X109510456Y-105201784D01*
X109411853Y-105349354D01*
X109286354Y-105474853D01*
X109138784Y-105573456D01*
X108974812Y-105641376D01*
X108825512Y-105671073D01*
X108800742Y-105676000D01*
X108623258Y-105676000D01*
X108598488Y-105671073D01*
X108449188Y-105641376D01*
X108285216Y-105573456D01*
X108137646Y-105474853D01*
X108012147Y-105349354D01*
X107913544Y-105201784D01*
X107845624Y-105037812D01*
X107811000Y-104863741D01*
X107811000Y-104686259D01*
X107845624Y-104512188D01*
X107913544Y-104348216D01*
X108012147Y-104200646D01*
X108137646Y-104075147D01*
X108285216Y-103976544D01*
X108449188Y-103908624D01*
X108598488Y-103878927D01*
X108623258Y-103874000D01*
X108800742Y-103874000D01*
X108825512Y-103878927D01*
G37*
G36*
X106793512Y-68522127D02*
G01*
X106942812Y-68551824D01*
X107106784Y-68619744D01*
X107254354Y-68718347D01*
X107379853Y-68843846D01*
X107478456Y-68991416D01*
X107546376Y-69155388D01*
X107581000Y-69329459D01*
X107581000Y-69506941D01*
X107546376Y-69681012D01*
X107478456Y-69844984D01*
X107379853Y-69992554D01*
X107254354Y-70118053D01*
X107106784Y-70216656D01*
X106942812Y-70284576D01*
X106793512Y-70314273D01*
X106768742Y-70319200D01*
X106591258Y-70319200D01*
X106566488Y-70314273D01*
X106417188Y-70284576D01*
X106253216Y-70216656D01*
X106105646Y-70118053D01*
X105980147Y-69992554D01*
X105881544Y-69844984D01*
X105813624Y-69681012D01*
X105779000Y-69506941D01*
X105779000Y-69329459D01*
X105813624Y-69155388D01*
X105881544Y-68991416D01*
X105980147Y-68843846D01*
X106105646Y-68718347D01*
X106253216Y-68619744D01*
X106417188Y-68551824D01*
X106566488Y-68522127D01*
X106591258Y-68517200D01*
X106768742Y-68517200D01*
X106793512Y-68522127D01*
G37*
G36*
X114413512Y-68522127D02*
G01*
X114562812Y-68551824D01*
X114726784Y-68619744D01*
X114874354Y-68718347D01*
X114999853Y-68843846D01*
X115098456Y-68991416D01*
X115166376Y-69155388D01*
X115201000Y-69329459D01*
X115201000Y-69506941D01*
X115166376Y-69681012D01*
X115098456Y-69844984D01*
X114999853Y-69992554D01*
X114874354Y-70118053D01*
X114726784Y-70216656D01*
X114562812Y-70284576D01*
X114413512Y-70314273D01*
X114388742Y-70319200D01*
X114211258Y-70319200D01*
X114186488Y-70314273D01*
X114037188Y-70284576D01*
X113873216Y-70216656D01*
X113725646Y-70118053D01*
X113600147Y-69992554D01*
X113501544Y-69844984D01*
X113433624Y-69681012D01*
X113399000Y-69506941D01*
X113399000Y-69329459D01*
X113433624Y-69155388D01*
X113501544Y-68991416D01*
X113600147Y-68843846D01*
X113725646Y-68718347D01*
X113873216Y-68619744D01*
X114037188Y-68551824D01*
X114186488Y-68522127D01*
X114211258Y-68517200D01*
X114388742Y-68517200D01*
X114413512Y-68522127D01*
G37*
G36*
X111873512Y-68522127D02*
G01*
X112022812Y-68551824D01*
X112186784Y-68619744D01*
X112334354Y-68718347D01*
X112459853Y-68843846D01*
X112558456Y-68991416D01*
X112626376Y-69155388D01*
X112661000Y-69329459D01*
X112661000Y-69506941D01*
X112626376Y-69681012D01*
X112558456Y-69844984D01*
X112459853Y-69992554D01*
X112334354Y-70118053D01*
X112186784Y-70216656D01*
X112022812Y-70284576D01*
X111873512Y-70314273D01*
X111848742Y-70319200D01*
X111671258Y-70319200D01*
X111646488Y-70314273D01*
X111497188Y-70284576D01*
X111333216Y-70216656D01*
X111185646Y-70118053D01*
X111060147Y-69992554D01*
X110961544Y-69844984D01*
X110893624Y-69681012D01*
X110859000Y-69506941D01*
X110859000Y-69329459D01*
X110893624Y-69155388D01*
X110961544Y-68991416D01*
X111060147Y-68843846D01*
X111185646Y-68718347D01*
X111333216Y-68619744D01*
X111497188Y-68551824D01*
X111646488Y-68522127D01*
X111671258Y-68517200D01*
X111848742Y-68517200D01*
X111873512Y-68522127D01*
G37*
G36*
X116953512Y-68522127D02*
G01*
X117102812Y-68551824D01*
X117266784Y-68619744D01*
X117414354Y-68718347D01*
X117539853Y-68843846D01*
X117638456Y-68991416D01*
X117706376Y-69155388D01*
X117741000Y-69329459D01*
X117741000Y-69506941D01*
X117706376Y-69681012D01*
X117638456Y-69844984D01*
X117539853Y-69992554D01*
X117414354Y-70118053D01*
X117266784Y-70216656D01*
X117102812Y-70284576D01*
X116953512Y-70314273D01*
X116928742Y-70319200D01*
X116751258Y-70319200D01*
X116726488Y-70314273D01*
X116577188Y-70284576D01*
X116413216Y-70216656D01*
X116265646Y-70118053D01*
X116140147Y-69992554D01*
X116041544Y-69844984D01*
X115973624Y-69681012D01*
X115939000Y-69506941D01*
X115939000Y-69329459D01*
X115973624Y-69155388D01*
X116041544Y-68991416D01*
X116140147Y-68843846D01*
X116265646Y-68718347D01*
X116413216Y-68619744D01*
X116577188Y-68551824D01*
X116726488Y-68522127D01*
X116751258Y-68517200D01*
X116928742Y-68517200D01*
X116953512Y-68522127D01*
G37*
G36*
X120281000Y-70319200D02*
G01*
X118479000Y-70319200D01*
X118479000Y-68517200D01*
X120281000Y-68517200D01*
X120281000Y-70319200D01*
G37*
G36*
X109333512Y-68522127D02*
G01*
X109482812Y-68551824D01*
X109646784Y-68619744D01*
X109794354Y-68718347D01*
X109919853Y-68843846D01*
X110018456Y-68991416D01*
X110086376Y-69155388D01*
X110121000Y-69329459D01*
X110121000Y-69506941D01*
X110086376Y-69681012D01*
X110018456Y-69844984D01*
X109919853Y-69992554D01*
X109794354Y-70118053D01*
X109646784Y-70216656D01*
X109482812Y-70284576D01*
X109333512Y-70314273D01*
X109308742Y-70319200D01*
X109131258Y-70319200D01*
X109106488Y-70314273D01*
X108957188Y-70284576D01*
X108793216Y-70216656D01*
X108645646Y-70118053D01*
X108520147Y-69992554D01*
X108421544Y-69844984D01*
X108353624Y-69681012D01*
X108319000Y-69506941D01*
X108319000Y-69329459D01*
X108353624Y-69155388D01*
X108421544Y-68991416D01*
X108520147Y-68843846D01*
X108645646Y-68718347D01*
X108793216Y-68619744D01*
X108957188Y-68551824D01*
X109106488Y-68522127D01*
X109131258Y-68517200D01*
X109308742Y-68517200D01*
X109333512Y-68522127D01*
G37*
G36*
X195351000Y-62751000D02*
G01*
X192249000Y-62751000D01*
X192249000Y-59649000D01*
X195351000Y-59649000D01*
X195351000Y-62751000D01*
G37*
G36*
X178907000Y-57900000D02*
G01*
X164937000Y-57900000D01*
X164937000Y-45200000D01*
X178907000Y-45200000D01*
X178907000Y-57900000D01*
G37*
G36*
X194102585Y-54598802D02*
G01*
X194252410Y-54628604D01*
X194534674Y-54745521D01*
X194788705Y-54915259D01*
X195004741Y-55131295D01*
X195174479Y-55385326D01*
X195291396Y-55667590D01*
X195351000Y-55967240D01*
X195351000Y-56272760D01*
X195291396Y-56572410D01*
X195174479Y-56854674D01*
X195004741Y-57108705D01*
X194788705Y-57324741D01*
X194534674Y-57494479D01*
X194252410Y-57611396D01*
X194102585Y-57641198D01*
X193952761Y-57671000D01*
X193647239Y-57671000D01*
X193497415Y-57641198D01*
X193347590Y-57611396D01*
X193065326Y-57494479D01*
X192811295Y-57324741D01*
X192595259Y-57108705D01*
X192425521Y-56854674D01*
X192308604Y-56572410D01*
X192249000Y-56272760D01*
X192249000Y-55967240D01*
X192308604Y-55667590D01*
X192425521Y-55385326D01*
X192595259Y-55131295D01*
X192811295Y-54915259D01*
X193065326Y-54745521D01*
X193347590Y-54628604D01*
X193497415Y-54598802D01*
X193647239Y-54569000D01*
X193952761Y-54569000D01*
X194102585Y-54598802D01*
G37*
G36*
X103158049Y-47131116D02*
G01*
X103269234Y-47153232D01*
X103417350Y-47214584D01*
X103476200Y-47238960D01*
X103478703Y-47239997D01*
X103667220Y-47365960D01*
X103827540Y-47526280D01*
X103953503Y-47714797D01*
X104040268Y-47924266D01*
X104084500Y-48146636D01*
X104084500Y-48373364D01*
X104040268Y-48595734D01*
X103953503Y-48805203D01*
X103827540Y-48993720D01*
X103667220Y-49154040D01*
X103478703Y-49280003D01*
X103478702Y-49280004D01*
X103478701Y-49280004D01*
X103417350Y-49305416D01*
X103269234Y-49366768D01*
X103158049Y-49388884D01*
X103046865Y-49411000D01*
X102820135Y-49411000D01*
X102708951Y-49388884D01*
X102597766Y-49366768D01*
X102449650Y-49305416D01*
X102388299Y-49280004D01*
X102388298Y-49280004D01*
X102388297Y-49280003D01*
X102199780Y-49154040D01*
X102039460Y-48993720D01*
X101913497Y-48805203D01*
X101826732Y-48595734D01*
X101782500Y-48373364D01*
X101782500Y-48146636D01*
X101826732Y-47924266D01*
X101913497Y-47714797D01*
X102039460Y-47526280D01*
X102199780Y-47365960D01*
X102388297Y-47239997D01*
X102390801Y-47238960D01*
X102449650Y-47214584D01*
X102597766Y-47153232D01*
X102708951Y-47131116D01*
X102820135Y-47109000D01*
X103046865Y-47109000D01*
X103158049Y-47131116D01*
G37*
G36*
X202154549Y-47004116D02*
G01*
X202265734Y-47026232D01*
X202413850Y-47087584D01*
X202465554Y-47109000D01*
X202475203Y-47112997D01*
X202663720Y-47238960D01*
X202824040Y-47399280D01*
X202950003Y-47587797D01*
X203036768Y-47797266D01*
X203081000Y-48019636D01*
X203081000Y-48246364D01*
X203036768Y-48468734D01*
X202950003Y-48678203D01*
X202824040Y-48866720D01*
X202663720Y-49027040D01*
X202475203Y-49153003D01*
X202475202Y-49153004D01*
X202475201Y-49153004D01*
X202413850Y-49178416D01*
X202265734Y-49239768D01*
X202154549Y-49261884D01*
X202043365Y-49284000D01*
X201816635Y-49284000D01*
X201705451Y-49261884D01*
X201594266Y-49239768D01*
X201446150Y-49178416D01*
X201384799Y-49153004D01*
X201384798Y-49153004D01*
X201384797Y-49153003D01*
X201196280Y-49027040D01*
X201035960Y-48866720D01*
X200909997Y-48678203D01*
X200823232Y-48468734D01*
X200779000Y-48246364D01*
X200779000Y-48019636D01*
X200823232Y-47797266D01*
X200909997Y-47587797D01*
X201035960Y-47399280D01*
X201196280Y-47238960D01*
X201384797Y-47112997D01*
X201394447Y-47109000D01*
X201446150Y-47087584D01*
X201594266Y-47026232D01*
X201705451Y-47004116D01*
X201816635Y-46982000D01*
X202043365Y-46982000D01*
X202154549Y-47004116D01*
G37*
M02*
