G04 #@! TF.GenerationSoftware,KiCad,Pcbnew,5.1.5-52549c5~84~ubuntu18.04.1*
G04 #@! TF.CreationDate,2020-03-15T18:43:17+00:00*
G04 #@! TF.ProjectId,FunctionGeneratorCortexM4,46756e63-7469-46f6-9e47-656e65726174,B*
G04 #@! TF.SameCoordinates,Original*
G04 #@! TF.FileFunction,Legend,Top*
G04 #@! TF.FilePolarity,Positive*
%FSLAX46Y46*%
G04 Gerber Fmt 4.6, Leading zero omitted, Abs format (unit mm)*
G04 Created by KiCad (PCBNEW 5.1.5-52549c5~84~ubuntu18.04.1) date 2020-03-15 18:43:17*
%MOMM*%
%LPD*%
G04 APERTURE LIST*
%ADD10C,0.150000*%
%ADD11C,1.000000*%
%ADD12C,0.200000*%
%ADD13C,0.300000*%
%ADD14C,0.100000*%
%ADD15C,0.120000*%
G04 APERTURE END LIST*
D10*
X180792952Y-132040380D02*
X181364380Y-132040380D01*
X181078666Y-133040380D02*
X181078666Y-132040380D01*
X182269142Y-133040380D02*
X181935809Y-132564190D01*
X181697714Y-133040380D02*
X181697714Y-132040380D01*
X182078666Y-132040380D01*
X182173904Y-132088000D01*
X182221523Y-132135619D01*
X182269142Y-132230857D01*
X182269142Y-132373714D01*
X182221523Y-132468952D01*
X182173904Y-132516571D01*
X182078666Y-132564190D01*
X181697714Y-132564190D01*
X182697714Y-133040380D02*
X182697714Y-132040380D01*
X183697714Y-132088000D02*
X183602476Y-132040380D01*
X183459619Y-132040380D01*
X183316761Y-132088000D01*
X183221523Y-132183238D01*
X183173904Y-132278476D01*
X183126285Y-132468952D01*
X183126285Y-132611809D01*
X183173904Y-132802285D01*
X183221523Y-132897523D01*
X183316761Y-132992761D01*
X183459619Y-133040380D01*
X183554857Y-133040380D01*
X183697714Y-132992761D01*
X183745333Y-132945142D01*
X183745333Y-132611809D01*
X183554857Y-132611809D01*
X184697714Y-132088000D02*
X184602476Y-132040380D01*
X184459619Y-132040380D01*
X184316761Y-132088000D01*
X184221523Y-132183238D01*
X184173904Y-132278476D01*
X184126285Y-132468952D01*
X184126285Y-132611809D01*
X184173904Y-132802285D01*
X184221523Y-132897523D01*
X184316761Y-132992761D01*
X184459619Y-133040380D01*
X184554857Y-133040380D01*
X184697714Y-132992761D01*
X184745333Y-132945142D01*
X184745333Y-132611809D01*
X184554857Y-132611809D01*
X185173904Y-132516571D02*
X185507238Y-132516571D01*
X185650095Y-133040380D02*
X185173904Y-133040380D01*
X185173904Y-132040380D01*
X185650095Y-132040380D01*
X186650095Y-133040380D02*
X186316761Y-132564190D01*
X186078666Y-133040380D02*
X186078666Y-132040380D01*
X186459619Y-132040380D01*
X186554857Y-132088000D01*
X186602476Y-132135619D01*
X186650095Y-132230857D01*
X186650095Y-132373714D01*
X186602476Y-132468952D01*
X186554857Y-132516571D01*
X186459619Y-132564190D01*
X186078666Y-132564190D01*
X187840571Y-133040380D02*
X187840571Y-132040380D01*
X188316761Y-133040380D02*
X188316761Y-132040380D01*
X188888190Y-133040380D01*
X188888190Y-132040380D01*
X183039047Y-116419761D02*
X183181904Y-116467380D01*
X183420000Y-116467380D01*
X183515238Y-116419761D01*
X183562857Y-116372142D01*
X183610476Y-116276904D01*
X183610476Y-116181666D01*
X183562857Y-116086428D01*
X183515238Y-116038809D01*
X183420000Y-115991190D01*
X183229523Y-115943571D01*
X183134285Y-115895952D01*
X183086666Y-115848333D01*
X183039047Y-115753095D01*
X183039047Y-115657857D01*
X183086666Y-115562619D01*
X183134285Y-115515000D01*
X183229523Y-115467380D01*
X183467619Y-115467380D01*
X183610476Y-115515000D01*
X184039047Y-116467380D02*
X184039047Y-115467380D01*
X185039047Y-115515000D02*
X184943809Y-115467380D01*
X184800952Y-115467380D01*
X184658095Y-115515000D01*
X184562857Y-115610238D01*
X184515238Y-115705476D01*
X184467619Y-115895952D01*
X184467619Y-116038809D01*
X184515238Y-116229285D01*
X184562857Y-116324523D01*
X184658095Y-116419761D01*
X184800952Y-116467380D01*
X184896190Y-116467380D01*
X185039047Y-116419761D01*
X185086666Y-116372142D01*
X185086666Y-116038809D01*
X184896190Y-116038809D01*
X185515238Y-116467380D02*
X185515238Y-115467380D01*
X186086666Y-116467380D01*
X186086666Y-115467380D01*
X186515238Y-116181666D02*
X186991428Y-116181666D01*
X186420000Y-116467380D02*
X186753333Y-115467380D01*
X187086666Y-116467380D01*
X187896190Y-116467380D02*
X187420000Y-116467380D01*
X187420000Y-115467380D01*
X184420000Y-117117380D02*
X184610476Y-117117380D01*
X184705714Y-117165000D01*
X184800952Y-117260238D01*
X184848571Y-117450714D01*
X184848571Y-117784047D01*
X184800952Y-117974523D01*
X184705714Y-118069761D01*
X184610476Y-118117380D01*
X184420000Y-118117380D01*
X184324761Y-118069761D01*
X184229523Y-117974523D01*
X184181904Y-117784047D01*
X184181904Y-117450714D01*
X184229523Y-117260238D01*
X184324761Y-117165000D01*
X184420000Y-117117380D01*
X185277142Y-117117380D02*
X185277142Y-117926904D01*
X185324761Y-118022142D01*
X185372380Y-118069761D01*
X185467619Y-118117380D01*
X185658095Y-118117380D01*
X185753333Y-118069761D01*
X185800952Y-118022142D01*
X185848571Y-117926904D01*
X185848571Y-117117380D01*
X186181904Y-117117380D02*
X186753333Y-117117380D01*
X186467619Y-118117380D02*
X186467619Y-117117380D01*
X138469904Y-111339761D02*
X138612761Y-111387380D01*
X138850857Y-111387380D01*
X138946095Y-111339761D01*
X138993714Y-111292142D01*
X139041333Y-111196904D01*
X139041333Y-111101666D01*
X138993714Y-111006428D01*
X138946095Y-110958809D01*
X138850857Y-110911190D01*
X138660380Y-110863571D01*
X138565142Y-110815952D01*
X138517523Y-110768333D01*
X138469904Y-110673095D01*
X138469904Y-110577857D01*
X138517523Y-110482619D01*
X138565142Y-110435000D01*
X138660380Y-110387380D01*
X138898476Y-110387380D01*
X139041333Y-110435000D01*
X139660380Y-110911190D02*
X139660380Y-111387380D01*
X139327047Y-110387380D02*
X139660380Y-110911190D01*
X139993714Y-110387380D01*
X140327047Y-111387380D02*
X140327047Y-110387380D01*
X140898476Y-111387380D01*
X140898476Y-110387380D01*
X141946095Y-111292142D02*
X141898476Y-111339761D01*
X141755619Y-111387380D01*
X141660380Y-111387380D01*
X141517523Y-111339761D01*
X141422285Y-111244523D01*
X141374666Y-111149285D01*
X141327047Y-110958809D01*
X141327047Y-110815952D01*
X141374666Y-110625476D01*
X141422285Y-110530238D01*
X141517523Y-110435000D01*
X141660380Y-110387380D01*
X141755619Y-110387380D01*
X141898476Y-110435000D01*
X141946095Y-110482619D01*
X139208000Y-112037380D02*
X139398476Y-112037380D01*
X139493714Y-112085000D01*
X139588952Y-112180238D01*
X139636571Y-112370714D01*
X139636571Y-112704047D01*
X139588952Y-112894523D01*
X139493714Y-112989761D01*
X139398476Y-113037380D01*
X139208000Y-113037380D01*
X139112761Y-112989761D01*
X139017523Y-112894523D01*
X138969904Y-112704047D01*
X138969904Y-112370714D01*
X139017523Y-112180238D01*
X139112761Y-112085000D01*
X139208000Y-112037380D01*
X140065142Y-112037380D02*
X140065142Y-112846904D01*
X140112761Y-112942142D01*
X140160380Y-112989761D01*
X140255619Y-113037380D01*
X140446095Y-113037380D01*
X140541333Y-112989761D01*
X140588952Y-112942142D01*
X140636571Y-112846904D01*
X140636571Y-112037380D01*
X140969904Y-112037380D02*
X141541333Y-112037380D01*
X141255619Y-113037380D02*
X141255619Y-112037380D01*
X166490857Y-73499333D02*
X166871809Y-73499333D01*
X166414666Y-73727904D02*
X166681333Y-72927904D01*
X166948000Y-73727904D01*
X167557523Y-73727904D02*
X167557523Y-72927904D01*
X167557523Y-73689809D02*
X167481333Y-73727904D01*
X167328952Y-73727904D01*
X167252761Y-73689809D01*
X167214666Y-73651714D01*
X167176571Y-73575523D01*
X167176571Y-73346952D01*
X167214666Y-73270761D01*
X167252761Y-73232666D01*
X167328952Y-73194571D01*
X167481333Y-73194571D01*
X167557523Y-73232666D01*
X167938476Y-73194571D02*
X167938476Y-73880285D01*
X167900380Y-73956476D01*
X167824190Y-73994571D01*
X167786095Y-73994571D01*
X167938476Y-72927904D02*
X167900380Y-72966000D01*
X167938476Y-73004095D01*
X167976571Y-72966000D01*
X167938476Y-72927904D01*
X167938476Y-73004095D01*
X168662285Y-73194571D02*
X168662285Y-73727904D01*
X168319428Y-73194571D02*
X168319428Y-73613619D01*
X168357523Y-73689809D01*
X168433714Y-73727904D01*
X168548000Y-73727904D01*
X168624190Y-73689809D01*
X168662285Y-73651714D01*
X169005142Y-73689809D02*
X169081333Y-73727904D01*
X169233714Y-73727904D01*
X169309904Y-73689809D01*
X169348000Y-73613619D01*
X169348000Y-73575523D01*
X169309904Y-73499333D01*
X169233714Y-73461238D01*
X169119428Y-73461238D01*
X169043238Y-73423142D01*
X169005142Y-73346952D01*
X169005142Y-73308857D01*
X169043238Y-73232666D01*
X169119428Y-73194571D01*
X169233714Y-73194571D01*
X169309904Y-73232666D01*
X169576571Y-73194571D02*
X169881333Y-73194571D01*
X169690857Y-72927904D02*
X169690857Y-73613619D01*
X169728952Y-73689809D01*
X169805142Y-73727904D01*
X169881333Y-73727904D01*
X166167047Y-74544571D02*
X166471809Y-74544571D01*
X166281333Y-74277904D02*
X166281333Y-74963619D01*
X166319428Y-75039809D01*
X166395619Y-75077904D01*
X166471809Y-75077904D01*
X166852761Y-75077904D02*
X166776571Y-75039809D01*
X166738476Y-75001714D01*
X166700380Y-74925523D01*
X166700380Y-74696952D01*
X166738476Y-74620761D01*
X166776571Y-74582666D01*
X166852761Y-74544571D01*
X166967047Y-74544571D01*
X167043238Y-74582666D01*
X167081333Y-74620761D01*
X167119428Y-74696952D01*
X167119428Y-74925523D01*
X167081333Y-75001714D01*
X167043238Y-75039809D01*
X166967047Y-75077904D01*
X166852761Y-75077904D01*
X168414666Y-74277904D02*
X168262285Y-74277904D01*
X168186095Y-74316000D01*
X168148000Y-74354095D01*
X168071809Y-74468380D01*
X168033714Y-74620761D01*
X168033714Y-74925523D01*
X168071809Y-75001714D01*
X168109904Y-75039809D01*
X168186095Y-75077904D01*
X168338476Y-75077904D01*
X168414666Y-75039809D01*
X168452761Y-75001714D01*
X168490857Y-74925523D01*
X168490857Y-74735047D01*
X168452761Y-74658857D01*
X168414666Y-74620761D01*
X168338476Y-74582666D01*
X168186095Y-74582666D01*
X168109904Y-74620761D01*
X168071809Y-74658857D01*
X168033714Y-74735047D01*
X168833714Y-75077904D02*
X168833714Y-74277904D01*
X169290857Y-75077904D02*
X168948000Y-74620761D01*
X169290857Y-74277904D02*
X168833714Y-74735047D01*
X169595619Y-74354095D02*
X169633714Y-74316000D01*
X169709904Y-74277904D01*
X169900380Y-74277904D01*
X169976571Y-74316000D01*
X170014666Y-74354095D01*
X170052761Y-74430285D01*
X170052761Y-74506476D01*
X170014666Y-74620761D01*
X169557523Y-75077904D01*
X170052761Y-75077904D01*
D11*
X154940000Y-84264500D02*
G75*
G03X154940000Y-84264500I0J0D01*
G01*
X158686500Y-92837000D02*
G75*
G03X158686500Y-92837000I0J0D01*
G01*
X159067500Y-101981000D02*
G75*
G03X159067500Y-101981000I0J0D01*
G01*
X168275000Y-102997000D02*
G75*
G03X168275000Y-102997000I0J0D01*
G01*
D12*
X177561952Y-74810880D02*
X177085761Y-74810880D01*
X177085761Y-73810880D01*
X177895285Y-74810880D02*
X177895285Y-73810880D01*
X178276238Y-73810880D01*
X178371476Y-73858500D01*
X178419095Y-73906119D01*
X178466714Y-74001357D01*
X178466714Y-74144214D01*
X178419095Y-74239452D01*
X178371476Y-74287071D01*
X178276238Y-74334690D01*
X177895285Y-74334690D01*
X179228619Y-74287071D02*
X178895285Y-74287071D01*
X178895285Y-74810880D02*
X178895285Y-73810880D01*
X179371476Y-73810880D01*
D10*
X136279238Y-103068380D02*
X136279238Y-102068380D01*
X136517333Y-102068380D01*
X136660190Y-102116000D01*
X136755428Y-102211238D01*
X136803047Y-102306476D01*
X136850666Y-102496952D01*
X136850666Y-102639809D01*
X136803047Y-102830285D01*
X136755428Y-102925523D01*
X136660190Y-103020761D01*
X136517333Y-103068380D01*
X136279238Y-103068380D01*
X137850666Y-102973142D02*
X137803047Y-103020761D01*
X137660190Y-103068380D01*
X137564952Y-103068380D01*
X137422095Y-103020761D01*
X137326857Y-102925523D01*
X137279238Y-102830285D01*
X137231619Y-102639809D01*
X137231619Y-102496952D01*
X137279238Y-102306476D01*
X137326857Y-102211238D01*
X137422095Y-102116000D01*
X137564952Y-102068380D01*
X137660190Y-102068380D01*
X137803047Y-102116000D01*
X137850666Y-102163619D01*
X138612571Y-102544571D02*
X138755428Y-102592190D01*
X138803047Y-102639809D01*
X138850666Y-102735047D01*
X138850666Y-102877904D01*
X138803047Y-102973142D01*
X138755428Y-103020761D01*
X138660190Y-103068380D01*
X138279238Y-103068380D01*
X138279238Y-102068380D01*
X138612571Y-102068380D01*
X138707809Y-102116000D01*
X138755428Y-102163619D01*
X138803047Y-102258857D01*
X138803047Y-102354095D01*
X138755428Y-102449333D01*
X138707809Y-102496952D01*
X138612571Y-102544571D01*
X138279238Y-102544571D01*
X139279238Y-103068380D02*
X139279238Y-102068380D01*
X139707809Y-102782666D02*
X140184000Y-102782666D01*
X139612571Y-103068380D02*
X139945904Y-102068380D01*
X140279238Y-103068380D01*
X140564952Y-103020761D02*
X140707809Y-103068380D01*
X140945904Y-103068380D01*
X141041142Y-103020761D01*
X141088761Y-102973142D01*
X141136380Y-102877904D01*
X141136380Y-102782666D01*
X141088761Y-102687428D01*
X141041142Y-102639809D01*
X140945904Y-102592190D01*
X140755428Y-102544571D01*
X140660190Y-102496952D01*
X140612571Y-102449333D01*
X140564952Y-102354095D01*
X140564952Y-102258857D01*
X140612571Y-102163619D01*
X140660190Y-102116000D01*
X140755428Y-102068380D01*
X140993523Y-102068380D01*
X141136380Y-102116000D01*
X140033523Y-94432380D02*
X140033523Y-93432380D01*
X140414476Y-93432380D01*
X140509714Y-93480000D01*
X140557333Y-93527619D01*
X140604952Y-93622857D01*
X140604952Y-93765714D01*
X140557333Y-93860952D01*
X140509714Y-93908571D01*
X140414476Y-93956190D01*
X140033523Y-93956190D01*
X141557333Y-93480000D02*
X141462095Y-93432380D01*
X141319238Y-93432380D01*
X141176380Y-93480000D01*
X141081142Y-93575238D01*
X141033523Y-93670476D01*
X140985904Y-93860952D01*
X140985904Y-94003809D01*
X141033523Y-94194285D01*
X141081142Y-94289523D01*
X141176380Y-94384761D01*
X141319238Y-94432380D01*
X141414476Y-94432380D01*
X141557333Y-94384761D01*
X141604952Y-94337142D01*
X141604952Y-94003809D01*
X141414476Y-94003809D01*
X141985904Y-94146666D02*
X142462095Y-94146666D01*
X141890666Y-94432380D02*
X142224000Y-93432380D01*
X142557333Y-94432380D01*
D13*
X189300000Y-52878571D02*
X189300000Y-51378571D01*
X189800000Y-52450000D01*
X190300000Y-51378571D01*
X190300000Y-52878571D01*
X190942857Y-52450000D02*
X191657142Y-52450000D01*
X190800000Y-52878571D02*
X191300000Y-51378571D01*
X191800000Y-52878571D01*
X192157142Y-51378571D02*
X193157142Y-52878571D01*
X193157142Y-51378571D02*
X192157142Y-52878571D01*
X195657142Y-52878571D02*
X194800000Y-52878571D01*
X195228571Y-52878571D02*
X195228571Y-51378571D01*
X195085714Y-51592857D01*
X194942857Y-51735714D01*
X194800000Y-51807142D01*
X197014285Y-51378571D02*
X196300000Y-51378571D01*
X196228571Y-52092857D01*
X196300000Y-52021428D01*
X196442857Y-51950000D01*
X196800000Y-51950000D01*
X196942857Y-52021428D01*
X197014285Y-52092857D01*
X197085714Y-52235714D01*
X197085714Y-52592857D01*
X197014285Y-52735714D01*
X196942857Y-52807142D01*
X196800000Y-52878571D01*
X196442857Y-52878571D01*
X196300000Y-52807142D01*
X196228571Y-52735714D01*
X197514285Y-51378571D02*
X198014285Y-52878571D01*
X198514285Y-51378571D01*
D14*
X116456666Y-53317666D02*
X116456666Y-52884333D01*
X116723333Y-53117666D01*
X116723333Y-53017666D01*
X116756666Y-52951000D01*
X116790000Y-52917666D01*
X116856666Y-52884333D01*
X117023333Y-52884333D01*
X117090000Y-52917666D01*
X117123333Y-52951000D01*
X117156666Y-53017666D01*
X117156666Y-53217666D01*
X117123333Y-53284333D01*
X117090000Y-53317666D01*
X116456666Y-52684333D02*
X117156666Y-52451000D01*
X116456666Y-52217666D01*
X116456666Y-52051000D02*
X116456666Y-51617666D01*
X116723333Y-51851000D01*
X116723333Y-51751000D01*
X116756666Y-51684333D01*
X116790000Y-51651000D01*
X116856666Y-51617666D01*
X117023333Y-51617666D01*
X117090000Y-51651000D01*
X117123333Y-51684333D01*
X117156666Y-51751000D01*
X117156666Y-51951000D01*
X117123333Y-52017666D01*
X117090000Y-52051000D01*
X115853333Y-66861333D02*
X115886666Y-66761333D01*
X115886666Y-66594666D01*
X115853333Y-66528000D01*
X115820000Y-66494666D01*
X115753333Y-66461333D01*
X115686666Y-66461333D01*
X115620000Y-66494666D01*
X115586666Y-66528000D01*
X115553333Y-66594666D01*
X115520000Y-66728000D01*
X115486666Y-66794666D01*
X115453333Y-66828000D01*
X115386666Y-66861333D01*
X115320000Y-66861333D01*
X115253333Y-66828000D01*
X115220000Y-66794666D01*
X115186666Y-66728000D01*
X115186666Y-66561333D01*
X115220000Y-66461333D01*
X115186666Y-66228000D02*
X115886666Y-66061333D01*
X115386666Y-65928000D01*
X115886666Y-65794666D01*
X115186666Y-65628000D01*
X115820000Y-64961333D02*
X115853333Y-64994666D01*
X115886666Y-65094666D01*
X115886666Y-65161333D01*
X115853333Y-65261333D01*
X115786666Y-65328000D01*
X115720000Y-65361333D01*
X115586666Y-65394666D01*
X115486666Y-65394666D01*
X115353333Y-65361333D01*
X115286666Y-65328000D01*
X115220000Y-65261333D01*
X115186666Y-65161333D01*
X115186666Y-65094666D01*
X115220000Y-64994666D01*
X115253333Y-64961333D01*
X115886666Y-64328000D02*
X115886666Y-64661333D01*
X115186666Y-64661333D01*
X115886666Y-64094666D02*
X115186666Y-64094666D01*
X115886666Y-63694666D02*
X115486666Y-63994666D01*
X115186666Y-63694666D02*
X115586666Y-64094666D01*
X114528666Y-52482000D02*
X114462000Y-52448666D01*
X114362000Y-52448666D01*
X114262000Y-52482000D01*
X114195333Y-52548666D01*
X114162000Y-52615333D01*
X114128666Y-52748666D01*
X114128666Y-52848666D01*
X114162000Y-52982000D01*
X114195333Y-53048666D01*
X114262000Y-53115333D01*
X114362000Y-53148666D01*
X114428666Y-53148666D01*
X114528666Y-53115333D01*
X114562000Y-53082000D01*
X114562000Y-52848666D01*
X114428666Y-52848666D01*
X114862000Y-53148666D02*
X114862000Y-52448666D01*
X115262000Y-53148666D01*
X115262000Y-52448666D01*
X115595333Y-53148666D02*
X115595333Y-52448666D01*
X115762000Y-52448666D01*
X115862000Y-52482000D01*
X115928666Y-52548666D01*
X115962000Y-52615333D01*
X115995333Y-52748666D01*
X115995333Y-52848666D01*
X115962000Y-52982000D01*
X115928666Y-53048666D01*
X115862000Y-53115333D01*
X115762000Y-53148666D01*
X115595333Y-53148666D01*
X117123333Y-65491333D02*
X117156666Y-65391333D01*
X117156666Y-65224666D01*
X117123333Y-65158000D01*
X117090000Y-65124666D01*
X117023333Y-65091333D01*
X116956666Y-65091333D01*
X116890000Y-65124666D01*
X116856666Y-65158000D01*
X116823333Y-65224666D01*
X116790000Y-65358000D01*
X116756666Y-65424666D01*
X116723333Y-65458000D01*
X116656666Y-65491333D01*
X116590000Y-65491333D01*
X116523333Y-65458000D01*
X116490000Y-65424666D01*
X116456666Y-65358000D01*
X116456666Y-65191333D01*
X116490000Y-65091333D01*
X116456666Y-64858000D02*
X117156666Y-64691333D01*
X116656666Y-64558000D01*
X117156666Y-64424666D01*
X116456666Y-64258000D01*
X117156666Y-63991333D02*
X116456666Y-63991333D01*
X116456666Y-63824666D01*
X116490000Y-63724666D01*
X116556666Y-63658000D01*
X116623333Y-63624666D01*
X116756666Y-63591333D01*
X116856666Y-63591333D01*
X116990000Y-63624666D01*
X117056666Y-63658000D01*
X117123333Y-63724666D01*
X117156666Y-63824666D01*
X117156666Y-63991333D01*
X117156666Y-63291333D02*
X116456666Y-63291333D01*
X116456666Y-62824666D02*
X116456666Y-62691333D01*
X116490000Y-62624666D01*
X116556666Y-62558000D01*
X116690000Y-62524666D01*
X116923333Y-62524666D01*
X117056666Y-62558000D01*
X117123333Y-62624666D01*
X117156666Y-62691333D01*
X117156666Y-62824666D01*
X117123333Y-62891333D01*
X117056666Y-62958000D01*
X116923333Y-62991333D01*
X116690000Y-62991333D01*
X116556666Y-62958000D01*
X116490000Y-62891333D01*
X116456666Y-62824666D01*
X112076666Y-63756333D02*
X111743333Y-63989666D01*
X112076666Y-64156333D02*
X111376666Y-64156333D01*
X111376666Y-63889666D01*
X111410000Y-63823000D01*
X111443333Y-63789666D01*
X111510000Y-63756333D01*
X111610000Y-63756333D01*
X111676666Y-63789666D01*
X111710000Y-63823000D01*
X111743333Y-63889666D01*
X111743333Y-64156333D01*
X112043333Y-63489666D02*
X112076666Y-63389666D01*
X112076666Y-63223000D01*
X112043333Y-63156333D01*
X112010000Y-63123000D01*
X111943333Y-63089666D01*
X111876666Y-63089666D01*
X111810000Y-63123000D01*
X111776666Y-63156333D01*
X111743333Y-63223000D01*
X111710000Y-63356333D01*
X111676666Y-63423000D01*
X111643333Y-63456333D01*
X111576666Y-63489666D01*
X111510000Y-63489666D01*
X111443333Y-63456333D01*
X111410000Y-63423000D01*
X111376666Y-63356333D01*
X111376666Y-63189666D01*
X111410000Y-63089666D01*
X111376666Y-62889666D02*
X111376666Y-62489666D01*
X112076666Y-62689666D02*
X111376666Y-62689666D01*
X114583333Y-64466666D02*
X114616666Y-64366666D01*
X114616666Y-64200000D01*
X114583333Y-64133333D01*
X114550000Y-64100000D01*
X114483333Y-64066666D01*
X114416666Y-64066666D01*
X114350000Y-64100000D01*
X114316666Y-64133333D01*
X114283333Y-64200000D01*
X114250000Y-64333333D01*
X114216666Y-64400000D01*
X114183333Y-64433333D01*
X114116666Y-64466666D01*
X114050000Y-64466666D01*
X113983333Y-64433333D01*
X113950000Y-64400000D01*
X113916666Y-64333333D01*
X113916666Y-64166666D01*
X113950000Y-64066666D01*
X113916666Y-63833333D02*
X114616666Y-63666666D01*
X114116666Y-63533333D01*
X114616666Y-63400000D01*
X113916666Y-63233333D01*
X113916666Y-62833333D02*
X113916666Y-62700000D01*
X113950000Y-62633333D01*
X114016666Y-62566666D01*
X114150000Y-62533333D01*
X114383333Y-62533333D01*
X114516666Y-62566666D01*
X114583333Y-62633333D01*
X114616666Y-62700000D01*
X114616666Y-62833333D01*
X114583333Y-62900000D01*
X114516666Y-62966666D01*
X114383333Y-63000000D01*
X114150000Y-63000000D01*
X114016666Y-62966666D01*
X113950000Y-62900000D01*
X113916666Y-62833333D01*
X118513333Y-71498666D02*
X118946666Y-71498666D01*
X118713333Y-71765333D01*
X118813333Y-71765333D01*
X118880000Y-71798666D01*
X118913333Y-71832000D01*
X118946666Y-71898666D01*
X118946666Y-72065333D01*
X118913333Y-72132000D01*
X118880000Y-72165333D01*
X118813333Y-72198666D01*
X118613333Y-72198666D01*
X118546666Y-72165333D01*
X118513333Y-72132000D01*
X119146666Y-71498666D02*
X119380000Y-72198666D01*
X119613333Y-71498666D01*
X119780000Y-71498666D02*
X120213333Y-71498666D01*
X119980000Y-71765333D01*
X120080000Y-71765333D01*
X120146666Y-71798666D01*
X120180000Y-71832000D01*
X120213333Y-71898666D01*
X120213333Y-72065333D01*
X120180000Y-72132000D01*
X120146666Y-72165333D01*
X120080000Y-72198666D01*
X119880000Y-72198666D01*
X119813333Y-72165333D01*
X119780000Y-72132000D01*
X116423333Y-72132000D02*
X116390000Y-72165333D01*
X116290000Y-72198666D01*
X116223333Y-72198666D01*
X116123333Y-72165333D01*
X116056666Y-72098666D01*
X116023333Y-72032000D01*
X115990000Y-71898666D01*
X115990000Y-71798666D01*
X116023333Y-71665333D01*
X116056666Y-71598666D01*
X116123333Y-71532000D01*
X116223333Y-71498666D01*
X116290000Y-71498666D01*
X116390000Y-71532000D01*
X116423333Y-71565333D01*
X117056666Y-72198666D02*
X116723333Y-72198666D01*
X116723333Y-71498666D01*
X117290000Y-72198666D02*
X117290000Y-71498666D01*
X117690000Y-72198666D02*
X117390000Y-71798666D01*
X117690000Y-71498666D02*
X117290000Y-71898666D01*
X113766666Y-71532000D02*
X113700000Y-71498666D01*
X113600000Y-71498666D01*
X113500000Y-71532000D01*
X113433333Y-71598666D01*
X113400000Y-71665333D01*
X113366666Y-71798666D01*
X113366666Y-71898666D01*
X113400000Y-72032000D01*
X113433333Y-72098666D01*
X113500000Y-72165333D01*
X113600000Y-72198666D01*
X113666666Y-72198666D01*
X113766666Y-72165333D01*
X113800000Y-72132000D01*
X113800000Y-71898666D01*
X113666666Y-71898666D01*
X114100000Y-72198666D02*
X114100000Y-71498666D01*
X114500000Y-72198666D01*
X114500000Y-71498666D01*
X114833333Y-72198666D02*
X114833333Y-71498666D01*
X115000000Y-71498666D01*
X115100000Y-71532000D01*
X115166666Y-71598666D01*
X115200000Y-71665333D01*
X115233333Y-71798666D01*
X115233333Y-71898666D01*
X115200000Y-72032000D01*
X115166666Y-72098666D01*
X115100000Y-72165333D01*
X115000000Y-72198666D01*
X114833333Y-72198666D01*
X111393333Y-72198666D02*
X111393333Y-71498666D01*
X111860000Y-71498666D02*
X111993333Y-71498666D01*
X112060000Y-71532000D01*
X112126666Y-71598666D01*
X112160000Y-71732000D01*
X112160000Y-71965333D01*
X112126666Y-72098666D01*
X112060000Y-72165333D01*
X111993333Y-72198666D01*
X111860000Y-72198666D01*
X111793333Y-72165333D01*
X111726666Y-72098666D01*
X111693333Y-71965333D01*
X111693333Y-71732000D01*
X111726666Y-71598666D01*
X111793333Y-71532000D01*
X111860000Y-71498666D01*
X108836666Y-72198666D02*
X108603333Y-71865333D01*
X108436666Y-72198666D02*
X108436666Y-71498666D01*
X108703333Y-71498666D01*
X108770000Y-71532000D01*
X108803333Y-71565333D01*
X108836666Y-71632000D01*
X108836666Y-71732000D01*
X108803333Y-71798666D01*
X108770000Y-71832000D01*
X108703333Y-71865333D01*
X108436666Y-71865333D01*
X109103333Y-72165333D02*
X109203333Y-72198666D01*
X109370000Y-72198666D01*
X109436666Y-72165333D01*
X109470000Y-72132000D01*
X109503333Y-72065333D01*
X109503333Y-71998666D01*
X109470000Y-71932000D01*
X109436666Y-71898666D01*
X109370000Y-71865333D01*
X109236666Y-71832000D01*
X109170000Y-71798666D01*
X109136666Y-71765333D01*
X109103333Y-71698666D01*
X109103333Y-71632000D01*
X109136666Y-71565333D01*
X109170000Y-71532000D01*
X109236666Y-71498666D01*
X109403333Y-71498666D01*
X109503333Y-71532000D01*
X109703333Y-71498666D02*
X110103333Y-71498666D01*
X109903333Y-72198666D02*
X109903333Y-71498666D01*
X105713333Y-72165333D02*
X105813333Y-72198666D01*
X105980000Y-72198666D01*
X106046666Y-72165333D01*
X106080000Y-72132000D01*
X106113333Y-72065333D01*
X106113333Y-71998666D01*
X106080000Y-71932000D01*
X106046666Y-71898666D01*
X105980000Y-71865333D01*
X105846666Y-71832000D01*
X105780000Y-71798666D01*
X105746666Y-71765333D01*
X105713333Y-71698666D01*
X105713333Y-71632000D01*
X105746666Y-71565333D01*
X105780000Y-71532000D01*
X105846666Y-71498666D01*
X106013333Y-71498666D01*
X106113333Y-71532000D01*
X106346666Y-71498666D02*
X106513333Y-72198666D01*
X106646666Y-71698666D01*
X106780000Y-72198666D01*
X106946666Y-71498666D01*
X107346666Y-71498666D02*
X107480000Y-71498666D01*
X107546666Y-71532000D01*
X107613333Y-71598666D01*
X107646666Y-71732000D01*
X107646666Y-71965333D01*
X107613333Y-72098666D01*
X107546666Y-72165333D01*
X107480000Y-72198666D01*
X107346666Y-72198666D01*
X107280000Y-72165333D01*
X107213333Y-72098666D01*
X107180000Y-71965333D01*
X107180000Y-71732000D01*
X107213333Y-71598666D01*
X107280000Y-71532000D01*
X107346666Y-71498666D01*
D10*
X106021357Y-108704071D02*
X106164214Y-108751690D01*
X106211833Y-108799309D01*
X106259452Y-108894547D01*
X106259452Y-109037404D01*
X106211833Y-109132642D01*
X106164214Y-109180261D01*
X106068976Y-109227880D01*
X105688023Y-109227880D01*
X105688023Y-108227880D01*
X106021357Y-108227880D01*
X106116595Y-108275500D01*
X106164214Y-108323119D01*
X106211833Y-108418357D01*
X106211833Y-108513595D01*
X106164214Y-108608833D01*
X106116595Y-108656452D01*
X106021357Y-108704071D01*
X105688023Y-108704071D01*
X106878500Y-108227880D02*
X107068976Y-108227880D01*
X107164214Y-108275500D01*
X107259452Y-108370738D01*
X107307071Y-108561214D01*
X107307071Y-108894547D01*
X107259452Y-109085023D01*
X107164214Y-109180261D01*
X107068976Y-109227880D01*
X106878500Y-109227880D01*
X106783261Y-109180261D01*
X106688023Y-109085023D01*
X106640404Y-108894547D01*
X106640404Y-108561214D01*
X106688023Y-108370738D01*
X106783261Y-108275500D01*
X106878500Y-108227880D01*
X107926119Y-108227880D02*
X108116595Y-108227880D01*
X108211833Y-108275500D01*
X108307071Y-108370738D01*
X108354690Y-108561214D01*
X108354690Y-108894547D01*
X108307071Y-109085023D01*
X108211833Y-109180261D01*
X108116595Y-109227880D01*
X107926119Y-109227880D01*
X107830880Y-109180261D01*
X107735642Y-109085023D01*
X107688023Y-108894547D01*
X107688023Y-108561214D01*
X107735642Y-108370738D01*
X107830880Y-108275500D01*
X107926119Y-108227880D01*
X108640404Y-108227880D02*
X109211833Y-108227880D01*
X108926119Y-109227880D02*
X108926119Y-108227880D01*
X132072380Y-119737142D02*
X132024761Y-119784761D01*
X131881904Y-119832380D01*
X131786666Y-119832380D01*
X131643809Y-119784761D01*
X131548571Y-119689523D01*
X131500952Y-119594285D01*
X131453333Y-119403809D01*
X131453333Y-119260952D01*
X131500952Y-119070476D01*
X131548571Y-118975238D01*
X131643809Y-118880000D01*
X131786666Y-118832380D01*
X131881904Y-118832380D01*
X132024761Y-118880000D01*
X132072380Y-118927619D01*
X132691428Y-118832380D02*
X132881904Y-118832380D01*
X132977142Y-118880000D01*
X133072380Y-118975238D01*
X133120000Y-119165714D01*
X133120000Y-119499047D01*
X133072380Y-119689523D01*
X132977142Y-119784761D01*
X132881904Y-119832380D01*
X132691428Y-119832380D01*
X132596190Y-119784761D01*
X132500952Y-119689523D01*
X132453333Y-119499047D01*
X132453333Y-119165714D01*
X132500952Y-118975238D01*
X132596190Y-118880000D01*
X132691428Y-118832380D01*
X133548571Y-119832380D02*
X133548571Y-118832380D01*
X134120000Y-119832380D01*
X134120000Y-118832380D01*
X134453333Y-118832380D02*
X135024761Y-118832380D01*
X134739047Y-119832380D02*
X134739047Y-118832380D01*
X135929523Y-119832380D02*
X135596190Y-119356190D01*
X135358095Y-119832380D02*
X135358095Y-118832380D01*
X135739047Y-118832380D01*
X135834285Y-118880000D01*
X135881904Y-118927619D01*
X135929523Y-119022857D01*
X135929523Y-119165714D01*
X135881904Y-119260952D01*
X135834285Y-119308571D01*
X135739047Y-119356190D01*
X135358095Y-119356190D01*
X136548571Y-118832380D02*
X136739047Y-118832380D01*
X136834285Y-118880000D01*
X136929523Y-118975238D01*
X136977142Y-119165714D01*
X136977142Y-119499047D01*
X136929523Y-119689523D01*
X136834285Y-119784761D01*
X136739047Y-119832380D01*
X136548571Y-119832380D01*
X136453333Y-119784761D01*
X136358095Y-119689523D01*
X136310476Y-119499047D01*
X136310476Y-119165714D01*
X136358095Y-118975238D01*
X136453333Y-118880000D01*
X136548571Y-118832380D01*
X137881904Y-119832380D02*
X137405714Y-119832380D01*
X137405714Y-118832380D01*
X113085904Y-119832380D02*
X113085904Y-118832380D01*
X113324000Y-118832380D01*
X113466857Y-118880000D01*
X113562095Y-118975238D01*
X113609714Y-119070476D01*
X113657333Y-119260952D01*
X113657333Y-119403809D01*
X113609714Y-119594285D01*
X113562095Y-119689523D01*
X113466857Y-119784761D01*
X113324000Y-119832380D01*
X113085904Y-119832380D01*
X114085904Y-119832380D02*
X114085904Y-118832380D01*
X114514476Y-119784761D02*
X114657333Y-119832380D01*
X114895428Y-119832380D01*
X114990666Y-119784761D01*
X115038285Y-119737142D01*
X115085904Y-119641904D01*
X115085904Y-119546666D01*
X115038285Y-119451428D01*
X114990666Y-119403809D01*
X114895428Y-119356190D01*
X114704952Y-119308571D01*
X114609714Y-119260952D01*
X114562095Y-119213333D01*
X114514476Y-119118095D01*
X114514476Y-119022857D01*
X114562095Y-118927619D01*
X114609714Y-118880000D01*
X114704952Y-118832380D01*
X114943047Y-118832380D01*
X115085904Y-118880000D01*
X115514476Y-119832380D02*
X115514476Y-118832380D01*
X115895428Y-118832380D01*
X115990666Y-118880000D01*
X116038285Y-118927619D01*
X116085904Y-119022857D01*
X116085904Y-119165714D01*
X116038285Y-119260952D01*
X115990666Y-119308571D01*
X115895428Y-119356190D01*
X115514476Y-119356190D01*
X116990666Y-119832380D02*
X116514476Y-119832380D01*
X116514476Y-118832380D01*
X117276380Y-119546666D02*
X117752571Y-119546666D01*
X117181142Y-119832380D02*
X117514476Y-118832380D01*
X117847809Y-119832380D01*
X118371619Y-119356190D02*
X118371619Y-119832380D01*
X118038285Y-118832380D02*
X118371619Y-119356190D01*
X118704952Y-118832380D01*
D13*
X171852857Y-107028142D02*
X172067142Y-107099571D01*
X172424285Y-107099571D01*
X172567142Y-107028142D01*
X172638571Y-106956714D01*
X172710000Y-106813857D01*
X172710000Y-106671000D01*
X172638571Y-106528142D01*
X172567142Y-106456714D01*
X172424285Y-106385285D01*
X172138571Y-106313857D01*
X171995714Y-106242428D01*
X171924285Y-106171000D01*
X171852857Y-106028142D01*
X171852857Y-105885285D01*
X171924285Y-105742428D01*
X171995714Y-105671000D01*
X172138571Y-105599571D01*
X172495714Y-105599571D01*
X172710000Y-105671000D01*
X173138571Y-105599571D02*
X173995714Y-105599571D01*
X173567142Y-107099571D02*
X173567142Y-105599571D01*
X174495714Y-107099571D02*
X174495714Y-105599571D01*
X174995714Y-106671000D01*
X175495714Y-105599571D01*
X175495714Y-107099571D01*
X176067142Y-105599571D02*
X176995714Y-105599571D01*
X176495714Y-106171000D01*
X176710000Y-106171000D01*
X176852857Y-106242428D01*
X176924285Y-106313857D01*
X176995714Y-106456714D01*
X176995714Y-106813857D01*
X176924285Y-106956714D01*
X176852857Y-107028142D01*
X176710000Y-107099571D01*
X176281428Y-107099571D01*
X176138571Y-107028142D01*
X176067142Y-106956714D01*
X177567142Y-105742428D02*
X177638571Y-105671000D01*
X177781428Y-105599571D01*
X178138571Y-105599571D01*
X178281428Y-105671000D01*
X178352857Y-105742428D01*
X178424285Y-105885285D01*
X178424285Y-106028142D01*
X178352857Y-106242428D01*
X177495714Y-107099571D01*
X178424285Y-107099571D01*
X179852857Y-105671000D02*
X179710000Y-105599571D01*
X179495714Y-105599571D01*
X179281428Y-105671000D01*
X179138571Y-105813857D01*
X179067142Y-105956714D01*
X178995714Y-106242428D01*
X178995714Y-106456714D01*
X179067142Y-106742428D01*
X179138571Y-106885285D01*
X179281428Y-107028142D01*
X179495714Y-107099571D01*
X179638571Y-107099571D01*
X179852857Y-107028142D01*
X179924285Y-106956714D01*
X179924285Y-106456714D01*
X179638571Y-106456714D01*
X181210000Y-106099571D02*
X181210000Y-107099571D01*
X180852857Y-105528142D02*
X180495714Y-106599571D01*
X181424285Y-106599571D01*
X183638571Y-106313857D02*
X183138571Y-106313857D01*
X183138571Y-107099571D02*
X183138571Y-105599571D01*
X183852857Y-105599571D01*
X185067142Y-106099571D02*
X185067142Y-107099571D01*
X184424285Y-106099571D02*
X184424285Y-106885285D01*
X184495714Y-107028142D01*
X184638571Y-107099571D01*
X184852857Y-107099571D01*
X184995714Y-107028142D01*
X185067142Y-106956714D01*
X185781428Y-106099571D02*
X185781428Y-107099571D01*
X185781428Y-106242428D02*
X185852857Y-106171000D01*
X185995714Y-106099571D01*
X186210000Y-106099571D01*
X186352857Y-106171000D01*
X186424285Y-106313857D01*
X186424285Y-107099571D01*
X187781428Y-107028142D02*
X187638571Y-107099571D01*
X187352857Y-107099571D01*
X187210000Y-107028142D01*
X187138571Y-106956714D01*
X187067142Y-106813857D01*
X187067142Y-106385285D01*
X187138571Y-106242428D01*
X187210000Y-106171000D01*
X187352857Y-106099571D01*
X187638571Y-106099571D01*
X187781428Y-106171000D01*
X188210000Y-106099571D02*
X188781428Y-106099571D01*
X188424285Y-105599571D02*
X188424285Y-106885285D01*
X188495714Y-107028142D01*
X188638571Y-107099571D01*
X188781428Y-107099571D01*
X189281428Y-107099571D02*
X189281428Y-106099571D01*
X189281428Y-105599571D02*
X189210000Y-105671000D01*
X189281428Y-105742428D01*
X189352857Y-105671000D01*
X189281428Y-105599571D01*
X189281428Y-105742428D01*
X190210000Y-107099571D02*
X190067142Y-107028142D01*
X189995714Y-106956714D01*
X189924285Y-106813857D01*
X189924285Y-106385285D01*
X189995714Y-106242428D01*
X190067142Y-106171000D01*
X190210000Y-106099571D01*
X190424285Y-106099571D01*
X190567142Y-106171000D01*
X190638571Y-106242428D01*
X190710000Y-106385285D01*
X190710000Y-106813857D01*
X190638571Y-106956714D01*
X190567142Y-107028142D01*
X190424285Y-107099571D01*
X190210000Y-107099571D01*
X191352857Y-106099571D02*
X191352857Y-107099571D01*
X191352857Y-106242428D02*
X191424285Y-106171000D01*
X191567142Y-106099571D01*
X191781428Y-106099571D01*
X191924285Y-106171000D01*
X191995714Y-106313857D01*
X191995714Y-107099571D01*
X194638571Y-105671000D02*
X194495714Y-105599571D01*
X194281428Y-105599571D01*
X194067142Y-105671000D01*
X193924285Y-105813857D01*
X193852857Y-105956714D01*
X193781428Y-106242428D01*
X193781428Y-106456714D01*
X193852857Y-106742428D01*
X193924285Y-106885285D01*
X194067142Y-107028142D01*
X194281428Y-107099571D01*
X194424285Y-107099571D01*
X194638571Y-107028142D01*
X194710000Y-106956714D01*
X194710000Y-106456714D01*
X194424285Y-106456714D01*
X195924285Y-107028142D02*
X195781428Y-107099571D01*
X195495714Y-107099571D01*
X195352857Y-107028142D01*
X195281428Y-106885285D01*
X195281428Y-106313857D01*
X195352857Y-106171000D01*
X195495714Y-106099571D01*
X195781428Y-106099571D01*
X195924285Y-106171000D01*
X195995714Y-106313857D01*
X195995714Y-106456714D01*
X195281428Y-106599571D01*
X196638571Y-106099571D02*
X196638571Y-107099571D01*
X196638571Y-106242428D02*
X196710000Y-106171000D01*
X196852857Y-106099571D01*
X197067142Y-106099571D01*
X197210000Y-106171000D01*
X197281428Y-106313857D01*
X197281428Y-107099571D01*
X198567142Y-107028142D02*
X198424285Y-107099571D01*
X198138571Y-107099571D01*
X197995714Y-107028142D01*
X197924285Y-106885285D01*
X197924285Y-106313857D01*
X197995714Y-106171000D01*
X198138571Y-106099571D01*
X198424285Y-106099571D01*
X198567142Y-106171000D01*
X198638571Y-106313857D01*
X198638571Y-106456714D01*
X197924285Y-106599571D01*
X199281428Y-107099571D02*
X199281428Y-106099571D01*
X199281428Y-106385285D02*
X199352857Y-106242428D01*
X199424285Y-106171000D01*
X199567142Y-106099571D01*
X199710000Y-106099571D01*
X200852857Y-107099571D02*
X200852857Y-106313857D01*
X200781428Y-106171000D01*
X200638571Y-106099571D01*
X200352857Y-106099571D01*
X200210000Y-106171000D01*
X200852857Y-107028142D02*
X200710000Y-107099571D01*
X200352857Y-107099571D01*
X200210000Y-107028142D01*
X200138571Y-106885285D01*
X200138571Y-106742428D01*
X200210000Y-106599571D01*
X200352857Y-106528142D01*
X200710000Y-106528142D01*
X200852857Y-106456714D01*
X201352857Y-106099571D02*
X201924285Y-106099571D01*
X201567142Y-105599571D02*
X201567142Y-106885285D01*
X201638571Y-107028142D01*
X201781428Y-107099571D01*
X201924285Y-107099571D01*
X202638571Y-107099571D02*
X202495714Y-107028142D01*
X202424285Y-106956714D01*
X202352857Y-106813857D01*
X202352857Y-106385285D01*
X202424285Y-106242428D01*
X202495714Y-106171000D01*
X202638571Y-106099571D01*
X202852857Y-106099571D01*
X202995714Y-106171000D01*
X203067142Y-106242428D01*
X203138571Y-106385285D01*
X203138571Y-106813857D01*
X203067142Y-106956714D01*
X202995714Y-107028142D01*
X202852857Y-107099571D01*
X202638571Y-107099571D01*
X203781428Y-107099571D02*
X203781428Y-106099571D01*
X203781428Y-106385285D02*
X203852857Y-106242428D01*
X203924285Y-106171000D01*
X204067142Y-106099571D01*
X204210000Y-106099571D01*
X179317142Y-109649571D02*
X178817142Y-108935285D01*
X178460000Y-109649571D02*
X178460000Y-108149571D01*
X179031428Y-108149571D01*
X179174285Y-108221000D01*
X179245714Y-108292428D01*
X179317142Y-108435285D01*
X179317142Y-108649571D01*
X179245714Y-108792428D01*
X179174285Y-108863857D01*
X179031428Y-108935285D01*
X178460000Y-108935285D01*
X180531428Y-109578142D02*
X180388571Y-109649571D01*
X180102857Y-109649571D01*
X179960000Y-109578142D01*
X179888571Y-109435285D01*
X179888571Y-108863857D01*
X179960000Y-108721000D01*
X180102857Y-108649571D01*
X180388571Y-108649571D01*
X180531428Y-108721000D01*
X180602857Y-108863857D01*
X180602857Y-109006714D01*
X179888571Y-109149571D01*
X181102857Y-108649571D02*
X181460000Y-109649571D01*
X181817142Y-108649571D01*
X182888571Y-108863857D02*
X183102857Y-108935285D01*
X183174285Y-109006714D01*
X183245714Y-109149571D01*
X183245714Y-109363857D01*
X183174285Y-109506714D01*
X183102857Y-109578142D01*
X182960000Y-109649571D01*
X182388571Y-109649571D01*
X182388571Y-108149571D01*
X182888571Y-108149571D01*
X183031428Y-108221000D01*
X183102857Y-108292428D01*
X183174285Y-108435285D01*
X183174285Y-108578142D01*
X183102857Y-108721000D01*
X183031428Y-108792428D01*
X182888571Y-108863857D01*
X182388571Y-108863857D01*
X186245714Y-108506714D02*
X186102857Y-108435285D01*
X185817142Y-108435285D01*
X185674285Y-108506714D01*
X185531428Y-108649571D01*
X185460000Y-108792428D01*
X185460000Y-109078142D01*
X185531428Y-109221000D01*
X185674285Y-109363857D01*
X185817142Y-109435285D01*
X186102857Y-109435285D01*
X186245714Y-109363857D01*
X185960000Y-107935285D02*
X185602857Y-108006714D01*
X185245714Y-108221000D01*
X185031428Y-108578142D01*
X184960000Y-108935285D01*
X185031428Y-109292428D01*
X185245714Y-109649571D01*
X185602857Y-109863857D01*
X185960000Y-109935285D01*
X186317142Y-109863857D01*
X186674285Y-109649571D01*
X186888571Y-109292428D01*
X186960000Y-108935285D01*
X186888571Y-108578142D01*
X186674285Y-108221000D01*
X186317142Y-108006714D01*
X185960000Y-107935285D01*
X189602857Y-109506714D02*
X189531428Y-109578142D01*
X189317142Y-109649571D01*
X189174285Y-109649571D01*
X188960000Y-109578142D01*
X188817142Y-109435285D01*
X188745714Y-109292428D01*
X188674285Y-109006714D01*
X188674285Y-108792428D01*
X188745714Y-108506714D01*
X188817142Y-108363857D01*
X188960000Y-108221000D01*
X189174285Y-108149571D01*
X189317142Y-108149571D01*
X189531428Y-108221000D01*
X189602857Y-108292428D01*
X190245714Y-109506714D02*
X190317142Y-109578142D01*
X190245714Y-109649571D01*
X190174285Y-109578142D01*
X190245714Y-109506714D01*
X190245714Y-109649571D01*
X190888571Y-109578142D02*
X191102857Y-109649571D01*
X191460000Y-109649571D01*
X191602857Y-109578142D01*
X191674285Y-109506714D01*
X191745714Y-109363857D01*
X191745714Y-109221000D01*
X191674285Y-109078142D01*
X191602857Y-109006714D01*
X191460000Y-108935285D01*
X191174285Y-108863857D01*
X191031428Y-108792428D01*
X190960000Y-108721000D01*
X190888571Y-108578142D01*
X190888571Y-108435285D01*
X190960000Y-108292428D01*
X191031428Y-108221000D01*
X191174285Y-108149571D01*
X191531428Y-108149571D01*
X191745714Y-108221000D01*
X193031428Y-108649571D02*
X193031428Y-109649571D01*
X192388571Y-108649571D02*
X192388571Y-109435285D01*
X192460000Y-109578142D01*
X192602857Y-109649571D01*
X192817142Y-109649571D01*
X192960000Y-109578142D01*
X193031428Y-109506714D01*
X193531428Y-108649571D02*
X194102857Y-108649571D01*
X193745714Y-108149571D02*
X193745714Y-109435285D01*
X193817142Y-109578142D01*
X193960000Y-109649571D01*
X194102857Y-109649571D01*
X194388571Y-108649571D02*
X194960000Y-108649571D01*
X194602857Y-108149571D02*
X194602857Y-109435285D01*
X194674285Y-109578142D01*
X194817142Y-109649571D01*
X194960000Y-109649571D01*
X195674285Y-109649571D02*
X195531428Y-109578142D01*
X195460000Y-109506714D01*
X195388571Y-109363857D01*
X195388571Y-108935285D01*
X195460000Y-108792428D01*
X195531428Y-108721000D01*
X195674285Y-108649571D01*
X195888571Y-108649571D01*
X196031428Y-108721000D01*
X196102857Y-108792428D01*
X196174285Y-108935285D01*
X196174285Y-109363857D01*
X196102857Y-109506714D01*
X196031428Y-109578142D01*
X195888571Y-109649571D01*
X195674285Y-109649571D01*
X196817142Y-108649571D02*
X196817142Y-109649571D01*
X196817142Y-108792428D02*
X196888571Y-108721000D01*
X197031428Y-108649571D01*
X197245714Y-108649571D01*
X197388571Y-108721000D01*
X197460000Y-108863857D01*
X197460000Y-109649571D01*
D11*
X121158000Y-100076000D02*
G75*
G03X121158000Y-100076000I0J0D01*
G01*
X118110000Y-52578000D02*
G75*
G03X118110000Y-52578000I0J0D01*
G01*
X192125600Y-81153000D02*
G75*
G03X192125600Y-81153000I0J0D01*
G01*
D15*
X155020600Y-72664236D02*
X155020600Y-73868364D01*
X156840600Y-72664236D02*
X156840600Y-73868364D01*
X121964267Y-110996000D02*
X121621733Y-110996000D01*
X121964267Y-112016000D02*
X121621733Y-112016000D01*
X120339000Y-106904000D02*
X120339000Y-109504000D01*
X120339000Y-109504000D02*
X120539000Y-109504000D01*
X122539000Y-109504000D02*
X122739000Y-109504000D01*
X122739000Y-109504000D02*
X122739000Y-106904000D01*
X122739000Y-106904000D02*
X122639000Y-106904000D01*
X122639000Y-106904000D02*
X122639000Y-106504000D01*
X120339000Y-106904000D02*
X120539000Y-106904000D01*
X139605936Y-60981000D02*
X140810064Y-60981000D01*
X139605936Y-59161000D02*
X140810064Y-59161000D01*
X170667000Y-85503936D02*
X170667000Y-86708064D01*
X172487000Y-85503936D02*
X172487000Y-86708064D01*
X161195936Y-98065000D02*
X162400064Y-98065000D01*
X161195936Y-96245000D02*
X162400064Y-96245000D01*
X142752400Y-68485936D02*
X142752400Y-69690064D01*
X144572400Y-68485936D02*
X144572400Y-69690064D01*
X162465936Y-61489000D02*
X163670064Y-61489000D01*
X162465936Y-59669000D02*
X163670064Y-59669000D01*
X165438000Y-70528000D02*
X165438000Y-75268000D01*
X160698000Y-70528000D02*
X160698000Y-75268000D01*
X164308000Y-75268000D02*
X165438000Y-75268000D01*
X160698000Y-75268000D02*
X161828000Y-75268000D01*
X162809000Y-70528000D02*
X163328000Y-70528000D01*
X160698000Y-70528000D02*
X161029000Y-70528000D01*
X165108000Y-70528000D02*
X165438000Y-70528000D01*
X176870000Y-87006000D02*
X176870000Y-84556000D01*
X173650000Y-85206000D02*
X173650000Y-87006000D01*
X162634500Y-92179500D02*
X160184500Y-92179500D01*
X160834500Y-95399500D02*
X162634500Y-95399500D01*
X148955400Y-69988000D02*
X148955400Y-67538000D01*
X145735400Y-68188000D02*
X145735400Y-69988000D01*
X151378836Y-79777000D02*
X152582964Y-79777000D01*
X151378836Y-77957000D02*
X152582964Y-77957000D01*
X152709964Y-86847000D02*
X151505836Y-86847000D01*
X152709964Y-88667000D02*
X151505836Y-88667000D01*
X151227900Y-84822000D02*
X153657900Y-84822000D01*
X152987900Y-81752000D02*
X151227900Y-81752000D01*
X167408500Y-105294000D02*
X167408500Y-102344000D01*
X164188500Y-103494000D02*
X164188500Y-105294000D01*
X179132000Y-79122500D02*
X179132000Y-77722500D01*
X180532000Y-79122500D02*
X179132000Y-79122500D01*
X180532000Y-77722500D02*
X180532000Y-79122500D01*
X179132000Y-77722500D02*
X180532000Y-77722500D01*
X151026900Y-64835000D02*
X151026900Y-63435000D01*
X152426900Y-64835000D02*
X151026900Y-64835000D01*
X152426900Y-63435000D02*
X152426900Y-64835000D01*
X151026900Y-63435000D02*
X152426900Y-63435000D01*
X178922000Y-84360936D02*
X178922000Y-85565064D01*
X180742000Y-84360936D02*
X180742000Y-85565064D01*
X147414064Y-93959000D02*
X146209936Y-93959000D01*
X147414064Y-95779000D02*
X146209936Y-95779000D01*
X152130000Y-114297000D02*
X152130000Y-117097000D01*
X152130000Y-117097000D02*
X150130000Y-117097000D01*
X150130000Y-117097000D02*
X150130000Y-114297000D01*
X150130000Y-114297000D02*
X152130000Y-114297000D01*
X160671000Y-82553000D02*
X160671000Y-79753000D01*
X160671000Y-79753000D02*
X162671000Y-79753000D01*
X162671000Y-79753000D02*
X162671000Y-82553000D01*
X162671000Y-82553000D02*
X160671000Y-82553000D01*
X159877000Y-79753000D02*
X159877000Y-82553000D01*
X159877000Y-82553000D02*
X157877000Y-82553000D01*
X157877000Y-82553000D02*
X157877000Y-79753000D01*
X157877000Y-79753000D02*
X159877000Y-79753000D01*
X178697000Y-87837000D02*
X178697000Y-91897000D01*
X180967000Y-87837000D02*
X178697000Y-87837000D01*
X180967000Y-91897000D02*
X180967000Y-87837000D01*
X144352000Y-99941000D02*
X148412000Y-99941000D01*
X144352000Y-97671000D02*
X144352000Y-99941000D01*
X148412000Y-97671000D02*
X144352000Y-97671000D01*
X174657936Y-82063000D02*
X175862064Y-82063000D01*
X174657936Y-80243000D02*
X175862064Y-80243000D01*
X174657936Y-91969000D02*
X175862064Y-91969000D01*
X174657936Y-90149000D02*
X175862064Y-90149000D01*
X162112800Y-116486500D02*
X162112800Y-114036500D01*
X158892800Y-114686500D02*
X158892800Y-116486500D01*
X167511500Y-101601500D02*
X167511500Y-100201500D01*
X168911500Y-101601500D02*
X167511500Y-101601500D01*
X168911500Y-100201500D02*
X168911500Y-101601500D01*
X167511500Y-100201500D02*
X168911500Y-100201500D01*
X135968200Y-46442000D02*
X135968200Y-49242000D01*
X135968200Y-49242000D02*
X133968200Y-49242000D01*
X133968200Y-49242000D02*
X133968200Y-46442000D01*
X133968200Y-46442000D02*
X135968200Y-46442000D01*
X161195936Y-100541500D02*
X162400064Y-100541500D01*
X161195936Y-98721500D02*
X162400064Y-98721500D01*
X184002000Y-84360936D02*
X184002000Y-85565064D01*
X185822000Y-84360936D02*
X185822000Y-85565064D01*
X159787000Y-64419564D02*
X159787000Y-63215436D01*
X157967000Y-64419564D02*
X157967000Y-63215436D01*
X165168700Y-63324200D02*
X165168700Y-64784200D01*
X162008700Y-63324200D02*
X162008700Y-65484200D01*
X162008700Y-63324200D02*
X162938700Y-63324200D01*
X165168700Y-63324200D02*
X164238700Y-63324200D01*
X168512000Y-60730000D02*
X168512000Y-54720000D01*
X175332000Y-58480000D02*
X175332000Y-54720000D01*
X168512000Y-54720000D02*
X169772000Y-54720000D01*
X175332000Y-54720000D02*
X174072000Y-54720000D01*
X137478200Y-55422000D02*
X137478200Y-52992000D01*
X134408200Y-53662000D02*
X134408200Y-55422000D01*
X158177000Y-66991000D02*
X159577000Y-66991000D01*
X158177000Y-68391000D02*
X158177000Y-66991000D01*
X159577000Y-68391000D02*
X158177000Y-68391000D01*
X159577000Y-66991000D02*
X159577000Y-68391000D01*
X167451000Y-108266000D02*
X167451000Y-109666000D01*
X166051000Y-108266000D02*
X167451000Y-108266000D01*
X166051000Y-109666000D02*
X166051000Y-108266000D01*
X167451000Y-109666000D02*
X166051000Y-109666000D01*
X151576000Y-94169000D02*
X151576000Y-95569000D01*
X150176000Y-94169000D02*
X151576000Y-94169000D01*
X150176000Y-95569000D02*
X150176000Y-94169000D01*
X151576000Y-95569000D02*
X150176000Y-95569000D01*
X162465936Y-68537500D02*
X163670064Y-68537500D01*
X162465936Y-66717500D02*
X163670064Y-66717500D01*
X172200000Y-130655000D02*
X172200000Y-128115000D01*
X172200000Y-130655000D02*
X174740000Y-130655000D01*
X172450000Y-130405000D02*
X172450000Y-121055000D01*
X193310000Y-130405000D02*
X172450000Y-130405000D01*
X193310000Y-121055000D02*
X193310000Y-130405000D01*
X172450000Y-121055000D02*
X193310000Y-121055000D01*
X171009064Y-62390000D02*
X169804936Y-62390000D01*
X171009064Y-64210000D02*
X169804936Y-64210000D01*
X175204936Y-64210000D02*
X176409064Y-64210000D01*
X175204936Y-62390000D02*
X176409064Y-62390000D01*
X132558200Y-54958064D02*
X132558200Y-53753936D01*
X130738200Y-54958064D02*
X130738200Y-53753936D01*
X157945500Y-94328064D02*
X157945500Y-93123936D01*
X156125500Y-94328064D02*
X156125500Y-93123936D01*
X146806836Y-65045000D02*
X148010964Y-65045000D01*
X146806836Y-63225000D02*
X148010964Y-63225000D01*
X167534000Y-94328064D02*
X167534000Y-93123936D01*
X165714000Y-94328064D02*
X165714000Y-93123936D01*
X146806836Y-74951000D02*
X148010964Y-74951000D01*
X146806836Y-73131000D02*
X148010964Y-73131000D01*
X137736664Y-88294800D02*
X136532536Y-88294800D01*
X137736664Y-90114800D02*
X136532536Y-90114800D01*
X137736664Y-85754800D02*
X136532536Y-85754800D01*
X137736664Y-87574800D02*
X136532536Y-87574800D01*
X121506064Y-83545000D02*
X120301936Y-83545000D01*
X121506064Y-85365000D02*
X120301936Y-85365000D01*
X121506064Y-81005000D02*
X120301936Y-81005000D01*
X121506064Y-82825000D02*
X120301936Y-82825000D01*
X121506064Y-78465000D02*
X120301936Y-78465000D01*
X121506064Y-80285000D02*
X120301936Y-80285000D01*
X125686736Y-80285000D02*
X126890864Y-80285000D01*
X125686736Y-78465000D02*
X126890864Y-78465000D01*
X125686736Y-82825000D02*
X126890864Y-82825000D01*
X125686736Y-81005000D02*
X126890864Y-81005000D01*
X125686736Y-85365000D02*
X126890864Y-85365000D01*
X125686736Y-83545000D02*
X126890864Y-83545000D01*
X137736664Y-80674800D02*
X136532536Y-80674800D01*
X137736664Y-82494800D02*
X136532536Y-82494800D01*
X165502000Y-116553064D02*
X165502000Y-115348936D01*
X163682000Y-116553064D02*
X163682000Y-115348936D01*
X157385000Y-112439000D02*
X156885000Y-112439000D01*
X157135000Y-112189000D02*
X157135000Y-112689000D01*
X154379437Y-112929000D02*
X153315000Y-113993437D01*
X156770563Y-112929000D02*
X157835000Y-113993437D01*
X156770563Y-112929000D02*
X156635000Y-112929000D01*
X154379437Y-112929000D02*
X154515000Y-112929000D01*
X153315000Y-113993437D02*
X153315000Y-117449000D01*
X157835000Y-113993437D02*
X157835000Y-117449000D01*
X157835000Y-117449000D02*
X156635000Y-117449000D01*
X153315000Y-117449000D02*
X154515000Y-117449000D01*
X133480564Y-59199100D02*
X132276436Y-59199100D01*
X133480564Y-61019100D02*
X132276436Y-61019100D01*
X150816900Y-67342936D02*
X150816900Y-68547064D01*
X152636900Y-67342936D02*
X152636900Y-68547064D01*
X155361064Y-50635000D02*
X154156936Y-50635000D01*
X155361064Y-52455000D02*
X154156936Y-52455000D01*
X135302000Y-61615700D02*
X131242000Y-61615700D01*
X135302000Y-63885700D02*
X135302000Y-61615700D01*
X131242000Y-63885700D02*
X135302000Y-63885700D01*
X150591900Y-70819000D02*
X150591900Y-74879000D01*
X152861900Y-70819000D02*
X150591900Y-70819000D01*
X152861900Y-74879000D02*
X152861900Y-70819000D01*
X157219000Y-47362000D02*
X153159000Y-47362000D01*
X157219000Y-49632000D02*
X157219000Y-47362000D01*
X153159000Y-49632000D02*
X157219000Y-49632000D01*
X140421900Y-65308600D02*
X138961900Y-65308600D01*
X140421900Y-62148600D02*
X138261900Y-62148600D01*
X140421900Y-62148600D02*
X140421900Y-63078600D01*
X140421900Y-65308600D02*
X140421900Y-64378600D01*
X192564936Y-116607000D02*
X193769064Y-116607000D01*
X192564936Y-114787000D02*
X193769064Y-114787000D01*
X165620000Y-120805000D02*
X165620000Y-123345000D01*
X165620000Y-120805000D02*
X163080000Y-120805000D01*
X165370000Y-121055000D02*
X165370000Y-130405000D01*
X141970000Y-121055000D02*
X165370000Y-121055000D01*
X141970000Y-130405000D02*
X141970000Y-121055000D01*
X165370000Y-130405000D02*
X141970000Y-130405000D01*
X201868000Y-89089000D02*
X201868000Y-90489000D01*
X200468000Y-89089000D02*
X201868000Y-89089000D01*
X200468000Y-90489000D02*
X200468000Y-89089000D01*
X201868000Y-90489000D02*
X200468000Y-90489000D01*
X200468000Y-84393000D02*
X200468000Y-82993000D01*
X201868000Y-84393000D02*
X200468000Y-84393000D01*
X201868000Y-82993000D02*
X201868000Y-84393000D01*
X200468000Y-82993000D02*
X201868000Y-82993000D01*
X158177000Y-86425000D02*
X158177000Y-85025000D01*
X159577000Y-86425000D02*
X158177000Y-86425000D01*
X159577000Y-85025000D02*
X159577000Y-86425000D01*
X158177000Y-85025000D02*
X159577000Y-85025000D01*
X150684000Y-99506000D02*
X150684000Y-98106000D01*
X152084000Y-99506000D02*
X150684000Y-99506000D01*
X152084000Y-98106000D02*
X152084000Y-99506000D01*
X150684000Y-98106000D02*
X152084000Y-98106000D01*
X149163000Y-105345000D02*
X149163000Y-106745000D01*
X147763000Y-105345000D02*
X149163000Y-105345000D01*
X147763000Y-106745000D02*
X147763000Y-105345000D01*
X149163000Y-106745000D02*
X147763000Y-106745000D01*
X148616900Y-88457000D02*
X147216900Y-88457000D01*
X147216900Y-88457000D02*
X147216900Y-87057000D01*
X147216900Y-87057000D02*
X148616900Y-87057000D01*
X148616900Y-87057000D02*
X148616900Y-88457000D01*
X123823500Y-62292000D02*
X125223500Y-62292000D01*
X123823500Y-63692000D02*
X123823500Y-62292000D01*
X125223500Y-63692000D02*
X123823500Y-63692000D01*
X125223500Y-62292000D02*
X125223500Y-63692000D01*
X139307800Y-67832200D02*
X137907800Y-67832200D01*
X139307800Y-66432200D02*
X139307800Y-67832200D01*
X137907800Y-66432200D02*
X139307800Y-66432200D01*
X137907800Y-67832200D02*
X137907800Y-66432200D01*
X172594500Y-67565500D02*
X171194500Y-67565500D01*
X172594500Y-66165500D02*
X172594500Y-67565500D01*
X171194500Y-66165500D02*
X172594500Y-66165500D01*
X171194500Y-67565500D02*
X171194500Y-66165500D01*
X140258200Y-53939936D02*
X140258200Y-55144064D01*
X142078200Y-53939936D02*
X142078200Y-55144064D01*
X127986200Y-54958064D02*
X127986200Y-53753936D01*
X126166200Y-54958064D02*
X126166200Y-53753936D01*
X182385000Y-54690000D02*
X182385000Y-56690000D01*
X182385000Y-56690000D02*
X186235000Y-56690000D01*
X182385000Y-54690000D02*
X186235000Y-54690000D01*
X192907600Y-85979000D02*
X192907600Y-82529000D01*
X192907600Y-85979000D02*
X192907600Y-87929000D01*
X187787600Y-85979000D02*
X187787600Y-84029000D01*
X187787600Y-85979000D02*
X187787600Y-87929000D01*
X158274700Y-104470200D02*
X158274700Y-101020200D01*
X158274700Y-104470200D02*
X158274700Y-106420200D01*
X153154700Y-104470200D02*
X153154700Y-102520200D01*
X153154700Y-104470200D02*
X153154700Y-106420200D01*
X122205000Y-99090000D02*
X122205000Y-100430000D01*
X121255000Y-99090000D02*
X122205000Y-99090000D01*
X121255000Y-98140000D02*
X121255000Y-99090000D01*
X121255000Y-88870000D02*
X122205000Y-88870000D01*
X121255000Y-89820000D02*
X121255000Y-88870000D01*
X131475000Y-99090000D02*
X130525000Y-99090000D01*
X131475000Y-98140000D02*
X131475000Y-99090000D01*
X131475000Y-88870000D02*
X130525000Y-88870000D01*
X131475000Y-89820000D02*
X131475000Y-88870000D01*
X193882600Y-96552936D02*
X193882600Y-97757064D01*
X195702600Y-96552936D02*
X195702600Y-97757064D01*
X184129000Y-96552936D02*
X184129000Y-97757064D01*
X185949000Y-96552936D02*
X185949000Y-97757064D01*
X198903000Y-97757064D02*
X198903000Y-96552936D01*
X197083000Y-97757064D02*
X197083000Y-96552936D01*
X192426000Y-76421064D02*
X192426000Y-75216936D01*
X190606000Y-76421064D02*
X190606000Y-75216936D01*
X189124000Y-76421064D02*
X189124000Y-75216936D01*
X187304000Y-76421064D02*
X187304000Y-75216936D01*
X200258000Y-75216936D02*
X200258000Y-76421064D01*
X202078000Y-75216936D02*
X202078000Y-76421064D01*
X112681936Y-51862400D02*
X113886064Y-51862400D01*
X112681936Y-50042400D02*
X113886064Y-50042400D01*
X162400064Y-108056000D02*
X161195936Y-108056000D01*
X162400064Y-109876000D02*
X161195936Y-109876000D01*
X152294000Y-105123064D02*
X152294000Y-103918936D01*
X150474000Y-105123064D02*
X150474000Y-103918936D01*
X185187064Y-52028000D02*
X183982936Y-52028000D01*
X185187064Y-50208000D02*
X183982936Y-50208000D01*
X108171064Y-98785000D02*
X106966936Y-98785000D01*
X108171064Y-100605000D02*
X106966936Y-100605000D01*
X168762000Y-93123936D02*
X168762000Y-94328064D01*
X170582000Y-93123936D02*
X170582000Y-94328064D01*
X162567536Y-89136900D02*
X163771664Y-89136900D01*
X162567536Y-87316900D02*
X163771664Y-87316900D01*
X162592936Y-86635000D02*
X163797064Y-86635000D01*
X162592936Y-84815000D02*
X163797064Y-84815000D01*
X183386000Y-61022000D02*
X184316000Y-61022000D01*
X186546000Y-61022000D02*
X185616000Y-61022000D01*
X186546000Y-61022000D02*
X186546000Y-58862000D01*
X183386000Y-61022000D02*
X183386000Y-59562000D01*
X132990000Y-83914064D02*
X132990000Y-82709936D01*
X131170000Y-83914064D02*
X131170000Y-82709936D01*
X137736664Y-83214800D02*
X136532536Y-83214800D01*
X137736664Y-85034800D02*
X136532536Y-85034800D01*
X202168000Y-85341000D02*
X202168000Y-88141000D01*
X202168000Y-88141000D02*
X200168000Y-88141000D01*
X200168000Y-88141000D02*
X200168000Y-85341000D01*
X200168000Y-85341000D02*
X202168000Y-85341000D01*
X104842000Y-106105000D02*
X104842000Y-104775000D01*
X106172000Y-106105000D02*
X104842000Y-106105000D01*
X107442000Y-106105000D02*
X107442000Y-103445000D01*
X107442000Y-103445000D02*
X110042000Y-103445000D01*
X107442000Y-106105000D02*
X110042000Y-106105000D01*
X110042000Y-106105000D02*
X110042000Y-103445000D01*
X109860000Y-59702400D02*
X109795000Y-59702400D01*
X109860000Y-56172400D02*
X109795000Y-56172400D01*
X118805000Y-59702400D02*
X118740000Y-59702400D01*
X118805000Y-56172400D02*
X118740000Y-56172400D01*
X118740000Y-54847400D02*
X118740000Y-56172400D01*
X109795000Y-56172400D02*
X109795000Y-59702400D01*
X118805000Y-56172400D02*
X118805000Y-59702400D01*
X126250000Y-120805000D02*
X126250000Y-123345000D01*
X126250000Y-120805000D02*
X123710000Y-120805000D01*
X126000000Y-121055000D02*
X126000000Y-130405000D01*
X107680000Y-121055000D02*
X126000000Y-121055000D01*
X107680000Y-130405000D02*
X107680000Y-121055000D01*
X126000000Y-130405000D02*
X107680000Y-130405000D01*
X120710000Y-68088200D02*
X120710000Y-69418200D01*
X119380000Y-68088200D02*
X120710000Y-68088200D01*
X118110000Y-68088200D02*
X118110000Y-70748200D01*
X118110000Y-70748200D02*
X105350000Y-70748200D01*
X118110000Y-68088200D02*
X105350000Y-68088200D01*
X105350000Y-68088200D02*
X105350000Y-70748200D01*
X196340000Y-53580000D02*
X196340000Y-63740000D01*
X197610000Y-53580000D02*
X189990000Y-53580000D01*
X189990000Y-53580000D02*
X189990000Y-63740000D01*
X189990000Y-63740000D02*
X197610000Y-63740000D01*
X197610000Y-63740000D02*
X197610000Y-53580000D01*
X165080500Y-77946000D02*
X165080500Y-78446000D01*
X164830500Y-78196000D02*
X165330500Y-78196000D01*
X165570500Y-80951563D02*
X166634937Y-82016000D01*
X165570500Y-78560437D02*
X166634937Y-77496000D01*
X165570500Y-78560437D02*
X165570500Y-78696000D01*
X165570500Y-80951563D02*
X165570500Y-80816000D01*
X166634937Y-82016000D02*
X170090500Y-82016000D01*
X166634937Y-77496000D02*
X170090500Y-77496000D01*
X170090500Y-77496000D02*
X170090500Y-78696000D01*
X170090500Y-82016000D02*
X170090500Y-80816000D01*
X187278600Y-96552936D02*
X187278600Y-97757064D01*
X189098600Y-96552936D02*
X189098600Y-97757064D01*
X195728000Y-76421064D02*
X195728000Y-75216936D01*
X193908000Y-76421064D02*
X193908000Y-75216936D01*
X196363000Y-87470064D02*
X196363000Y-86265936D01*
X194543000Y-87470064D02*
X194543000Y-86265936D01*
X190606000Y-96552936D02*
X190606000Y-97757064D01*
X192426000Y-96552936D02*
X192426000Y-97757064D01*
X180742000Y-97757064D02*
X180742000Y-96552936D01*
X178922000Y-97757064D02*
X178922000Y-96552936D01*
X198903000Y-76421064D02*
X198903000Y-75216936D01*
X197083000Y-76421064D02*
X197083000Y-75216936D01*
X184002000Y-75216936D02*
X184002000Y-76421064D01*
X185822000Y-75216936D02*
X185822000Y-76421064D01*
X156050064Y-97896000D02*
X154845936Y-97896000D01*
X156050064Y-99716000D02*
X154845936Y-99716000D01*
D10*
X155325842Y-76874642D02*
X155278223Y-76922261D01*
X155135366Y-76969880D01*
X155040128Y-76969880D01*
X154897271Y-76922261D01*
X154802033Y-76827023D01*
X154754414Y-76731785D01*
X154706795Y-76541309D01*
X154706795Y-76398452D01*
X154754414Y-76207976D01*
X154802033Y-76112738D01*
X154897271Y-76017500D01*
X155040128Y-75969880D01*
X155135366Y-75969880D01*
X155278223Y-76017500D01*
X155325842Y-76065119D01*
X156182985Y-76303214D02*
X156182985Y-76969880D01*
X155944890Y-75922261D02*
X155706795Y-76636547D01*
X156325842Y-76636547D01*
X157230604Y-76969880D02*
X156659176Y-76969880D01*
X156944890Y-76969880D02*
X156944890Y-75969880D01*
X156849652Y-76112738D01*
X156754414Y-76207976D01*
X156659176Y-76255595D01*
X121278714Y-113221714D02*
X121240619Y-113259809D01*
X121126333Y-113297904D01*
X121050142Y-113297904D01*
X120935857Y-113259809D01*
X120859666Y-113183619D01*
X120821571Y-113107428D01*
X120783476Y-112955047D01*
X120783476Y-112840761D01*
X120821571Y-112688380D01*
X120859666Y-112612190D01*
X120935857Y-112536000D01*
X121050142Y-112497904D01*
X121126333Y-112497904D01*
X121240619Y-112536000D01*
X121278714Y-112574095D01*
X121964428Y-112764571D02*
X121964428Y-113297904D01*
X121773952Y-112459809D02*
X121583476Y-113031238D01*
X122078714Y-113031238D01*
X122535857Y-112497904D02*
X122612047Y-112497904D01*
X122688238Y-112536000D01*
X122726333Y-112574095D01*
X122764428Y-112650285D01*
X122802523Y-112802666D01*
X122802523Y-112993142D01*
X122764428Y-113145523D01*
X122726333Y-113221714D01*
X122688238Y-113259809D01*
X122612047Y-113297904D01*
X122535857Y-113297904D01*
X122459666Y-113259809D01*
X122421571Y-113221714D01*
X122383476Y-113145523D01*
X122345380Y-112993142D01*
X122345380Y-112802666D01*
X122383476Y-112650285D01*
X122421571Y-112574095D01*
X122459666Y-112536000D01*
X122535857Y-112497904D01*
X120980276Y-104819504D02*
X120980276Y-105467123D01*
X121018371Y-105543314D01*
X121056466Y-105581409D01*
X121132657Y-105619504D01*
X121285038Y-105619504D01*
X121361228Y-105581409D01*
X121399323Y-105543314D01*
X121437419Y-105467123D01*
X121437419Y-104819504D01*
X121780276Y-104895695D02*
X121818371Y-104857600D01*
X121894561Y-104819504D01*
X122085038Y-104819504D01*
X122161228Y-104857600D01*
X122199323Y-104895695D01*
X122237419Y-104971885D01*
X122237419Y-105048076D01*
X122199323Y-105162361D01*
X121742180Y-105619504D01*
X122237419Y-105619504D01*
X144265714Y-60356714D02*
X144227619Y-60394809D01*
X144113333Y-60432904D01*
X144037142Y-60432904D01*
X143922857Y-60394809D01*
X143846666Y-60318619D01*
X143808571Y-60242428D01*
X143770476Y-60090047D01*
X143770476Y-59975761D01*
X143808571Y-59823380D01*
X143846666Y-59747190D01*
X143922857Y-59671000D01*
X144037142Y-59632904D01*
X144113333Y-59632904D01*
X144227619Y-59671000D01*
X144265714Y-59709095D01*
X144532380Y-59632904D02*
X145027619Y-59632904D01*
X144760952Y-59937666D01*
X144875238Y-59937666D01*
X144951428Y-59975761D01*
X144989523Y-60013857D01*
X145027619Y-60090047D01*
X145027619Y-60280523D01*
X144989523Y-60356714D01*
X144951428Y-60394809D01*
X144875238Y-60432904D01*
X144646666Y-60432904D01*
X144570476Y-60394809D01*
X144532380Y-60356714D01*
X145408571Y-60432904D02*
X145560952Y-60432904D01*
X145637142Y-60394809D01*
X145675238Y-60356714D01*
X145751428Y-60242428D01*
X145789523Y-60090047D01*
X145789523Y-59785285D01*
X145751428Y-59709095D01*
X145713333Y-59671000D01*
X145637142Y-59632904D01*
X145484761Y-59632904D01*
X145408571Y-59671000D01*
X145370476Y-59709095D01*
X145332380Y-59785285D01*
X145332380Y-59975761D01*
X145370476Y-60051952D01*
X145408571Y-60090047D01*
X145484761Y-60128142D01*
X145637142Y-60128142D01*
X145713333Y-60090047D01*
X145751428Y-60051952D01*
X145789523Y-59975761D01*
X170935714Y-83343714D02*
X170897619Y-83381809D01*
X170783333Y-83419904D01*
X170707142Y-83419904D01*
X170592857Y-83381809D01*
X170516666Y-83305619D01*
X170478571Y-83229428D01*
X170440476Y-83077047D01*
X170440476Y-82962761D01*
X170478571Y-82810380D01*
X170516666Y-82734190D01*
X170592857Y-82658000D01*
X170707142Y-82619904D01*
X170783333Y-82619904D01*
X170897619Y-82658000D01*
X170935714Y-82696095D01*
X171202380Y-82619904D02*
X171697619Y-82619904D01*
X171430952Y-82924666D01*
X171545238Y-82924666D01*
X171621428Y-82962761D01*
X171659523Y-83000857D01*
X171697619Y-83077047D01*
X171697619Y-83267523D01*
X171659523Y-83343714D01*
X171621428Y-83381809D01*
X171545238Y-83419904D01*
X171316666Y-83419904D01*
X171240476Y-83381809D01*
X171202380Y-83343714D01*
X172154761Y-82962761D02*
X172078571Y-82924666D01*
X172040476Y-82886571D01*
X172002380Y-82810380D01*
X172002380Y-82772285D01*
X172040476Y-82696095D01*
X172078571Y-82658000D01*
X172154761Y-82619904D01*
X172307142Y-82619904D01*
X172383333Y-82658000D01*
X172421428Y-82696095D01*
X172459523Y-82772285D01*
X172459523Y-82810380D01*
X172421428Y-82886571D01*
X172383333Y-82924666D01*
X172307142Y-82962761D01*
X172154761Y-82962761D01*
X172078571Y-83000857D01*
X172040476Y-83038952D01*
X172002380Y-83115142D01*
X172002380Y-83267523D01*
X172040476Y-83343714D01*
X172078571Y-83381809D01*
X172154761Y-83419904D01*
X172307142Y-83419904D01*
X172383333Y-83381809D01*
X172421428Y-83343714D01*
X172459523Y-83267523D01*
X172459523Y-83115142D01*
X172421428Y-83038952D01*
X172383333Y-83000857D01*
X172307142Y-82962761D01*
X165728714Y-97567714D02*
X165690619Y-97605809D01*
X165576333Y-97643904D01*
X165500142Y-97643904D01*
X165385857Y-97605809D01*
X165309666Y-97529619D01*
X165271571Y-97453428D01*
X165233476Y-97301047D01*
X165233476Y-97186761D01*
X165271571Y-97034380D01*
X165309666Y-96958190D01*
X165385857Y-96882000D01*
X165500142Y-96843904D01*
X165576333Y-96843904D01*
X165690619Y-96882000D01*
X165728714Y-96920095D01*
X165995380Y-96843904D02*
X166490619Y-96843904D01*
X166223952Y-97148666D01*
X166338238Y-97148666D01*
X166414428Y-97186761D01*
X166452523Y-97224857D01*
X166490619Y-97301047D01*
X166490619Y-97491523D01*
X166452523Y-97567714D01*
X166414428Y-97605809D01*
X166338238Y-97643904D01*
X166109666Y-97643904D01*
X166033476Y-97605809D01*
X165995380Y-97567714D01*
X166757285Y-96843904D02*
X167290619Y-96843904D01*
X166947761Y-97643904D01*
X143084614Y-66262214D02*
X143046519Y-66300309D01*
X142932233Y-66338404D01*
X142856042Y-66338404D01*
X142741757Y-66300309D01*
X142665566Y-66224119D01*
X142627471Y-66147928D01*
X142589376Y-65995547D01*
X142589376Y-65881261D01*
X142627471Y-65728880D01*
X142665566Y-65652690D01*
X142741757Y-65576500D01*
X142856042Y-65538404D01*
X142932233Y-65538404D01*
X143046519Y-65576500D01*
X143084614Y-65614595D01*
X143389376Y-65614595D02*
X143427471Y-65576500D01*
X143503661Y-65538404D01*
X143694138Y-65538404D01*
X143770328Y-65576500D01*
X143808423Y-65614595D01*
X143846519Y-65690785D01*
X143846519Y-65766976D01*
X143808423Y-65881261D01*
X143351280Y-66338404D01*
X143846519Y-66338404D01*
X144151280Y-65614595D02*
X144189376Y-65576500D01*
X144265566Y-65538404D01*
X144456042Y-65538404D01*
X144532233Y-65576500D01*
X144570328Y-65614595D01*
X144608423Y-65690785D01*
X144608423Y-65766976D01*
X144570328Y-65881261D01*
X144113185Y-66338404D01*
X144608423Y-66338404D01*
X162553714Y-59044714D02*
X162515619Y-59082809D01*
X162401333Y-59120904D01*
X162325142Y-59120904D01*
X162210857Y-59082809D01*
X162134666Y-59006619D01*
X162096571Y-58930428D01*
X162058476Y-58778047D01*
X162058476Y-58663761D01*
X162096571Y-58511380D01*
X162134666Y-58435190D01*
X162210857Y-58359000D01*
X162325142Y-58320904D01*
X162401333Y-58320904D01*
X162515619Y-58359000D01*
X162553714Y-58397095D01*
X163315619Y-59120904D02*
X162858476Y-59120904D01*
X163087047Y-59120904D02*
X163087047Y-58320904D01*
X163010857Y-58435190D01*
X162934666Y-58511380D01*
X162858476Y-58549476D01*
X164039428Y-58320904D02*
X163658476Y-58320904D01*
X163620380Y-58701857D01*
X163658476Y-58663761D01*
X163734666Y-58625666D01*
X163925142Y-58625666D01*
X164001333Y-58663761D01*
X164039428Y-58701857D01*
X164077523Y-58778047D01*
X164077523Y-58968523D01*
X164039428Y-59044714D01*
X164001333Y-59082809D01*
X163925142Y-59120904D01*
X163734666Y-59120904D01*
X163658476Y-59082809D01*
X163620380Y-59044714D01*
X166973309Y-71672404D02*
X166706642Y-71291452D01*
X166516166Y-71672404D02*
X166516166Y-70872404D01*
X166820928Y-70872404D01*
X166897119Y-70910500D01*
X166935214Y-70948595D01*
X166973309Y-71024785D01*
X166973309Y-71139071D01*
X166935214Y-71215261D01*
X166897119Y-71253357D01*
X166820928Y-71291452D01*
X166516166Y-71291452D01*
X167201880Y-70872404D02*
X167468547Y-71672404D01*
X167735214Y-70872404D01*
X168420928Y-71672404D02*
X167963785Y-71672404D01*
X168192357Y-71672404D02*
X168192357Y-70872404D01*
X168116166Y-70986690D01*
X168039976Y-71062880D01*
X167963785Y-71100976D01*
X174650523Y-82619904D02*
X174650523Y-83267523D01*
X174688619Y-83343714D01*
X174726714Y-83381809D01*
X174802904Y-83419904D01*
X174955285Y-83419904D01*
X175031476Y-83381809D01*
X175069571Y-83343714D01*
X175107666Y-83267523D01*
X175107666Y-82619904D01*
X175907666Y-83419904D02*
X175450523Y-83419904D01*
X175679095Y-83419904D02*
X175679095Y-82619904D01*
X175602904Y-82734190D01*
X175526714Y-82810380D01*
X175450523Y-82848476D01*
X176593380Y-82886571D02*
X176593380Y-83419904D01*
X176402904Y-82581809D02*
X176212428Y-83153238D01*
X176707666Y-83153238D01*
X161124976Y-90451404D02*
X161124976Y-91099023D01*
X161163071Y-91175214D01*
X161201166Y-91213309D01*
X161277357Y-91251404D01*
X161429738Y-91251404D01*
X161505928Y-91213309D01*
X161544023Y-91175214D01*
X161582119Y-91099023D01*
X161582119Y-90451404D01*
X162344023Y-90451404D02*
X161963071Y-90451404D01*
X161924976Y-90832357D01*
X161963071Y-90794261D01*
X162039261Y-90756166D01*
X162229738Y-90756166D01*
X162305928Y-90794261D01*
X162344023Y-90832357D01*
X162382119Y-90908547D01*
X162382119Y-91099023D01*
X162344023Y-91175214D01*
X162305928Y-91213309D01*
X162229738Y-91251404D01*
X162039261Y-91251404D01*
X161963071Y-91213309D01*
X161924976Y-91175214D01*
X147218476Y-65601904D02*
X147218476Y-66249523D01*
X147256571Y-66325714D01*
X147294666Y-66363809D01*
X147370857Y-66401904D01*
X147523238Y-66401904D01*
X147599428Y-66363809D01*
X147637523Y-66325714D01*
X147675619Y-66249523D01*
X147675619Y-65601904D01*
X148399428Y-65868571D02*
X148399428Y-66401904D01*
X148208952Y-65563809D02*
X148018476Y-66135238D01*
X148513714Y-66135238D01*
X147656614Y-79152714D02*
X147618519Y-79190809D01*
X147504233Y-79228904D01*
X147428042Y-79228904D01*
X147313757Y-79190809D01*
X147237566Y-79114619D01*
X147199471Y-79038428D01*
X147161376Y-78886047D01*
X147161376Y-78771761D01*
X147199471Y-78619380D01*
X147237566Y-78543190D01*
X147313757Y-78467000D01*
X147428042Y-78428904D01*
X147504233Y-78428904D01*
X147618519Y-78467000D01*
X147656614Y-78505095D01*
X147923280Y-78428904D02*
X148418519Y-78428904D01*
X148151852Y-78733666D01*
X148266138Y-78733666D01*
X148342328Y-78771761D01*
X148380423Y-78809857D01*
X148418519Y-78886047D01*
X148418519Y-79076523D01*
X148380423Y-79152714D01*
X148342328Y-79190809D01*
X148266138Y-79228904D01*
X148037566Y-79228904D01*
X147961376Y-79190809D01*
X147923280Y-79152714D01*
X149104233Y-78428904D02*
X148951852Y-78428904D01*
X148875661Y-78467000D01*
X148837566Y-78505095D01*
X148761376Y-78619380D01*
X148723280Y-78771761D01*
X148723280Y-79076523D01*
X148761376Y-79152714D01*
X148799471Y-79190809D01*
X148875661Y-79228904D01*
X149028042Y-79228904D01*
X149104233Y-79190809D01*
X149142328Y-79152714D01*
X149180423Y-79076523D01*
X149180423Y-78886047D01*
X149142328Y-78809857D01*
X149104233Y-78771761D01*
X149028042Y-78733666D01*
X148875661Y-78733666D01*
X148799471Y-78771761D01*
X148761376Y-78809857D01*
X148723280Y-78886047D01*
X151593614Y-89862714D02*
X151555519Y-89900809D01*
X151441233Y-89938904D01*
X151365042Y-89938904D01*
X151250757Y-89900809D01*
X151174566Y-89824619D01*
X151136471Y-89748428D01*
X151098376Y-89596047D01*
X151098376Y-89481761D01*
X151136471Y-89329380D01*
X151174566Y-89253190D01*
X151250757Y-89177000D01*
X151365042Y-89138904D01*
X151441233Y-89138904D01*
X151555519Y-89177000D01*
X151593614Y-89215095D01*
X151860280Y-89138904D02*
X152355519Y-89138904D01*
X152088852Y-89443666D01*
X152203138Y-89443666D01*
X152279328Y-89481761D01*
X152317423Y-89519857D01*
X152355519Y-89596047D01*
X152355519Y-89786523D01*
X152317423Y-89862714D01*
X152279328Y-89900809D01*
X152203138Y-89938904D01*
X151974566Y-89938904D01*
X151898376Y-89900809D01*
X151860280Y-89862714D01*
X153079328Y-89138904D02*
X152698376Y-89138904D01*
X152660280Y-89519857D01*
X152698376Y-89481761D01*
X152774566Y-89443666D01*
X152965042Y-89443666D01*
X153041233Y-89481761D01*
X153079328Y-89519857D01*
X153117423Y-89596047D01*
X153117423Y-89786523D01*
X153079328Y-89862714D01*
X153041233Y-89900809D01*
X152965042Y-89938904D01*
X152774566Y-89938904D01*
X152698376Y-89900809D01*
X152660280Y-89862714D01*
X151117423Y-80460904D02*
X151117423Y-81108523D01*
X151155519Y-81184714D01*
X151193614Y-81222809D01*
X151269804Y-81260904D01*
X151422185Y-81260904D01*
X151498376Y-81222809D01*
X151536471Y-81184714D01*
X151574566Y-81108523D01*
X151574566Y-80460904D01*
X152374566Y-81260904D02*
X151917423Y-81260904D01*
X152145995Y-81260904D02*
X152145995Y-80460904D01*
X152069804Y-80575190D01*
X151993614Y-80651380D01*
X151917423Y-80689476D01*
X153136471Y-81260904D02*
X152679328Y-81260904D01*
X152907900Y-81260904D02*
X152907900Y-80460904D01*
X152831709Y-80575190D01*
X152755519Y-80651380D01*
X152679328Y-80689476D01*
X167982976Y-103955904D02*
X167982976Y-104603523D01*
X168021071Y-104679714D01*
X168059166Y-104717809D01*
X168135357Y-104755904D01*
X168287738Y-104755904D01*
X168363928Y-104717809D01*
X168402023Y-104679714D01*
X168440119Y-104603523D01*
X168440119Y-103955904D01*
X168859166Y-104755904D02*
X169011547Y-104755904D01*
X169087738Y-104717809D01*
X169125833Y-104679714D01*
X169202023Y-104565428D01*
X169240119Y-104413047D01*
X169240119Y-104108285D01*
X169202023Y-104032095D01*
X169163928Y-103994000D01*
X169087738Y-103955904D01*
X168935357Y-103955904D01*
X168859166Y-103994000D01*
X168821071Y-104032095D01*
X168782976Y-104108285D01*
X168782976Y-104298761D01*
X168821071Y-104374952D01*
X168859166Y-104413047D01*
X168935357Y-104451142D01*
X169087738Y-104451142D01*
X169163928Y-104413047D01*
X169202023Y-104374952D01*
X169240119Y-104298761D01*
X178441523Y-76333404D02*
X178898666Y-76333404D01*
X178670095Y-77133404D02*
X178670095Y-76333404D01*
X179165333Y-77133404D02*
X179165333Y-76333404D01*
X179470095Y-76333404D01*
X179546285Y-76371500D01*
X179584380Y-76409595D01*
X179622476Y-76485785D01*
X179622476Y-76600071D01*
X179584380Y-76676261D01*
X179546285Y-76714357D01*
X179470095Y-76752452D01*
X179165333Y-76752452D01*
X180384380Y-77133404D02*
X179927238Y-77133404D01*
X180155809Y-77133404D02*
X180155809Y-76333404D01*
X180079619Y-76447690D01*
X180003428Y-76523880D01*
X179927238Y-76561976D01*
X180651047Y-76333404D02*
X181184380Y-76333404D01*
X180841523Y-77133404D01*
X150717376Y-61918904D02*
X151174519Y-61918904D01*
X150945947Y-62718904D02*
X150945947Y-61918904D01*
X151441185Y-62718904D02*
X151441185Y-61918904D01*
X151745947Y-61918904D01*
X151822138Y-61957000D01*
X151860233Y-61995095D01*
X151898328Y-62071285D01*
X151898328Y-62185571D01*
X151860233Y-62261761D01*
X151822138Y-62299857D01*
X151745947Y-62337952D01*
X151441185Y-62337952D01*
X152660233Y-62718904D02*
X152203090Y-62718904D01*
X152431661Y-62718904D02*
X152431661Y-61918904D01*
X152355471Y-62033190D01*
X152279280Y-62109380D01*
X152203090Y-62147476D01*
X179317714Y-82276904D02*
X179051047Y-81895952D01*
X178860571Y-82276904D02*
X178860571Y-81476904D01*
X179165333Y-81476904D01*
X179241523Y-81515000D01*
X179279619Y-81553095D01*
X179317714Y-81629285D01*
X179317714Y-81743571D01*
X179279619Y-81819761D01*
X179241523Y-81857857D01*
X179165333Y-81895952D01*
X178860571Y-81895952D01*
X179622476Y-81553095D02*
X179660571Y-81515000D01*
X179736761Y-81476904D01*
X179927238Y-81476904D01*
X180003428Y-81515000D01*
X180041523Y-81553095D01*
X180079619Y-81629285D01*
X180079619Y-81705476D01*
X180041523Y-81819761D01*
X179584380Y-82276904D01*
X180079619Y-82276904D01*
X180765333Y-81743571D02*
X180765333Y-82276904D01*
X180574857Y-81438809D02*
X180384380Y-82010238D01*
X180879619Y-82010238D01*
X146170714Y-93452904D02*
X145904047Y-93071952D01*
X145713571Y-93452904D02*
X145713571Y-92652904D01*
X146018333Y-92652904D01*
X146094523Y-92691000D01*
X146132619Y-92729095D01*
X146170714Y-92805285D01*
X146170714Y-92919571D01*
X146132619Y-92995761D01*
X146094523Y-93033857D01*
X146018333Y-93071952D01*
X145713571Y-93071952D01*
X146475476Y-92729095D02*
X146513571Y-92691000D01*
X146589761Y-92652904D01*
X146780238Y-92652904D01*
X146856428Y-92691000D01*
X146894523Y-92729095D01*
X146932619Y-92805285D01*
X146932619Y-92881476D01*
X146894523Y-92995761D01*
X146437380Y-93452904D01*
X146932619Y-93452904D01*
X147199285Y-92652904D02*
X147694523Y-92652904D01*
X147427857Y-92957666D01*
X147542142Y-92957666D01*
X147618333Y-92995761D01*
X147656428Y-93033857D01*
X147694523Y-93110047D01*
X147694523Y-93300523D01*
X147656428Y-93376714D01*
X147618333Y-93414809D01*
X147542142Y-93452904D01*
X147313571Y-93452904D01*
X147237380Y-93414809D01*
X147199285Y-93376714D01*
X150463333Y-113099904D02*
X150463333Y-113671333D01*
X150425238Y-113785619D01*
X150349047Y-113861809D01*
X150234761Y-113899904D01*
X150158571Y-113899904D01*
X150844285Y-113899904D02*
X150844285Y-113099904D01*
X151149047Y-113099904D01*
X151225238Y-113138000D01*
X151263333Y-113176095D01*
X151301428Y-113252285D01*
X151301428Y-113366571D01*
X151263333Y-113442761D01*
X151225238Y-113480857D01*
X151149047Y-113518952D01*
X150844285Y-113518952D01*
X151987142Y-113366571D02*
X151987142Y-113899904D01*
X151796666Y-113061809D02*
X151606190Y-113633238D01*
X152101428Y-113633238D01*
X161004333Y-83127904D02*
X161004333Y-83699333D01*
X160966238Y-83813619D01*
X160890047Y-83889809D01*
X160775761Y-83927904D01*
X160699571Y-83927904D01*
X161385285Y-83927904D02*
X161385285Y-83127904D01*
X161690047Y-83127904D01*
X161766238Y-83166000D01*
X161804333Y-83204095D01*
X161842428Y-83280285D01*
X161842428Y-83394571D01*
X161804333Y-83470761D01*
X161766238Y-83508857D01*
X161690047Y-83546952D01*
X161385285Y-83546952D01*
X162147190Y-83204095D02*
X162185285Y-83166000D01*
X162261476Y-83127904D01*
X162451952Y-83127904D01*
X162528142Y-83166000D01*
X162566238Y-83204095D01*
X162604333Y-83280285D01*
X162604333Y-83356476D01*
X162566238Y-83470761D01*
X162109095Y-83927904D01*
X162604333Y-83927904D01*
X158210333Y-83127904D02*
X158210333Y-83699333D01*
X158172238Y-83813619D01*
X158096047Y-83889809D01*
X157981761Y-83927904D01*
X157905571Y-83927904D01*
X158591285Y-83927904D02*
X158591285Y-83127904D01*
X158896047Y-83127904D01*
X158972238Y-83166000D01*
X159010333Y-83204095D01*
X159048428Y-83280285D01*
X159048428Y-83394571D01*
X159010333Y-83470761D01*
X158972238Y-83508857D01*
X158896047Y-83546952D01*
X158591285Y-83546952D01*
X159810333Y-83927904D02*
X159353190Y-83927904D01*
X159581761Y-83927904D02*
X159581761Y-83127904D01*
X159505571Y-83242190D01*
X159429380Y-83318380D01*
X159353190Y-83356476D01*
X179305023Y-93770404D02*
X179305023Y-92970404D01*
X179495500Y-92970404D01*
X179609785Y-93008500D01*
X179685976Y-93084690D01*
X179724071Y-93160880D01*
X179762166Y-93313261D01*
X179762166Y-93427547D01*
X179724071Y-93579928D01*
X179685976Y-93656119D01*
X179609785Y-93732309D01*
X179495500Y-93770404D01*
X179305023Y-93770404D01*
X180447880Y-92970404D02*
X180295500Y-92970404D01*
X180219309Y-93008500D01*
X180181214Y-93046595D01*
X180105023Y-93160880D01*
X180066928Y-93313261D01*
X180066928Y-93618023D01*
X180105023Y-93694214D01*
X180143119Y-93732309D01*
X180219309Y-93770404D01*
X180371690Y-93770404D01*
X180447880Y-93732309D01*
X180485976Y-93694214D01*
X180524071Y-93618023D01*
X180524071Y-93427547D01*
X180485976Y-93351357D01*
X180447880Y-93313261D01*
X180371690Y-93275166D01*
X180219309Y-93275166D01*
X180143119Y-93313261D01*
X180105023Y-93351357D01*
X180066928Y-93427547D01*
X146221523Y-97347904D02*
X146221523Y-96547904D01*
X146412000Y-96547904D01*
X146526285Y-96586000D01*
X146602476Y-96662190D01*
X146640571Y-96738380D01*
X146678666Y-96890761D01*
X146678666Y-97005047D01*
X146640571Y-97157428D01*
X146602476Y-97233619D01*
X146526285Y-97309809D01*
X146412000Y-97347904D01*
X146221523Y-97347904D01*
X147402476Y-96547904D02*
X147021523Y-96547904D01*
X146983428Y-96928857D01*
X147021523Y-96890761D01*
X147097714Y-96852666D01*
X147288190Y-96852666D01*
X147364380Y-96890761D01*
X147402476Y-96928857D01*
X147440571Y-97005047D01*
X147440571Y-97195523D01*
X147402476Y-97271714D01*
X147364380Y-97309809D01*
X147288190Y-97347904D01*
X147097714Y-97347904D01*
X147021523Y-97309809D01*
X146983428Y-97271714D01*
X174745714Y-79618714D02*
X174707619Y-79656809D01*
X174593333Y-79694904D01*
X174517142Y-79694904D01*
X174402857Y-79656809D01*
X174326666Y-79580619D01*
X174288571Y-79504428D01*
X174250476Y-79352047D01*
X174250476Y-79237761D01*
X174288571Y-79085380D01*
X174326666Y-79009190D01*
X174402857Y-78933000D01*
X174517142Y-78894904D01*
X174593333Y-78894904D01*
X174707619Y-78933000D01*
X174745714Y-78971095D01*
X175050476Y-78971095D02*
X175088571Y-78933000D01*
X175164761Y-78894904D01*
X175355238Y-78894904D01*
X175431428Y-78933000D01*
X175469523Y-78971095D01*
X175507619Y-79047285D01*
X175507619Y-79123476D01*
X175469523Y-79237761D01*
X175012380Y-79694904D01*
X175507619Y-79694904D01*
X176231428Y-78894904D02*
X175850476Y-78894904D01*
X175812380Y-79275857D01*
X175850476Y-79237761D01*
X175926666Y-79199666D01*
X176117142Y-79199666D01*
X176193333Y-79237761D01*
X176231428Y-79275857D01*
X176269523Y-79352047D01*
X176269523Y-79542523D01*
X176231428Y-79618714D01*
X176193333Y-79656809D01*
X176117142Y-79694904D01*
X175926666Y-79694904D01*
X175850476Y-79656809D01*
X175812380Y-79618714D01*
X174682214Y-93249714D02*
X174644119Y-93287809D01*
X174529833Y-93325904D01*
X174453642Y-93325904D01*
X174339357Y-93287809D01*
X174263166Y-93211619D01*
X174225071Y-93135428D01*
X174186976Y-92983047D01*
X174186976Y-92868761D01*
X174225071Y-92716380D01*
X174263166Y-92640190D01*
X174339357Y-92564000D01*
X174453642Y-92525904D01*
X174529833Y-92525904D01*
X174644119Y-92564000D01*
X174682214Y-92602095D01*
X175444119Y-93325904D02*
X174986976Y-93325904D01*
X175215547Y-93325904D02*
X175215547Y-92525904D01*
X175139357Y-92640190D01*
X175063166Y-92716380D01*
X174986976Y-92754476D01*
X175710785Y-92525904D02*
X176206023Y-92525904D01*
X175939357Y-92830666D01*
X176053642Y-92830666D01*
X176129833Y-92868761D01*
X176167928Y-92906857D01*
X176206023Y-92983047D01*
X176206023Y-93173523D01*
X176167928Y-93249714D01*
X176129833Y-93287809D01*
X176053642Y-93325904D01*
X175825071Y-93325904D01*
X175748880Y-93287809D01*
X175710785Y-93249714D01*
X159918476Y-117925904D02*
X159918476Y-118573523D01*
X159956571Y-118649714D01*
X159994666Y-118687809D01*
X160070857Y-118725904D01*
X160223238Y-118725904D01*
X160299428Y-118687809D01*
X160337523Y-118649714D01*
X160375619Y-118573523D01*
X160375619Y-117925904D01*
X160680380Y-117925904D02*
X161213714Y-117925904D01*
X160870857Y-118725904D01*
X169361023Y-100463404D02*
X169818166Y-100463404D01*
X169589595Y-101263404D02*
X169589595Y-100463404D01*
X170084833Y-101263404D02*
X170084833Y-100463404D01*
X170389595Y-100463404D01*
X170465785Y-100501500D01*
X170503880Y-100539595D01*
X170541976Y-100615785D01*
X170541976Y-100730071D01*
X170503880Y-100806261D01*
X170465785Y-100844357D01*
X170389595Y-100882452D01*
X170084833Y-100882452D01*
X171303880Y-101263404D02*
X170846738Y-101263404D01*
X171075309Y-101263404D02*
X171075309Y-100463404D01*
X170999119Y-100577690D01*
X170922928Y-100653880D01*
X170846738Y-100691976D01*
X171799119Y-100463404D02*
X171875309Y-100463404D01*
X171951500Y-100501500D01*
X171989595Y-100539595D01*
X172027690Y-100615785D01*
X172065785Y-100768166D01*
X172065785Y-100958642D01*
X172027690Y-101111023D01*
X171989595Y-101187214D01*
X171951500Y-101225309D01*
X171875309Y-101263404D01*
X171799119Y-101263404D01*
X171722928Y-101225309D01*
X171684833Y-101187214D01*
X171646738Y-101111023D01*
X171608642Y-100958642D01*
X171608642Y-100768166D01*
X171646738Y-100615785D01*
X171684833Y-100539595D01*
X171722928Y-100501500D01*
X171799119Y-100463404D01*
X134301533Y-45003904D02*
X134301533Y-45575333D01*
X134263438Y-45689619D01*
X134187247Y-45765809D01*
X134072961Y-45803904D01*
X133996771Y-45803904D01*
X134682485Y-45803904D02*
X134682485Y-45003904D01*
X134987247Y-45003904D01*
X135063438Y-45042000D01*
X135101533Y-45080095D01*
X135139628Y-45156285D01*
X135139628Y-45270571D01*
X135101533Y-45346761D01*
X135063438Y-45384857D01*
X134987247Y-45422952D01*
X134682485Y-45422952D01*
X135406295Y-45003904D02*
X135901533Y-45003904D01*
X135634866Y-45308666D01*
X135749152Y-45308666D01*
X135825342Y-45346761D01*
X135863438Y-45384857D01*
X135901533Y-45461047D01*
X135901533Y-45651523D01*
X135863438Y-45727714D01*
X135825342Y-45765809D01*
X135749152Y-45803904D01*
X135520580Y-45803904D01*
X135444390Y-45765809D01*
X135406295Y-45727714D01*
X165030214Y-99853714D02*
X164992119Y-99891809D01*
X164877833Y-99929904D01*
X164801642Y-99929904D01*
X164687357Y-99891809D01*
X164611166Y-99815619D01*
X164573071Y-99739428D01*
X164534976Y-99587047D01*
X164534976Y-99472761D01*
X164573071Y-99320380D01*
X164611166Y-99244190D01*
X164687357Y-99168000D01*
X164801642Y-99129904D01*
X164877833Y-99129904D01*
X164992119Y-99168000D01*
X165030214Y-99206095D01*
X165296880Y-99129904D02*
X165792119Y-99129904D01*
X165525452Y-99434666D01*
X165639738Y-99434666D01*
X165715928Y-99472761D01*
X165754023Y-99510857D01*
X165792119Y-99587047D01*
X165792119Y-99777523D01*
X165754023Y-99853714D01*
X165715928Y-99891809D01*
X165639738Y-99929904D01*
X165411166Y-99929904D01*
X165334976Y-99891809D01*
X165296880Y-99853714D01*
X166477833Y-99396571D02*
X166477833Y-99929904D01*
X166287357Y-99091809D02*
X166096880Y-99663238D01*
X166592119Y-99663238D01*
X184397714Y-88423714D02*
X184359619Y-88461809D01*
X184245333Y-88499904D01*
X184169142Y-88499904D01*
X184054857Y-88461809D01*
X183978666Y-88385619D01*
X183940571Y-88309428D01*
X183902476Y-88157047D01*
X183902476Y-88042761D01*
X183940571Y-87890380D01*
X183978666Y-87814190D01*
X184054857Y-87738000D01*
X184169142Y-87699904D01*
X184245333Y-87699904D01*
X184359619Y-87738000D01*
X184397714Y-87776095D01*
X184664380Y-87699904D02*
X185159619Y-87699904D01*
X184892952Y-88004666D01*
X185007238Y-88004666D01*
X185083428Y-88042761D01*
X185121523Y-88080857D01*
X185159619Y-88157047D01*
X185159619Y-88347523D01*
X185121523Y-88423714D01*
X185083428Y-88461809D01*
X185007238Y-88499904D01*
X184778666Y-88499904D01*
X184702476Y-88461809D01*
X184664380Y-88423714D01*
X185426285Y-87699904D02*
X185921523Y-87699904D01*
X185654857Y-88004666D01*
X185769142Y-88004666D01*
X185845333Y-88042761D01*
X185883428Y-88080857D01*
X185921523Y-88157047D01*
X185921523Y-88347523D01*
X185883428Y-88423714D01*
X185845333Y-88461809D01*
X185769142Y-88499904D01*
X185540571Y-88499904D01*
X185464380Y-88461809D01*
X185426285Y-88423714D01*
X158362714Y-61131404D02*
X158096047Y-60750452D01*
X157905571Y-61131404D02*
X157905571Y-60331404D01*
X158210333Y-60331404D01*
X158286523Y-60369500D01*
X158324619Y-60407595D01*
X158362714Y-60483785D01*
X158362714Y-60598071D01*
X158324619Y-60674261D01*
X158286523Y-60712357D01*
X158210333Y-60750452D01*
X157905571Y-60750452D01*
X158667476Y-60407595D02*
X158705571Y-60369500D01*
X158781761Y-60331404D01*
X158972238Y-60331404D01*
X159048428Y-60369500D01*
X159086523Y-60407595D01*
X159124619Y-60483785D01*
X159124619Y-60559976D01*
X159086523Y-60674261D01*
X158629380Y-61131404D01*
X159124619Y-61131404D01*
X159429380Y-60407595D02*
X159467476Y-60369500D01*
X159543666Y-60331404D01*
X159734142Y-60331404D01*
X159810333Y-60369500D01*
X159848428Y-60407595D01*
X159886523Y-60483785D01*
X159886523Y-60559976D01*
X159848428Y-60674261D01*
X159391285Y-61131404D01*
X159886523Y-61131404D01*
X165506523Y-64966904D02*
X165506523Y-65614523D01*
X165544619Y-65690714D01*
X165582714Y-65728809D01*
X165658904Y-65766904D01*
X165811285Y-65766904D01*
X165887476Y-65728809D01*
X165925571Y-65690714D01*
X165963666Y-65614523D01*
X165963666Y-64966904D01*
X166763666Y-65766904D02*
X166306523Y-65766904D01*
X166535095Y-65766904D02*
X166535095Y-64966904D01*
X166458904Y-65081190D01*
X166382714Y-65157380D01*
X166306523Y-65195476D01*
X167258904Y-64966904D02*
X167335095Y-64966904D01*
X167411285Y-65005000D01*
X167449380Y-65043095D01*
X167487476Y-65119285D01*
X167525571Y-65271666D01*
X167525571Y-65462142D01*
X167487476Y-65614523D01*
X167449380Y-65690714D01*
X167411285Y-65728809D01*
X167335095Y-65766904D01*
X167258904Y-65766904D01*
X167182714Y-65728809D01*
X167144619Y-65690714D01*
X167106523Y-65614523D01*
X167068428Y-65462142D01*
X167068428Y-65271666D01*
X167106523Y-65119285D01*
X167144619Y-65043095D01*
X167182714Y-65005000D01*
X167258904Y-64966904D01*
X176225276Y-59150304D02*
X176225276Y-59797923D01*
X176263371Y-59874114D01*
X176301466Y-59912209D01*
X176377657Y-59950304D01*
X176530038Y-59950304D01*
X176606228Y-59912209D01*
X176644323Y-59874114D01*
X176682419Y-59797923D01*
X176682419Y-59150304D01*
X177177657Y-59493161D02*
X177101466Y-59455066D01*
X177063371Y-59416971D01*
X177025276Y-59340780D01*
X177025276Y-59302685D01*
X177063371Y-59226495D01*
X177101466Y-59188400D01*
X177177657Y-59150304D01*
X177330038Y-59150304D01*
X177406228Y-59188400D01*
X177444323Y-59226495D01*
X177482419Y-59302685D01*
X177482419Y-59340780D01*
X177444323Y-59416971D01*
X177406228Y-59455066D01*
X177330038Y-59493161D01*
X177177657Y-59493161D01*
X177101466Y-59531257D01*
X177063371Y-59569352D01*
X177025276Y-59645542D01*
X177025276Y-59797923D01*
X177063371Y-59874114D01*
X177101466Y-59912209D01*
X177177657Y-59950304D01*
X177330038Y-59950304D01*
X177406228Y-59912209D01*
X177444323Y-59874114D01*
X177482419Y-59797923D01*
X177482419Y-59645542D01*
X177444323Y-59569352D01*
X177406228Y-59531257D01*
X177330038Y-59493161D01*
X135483676Y-57219904D02*
X135483676Y-57867523D01*
X135521771Y-57943714D01*
X135559866Y-57981809D01*
X135636057Y-58019904D01*
X135788438Y-58019904D01*
X135864628Y-57981809D01*
X135902723Y-57943714D01*
X135940819Y-57867523D01*
X135940819Y-57219904D01*
X136245580Y-57219904D02*
X136740819Y-57219904D01*
X136474152Y-57524666D01*
X136588438Y-57524666D01*
X136664628Y-57562761D01*
X136702723Y-57600857D01*
X136740819Y-57677047D01*
X136740819Y-57867523D01*
X136702723Y-57943714D01*
X136664628Y-57981809D01*
X136588438Y-58019904D01*
X136359866Y-58019904D01*
X136283676Y-57981809D01*
X136245580Y-57943714D01*
X157486523Y-68980104D02*
X157943666Y-68980104D01*
X157715095Y-69780104D02*
X157715095Y-68980104D01*
X158210333Y-69780104D02*
X158210333Y-68980104D01*
X158515095Y-68980104D01*
X158591285Y-69018200D01*
X158629380Y-69056295D01*
X158667476Y-69132485D01*
X158667476Y-69246771D01*
X158629380Y-69322961D01*
X158591285Y-69361057D01*
X158515095Y-69399152D01*
X158210333Y-69399152D01*
X159429380Y-69780104D02*
X158972238Y-69780104D01*
X159200809Y-69780104D02*
X159200809Y-68980104D01*
X159124619Y-69094390D01*
X159048428Y-69170580D01*
X158972238Y-69208676D01*
X160115095Y-68980104D02*
X159962714Y-68980104D01*
X159886523Y-69018200D01*
X159848428Y-69056295D01*
X159772238Y-69170580D01*
X159734142Y-69322961D01*
X159734142Y-69627723D01*
X159772238Y-69703914D01*
X159810333Y-69742009D01*
X159886523Y-69780104D01*
X160038904Y-69780104D01*
X160115095Y-69742009D01*
X160153190Y-69703914D01*
X160191285Y-69627723D01*
X160191285Y-69437247D01*
X160153190Y-69361057D01*
X160115095Y-69322961D01*
X160038904Y-69284866D01*
X159886523Y-69284866D01*
X159810333Y-69322961D01*
X159772238Y-69361057D01*
X159734142Y-69437247D01*
X165360523Y-110305904D02*
X165817666Y-110305904D01*
X165589095Y-111105904D02*
X165589095Y-110305904D01*
X166084333Y-111105904D02*
X166084333Y-110305904D01*
X166389095Y-110305904D01*
X166465285Y-110344000D01*
X166503380Y-110382095D01*
X166541476Y-110458285D01*
X166541476Y-110572571D01*
X166503380Y-110648761D01*
X166465285Y-110686857D01*
X166389095Y-110724952D01*
X166084333Y-110724952D01*
X167303380Y-111105904D02*
X166846238Y-111105904D01*
X167074809Y-111105904D02*
X167074809Y-110305904D01*
X166998619Y-110420190D01*
X166922428Y-110496380D01*
X166846238Y-110534476D01*
X167570047Y-110305904D02*
X168065285Y-110305904D01*
X167798619Y-110610666D01*
X167912904Y-110610666D01*
X167989095Y-110648761D01*
X168027190Y-110686857D01*
X168065285Y-110763047D01*
X168065285Y-110953523D01*
X168027190Y-111029714D01*
X167989095Y-111067809D01*
X167912904Y-111105904D01*
X167684333Y-111105904D01*
X167608142Y-111067809D01*
X167570047Y-111029714D01*
X149485523Y-92652904D02*
X149942666Y-92652904D01*
X149714095Y-93452904D02*
X149714095Y-92652904D01*
X150209333Y-93452904D02*
X150209333Y-92652904D01*
X150514095Y-92652904D01*
X150590285Y-92691000D01*
X150628380Y-92729095D01*
X150666476Y-92805285D01*
X150666476Y-92919571D01*
X150628380Y-92995761D01*
X150590285Y-93033857D01*
X150514095Y-93071952D01*
X150209333Y-93071952D01*
X151428380Y-93452904D02*
X150971238Y-93452904D01*
X151199809Y-93452904D02*
X151199809Y-92652904D01*
X151123619Y-92767190D01*
X151047428Y-92843380D01*
X150971238Y-92881476D01*
X151733142Y-92729095D02*
X151771238Y-92691000D01*
X151847428Y-92652904D01*
X152037904Y-92652904D01*
X152114095Y-92691000D01*
X152152190Y-92729095D01*
X152190285Y-92805285D01*
X152190285Y-92881476D01*
X152152190Y-92995761D01*
X151695047Y-93452904D01*
X152190285Y-93452904D01*
X166236714Y-67989404D02*
X165970047Y-67608452D01*
X165779571Y-67989404D02*
X165779571Y-67189404D01*
X166084333Y-67189404D01*
X166160523Y-67227500D01*
X166198619Y-67265595D01*
X166236714Y-67341785D01*
X166236714Y-67456071D01*
X166198619Y-67532261D01*
X166160523Y-67570357D01*
X166084333Y-67608452D01*
X165779571Y-67608452D01*
X166998619Y-67989404D02*
X166541476Y-67989404D01*
X166770047Y-67989404D02*
X166770047Y-67189404D01*
X166693857Y-67303690D01*
X166617666Y-67379880D01*
X166541476Y-67417976D01*
X167303380Y-67265595D02*
X167341476Y-67227500D01*
X167417666Y-67189404D01*
X167608142Y-67189404D01*
X167684333Y-67227500D01*
X167722428Y-67265595D01*
X167760523Y-67341785D01*
X167760523Y-67417976D01*
X167722428Y-67532261D01*
X167265285Y-67989404D01*
X167760523Y-67989404D01*
X170757904Y-125996666D02*
X171329333Y-125996666D01*
X171443619Y-126034761D01*
X171519809Y-126110952D01*
X171557904Y-126225238D01*
X171557904Y-126301428D01*
X171557904Y-125196666D02*
X171557904Y-125653809D01*
X171557904Y-125425238D02*
X170757904Y-125425238D01*
X170872190Y-125501428D01*
X170948380Y-125577619D01*
X170986476Y-125653809D01*
X169894314Y-65538314D02*
X169856219Y-65576409D01*
X169741933Y-65614504D01*
X169665742Y-65614504D01*
X169551457Y-65576409D01*
X169475266Y-65500219D01*
X169437171Y-65424028D01*
X169399076Y-65271647D01*
X169399076Y-65157361D01*
X169437171Y-65004980D01*
X169475266Y-64928790D01*
X169551457Y-64852600D01*
X169665742Y-64814504D01*
X169741933Y-64814504D01*
X169856219Y-64852600D01*
X169894314Y-64890695D01*
X170160980Y-64814504D02*
X170656219Y-64814504D01*
X170389552Y-65119266D01*
X170503838Y-65119266D01*
X170580028Y-65157361D01*
X170618123Y-65195457D01*
X170656219Y-65271647D01*
X170656219Y-65462123D01*
X170618123Y-65538314D01*
X170580028Y-65576409D01*
X170503838Y-65614504D01*
X170275266Y-65614504D01*
X170199076Y-65576409D01*
X170160980Y-65538314D01*
X170960980Y-64890695D02*
X170999076Y-64852600D01*
X171075266Y-64814504D01*
X171265742Y-64814504D01*
X171341933Y-64852600D01*
X171380028Y-64890695D01*
X171418123Y-64966885D01*
X171418123Y-65043076D01*
X171380028Y-65157361D01*
X170922885Y-65614504D01*
X171418123Y-65614504D01*
X175329914Y-65614514D02*
X175291819Y-65652609D01*
X175177533Y-65690704D01*
X175101342Y-65690704D01*
X174987057Y-65652609D01*
X174910866Y-65576419D01*
X174872771Y-65500228D01*
X174834676Y-65347847D01*
X174834676Y-65233561D01*
X174872771Y-65081180D01*
X174910866Y-65004990D01*
X174987057Y-64928800D01*
X175101342Y-64890704D01*
X175177533Y-64890704D01*
X175291819Y-64928800D01*
X175329914Y-64966895D01*
X175596580Y-64890704D02*
X176091819Y-64890704D01*
X175825152Y-65195466D01*
X175939438Y-65195466D01*
X176015628Y-65233561D01*
X176053723Y-65271657D01*
X176091819Y-65347847D01*
X176091819Y-65538323D01*
X176053723Y-65614514D01*
X176015628Y-65652609D01*
X175939438Y-65690704D01*
X175710866Y-65690704D01*
X175634676Y-65652609D01*
X175596580Y-65614514D01*
X176853723Y-65690704D02*
X176396580Y-65690704D01*
X176625152Y-65690704D02*
X176625152Y-64890704D01*
X176548961Y-65004990D01*
X176472771Y-65081180D01*
X176396580Y-65119276D01*
X131121214Y-51377814D02*
X131083119Y-51415909D01*
X130968833Y-51454004D01*
X130892642Y-51454004D01*
X130778357Y-51415909D01*
X130702166Y-51339719D01*
X130664071Y-51263528D01*
X130625976Y-51111147D01*
X130625976Y-50996861D01*
X130664071Y-50844480D01*
X130702166Y-50768290D01*
X130778357Y-50692100D01*
X130892642Y-50654004D01*
X130968833Y-50654004D01*
X131083119Y-50692100D01*
X131121214Y-50730195D01*
X131387880Y-50654004D02*
X131883119Y-50654004D01*
X131616452Y-50958766D01*
X131730738Y-50958766D01*
X131806928Y-50996861D01*
X131845023Y-51034957D01*
X131883119Y-51111147D01*
X131883119Y-51301623D01*
X131845023Y-51377814D01*
X131806928Y-51415909D01*
X131730738Y-51454004D01*
X131502166Y-51454004D01*
X131425976Y-51415909D01*
X131387880Y-51377814D01*
X132378357Y-50654004D02*
X132454547Y-50654004D01*
X132530738Y-50692100D01*
X132568833Y-50730195D01*
X132606928Y-50806385D01*
X132645023Y-50958766D01*
X132645023Y-51149242D01*
X132606928Y-51301623D01*
X132568833Y-51377814D01*
X132530738Y-51415909D01*
X132454547Y-51454004D01*
X132378357Y-51454004D01*
X132302166Y-51415909D01*
X132264071Y-51377814D01*
X132225976Y-51301623D01*
X132187880Y-51149242D01*
X132187880Y-50958766D01*
X132225976Y-50806385D01*
X132264071Y-50730195D01*
X132302166Y-50692100D01*
X132378357Y-50654004D01*
X156394214Y-91027214D02*
X156356119Y-91065309D01*
X156241833Y-91103404D01*
X156165642Y-91103404D01*
X156051357Y-91065309D01*
X155975166Y-90989119D01*
X155937071Y-90912928D01*
X155898976Y-90760547D01*
X155898976Y-90646261D01*
X155937071Y-90493880D01*
X155975166Y-90417690D01*
X156051357Y-90341500D01*
X156165642Y-90303404D01*
X156241833Y-90303404D01*
X156356119Y-90341500D01*
X156394214Y-90379595D01*
X156698976Y-90379595D02*
X156737071Y-90341500D01*
X156813261Y-90303404D01*
X157003738Y-90303404D01*
X157079928Y-90341500D01*
X157118023Y-90379595D01*
X157156119Y-90455785D01*
X157156119Y-90531976D01*
X157118023Y-90646261D01*
X156660880Y-91103404D01*
X157156119Y-91103404D01*
X157537071Y-91103404D02*
X157689452Y-91103404D01*
X157765642Y-91065309D01*
X157803738Y-91027214D01*
X157879928Y-90912928D01*
X157918023Y-90760547D01*
X157918023Y-90455785D01*
X157879928Y-90379595D01*
X157841833Y-90341500D01*
X157765642Y-90303404D01*
X157613261Y-90303404D01*
X157537071Y-90341500D01*
X157498976Y-90379595D01*
X157460880Y-90455785D01*
X157460880Y-90646261D01*
X157498976Y-90722452D01*
X157537071Y-90760547D01*
X157613261Y-90798642D01*
X157765642Y-90798642D01*
X157841833Y-90760547D01*
X157879928Y-90722452D01*
X157918023Y-90646261D01*
X146894614Y-62642714D02*
X146856519Y-62680809D01*
X146742233Y-62718904D01*
X146666042Y-62718904D01*
X146551757Y-62680809D01*
X146475566Y-62604619D01*
X146437471Y-62528428D01*
X146399376Y-62376047D01*
X146399376Y-62261761D01*
X146437471Y-62109380D01*
X146475566Y-62033190D01*
X146551757Y-61957000D01*
X146666042Y-61918904D01*
X146742233Y-61918904D01*
X146856519Y-61957000D01*
X146894614Y-61995095D01*
X147199376Y-61995095D02*
X147237471Y-61957000D01*
X147313661Y-61918904D01*
X147504138Y-61918904D01*
X147580328Y-61957000D01*
X147618423Y-61995095D01*
X147656519Y-62071285D01*
X147656519Y-62147476D01*
X147618423Y-62261761D01*
X147161280Y-62718904D01*
X147656519Y-62718904D01*
X148113661Y-62261761D02*
X148037471Y-62223666D01*
X147999376Y-62185571D01*
X147961280Y-62109380D01*
X147961280Y-62071285D01*
X147999376Y-61995095D01*
X148037471Y-61957000D01*
X148113661Y-61918904D01*
X148266042Y-61918904D01*
X148342233Y-61957000D01*
X148380328Y-61995095D01*
X148418423Y-62071285D01*
X148418423Y-62109380D01*
X148380328Y-62185571D01*
X148342233Y-62223666D01*
X148266042Y-62261761D01*
X148113661Y-62261761D01*
X148037471Y-62299857D01*
X147999376Y-62337952D01*
X147961280Y-62414142D01*
X147961280Y-62566523D01*
X147999376Y-62642714D01*
X148037471Y-62680809D01*
X148113661Y-62718904D01*
X148266042Y-62718904D01*
X148342233Y-62680809D01*
X148380328Y-62642714D01*
X148418423Y-62566523D01*
X148418423Y-62414142D01*
X148380328Y-62337952D01*
X148342233Y-62299857D01*
X148266042Y-62261761D01*
X166109714Y-90963714D02*
X166071619Y-91001809D01*
X165957333Y-91039904D01*
X165881142Y-91039904D01*
X165766857Y-91001809D01*
X165690666Y-90925619D01*
X165652571Y-90849428D01*
X165614476Y-90697047D01*
X165614476Y-90582761D01*
X165652571Y-90430380D01*
X165690666Y-90354190D01*
X165766857Y-90278000D01*
X165881142Y-90239904D01*
X165957333Y-90239904D01*
X166071619Y-90278000D01*
X166109714Y-90316095D01*
X166414476Y-90316095D02*
X166452571Y-90278000D01*
X166528761Y-90239904D01*
X166719238Y-90239904D01*
X166795428Y-90278000D01*
X166833523Y-90316095D01*
X166871619Y-90392285D01*
X166871619Y-90468476D01*
X166833523Y-90582761D01*
X166376380Y-91039904D01*
X166871619Y-91039904D01*
X167138285Y-90239904D02*
X167671619Y-90239904D01*
X167328761Y-91039904D01*
X146894614Y-76104714D02*
X146856519Y-76142809D01*
X146742233Y-76180904D01*
X146666042Y-76180904D01*
X146551757Y-76142809D01*
X146475566Y-76066619D01*
X146437471Y-75990428D01*
X146399376Y-75838047D01*
X146399376Y-75723761D01*
X146437471Y-75571380D01*
X146475566Y-75495190D01*
X146551757Y-75419000D01*
X146666042Y-75380904D01*
X146742233Y-75380904D01*
X146856519Y-75419000D01*
X146894614Y-75457095D01*
X147656519Y-76180904D02*
X147199376Y-76180904D01*
X147427947Y-76180904D02*
X147427947Y-75380904D01*
X147351757Y-75495190D01*
X147275566Y-75571380D01*
X147199376Y-75609476D01*
X148342233Y-75647571D02*
X148342233Y-76180904D01*
X148151757Y-75342809D02*
X147961280Y-75914238D01*
X148456519Y-75914238D01*
X140531914Y-89592114D02*
X140493819Y-89630209D01*
X140379533Y-89668304D01*
X140303342Y-89668304D01*
X140189057Y-89630209D01*
X140112866Y-89554019D01*
X140074771Y-89477828D01*
X140036676Y-89325447D01*
X140036676Y-89211161D01*
X140074771Y-89058780D01*
X140112866Y-88982590D01*
X140189057Y-88906400D01*
X140303342Y-88868304D01*
X140379533Y-88868304D01*
X140493819Y-88906400D01*
X140531914Y-88944495D01*
X141293819Y-89668304D02*
X140836676Y-89668304D01*
X141065247Y-89668304D02*
X141065247Y-88868304D01*
X140989057Y-88982590D01*
X140912866Y-89058780D01*
X140836676Y-89096876D01*
X141598580Y-88944495D02*
X141636676Y-88906400D01*
X141712866Y-88868304D01*
X141903342Y-88868304D01*
X141979533Y-88906400D01*
X142017628Y-88944495D01*
X142055723Y-89020685D01*
X142055723Y-89096876D01*
X142017628Y-89211161D01*
X141560485Y-89668304D01*
X142055723Y-89668304D01*
X140506514Y-87026714D02*
X140468419Y-87064809D01*
X140354133Y-87102904D01*
X140277942Y-87102904D01*
X140163657Y-87064809D01*
X140087466Y-86988619D01*
X140049371Y-86912428D01*
X140011276Y-86760047D01*
X140011276Y-86645761D01*
X140049371Y-86493380D01*
X140087466Y-86417190D01*
X140163657Y-86341000D01*
X140277942Y-86302904D01*
X140354133Y-86302904D01*
X140468419Y-86341000D01*
X140506514Y-86379095D01*
X141268419Y-87102904D02*
X140811276Y-87102904D01*
X141039847Y-87102904D02*
X141039847Y-86302904D01*
X140963657Y-86417190D01*
X140887466Y-86493380D01*
X140811276Y-86531476D01*
X142030323Y-87102904D02*
X141573180Y-87102904D01*
X141801752Y-87102904D02*
X141801752Y-86302904D01*
X141725561Y-86417190D01*
X141649371Y-86493380D01*
X141573180Y-86531476D01*
X116706666Y-84740714D02*
X116668571Y-84778809D01*
X116554285Y-84816904D01*
X116478095Y-84816904D01*
X116363809Y-84778809D01*
X116287619Y-84702619D01*
X116249523Y-84626428D01*
X116211428Y-84474047D01*
X116211428Y-84359761D01*
X116249523Y-84207380D01*
X116287619Y-84131190D01*
X116363809Y-84055000D01*
X116478095Y-84016904D01*
X116554285Y-84016904D01*
X116668571Y-84055000D01*
X116706666Y-84093095D01*
X117163809Y-84359761D02*
X117087619Y-84321666D01*
X117049523Y-84283571D01*
X117011428Y-84207380D01*
X117011428Y-84169285D01*
X117049523Y-84093095D01*
X117087619Y-84055000D01*
X117163809Y-84016904D01*
X117316190Y-84016904D01*
X117392380Y-84055000D01*
X117430476Y-84093095D01*
X117468571Y-84169285D01*
X117468571Y-84207380D01*
X117430476Y-84283571D01*
X117392380Y-84321666D01*
X117316190Y-84359761D01*
X117163809Y-84359761D01*
X117087619Y-84397857D01*
X117049523Y-84435952D01*
X117011428Y-84512142D01*
X117011428Y-84664523D01*
X117049523Y-84740714D01*
X117087619Y-84778809D01*
X117163809Y-84816904D01*
X117316190Y-84816904D01*
X117392380Y-84778809D01*
X117430476Y-84740714D01*
X117468571Y-84664523D01*
X117468571Y-84512142D01*
X117430476Y-84435952D01*
X117392380Y-84397857D01*
X117316190Y-84359761D01*
X116706666Y-82200714D02*
X116668571Y-82238809D01*
X116554285Y-82276904D01*
X116478095Y-82276904D01*
X116363809Y-82238809D01*
X116287619Y-82162619D01*
X116249523Y-82086428D01*
X116211428Y-81934047D01*
X116211428Y-81819761D01*
X116249523Y-81667380D01*
X116287619Y-81591190D01*
X116363809Y-81515000D01*
X116478095Y-81476904D01*
X116554285Y-81476904D01*
X116668571Y-81515000D01*
X116706666Y-81553095D01*
X116973333Y-81476904D02*
X117506666Y-81476904D01*
X117163809Y-82276904D01*
X116706666Y-79660714D02*
X116668571Y-79698809D01*
X116554285Y-79736904D01*
X116478095Y-79736904D01*
X116363809Y-79698809D01*
X116287619Y-79622619D01*
X116249523Y-79546428D01*
X116211428Y-79394047D01*
X116211428Y-79279761D01*
X116249523Y-79127380D01*
X116287619Y-79051190D01*
X116363809Y-78975000D01*
X116478095Y-78936904D01*
X116554285Y-78936904D01*
X116668571Y-78975000D01*
X116706666Y-79013095D01*
X117392380Y-78936904D02*
X117240000Y-78936904D01*
X117163809Y-78975000D01*
X117125714Y-79013095D01*
X117049523Y-79127380D01*
X117011428Y-79279761D01*
X117011428Y-79584523D01*
X117049523Y-79660714D01*
X117087619Y-79698809D01*
X117163809Y-79736904D01*
X117316190Y-79736904D01*
X117392380Y-79698809D01*
X117430476Y-79660714D01*
X117468571Y-79584523D01*
X117468571Y-79394047D01*
X117430476Y-79317857D01*
X117392380Y-79279761D01*
X117316190Y-79241666D01*
X117163809Y-79241666D01*
X117087619Y-79279761D01*
X117049523Y-79317857D01*
X117011428Y-79394047D01*
X129635266Y-79686114D02*
X129597171Y-79724209D01*
X129482885Y-79762304D01*
X129406695Y-79762304D01*
X129292409Y-79724209D01*
X129216219Y-79648019D01*
X129178123Y-79571828D01*
X129140028Y-79419447D01*
X129140028Y-79305161D01*
X129178123Y-79152780D01*
X129216219Y-79076590D01*
X129292409Y-79000400D01*
X129406695Y-78962304D01*
X129482885Y-78962304D01*
X129597171Y-79000400D01*
X129635266Y-79038495D01*
X130359076Y-78962304D02*
X129978123Y-78962304D01*
X129940028Y-79343257D01*
X129978123Y-79305161D01*
X130054314Y-79267066D01*
X130244790Y-79267066D01*
X130320980Y-79305161D01*
X130359076Y-79343257D01*
X130397171Y-79419447D01*
X130397171Y-79609923D01*
X130359076Y-79686114D01*
X130320980Y-79724209D01*
X130244790Y-79762304D01*
X130054314Y-79762304D01*
X129978123Y-79724209D01*
X129940028Y-79686114D01*
X129584466Y-82200714D02*
X129546371Y-82238809D01*
X129432085Y-82276904D01*
X129355895Y-82276904D01*
X129241609Y-82238809D01*
X129165419Y-82162619D01*
X129127323Y-82086428D01*
X129089228Y-81934047D01*
X129089228Y-81819761D01*
X129127323Y-81667380D01*
X129165419Y-81591190D01*
X129241609Y-81515000D01*
X129355895Y-81476904D01*
X129432085Y-81476904D01*
X129546371Y-81515000D01*
X129584466Y-81553095D01*
X129851133Y-81476904D02*
X130346371Y-81476904D01*
X130079704Y-81781666D01*
X130193990Y-81781666D01*
X130270180Y-81819761D01*
X130308276Y-81857857D01*
X130346371Y-81934047D01*
X130346371Y-82124523D01*
X130308276Y-82200714D01*
X130270180Y-82238809D01*
X130193990Y-82276904D01*
X129965419Y-82276904D01*
X129889228Y-82238809D01*
X129851133Y-82200714D01*
X129635266Y-84715314D02*
X129597171Y-84753409D01*
X129482885Y-84791504D01*
X129406695Y-84791504D01*
X129292409Y-84753409D01*
X129216219Y-84677219D01*
X129178123Y-84601028D01*
X129140028Y-84448647D01*
X129140028Y-84334361D01*
X129178123Y-84181980D01*
X129216219Y-84105790D01*
X129292409Y-84029600D01*
X129406695Y-83991504D01*
X129482885Y-83991504D01*
X129597171Y-84029600D01*
X129635266Y-84067695D01*
X129940028Y-84067695D02*
X129978123Y-84029600D01*
X130054314Y-83991504D01*
X130244790Y-83991504D01*
X130320980Y-84029600D01*
X130359076Y-84067695D01*
X130397171Y-84143885D01*
X130397171Y-84220076D01*
X130359076Y-84334361D01*
X129901933Y-84791504D01*
X130397171Y-84791504D01*
X140608066Y-81794314D02*
X140569971Y-81832409D01*
X140455685Y-81870504D01*
X140379495Y-81870504D01*
X140265209Y-81832409D01*
X140189019Y-81756219D01*
X140150923Y-81680028D01*
X140112828Y-81527647D01*
X140112828Y-81413361D01*
X140150923Y-81260980D01*
X140189019Y-81184790D01*
X140265209Y-81108600D01*
X140379495Y-81070504D01*
X140455685Y-81070504D01*
X140569971Y-81108600D01*
X140608066Y-81146695D01*
X141369971Y-81870504D02*
X140912828Y-81870504D01*
X141141400Y-81870504D02*
X141141400Y-81070504D01*
X141065209Y-81184790D01*
X140989019Y-81260980D01*
X140912828Y-81299076D01*
X164077714Y-113264904D02*
X163811047Y-112883952D01*
X163620571Y-113264904D02*
X163620571Y-112464904D01*
X163925333Y-112464904D01*
X164001523Y-112503000D01*
X164039619Y-112541095D01*
X164077714Y-112617285D01*
X164077714Y-112731571D01*
X164039619Y-112807761D01*
X164001523Y-112845857D01*
X163925333Y-112883952D01*
X163620571Y-112883952D01*
X164382476Y-112541095D02*
X164420571Y-112503000D01*
X164496761Y-112464904D01*
X164687238Y-112464904D01*
X164763428Y-112503000D01*
X164801523Y-112541095D01*
X164839619Y-112617285D01*
X164839619Y-112693476D01*
X164801523Y-112807761D01*
X164344380Y-113264904D01*
X164839619Y-113264904D01*
X165601523Y-113264904D02*
X165144380Y-113264904D01*
X165372952Y-113264904D02*
X165372952Y-112464904D01*
X165296761Y-112579190D01*
X165220571Y-112655380D01*
X165144380Y-112693476D01*
X153409666Y-112553714D02*
X153371571Y-112591809D01*
X153257285Y-112629904D01*
X153181095Y-112629904D01*
X153066809Y-112591809D01*
X152990619Y-112515619D01*
X152952523Y-112439428D01*
X152914428Y-112287047D01*
X152914428Y-112172761D01*
X152952523Y-112020380D01*
X152990619Y-111944190D01*
X153066809Y-111868000D01*
X153181095Y-111829904D01*
X153257285Y-111829904D01*
X153371571Y-111868000D01*
X153409666Y-111906095D01*
X153790619Y-112629904D02*
X153943000Y-112629904D01*
X154019190Y-112591809D01*
X154057285Y-112553714D01*
X154133476Y-112439428D01*
X154171571Y-112287047D01*
X154171571Y-111982285D01*
X154133476Y-111906095D01*
X154095380Y-111868000D01*
X154019190Y-111829904D01*
X153866809Y-111829904D01*
X153790619Y-111868000D01*
X153752523Y-111906095D01*
X153714428Y-111982285D01*
X153714428Y-112172761D01*
X153752523Y-112248952D01*
X153790619Y-112287047D01*
X153866809Y-112325142D01*
X154019190Y-112325142D01*
X154095380Y-112287047D01*
X154133476Y-112248952D01*
X154171571Y-112172761D01*
X128517714Y-60559904D02*
X128251047Y-60178952D01*
X128060571Y-60559904D02*
X128060571Y-59759904D01*
X128365333Y-59759904D01*
X128441523Y-59798000D01*
X128479619Y-59836095D01*
X128517714Y-59912285D01*
X128517714Y-60026571D01*
X128479619Y-60102761D01*
X128441523Y-60140857D01*
X128365333Y-60178952D01*
X128060571Y-60178952D01*
X128822476Y-59836095D02*
X128860571Y-59798000D01*
X128936761Y-59759904D01*
X129127238Y-59759904D01*
X129203428Y-59798000D01*
X129241523Y-59836095D01*
X129279619Y-59912285D01*
X129279619Y-59988476D01*
X129241523Y-60102761D01*
X128784380Y-60559904D01*
X129279619Y-60559904D01*
X129774857Y-59759904D02*
X129851047Y-59759904D01*
X129927238Y-59798000D01*
X129965333Y-59836095D01*
X130003428Y-59912285D01*
X130041523Y-60064666D01*
X130041523Y-60255142D01*
X130003428Y-60407523D01*
X129965333Y-60483714D01*
X129927238Y-60521809D01*
X129851047Y-60559904D01*
X129774857Y-60559904D01*
X129698666Y-60521809D01*
X129660571Y-60483714D01*
X129622476Y-60407523D01*
X129584380Y-60255142D01*
X129584380Y-60064666D01*
X129622476Y-59912285D01*
X129660571Y-59836095D01*
X129698666Y-59798000D01*
X129774857Y-59759904D01*
X153371566Y-68306904D02*
X153104900Y-67925952D01*
X152914423Y-68306904D02*
X152914423Y-67506904D01*
X153219185Y-67506904D01*
X153295376Y-67545000D01*
X153333471Y-67583095D01*
X153371566Y-67659285D01*
X153371566Y-67773571D01*
X153333471Y-67849761D01*
X153295376Y-67887857D01*
X153219185Y-67925952D01*
X152914423Y-67925952D01*
X154057280Y-67506904D02*
X153904900Y-67506904D01*
X153828709Y-67545000D01*
X153790614Y-67583095D01*
X153714423Y-67697380D01*
X153676328Y-67849761D01*
X153676328Y-68154523D01*
X153714423Y-68230714D01*
X153752519Y-68268809D01*
X153828709Y-68306904D01*
X153981090Y-68306904D01*
X154057280Y-68268809D01*
X154095376Y-68230714D01*
X154133471Y-68154523D01*
X154133471Y-67964047D01*
X154095376Y-67887857D01*
X154057280Y-67849761D01*
X153981090Y-67811666D01*
X153828709Y-67811666D01*
X153752519Y-67849761D01*
X153714423Y-67887857D01*
X153676328Y-67964047D01*
X151066666Y-51761904D02*
X150800000Y-51380952D01*
X150609523Y-51761904D02*
X150609523Y-50961904D01*
X150914285Y-50961904D01*
X150990476Y-51000000D01*
X151028571Y-51038095D01*
X151066666Y-51114285D01*
X151066666Y-51228571D01*
X151028571Y-51304761D01*
X150990476Y-51342857D01*
X150914285Y-51380952D01*
X150609523Y-51380952D01*
X151790476Y-50961904D02*
X151409523Y-50961904D01*
X151371428Y-51342857D01*
X151409523Y-51304761D01*
X151485714Y-51266666D01*
X151676190Y-51266666D01*
X151752380Y-51304761D01*
X151790476Y-51342857D01*
X151828571Y-51419047D01*
X151828571Y-51609523D01*
X151790476Y-51685714D01*
X151752380Y-51723809D01*
X151676190Y-51761904D01*
X151485714Y-51761904D01*
X151409523Y-51723809D01*
X151371428Y-51685714D01*
X128695523Y-63099904D02*
X128695523Y-62299904D01*
X128886000Y-62299904D01*
X129000285Y-62338000D01*
X129076476Y-62414190D01*
X129114571Y-62490380D01*
X129152666Y-62642761D01*
X129152666Y-62757047D01*
X129114571Y-62909428D01*
X129076476Y-62985619D01*
X129000285Y-63061809D01*
X128886000Y-63099904D01*
X128695523Y-63099904D01*
X129838380Y-62566571D02*
X129838380Y-63099904D01*
X129647904Y-62261809D02*
X129457428Y-62833238D01*
X129952666Y-62833238D01*
X151301523Y-76561904D02*
X151301523Y-75761904D01*
X151492000Y-75761904D01*
X151606285Y-75800000D01*
X151682476Y-75876190D01*
X151720571Y-75952380D01*
X151758666Y-76104761D01*
X151758666Y-76219047D01*
X151720571Y-76371428D01*
X151682476Y-76447619D01*
X151606285Y-76523809D01*
X151492000Y-76561904D01*
X151301523Y-76561904D01*
X152025333Y-75761904D02*
X152520571Y-75761904D01*
X152253904Y-76066666D01*
X152368190Y-76066666D01*
X152444380Y-76104761D01*
X152482476Y-76142857D01*
X152520571Y-76219047D01*
X152520571Y-76409523D01*
X152482476Y-76485714D01*
X152444380Y-76523809D01*
X152368190Y-76561904D01*
X152139619Y-76561904D01*
X152063428Y-76523809D01*
X152025333Y-76485714D01*
X150709523Y-48861904D02*
X150709523Y-48061904D01*
X150900000Y-48061904D01*
X151014285Y-48100000D01*
X151090476Y-48176190D01*
X151128571Y-48252380D01*
X151166666Y-48404761D01*
X151166666Y-48519047D01*
X151128571Y-48671428D01*
X151090476Y-48747619D01*
X151014285Y-48823809D01*
X150900000Y-48861904D01*
X150709523Y-48861904D01*
X151471428Y-48138095D02*
X151509523Y-48100000D01*
X151585714Y-48061904D01*
X151776190Y-48061904D01*
X151852380Y-48100000D01*
X151890476Y-48138095D01*
X151928571Y-48214285D01*
X151928571Y-48290476D01*
X151890476Y-48404761D01*
X151433333Y-48861904D01*
X151928571Y-48861904D01*
X142646476Y-63315904D02*
X142646476Y-63963523D01*
X142684571Y-64039714D01*
X142722666Y-64077809D01*
X142798857Y-64115904D01*
X142951238Y-64115904D01*
X143027428Y-64077809D01*
X143065523Y-64039714D01*
X143103619Y-63963523D01*
X143103619Y-63315904D01*
X143903619Y-64115904D02*
X143446476Y-64115904D01*
X143675047Y-64115904D02*
X143675047Y-63315904D01*
X143598857Y-63430190D01*
X143522666Y-63506380D01*
X143446476Y-63544476D01*
X201942833Y-138918904D02*
X201676166Y-138537952D01*
X201485690Y-138918904D02*
X201485690Y-138118904D01*
X201790452Y-138118904D01*
X201866642Y-138157000D01*
X201904738Y-138195095D01*
X201942833Y-138271285D01*
X201942833Y-138385571D01*
X201904738Y-138461761D01*
X201866642Y-138499857D01*
X201790452Y-138537952D01*
X201485690Y-138537952D01*
X202285690Y-138499857D02*
X202552357Y-138499857D01*
X202666642Y-138918904D02*
X202285690Y-138918904D01*
X202285690Y-138118904D01*
X202666642Y-138118904D01*
X203276166Y-138499857D02*
X203009500Y-138499857D01*
X203009500Y-138918904D02*
X203009500Y-138118904D01*
X203390452Y-138118904D01*
X203809500Y-138118904D02*
X203809500Y-138309380D01*
X203619023Y-138233190D02*
X203809500Y-138309380D01*
X203999976Y-138233190D01*
X203695214Y-138461761D02*
X203809500Y-138309380D01*
X203923785Y-138461761D01*
X204419023Y-138118904D02*
X204419023Y-138309380D01*
X204228547Y-138233190D02*
X204419023Y-138309380D01*
X204609500Y-138233190D01*
X204304738Y-138461761D02*
X204419023Y-138309380D01*
X204533309Y-138461761D01*
X101930333Y-136569404D02*
X101663666Y-136188452D01*
X101473190Y-136569404D02*
X101473190Y-135769404D01*
X101777952Y-135769404D01*
X101854142Y-135807500D01*
X101892238Y-135845595D01*
X101930333Y-135921785D01*
X101930333Y-136036071D01*
X101892238Y-136112261D01*
X101854142Y-136150357D01*
X101777952Y-136188452D01*
X101473190Y-136188452D01*
X102273190Y-136150357D02*
X102539857Y-136150357D01*
X102654142Y-136569404D02*
X102273190Y-136569404D01*
X102273190Y-135769404D01*
X102654142Y-135769404D01*
X103263666Y-136150357D02*
X102997000Y-136150357D01*
X102997000Y-136569404D02*
X102997000Y-135769404D01*
X103377952Y-135769404D01*
X103797000Y-135769404D02*
X103797000Y-135959880D01*
X103606523Y-135883690D02*
X103797000Y-135959880D01*
X103987476Y-135883690D01*
X103682714Y-136112261D02*
X103797000Y-135959880D01*
X103911285Y-136112261D01*
X104406523Y-135769404D02*
X104406523Y-135959880D01*
X104216047Y-135883690D02*
X104406523Y-135959880D01*
X104597000Y-135883690D01*
X104292238Y-136112261D02*
X104406523Y-135959880D01*
X104520809Y-136112261D01*
X101866833Y-41509904D02*
X101600166Y-41128952D01*
X101409690Y-41509904D02*
X101409690Y-40709904D01*
X101714452Y-40709904D01*
X101790642Y-40748000D01*
X101828738Y-40786095D01*
X101866833Y-40862285D01*
X101866833Y-40976571D01*
X101828738Y-41052761D01*
X101790642Y-41090857D01*
X101714452Y-41128952D01*
X101409690Y-41128952D01*
X102209690Y-41090857D02*
X102476357Y-41090857D01*
X102590642Y-41509904D02*
X102209690Y-41509904D01*
X102209690Y-40709904D01*
X102590642Y-40709904D01*
X103200166Y-41090857D02*
X102933500Y-41090857D01*
X102933500Y-41509904D02*
X102933500Y-40709904D01*
X103314452Y-40709904D01*
X103733500Y-40709904D02*
X103733500Y-40900380D01*
X103543023Y-40824190D02*
X103733500Y-40900380D01*
X103923976Y-40824190D01*
X103619214Y-41052761D02*
X103733500Y-40900380D01*
X103847785Y-41052761D01*
X104343023Y-40709904D02*
X104343023Y-40900380D01*
X104152547Y-40824190D02*
X104343023Y-40900380D01*
X104533500Y-40824190D01*
X104228738Y-41052761D02*
X104343023Y-40900380D01*
X104457309Y-41052761D01*
X201117333Y-39223904D02*
X200850666Y-38842952D01*
X200660190Y-39223904D02*
X200660190Y-38423904D01*
X200964952Y-38423904D01*
X201041142Y-38462000D01*
X201079238Y-38500095D01*
X201117333Y-38576285D01*
X201117333Y-38690571D01*
X201079238Y-38766761D01*
X201041142Y-38804857D01*
X200964952Y-38842952D01*
X200660190Y-38842952D01*
X201460190Y-38804857D02*
X201726857Y-38804857D01*
X201841142Y-39223904D02*
X201460190Y-39223904D01*
X201460190Y-38423904D01*
X201841142Y-38423904D01*
X202450666Y-38804857D02*
X202184000Y-38804857D01*
X202184000Y-39223904D02*
X202184000Y-38423904D01*
X202564952Y-38423904D01*
X202984000Y-38423904D02*
X202984000Y-38614380D01*
X202793523Y-38538190D02*
X202984000Y-38614380D01*
X203174476Y-38538190D01*
X202869714Y-38766761D02*
X202984000Y-38614380D01*
X203098285Y-38766761D01*
X203593523Y-38423904D02*
X203593523Y-38614380D01*
X203403047Y-38538190D02*
X203593523Y-38614380D01*
X203784000Y-38538190D01*
X203479238Y-38766761D02*
X203593523Y-38614380D01*
X203707809Y-38766761D01*
X193033666Y-114238904D02*
X192767000Y-113857952D01*
X192576523Y-114238904D02*
X192576523Y-113438904D01*
X192881285Y-113438904D01*
X192957476Y-113477000D01*
X192995571Y-113515095D01*
X193033666Y-113591285D01*
X193033666Y-113705571D01*
X192995571Y-113781761D01*
X192957476Y-113819857D01*
X192881285Y-113857952D01*
X192576523Y-113857952D01*
X193719380Y-113705571D02*
X193719380Y-114238904D01*
X193528904Y-113400809D02*
X193338428Y-113972238D01*
X193833666Y-113972238D01*
X166185904Y-125996666D02*
X166757333Y-125996666D01*
X166871619Y-126034761D01*
X166947809Y-126110952D01*
X166985904Y-126225238D01*
X166985904Y-126301428D01*
X166185904Y-125691904D02*
X166185904Y-125196666D01*
X166490666Y-125463333D01*
X166490666Y-125349047D01*
X166528761Y-125272857D01*
X166566857Y-125234761D01*
X166643047Y-125196666D01*
X166833523Y-125196666D01*
X166909714Y-125234761D01*
X166947809Y-125272857D01*
X166985904Y-125349047D01*
X166985904Y-125577619D01*
X166947809Y-125653809D01*
X166909714Y-125691904D01*
X199523523Y-91382904D02*
X199980666Y-91382904D01*
X199752095Y-92182904D02*
X199752095Y-91382904D01*
X200247333Y-92182904D02*
X200247333Y-91382904D01*
X200552095Y-91382904D01*
X200628285Y-91421000D01*
X200666380Y-91459095D01*
X200704476Y-91535285D01*
X200704476Y-91649571D01*
X200666380Y-91725761D01*
X200628285Y-91763857D01*
X200552095Y-91801952D01*
X200247333Y-91801952D01*
X201466380Y-92182904D02*
X201009238Y-92182904D01*
X201237809Y-92182904D02*
X201237809Y-91382904D01*
X201161619Y-91497190D01*
X201085428Y-91573380D01*
X201009238Y-91611476D01*
X202228285Y-92182904D02*
X201771142Y-92182904D01*
X201999714Y-92182904D02*
X201999714Y-91382904D01*
X201923523Y-91497190D01*
X201847333Y-91573380D01*
X201771142Y-91611476D01*
X200158476Y-81476904D02*
X200615619Y-81476904D01*
X200387047Y-82276904D02*
X200387047Y-81476904D01*
X200882285Y-82276904D02*
X200882285Y-81476904D01*
X201187047Y-81476904D01*
X201263238Y-81515000D01*
X201301333Y-81553095D01*
X201339428Y-81629285D01*
X201339428Y-81743571D01*
X201301333Y-81819761D01*
X201263238Y-81857857D01*
X201187047Y-81895952D01*
X200882285Y-81895952D01*
X201720380Y-82276904D02*
X201872761Y-82276904D01*
X201948952Y-82238809D01*
X201987047Y-82200714D01*
X202063238Y-82086428D01*
X202101333Y-81934047D01*
X202101333Y-81629285D01*
X202063238Y-81553095D01*
X202025142Y-81515000D01*
X201948952Y-81476904D01*
X201796571Y-81476904D01*
X201720380Y-81515000D01*
X201682285Y-81553095D01*
X201644190Y-81629285D01*
X201644190Y-81819761D01*
X201682285Y-81895952D01*
X201720380Y-81934047D01*
X201796571Y-81972142D01*
X201948952Y-81972142D01*
X202025142Y-81934047D01*
X202063238Y-81895952D01*
X202101333Y-81819761D01*
X157740476Y-87064904D02*
X158197619Y-87064904D01*
X157969047Y-87864904D02*
X157969047Y-87064904D01*
X158464285Y-87864904D02*
X158464285Y-87064904D01*
X158769047Y-87064904D01*
X158845238Y-87103000D01*
X158883333Y-87141095D01*
X158921428Y-87217285D01*
X158921428Y-87331571D01*
X158883333Y-87407761D01*
X158845238Y-87445857D01*
X158769047Y-87483952D01*
X158464285Y-87483952D01*
X159378571Y-87407761D02*
X159302380Y-87369666D01*
X159264285Y-87331571D01*
X159226190Y-87255380D01*
X159226190Y-87217285D01*
X159264285Y-87141095D01*
X159302380Y-87103000D01*
X159378571Y-87064904D01*
X159530952Y-87064904D01*
X159607142Y-87103000D01*
X159645238Y-87141095D01*
X159683333Y-87217285D01*
X159683333Y-87255380D01*
X159645238Y-87331571D01*
X159607142Y-87369666D01*
X159530952Y-87407761D01*
X159378571Y-87407761D01*
X159302380Y-87445857D01*
X159264285Y-87483952D01*
X159226190Y-87560142D01*
X159226190Y-87712523D01*
X159264285Y-87788714D01*
X159302380Y-87826809D01*
X159378571Y-87864904D01*
X159530952Y-87864904D01*
X159607142Y-87826809D01*
X159645238Y-87788714D01*
X159683333Y-87712523D01*
X159683333Y-87560142D01*
X159645238Y-87483952D01*
X159607142Y-87445857D01*
X159530952Y-87407761D01*
X150374476Y-96589904D02*
X150831619Y-96589904D01*
X150603047Y-97389904D02*
X150603047Y-96589904D01*
X151098285Y-97389904D02*
X151098285Y-96589904D01*
X151403047Y-96589904D01*
X151479238Y-96628000D01*
X151517333Y-96666095D01*
X151555428Y-96742285D01*
X151555428Y-96856571D01*
X151517333Y-96932761D01*
X151479238Y-96970857D01*
X151403047Y-97008952D01*
X151098285Y-97008952D01*
X151822095Y-96589904D02*
X152355428Y-96589904D01*
X152012571Y-97389904D01*
X147453476Y-107384904D02*
X147910619Y-107384904D01*
X147682047Y-108184904D02*
X147682047Y-107384904D01*
X148177285Y-108184904D02*
X148177285Y-107384904D01*
X148482047Y-107384904D01*
X148558238Y-107423000D01*
X148596333Y-107461095D01*
X148634428Y-107537285D01*
X148634428Y-107651571D01*
X148596333Y-107727761D01*
X148558238Y-107765857D01*
X148482047Y-107803952D01*
X148177285Y-107803952D01*
X149320142Y-107384904D02*
X149167761Y-107384904D01*
X149091571Y-107423000D01*
X149053476Y-107461095D01*
X148977285Y-107575380D01*
X148939190Y-107727761D01*
X148939190Y-108032523D01*
X148977285Y-108108714D01*
X149015380Y-108146809D01*
X149091571Y-108184904D01*
X149243952Y-108184904D01*
X149320142Y-108146809D01*
X149358238Y-108108714D01*
X149396333Y-108032523D01*
X149396333Y-107842047D01*
X149358238Y-107765857D01*
X149320142Y-107727761D01*
X149243952Y-107689666D01*
X149091571Y-107689666D01*
X149015380Y-107727761D01*
X148977285Y-107765857D01*
X148939190Y-107842047D01*
X146907376Y-89223904D02*
X147364519Y-89223904D01*
X147135947Y-90023904D02*
X147135947Y-89223904D01*
X147631185Y-90023904D02*
X147631185Y-89223904D01*
X147935947Y-89223904D01*
X148012138Y-89262000D01*
X148050233Y-89300095D01*
X148088328Y-89376285D01*
X148088328Y-89490571D01*
X148050233Y-89566761D01*
X148012138Y-89604857D01*
X147935947Y-89642952D01*
X147631185Y-89642952D01*
X148812138Y-89223904D02*
X148431185Y-89223904D01*
X148393090Y-89604857D01*
X148431185Y-89566761D01*
X148507376Y-89528666D01*
X148697852Y-89528666D01*
X148774042Y-89566761D01*
X148812138Y-89604857D01*
X148850233Y-89681047D01*
X148850233Y-89871523D01*
X148812138Y-89947714D01*
X148774042Y-89985809D01*
X148697852Y-90023904D01*
X148507376Y-90023904D01*
X148431185Y-89985809D01*
X148393090Y-89947714D01*
X123513976Y-60902904D02*
X123971119Y-60902904D01*
X123742547Y-61702904D02*
X123742547Y-60902904D01*
X124237785Y-61702904D02*
X124237785Y-60902904D01*
X124542547Y-60902904D01*
X124618738Y-60941000D01*
X124656833Y-60979095D01*
X124694928Y-61055285D01*
X124694928Y-61169571D01*
X124656833Y-61245761D01*
X124618738Y-61283857D01*
X124542547Y-61321952D01*
X124237785Y-61321952D01*
X125380642Y-61169571D02*
X125380642Y-61702904D01*
X125190166Y-60864809D02*
X124999690Y-61436238D01*
X125494928Y-61436238D01*
X140138276Y-66783004D02*
X140595419Y-66783004D01*
X140366847Y-67583004D02*
X140366847Y-66783004D01*
X140862085Y-67583004D02*
X140862085Y-66783004D01*
X141166847Y-66783004D01*
X141243038Y-66821100D01*
X141281133Y-66859195D01*
X141319228Y-66935385D01*
X141319228Y-67049671D01*
X141281133Y-67125861D01*
X141243038Y-67163957D01*
X141166847Y-67202052D01*
X140862085Y-67202052D01*
X141585895Y-66783004D02*
X142081133Y-66783004D01*
X141814466Y-67087766D01*
X141928752Y-67087766D01*
X142004942Y-67125861D01*
X142043038Y-67163957D01*
X142081133Y-67240147D01*
X142081133Y-67430623D01*
X142043038Y-67506814D01*
X142004942Y-67544909D01*
X141928752Y-67583004D01*
X141700180Y-67583004D01*
X141623990Y-67544909D01*
X141585895Y-67506814D01*
X170948476Y-68268904D02*
X171405619Y-68268904D01*
X171177047Y-69068904D02*
X171177047Y-68268904D01*
X171672285Y-69068904D02*
X171672285Y-68268904D01*
X171977047Y-68268904D01*
X172053238Y-68307000D01*
X172091333Y-68345095D01*
X172129428Y-68421285D01*
X172129428Y-68535571D01*
X172091333Y-68611761D01*
X172053238Y-68649857D01*
X171977047Y-68687952D01*
X171672285Y-68687952D01*
X172434190Y-68345095D02*
X172472285Y-68307000D01*
X172548476Y-68268904D01*
X172738952Y-68268904D01*
X172815142Y-68307000D01*
X172853238Y-68345095D01*
X172891333Y-68421285D01*
X172891333Y-68497476D01*
X172853238Y-68611761D01*
X172396095Y-69068904D01*
X172891333Y-69068904D01*
X140912866Y-51593714D02*
X140874771Y-51631809D01*
X140760485Y-51669904D01*
X140684295Y-51669904D01*
X140570009Y-51631809D01*
X140493819Y-51555619D01*
X140455723Y-51479428D01*
X140417628Y-51327047D01*
X140417628Y-51212761D01*
X140455723Y-51060380D01*
X140493819Y-50984190D01*
X140570009Y-50908000D01*
X140684295Y-50869904D01*
X140760485Y-50869904D01*
X140874771Y-50908000D01*
X140912866Y-50946095D01*
X141598580Y-51136571D02*
X141598580Y-51669904D01*
X141408104Y-50831809D02*
X141217628Y-51403238D01*
X141712866Y-51403238D01*
X126612714Y-51390514D02*
X126574619Y-51428609D01*
X126460333Y-51466704D01*
X126384142Y-51466704D01*
X126269857Y-51428609D01*
X126193666Y-51352419D01*
X126155571Y-51276228D01*
X126117476Y-51123847D01*
X126117476Y-51009561D01*
X126155571Y-50857180D01*
X126193666Y-50780990D01*
X126269857Y-50704800D01*
X126384142Y-50666704D01*
X126460333Y-50666704D01*
X126574619Y-50704800D01*
X126612714Y-50742895D01*
X127374619Y-51466704D02*
X126917476Y-51466704D01*
X127146047Y-51466704D02*
X127146047Y-50666704D01*
X127069857Y-50780990D01*
X126993666Y-50857180D01*
X126917476Y-50895276D01*
X127869857Y-50666704D02*
X127946047Y-50666704D01*
X128022238Y-50704800D01*
X128060333Y-50742895D01*
X128098428Y-50819085D01*
X128136523Y-50971466D01*
X128136523Y-51161942D01*
X128098428Y-51314323D01*
X128060333Y-51390514D01*
X128022238Y-51428609D01*
X127946047Y-51466704D01*
X127869857Y-51466704D01*
X127793666Y-51428609D01*
X127755571Y-51390514D01*
X127717476Y-51314323D01*
X127679380Y-51161942D01*
X127679380Y-50971466D01*
X127717476Y-50819085D01*
X127755571Y-50742895D01*
X127793666Y-50704800D01*
X127869857Y-50666704D01*
X183940523Y-54273404D02*
X183940523Y-53473404D01*
X184131000Y-53473404D01*
X184245285Y-53511500D01*
X184321476Y-53587690D01*
X184359571Y-53663880D01*
X184397666Y-53816261D01*
X184397666Y-53930547D01*
X184359571Y-54082928D01*
X184321476Y-54159119D01*
X184245285Y-54235309D01*
X184131000Y-54273404D01*
X183940523Y-54273404D01*
X185159571Y-54273404D02*
X184702428Y-54273404D01*
X184931000Y-54273404D02*
X184931000Y-53473404D01*
X184854809Y-53587690D01*
X184778619Y-53663880D01*
X184702428Y-53701976D01*
X187985523Y-81349904D02*
X187985523Y-81997523D01*
X188023619Y-82073714D01*
X188061714Y-82111809D01*
X188137904Y-82149904D01*
X188290285Y-82149904D01*
X188366476Y-82111809D01*
X188404571Y-82073714D01*
X188442666Y-81997523D01*
X188442666Y-81349904D01*
X189242666Y-82149904D02*
X188785523Y-82149904D01*
X189014095Y-82149904D02*
X189014095Y-81349904D01*
X188937904Y-81464190D01*
X188861714Y-81540380D01*
X188785523Y-81578476D01*
X189509333Y-81349904D02*
X190004571Y-81349904D01*
X189737904Y-81654666D01*
X189852190Y-81654666D01*
X189928380Y-81692761D01*
X189966476Y-81730857D01*
X190004571Y-81807047D01*
X190004571Y-81997523D01*
X189966476Y-82073714D01*
X189928380Y-82111809D01*
X189852190Y-82149904D01*
X189623619Y-82149904D01*
X189547428Y-82111809D01*
X189509333Y-82073714D01*
X158775523Y-103701904D02*
X158775523Y-104349523D01*
X158813619Y-104425714D01*
X158851714Y-104463809D01*
X158927904Y-104501904D01*
X159080285Y-104501904D01*
X159156476Y-104463809D01*
X159194571Y-104425714D01*
X159232666Y-104349523D01*
X159232666Y-103701904D01*
X160032666Y-104501904D02*
X159575523Y-104501904D01*
X159804095Y-104501904D02*
X159804095Y-103701904D01*
X159727904Y-103816190D01*
X159651714Y-103892380D01*
X159575523Y-103930476D01*
X160337428Y-103778095D02*
X160375523Y-103740000D01*
X160451714Y-103701904D01*
X160642190Y-103701904D01*
X160718380Y-103740000D01*
X160756476Y-103778095D01*
X160794571Y-103854285D01*
X160794571Y-103930476D01*
X160756476Y-104044761D01*
X160299333Y-104501904D01*
X160794571Y-104501904D01*
X118526904Y-94589523D02*
X119174523Y-94589523D01*
X119250714Y-94551428D01*
X119288809Y-94513333D01*
X119326904Y-94437142D01*
X119326904Y-94284761D01*
X119288809Y-94208571D01*
X119250714Y-94170476D01*
X119174523Y-94132380D01*
X118526904Y-94132380D01*
X118526904Y-93408571D02*
X118526904Y-93560952D01*
X118565000Y-93637142D01*
X118603095Y-93675238D01*
X118717380Y-93751428D01*
X118869761Y-93789523D01*
X119174523Y-93789523D01*
X119250714Y-93751428D01*
X119288809Y-93713333D01*
X119326904Y-93637142D01*
X119326904Y-93484761D01*
X119288809Y-93408571D01*
X119250714Y-93370476D01*
X119174523Y-93332380D01*
X118984047Y-93332380D01*
X118907857Y-93370476D01*
X118869761Y-93408571D01*
X118831666Y-93484761D01*
X118831666Y-93637142D01*
X118869761Y-93713333D01*
X118907857Y-93751428D01*
X118984047Y-93789523D01*
X194214814Y-100691904D02*
X193948147Y-100310952D01*
X193757671Y-100691904D02*
X193757671Y-99891904D01*
X194062433Y-99891904D01*
X194138623Y-99930000D01*
X194176719Y-99968095D01*
X194214814Y-100044285D01*
X194214814Y-100158571D01*
X194176719Y-100234761D01*
X194138623Y-100272857D01*
X194062433Y-100310952D01*
X193757671Y-100310952D01*
X194976719Y-100691904D02*
X194519576Y-100691904D01*
X194748147Y-100691904D02*
X194748147Y-99891904D01*
X194671957Y-100006190D01*
X194595766Y-100082380D01*
X194519576Y-100120476D01*
X195357671Y-100691904D02*
X195510052Y-100691904D01*
X195586242Y-100653809D01*
X195624338Y-100615714D01*
X195700528Y-100501428D01*
X195738623Y-100349047D01*
X195738623Y-100044285D01*
X195700528Y-99968095D01*
X195662433Y-99930000D01*
X195586242Y-99891904D01*
X195433861Y-99891904D01*
X195357671Y-99930000D01*
X195319576Y-99968095D01*
X195281480Y-100044285D01*
X195281480Y-100234761D01*
X195319576Y-100310952D01*
X195357671Y-100349047D01*
X195433861Y-100387142D01*
X195586242Y-100387142D01*
X195662433Y-100349047D01*
X195700528Y-100310952D01*
X195738623Y-100234761D01*
X184397714Y-100691904D02*
X184131047Y-100310952D01*
X183940571Y-100691904D02*
X183940571Y-99891904D01*
X184245333Y-99891904D01*
X184321523Y-99930000D01*
X184359619Y-99968095D01*
X184397714Y-100044285D01*
X184397714Y-100158571D01*
X184359619Y-100234761D01*
X184321523Y-100272857D01*
X184245333Y-100310952D01*
X183940571Y-100310952D01*
X185159619Y-100691904D02*
X184702476Y-100691904D01*
X184931047Y-100691904D02*
X184931047Y-99891904D01*
X184854857Y-100006190D01*
X184778666Y-100082380D01*
X184702476Y-100120476D01*
X185616761Y-100234761D02*
X185540571Y-100196666D01*
X185502476Y-100158571D01*
X185464380Y-100082380D01*
X185464380Y-100044285D01*
X185502476Y-99968095D01*
X185540571Y-99930000D01*
X185616761Y-99891904D01*
X185769142Y-99891904D01*
X185845333Y-99930000D01*
X185883428Y-99968095D01*
X185921523Y-100044285D01*
X185921523Y-100082380D01*
X185883428Y-100158571D01*
X185845333Y-100196666D01*
X185769142Y-100234761D01*
X185616761Y-100234761D01*
X185540571Y-100272857D01*
X185502476Y-100310952D01*
X185464380Y-100387142D01*
X185464380Y-100539523D01*
X185502476Y-100615714D01*
X185540571Y-100653809D01*
X185616761Y-100691904D01*
X185769142Y-100691904D01*
X185845333Y-100653809D01*
X185883428Y-100615714D01*
X185921523Y-100539523D01*
X185921523Y-100387142D01*
X185883428Y-100310952D01*
X185845333Y-100272857D01*
X185769142Y-100234761D01*
X197415214Y-100691904D02*
X197148547Y-100310952D01*
X196958071Y-100691904D02*
X196958071Y-99891904D01*
X197262833Y-99891904D01*
X197339023Y-99930000D01*
X197377119Y-99968095D01*
X197415214Y-100044285D01*
X197415214Y-100158571D01*
X197377119Y-100234761D01*
X197339023Y-100272857D01*
X197262833Y-100310952D01*
X196958071Y-100310952D01*
X198177119Y-100691904D02*
X197719976Y-100691904D01*
X197948547Y-100691904D02*
X197948547Y-99891904D01*
X197872357Y-100006190D01*
X197796166Y-100082380D01*
X197719976Y-100120476D01*
X198443785Y-99891904D02*
X198977119Y-99891904D01*
X198634261Y-100691904D01*
X191065214Y-72942404D02*
X190798547Y-72561452D01*
X190608071Y-72942404D02*
X190608071Y-72142404D01*
X190912833Y-72142404D01*
X190989023Y-72180500D01*
X191027119Y-72218595D01*
X191065214Y-72294785D01*
X191065214Y-72409071D01*
X191027119Y-72485261D01*
X190989023Y-72523357D01*
X190912833Y-72561452D01*
X190608071Y-72561452D01*
X191827119Y-72942404D02*
X191369976Y-72942404D01*
X191598547Y-72942404D02*
X191598547Y-72142404D01*
X191522357Y-72256690D01*
X191446166Y-72332880D01*
X191369976Y-72370976D01*
X192512833Y-72142404D02*
X192360452Y-72142404D01*
X192284261Y-72180500D01*
X192246166Y-72218595D01*
X192169976Y-72332880D01*
X192131880Y-72485261D01*
X192131880Y-72790023D01*
X192169976Y-72866214D01*
X192208071Y-72904309D01*
X192284261Y-72942404D01*
X192436642Y-72942404D01*
X192512833Y-72904309D01*
X192550928Y-72866214D01*
X192589023Y-72790023D01*
X192589023Y-72599547D01*
X192550928Y-72523357D01*
X192512833Y-72485261D01*
X192436642Y-72447166D01*
X192284261Y-72447166D01*
X192208071Y-72485261D01*
X192169976Y-72523357D01*
X192131880Y-72599547D01*
X187763214Y-72942404D02*
X187496547Y-72561452D01*
X187306071Y-72942404D02*
X187306071Y-72142404D01*
X187610833Y-72142404D01*
X187687023Y-72180500D01*
X187725119Y-72218595D01*
X187763214Y-72294785D01*
X187763214Y-72409071D01*
X187725119Y-72485261D01*
X187687023Y-72523357D01*
X187610833Y-72561452D01*
X187306071Y-72561452D01*
X188525119Y-72942404D02*
X188067976Y-72942404D01*
X188296547Y-72942404D02*
X188296547Y-72142404D01*
X188220357Y-72256690D01*
X188144166Y-72332880D01*
X188067976Y-72370976D01*
X189248928Y-72142404D02*
X188867976Y-72142404D01*
X188829880Y-72523357D01*
X188867976Y-72485261D01*
X188944166Y-72447166D01*
X189134642Y-72447166D01*
X189210833Y-72485261D01*
X189248928Y-72523357D01*
X189287023Y-72599547D01*
X189287023Y-72790023D01*
X189248928Y-72866214D01*
X189210833Y-72904309D01*
X189134642Y-72942404D01*
X188944166Y-72942404D01*
X188867976Y-72904309D01*
X188829880Y-72866214D01*
X200361614Y-72942404D02*
X200094947Y-72561452D01*
X199904471Y-72942404D02*
X199904471Y-72142404D01*
X200209233Y-72142404D01*
X200285423Y-72180500D01*
X200323519Y-72218595D01*
X200361614Y-72294785D01*
X200361614Y-72409071D01*
X200323519Y-72485261D01*
X200285423Y-72523357D01*
X200209233Y-72561452D01*
X199904471Y-72561452D01*
X201123519Y-72942404D02*
X200666376Y-72942404D01*
X200894947Y-72942404D02*
X200894947Y-72142404D01*
X200818757Y-72256690D01*
X200742566Y-72332880D01*
X200666376Y-72370976D01*
X201809233Y-72409071D02*
X201809233Y-72942404D01*
X201618757Y-72104309D02*
X201428280Y-72675738D01*
X201923519Y-72675738D01*
X112769714Y-49494304D02*
X112503047Y-49113352D01*
X112312571Y-49494304D02*
X112312571Y-48694304D01*
X112617333Y-48694304D01*
X112693523Y-48732400D01*
X112731619Y-48770495D01*
X112769714Y-48846685D01*
X112769714Y-48960971D01*
X112731619Y-49037161D01*
X112693523Y-49075257D01*
X112617333Y-49113352D01*
X112312571Y-49113352D01*
X113531619Y-49494304D02*
X113074476Y-49494304D01*
X113303047Y-49494304D02*
X113303047Y-48694304D01*
X113226857Y-48808590D01*
X113150666Y-48884780D01*
X113074476Y-48922876D01*
X114293523Y-49494304D02*
X113836380Y-49494304D01*
X114064952Y-49494304D02*
X114064952Y-48694304D01*
X113988761Y-48808590D01*
X113912571Y-48884780D01*
X113836380Y-48922876D01*
X161283714Y-111105904D02*
X161017047Y-110724952D01*
X160826571Y-111105904D02*
X160826571Y-110305904D01*
X161131333Y-110305904D01*
X161207523Y-110344000D01*
X161245619Y-110382095D01*
X161283714Y-110458285D01*
X161283714Y-110572571D01*
X161245619Y-110648761D01*
X161207523Y-110686857D01*
X161131333Y-110724952D01*
X160826571Y-110724952D01*
X162045619Y-111105904D02*
X161588476Y-111105904D01*
X161817047Y-111105904D02*
X161817047Y-110305904D01*
X161740857Y-110420190D01*
X161664666Y-110496380D01*
X161588476Y-110534476D01*
X162540857Y-110305904D02*
X162617047Y-110305904D01*
X162693238Y-110344000D01*
X162731333Y-110382095D01*
X162769428Y-110458285D01*
X162807523Y-110610666D01*
X162807523Y-110801142D01*
X162769428Y-110953523D01*
X162731333Y-111029714D01*
X162693238Y-111067809D01*
X162617047Y-111105904D01*
X162540857Y-111105904D01*
X162464666Y-111067809D01*
X162426571Y-111029714D01*
X162388476Y-110953523D01*
X162350380Y-110801142D01*
X162350380Y-110610666D01*
X162388476Y-110458285D01*
X162426571Y-110382095D01*
X162464666Y-110344000D01*
X162540857Y-110305904D01*
X151250666Y-108184904D02*
X150984000Y-107803952D01*
X150793523Y-108184904D02*
X150793523Y-107384904D01*
X151098285Y-107384904D01*
X151174476Y-107423000D01*
X151212571Y-107461095D01*
X151250666Y-107537285D01*
X151250666Y-107651571D01*
X151212571Y-107727761D01*
X151174476Y-107765857D01*
X151098285Y-107803952D01*
X150793523Y-107803952D01*
X151631619Y-108184904D02*
X151784000Y-108184904D01*
X151860190Y-108146809D01*
X151898285Y-108108714D01*
X151974476Y-107994428D01*
X152012571Y-107842047D01*
X152012571Y-107537285D01*
X151974476Y-107461095D01*
X151936380Y-107423000D01*
X151860190Y-107384904D01*
X151707809Y-107384904D01*
X151631619Y-107423000D01*
X151593523Y-107461095D01*
X151555428Y-107537285D01*
X151555428Y-107727761D01*
X151593523Y-107803952D01*
X151631619Y-107842047D01*
X151707809Y-107880142D01*
X151860190Y-107880142D01*
X151936380Y-107842047D01*
X151974476Y-107803952D01*
X152012571Y-107727761D01*
X184397666Y-49637904D02*
X184131000Y-49256952D01*
X183940523Y-49637904D02*
X183940523Y-48837904D01*
X184245285Y-48837904D01*
X184321476Y-48876000D01*
X184359571Y-48914095D01*
X184397666Y-48990285D01*
X184397666Y-49104571D01*
X184359571Y-49180761D01*
X184321476Y-49218857D01*
X184245285Y-49256952D01*
X183940523Y-49256952D01*
X184854809Y-49180761D02*
X184778619Y-49142666D01*
X184740523Y-49104571D01*
X184702428Y-49028380D01*
X184702428Y-48990285D01*
X184740523Y-48914095D01*
X184778619Y-48876000D01*
X184854809Y-48837904D01*
X185007190Y-48837904D01*
X185083380Y-48876000D01*
X185121476Y-48914095D01*
X185159571Y-48990285D01*
X185159571Y-49028380D01*
X185121476Y-49104571D01*
X185083380Y-49142666D01*
X185007190Y-49180761D01*
X184854809Y-49180761D01*
X184778619Y-49218857D01*
X184740523Y-49256952D01*
X184702428Y-49333142D01*
X184702428Y-49485523D01*
X184740523Y-49561714D01*
X184778619Y-49599809D01*
X184854809Y-49637904D01*
X185007190Y-49637904D01*
X185083380Y-49599809D01*
X185121476Y-49561714D01*
X185159571Y-49485523D01*
X185159571Y-49333142D01*
X185121476Y-49256952D01*
X185083380Y-49218857D01*
X185007190Y-49180761D01*
X107435666Y-101876904D02*
X107169000Y-101495952D01*
X106978523Y-101876904D02*
X106978523Y-101076904D01*
X107283285Y-101076904D01*
X107359476Y-101115000D01*
X107397571Y-101153095D01*
X107435666Y-101229285D01*
X107435666Y-101343571D01*
X107397571Y-101419761D01*
X107359476Y-101457857D01*
X107283285Y-101495952D01*
X106978523Y-101495952D01*
X107702333Y-101076904D02*
X108235666Y-101076904D01*
X107892809Y-101876904D01*
X169538666Y-91039904D02*
X169272000Y-90658952D01*
X169081523Y-91039904D02*
X169081523Y-90239904D01*
X169386285Y-90239904D01*
X169462476Y-90278000D01*
X169500571Y-90316095D01*
X169538666Y-90392285D01*
X169538666Y-90506571D01*
X169500571Y-90582761D01*
X169462476Y-90620857D01*
X169386285Y-90658952D01*
X169081523Y-90658952D01*
X169805333Y-90239904D02*
X170300571Y-90239904D01*
X170033904Y-90544666D01*
X170148190Y-90544666D01*
X170224380Y-90582761D01*
X170262476Y-90620857D01*
X170300571Y-90697047D01*
X170300571Y-90887523D01*
X170262476Y-90963714D01*
X170224380Y-91001809D01*
X170148190Y-91039904D01*
X169919619Y-91039904D01*
X169843428Y-91001809D01*
X169805333Y-90963714D01*
X166490666Y-88626904D02*
X166224000Y-88245952D01*
X166033523Y-88626904D02*
X166033523Y-87826904D01*
X166338285Y-87826904D01*
X166414476Y-87865000D01*
X166452571Y-87903095D01*
X166490666Y-87979285D01*
X166490666Y-88093571D01*
X166452571Y-88169761D01*
X166414476Y-88207857D01*
X166338285Y-88245952D01*
X166033523Y-88245952D01*
X166795428Y-87903095D02*
X166833523Y-87865000D01*
X166909714Y-87826904D01*
X167100190Y-87826904D01*
X167176380Y-87865000D01*
X167214476Y-87903095D01*
X167252571Y-87979285D01*
X167252571Y-88055476D01*
X167214476Y-88169761D01*
X166757333Y-88626904D01*
X167252571Y-88626904D01*
X166490666Y-86086904D02*
X166224000Y-85705952D01*
X166033523Y-86086904D02*
X166033523Y-85286904D01*
X166338285Y-85286904D01*
X166414476Y-85325000D01*
X166452571Y-85363095D01*
X166490666Y-85439285D01*
X166490666Y-85553571D01*
X166452571Y-85629761D01*
X166414476Y-85667857D01*
X166338285Y-85705952D01*
X166033523Y-85705952D01*
X167252571Y-86086904D02*
X166795428Y-86086904D01*
X167024000Y-86086904D02*
X167024000Y-85286904D01*
X166947809Y-85401190D01*
X166871619Y-85477380D01*
X166795428Y-85515476D01*
X184899309Y-63366595D02*
X184823119Y-63328500D01*
X184746928Y-63252309D01*
X184632642Y-63138023D01*
X184556452Y-63099928D01*
X184480261Y-63099928D01*
X184518357Y-63290404D02*
X184442166Y-63252309D01*
X184365976Y-63176119D01*
X184327880Y-63023738D01*
X184327880Y-62757071D01*
X184365976Y-62604690D01*
X184442166Y-62528500D01*
X184518357Y-62490404D01*
X184670738Y-62490404D01*
X184746928Y-62528500D01*
X184823119Y-62604690D01*
X184861214Y-62757071D01*
X184861214Y-63023738D01*
X184823119Y-63176119D01*
X184746928Y-63252309D01*
X184670738Y-63290404D01*
X184518357Y-63290404D01*
X185623119Y-63290404D02*
X185165976Y-63290404D01*
X185394547Y-63290404D02*
X185394547Y-62490404D01*
X185318357Y-62604690D01*
X185242166Y-62680880D01*
X185165976Y-62718976D01*
X131972066Y-86975904D02*
X131591114Y-86975904D01*
X131591114Y-86175904D01*
X132200638Y-86252095D02*
X132238733Y-86214000D01*
X132314923Y-86175904D01*
X132505400Y-86175904D01*
X132581590Y-86214000D01*
X132619685Y-86252095D01*
X132657780Y-86328285D01*
X132657780Y-86404476D01*
X132619685Y-86518761D01*
X132162542Y-86975904D01*
X132657780Y-86975904D01*
X140506466Y-84486704D02*
X140125514Y-84486704D01*
X140125514Y-83686704D01*
X141192180Y-84486704D02*
X140735038Y-84486704D01*
X140963609Y-84486704D02*
X140963609Y-83686704D01*
X140887419Y-83800990D01*
X140811228Y-83877180D01*
X140735038Y-83915276D01*
X203295380Y-86048904D02*
X203295380Y-86620333D01*
X203257285Y-86734619D01*
X203181095Y-86810809D01*
X203066809Y-86848904D01*
X202990619Y-86848904D01*
X203676333Y-86848904D02*
X203676333Y-86048904D01*
X203981095Y-86048904D01*
X204057285Y-86087000D01*
X204095380Y-86125095D01*
X204133476Y-86201285D01*
X204133476Y-86315571D01*
X204095380Y-86391761D01*
X204057285Y-86429857D01*
X203981095Y-86467952D01*
X203676333Y-86467952D01*
X204895380Y-86848904D02*
X204438238Y-86848904D01*
X204666809Y-86848904D02*
X204666809Y-86048904D01*
X204590619Y-86163190D01*
X204514428Y-86239380D01*
X204438238Y-86277476D01*
X205619190Y-86048904D02*
X205238238Y-86048904D01*
X205200142Y-86429857D01*
X205238238Y-86391761D01*
X205314428Y-86353666D01*
X205504904Y-86353666D01*
X205581095Y-86391761D01*
X205619190Y-86429857D01*
X205657285Y-86506047D01*
X205657285Y-86696523D01*
X205619190Y-86772714D01*
X205581095Y-86810809D01*
X205504904Y-86848904D01*
X205314428Y-86848904D01*
X205238238Y-86810809D01*
X205200142Y-86772714D01*
X106267380Y-106813404D02*
X106267380Y-107384833D01*
X106229285Y-107499119D01*
X106153095Y-107575309D01*
X106038809Y-107613404D01*
X105962619Y-107613404D01*
X106648333Y-107613404D02*
X106648333Y-106813404D01*
X106953095Y-106813404D01*
X107029285Y-106851500D01*
X107067380Y-106889595D01*
X107105476Y-106965785D01*
X107105476Y-107080071D01*
X107067380Y-107156261D01*
X107029285Y-107194357D01*
X106953095Y-107232452D01*
X106648333Y-107232452D01*
X107867380Y-107613404D02*
X107410238Y-107613404D01*
X107638809Y-107613404D02*
X107638809Y-106813404D01*
X107562619Y-106927690D01*
X107486428Y-107003880D01*
X107410238Y-107041976D01*
X108362619Y-106813404D02*
X108438809Y-106813404D01*
X108515000Y-106851500D01*
X108553095Y-106889595D01*
X108591190Y-106965785D01*
X108629285Y-107118166D01*
X108629285Y-107308642D01*
X108591190Y-107461023D01*
X108553095Y-107537214D01*
X108515000Y-107575309D01*
X108438809Y-107613404D01*
X108362619Y-107613404D01*
X108286428Y-107575309D01*
X108248333Y-107537214D01*
X108210238Y-107461023D01*
X108172142Y-107308642D01*
X108172142Y-107118166D01*
X108210238Y-106965785D01*
X108248333Y-106889595D01*
X108286428Y-106851500D01*
X108362619Y-106813404D01*
X107175333Y-57473904D02*
X107175333Y-58045333D01*
X107137238Y-58159619D01*
X107061047Y-58235809D01*
X106946761Y-58273904D01*
X106870571Y-58273904D01*
X107480095Y-57473904D02*
X108013428Y-57473904D01*
X107670571Y-58273904D01*
X126815904Y-125996666D02*
X127387333Y-125996666D01*
X127501619Y-126034761D01*
X127577809Y-126110952D01*
X127615904Y-126225238D01*
X127615904Y-126301428D01*
X126815904Y-125272857D02*
X126815904Y-125425238D01*
X126854000Y-125501428D01*
X126892095Y-125539523D01*
X127006380Y-125615714D01*
X127158761Y-125653809D01*
X127463523Y-125653809D01*
X127539714Y-125615714D01*
X127577809Y-125577619D01*
X127615904Y-125501428D01*
X127615904Y-125349047D01*
X127577809Y-125272857D01*
X127539714Y-125234761D01*
X127463523Y-125196666D01*
X127273047Y-125196666D01*
X127196857Y-125234761D01*
X127158761Y-125272857D01*
X127120666Y-125349047D01*
X127120666Y-125501428D01*
X127158761Y-125577619D01*
X127196857Y-125615714D01*
X127273047Y-125653809D01*
X103238333Y-68980104D02*
X103238333Y-69551533D01*
X103200238Y-69665819D01*
X103124047Y-69742009D01*
X103009761Y-69780104D01*
X102933571Y-69780104D01*
X103962142Y-69246771D02*
X103962142Y-69780104D01*
X103771666Y-68942009D02*
X103581190Y-69513438D01*
X104076428Y-69513438D01*
X193533333Y-64961904D02*
X193533333Y-65533333D01*
X193495238Y-65647619D01*
X193419047Y-65723809D01*
X193304761Y-65761904D01*
X193228571Y-65761904D01*
X193876190Y-65038095D02*
X193914285Y-65000000D01*
X193990476Y-64961904D01*
X194180952Y-64961904D01*
X194257142Y-65000000D01*
X194295238Y-65038095D01*
X194333333Y-65114285D01*
X194333333Y-65190476D01*
X194295238Y-65304761D01*
X193838095Y-65761904D01*
X194333333Y-65761904D01*
X167443214Y-83216714D02*
X167405119Y-83254809D01*
X167290833Y-83292904D01*
X167214642Y-83292904D01*
X167100357Y-83254809D01*
X167024166Y-83178619D01*
X166986071Y-83102428D01*
X166947976Y-82950047D01*
X166947976Y-82835761D01*
X166986071Y-82683380D01*
X167024166Y-82607190D01*
X167100357Y-82531000D01*
X167214642Y-82492904D01*
X167290833Y-82492904D01*
X167405119Y-82531000D01*
X167443214Y-82569095D01*
X167747976Y-82569095D02*
X167786071Y-82531000D01*
X167862261Y-82492904D01*
X168052738Y-82492904D01*
X168128928Y-82531000D01*
X168167023Y-82569095D01*
X168205119Y-82645285D01*
X168205119Y-82721476D01*
X168167023Y-82835761D01*
X167709880Y-83292904D01*
X168205119Y-83292904D01*
X168890833Y-82492904D02*
X168738452Y-82492904D01*
X168662261Y-82531000D01*
X168624166Y-82569095D01*
X168547976Y-82683380D01*
X168509880Y-82835761D01*
X168509880Y-83140523D01*
X168547976Y-83216714D01*
X168586071Y-83254809D01*
X168662261Y-83292904D01*
X168814642Y-83292904D01*
X168890833Y-83254809D01*
X168928928Y-83216714D01*
X168967023Y-83140523D01*
X168967023Y-82950047D01*
X168928928Y-82873857D01*
X168890833Y-82835761D01*
X168814642Y-82797666D01*
X168662261Y-82797666D01*
X168586071Y-82835761D01*
X168547976Y-82873857D01*
X168509880Y-82950047D01*
X187610814Y-100615714D02*
X187572719Y-100653809D01*
X187458433Y-100691904D01*
X187382242Y-100691904D01*
X187267957Y-100653809D01*
X187191766Y-100577619D01*
X187153671Y-100501428D01*
X187115576Y-100349047D01*
X187115576Y-100234761D01*
X187153671Y-100082380D01*
X187191766Y-100006190D01*
X187267957Y-99930000D01*
X187382242Y-99891904D01*
X187458433Y-99891904D01*
X187572719Y-99930000D01*
X187610814Y-99968095D01*
X187915576Y-99968095D02*
X187953671Y-99930000D01*
X188029861Y-99891904D01*
X188220338Y-99891904D01*
X188296528Y-99930000D01*
X188334623Y-99968095D01*
X188372719Y-100044285D01*
X188372719Y-100120476D01*
X188334623Y-100234761D01*
X187877480Y-100691904D01*
X188372719Y-100691904D01*
X189058433Y-100158571D02*
X189058433Y-100691904D01*
X188867957Y-99853809D02*
X188677480Y-100425238D01*
X189172719Y-100425238D01*
X194367214Y-72866214D02*
X194329119Y-72904309D01*
X194214833Y-72942404D01*
X194138642Y-72942404D01*
X194024357Y-72904309D01*
X193948166Y-72828119D01*
X193910071Y-72751928D01*
X193871976Y-72599547D01*
X193871976Y-72485261D01*
X193910071Y-72332880D01*
X193948166Y-72256690D01*
X194024357Y-72180500D01*
X194138642Y-72142404D01*
X194214833Y-72142404D01*
X194329119Y-72180500D01*
X194367214Y-72218595D01*
X194671976Y-72218595D02*
X194710071Y-72180500D01*
X194786261Y-72142404D01*
X194976738Y-72142404D01*
X195052928Y-72180500D01*
X195091023Y-72218595D01*
X195129119Y-72294785D01*
X195129119Y-72370976D01*
X195091023Y-72485261D01*
X194633880Y-72942404D01*
X195129119Y-72942404D01*
X195395785Y-72142404D02*
X195891023Y-72142404D01*
X195624357Y-72447166D01*
X195738642Y-72447166D01*
X195814833Y-72485261D01*
X195852928Y-72523357D01*
X195891023Y-72599547D01*
X195891023Y-72790023D01*
X195852928Y-72866214D01*
X195814833Y-72904309D01*
X195738642Y-72942404D01*
X195510071Y-72942404D01*
X195433880Y-72904309D01*
X195395785Y-72866214D01*
X195065714Y-90709714D02*
X195027619Y-90747809D01*
X194913333Y-90785904D01*
X194837142Y-90785904D01*
X194722857Y-90747809D01*
X194646666Y-90671619D01*
X194608571Y-90595428D01*
X194570476Y-90443047D01*
X194570476Y-90328761D01*
X194608571Y-90176380D01*
X194646666Y-90100190D01*
X194722857Y-90024000D01*
X194837142Y-89985904D01*
X194913333Y-89985904D01*
X195027619Y-90024000D01*
X195065714Y-90062095D01*
X195370476Y-90062095D02*
X195408571Y-90024000D01*
X195484761Y-89985904D01*
X195675238Y-89985904D01*
X195751428Y-90024000D01*
X195789523Y-90062095D01*
X195827619Y-90138285D01*
X195827619Y-90214476D01*
X195789523Y-90328761D01*
X195332380Y-90785904D01*
X195827619Y-90785904D01*
X196589523Y-90785904D02*
X196132380Y-90785904D01*
X196360952Y-90785904D02*
X196360952Y-89985904D01*
X196284761Y-90100190D01*
X196208571Y-90176380D01*
X196132380Y-90214476D01*
X190938214Y-100615714D02*
X190900119Y-100653809D01*
X190785833Y-100691904D01*
X190709642Y-100691904D01*
X190595357Y-100653809D01*
X190519166Y-100577619D01*
X190481071Y-100501428D01*
X190442976Y-100349047D01*
X190442976Y-100234761D01*
X190481071Y-100082380D01*
X190519166Y-100006190D01*
X190595357Y-99930000D01*
X190709642Y-99891904D01*
X190785833Y-99891904D01*
X190900119Y-99930000D01*
X190938214Y-99968095D01*
X191242976Y-99968095D02*
X191281071Y-99930000D01*
X191357261Y-99891904D01*
X191547738Y-99891904D01*
X191623928Y-99930000D01*
X191662023Y-99968095D01*
X191700119Y-100044285D01*
X191700119Y-100120476D01*
X191662023Y-100234761D01*
X191204880Y-100691904D01*
X191700119Y-100691904D01*
X192195357Y-99891904D02*
X192271547Y-99891904D01*
X192347738Y-99930000D01*
X192385833Y-99968095D01*
X192423928Y-100044285D01*
X192462023Y-100196666D01*
X192462023Y-100387142D01*
X192423928Y-100539523D01*
X192385833Y-100615714D01*
X192347738Y-100653809D01*
X192271547Y-100691904D01*
X192195357Y-100691904D01*
X192119166Y-100653809D01*
X192081071Y-100615714D01*
X192042976Y-100539523D01*
X192004880Y-100387142D01*
X192004880Y-100196666D01*
X192042976Y-100044285D01*
X192081071Y-99968095D01*
X192119166Y-99930000D01*
X192195357Y-99891904D01*
X179254214Y-100615714D02*
X179216119Y-100653809D01*
X179101833Y-100691904D01*
X179025642Y-100691904D01*
X178911357Y-100653809D01*
X178835166Y-100577619D01*
X178797071Y-100501428D01*
X178758976Y-100349047D01*
X178758976Y-100234761D01*
X178797071Y-100082380D01*
X178835166Y-100006190D01*
X178911357Y-99930000D01*
X179025642Y-99891904D01*
X179101833Y-99891904D01*
X179216119Y-99930000D01*
X179254214Y-99968095D01*
X180016119Y-100691904D02*
X179558976Y-100691904D01*
X179787547Y-100691904D02*
X179787547Y-99891904D01*
X179711357Y-100006190D01*
X179635166Y-100082380D01*
X179558976Y-100120476D01*
X180397071Y-100691904D02*
X180549452Y-100691904D01*
X180625642Y-100653809D01*
X180663738Y-100615714D01*
X180739928Y-100501428D01*
X180778023Y-100349047D01*
X180778023Y-100044285D01*
X180739928Y-99968095D01*
X180701833Y-99930000D01*
X180625642Y-99891904D01*
X180473261Y-99891904D01*
X180397071Y-99930000D01*
X180358976Y-99968095D01*
X180320880Y-100044285D01*
X180320880Y-100234761D01*
X180358976Y-100310952D01*
X180397071Y-100349047D01*
X180473261Y-100387142D01*
X180625642Y-100387142D01*
X180701833Y-100349047D01*
X180739928Y-100310952D01*
X180778023Y-100234761D01*
X197542214Y-72866214D02*
X197504119Y-72904309D01*
X197389833Y-72942404D01*
X197313642Y-72942404D01*
X197199357Y-72904309D01*
X197123166Y-72828119D01*
X197085071Y-72751928D01*
X197046976Y-72599547D01*
X197046976Y-72485261D01*
X197085071Y-72332880D01*
X197123166Y-72256690D01*
X197199357Y-72180500D01*
X197313642Y-72142404D01*
X197389833Y-72142404D01*
X197504119Y-72180500D01*
X197542214Y-72218595D01*
X198304119Y-72942404D02*
X197846976Y-72942404D01*
X198075547Y-72942404D02*
X198075547Y-72142404D01*
X197999357Y-72256690D01*
X197923166Y-72332880D01*
X197846976Y-72370976D01*
X198761261Y-72485261D02*
X198685071Y-72447166D01*
X198646976Y-72409071D01*
X198608880Y-72332880D01*
X198608880Y-72294785D01*
X198646976Y-72218595D01*
X198685071Y-72180500D01*
X198761261Y-72142404D01*
X198913642Y-72142404D01*
X198989833Y-72180500D01*
X199027928Y-72218595D01*
X199066023Y-72294785D01*
X199066023Y-72332880D01*
X199027928Y-72409071D01*
X198989833Y-72447166D01*
X198913642Y-72485261D01*
X198761261Y-72485261D01*
X198685071Y-72523357D01*
X198646976Y-72561452D01*
X198608880Y-72637642D01*
X198608880Y-72790023D01*
X198646976Y-72866214D01*
X198685071Y-72904309D01*
X198761261Y-72942404D01*
X198913642Y-72942404D01*
X198989833Y-72904309D01*
X199027928Y-72866214D01*
X199066023Y-72790023D01*
X199066023Y-72637642D01*
X199027928Y-72561452D01*
X198989833Y-72523357D01*
X198913642Y-72485261D01*
X184740614Y-72866214D02*
X184702519Y-72904309D01*
X184588233Y-72942404D01*
X184512042Y-72942404D01*
X184397757Y-72904309D01*
X184321566Y-72828119D01*
X184283471Y-72751928D01*
X184245376Y-72599547D01*
X184245376Y-72485261D01*
X184283471Y-72332880D01*
X184321566Y-72256690D01*
X184397757Y-72180500D01*
X184512042Y-72142404D01*
X184588233Y-72142404D01*
X184702519Y-72180500D01*
X184740614Y-72218595D01*
X185502519Y-72942404D02*
X185045376Y-72942404D01*
X185273947Y-72942404D02*
X185273947Y-72142404D01*
X185197757Y-72256690D01*
X185121566Y-72332880D01*
X185045376Y-72370976D01*
X185769185Y-72142404D02*
X186302519Y-72142404D01*
X185959661Y-72942404D01*
X154933714Y-97313714D02*
X154895619Y-97351809D01*
X154781333Y-97389904D01*
X154705142Y-97389904D01*
X154590857Y-97351809D01*
X154514666Y-97275619D01*
X154476571Y-97199428D01*
X154438476Y-97047047D01*
X154438476Y-96932761D01*
X154476571Y-96780380D01*
X154514666Y-96704190D01*
X154590857Y-96628000D01*
X154705142Y-96589904D01*
X154781333Y-96589904D01*
X154895619Y-96628000D01*
X154933714Y-96666095D01*
X155695619Y-97389904D02*
X155238476Y-97389904D01*
X155467047Y-97389904D02*
X155467047Y-96589904D01*
X155390857Y-96704190D01*
X155314666Y-96780380D01*
X155238476Y-96818476D01*
X156381333Y-96589904D02*
X156228952Y-96589904D01*
X156152761Y-96628000D01*
X156114666Y-96666095D01*
X156038476Y-96780380D01*
X156000380Y-96932761D01*
X156000380Y-97237523D01*
X156038476Y-97313714D01*
X156076571Y-97351809D01*
X156152761Y-97389904D01*
X156305142Y-97389904D01*
X156381333Y-97351809D01*
X156419428Y-97313714D01*
X156457523Y-97237523D01*
X156457523Y-97047047D01*
X156419428Y-96970857D01*
X156381333Y-96932761D01*
X156305142Y-96894666D01*
X156152761Y-96894666D01*
X156076571Y-96932761D01*
X156038476Y-96970857D01*
X156000380Y-97047047D01*
M02*
