M48
; DRILL file {KiCad (5.1.5-0-10_14)} date Wednesday, 04 March 2020 at 03:31:22
; FORMAT={-:-/ absolute / inch / decimal}
; #@! TF.CreationDate,2020-03-04T03:31:22+00:00
; #@! TF.GenerationSoftware,Kicad,Pcbnew,(5.1.5-0-10_14)
; #@! TF.FileFunction,Plated,1,2,PTH
FMAT,2
INCH
T1C0.0079
T2C0.0157
T3C0.0256
T4C0.0394
T5C0.0400
T6C0.0598
%
G90
G05
T1
X4.2Y-3.49
X4.31Y-3.54
X4.371Y-3.627
X4.631Y-3.627
X4.685Y-3.49
X4.702Y-3.6299
X4.86Y-3.21
X4.945Y-3.64
X5.06Y-3.665
X5.235Y-4.37
X5.255Y-3.385
X5.255Y-3.46
X5.265Y-4.415
X5.4Y-3.63
X5.415Y-4.37
X5.415Y-4.415
X5.415Y-4.415
X5.595Y-4.44
X5.6925Y-3.63
X5.715Y-3.8
X5.8175Y-4.4425
X5.8175Y-4.4925
X6.4Y-3.5
X6.6Y-3.5
T2
X4.355Y-3.925
X4.55Y-2.481
X4.57Y-2.006
X4.6Y-2.606
X4.7471Y-3.0129
X4.995Y-2.075
X5.145Y-3.13
X5.3Y-3.14
X5.355Y-1.89
X5.45Y-2.15
X5.45Y-2.25
X5.45Y-2.35
X5.45Y-2.45
X5.45Y-2.55
X5.505Y-2.94
X5.525Y-2.79
X5.55Y-2.25
X5.55Y-2.35
X5.55Y-2.45
X5.55Y-2.55
X5.588Y-1.852
X5.625Y-2.35
X5.625Y-2.45
X5.625Y-2.55
X5.625Y-2.94
X5.725Y-2.35
X5.725Y-2.45
X5.725Y-2.55
X5.775Y-3.65
X5.8Y-2.25
X5.8Y-2.35
X5.8Y-2.45
X5.8Y-2.55
X5.9Y-2.15
X5.9Y-2.25
X5.9Y-2.35
X5.9Y-2.45
X5.9Y-2.55
X6.1Y-3.73
X6.125Y-3.9
X6.16Y-2.15
X6.22Y-3.73
X6.3764Y-3.3486
X6.425Y-2.895
X6.51Y-3.79
X6.5325Y-4.31
X6.81Y-3.7
X6.86Y-2.665
X6.875Y-3.525
X6.875Y-3.82
X6.875Y-4.0
X6.915Y-2.39
X7.025Y-3.28
X7.15Y-4.315
X7.2Y-3.78
X7.225Y-4.0
X7.32Y-3.8
X7.4764Y-2.8564
X7.635Y-3.965
T3
X5.6525Y-4.615
X5.7025Y-4.615
X5.7525Y-4.615
T4
X4.2Y-2.856
X4.3Y-2.856
X4.4Y-2.856
X4.5Y-2.856
X4.6Y-2.856
X4.7Y-2.856
X4.18Y-3.785
X4.28Y-3.785
T5
X7.0Y-4.9
X7.0Y-5.0
X7.1Y-4.9
X7.1Y-5.0
X7.2Y-4.9
X7.2Y-5.0
X7.3Y-4.9
X7.3Y-5.0
X7.4Y-4.9
X7.4Y-5.0
X7.5Y-4.9
X7.5Y-5.0
X4.45Y-4.9
X4.45Y-5.0
X4.55Y-4.9
X4.55Y-5.0
X4.65Y-4.9
X4.65Y-5.0
X4.75Y-4.9
X4.75Y-5.0
X5.8Y-4.9
X5.8Y-5.0
X5.9Y-4.9
X5.9Y-5.0
X6.0Y-4.9
X6.0Y-5.0
X6.1Y-4.9
X6.1Y-5.0
X6.2Y-4.9
X6.2Y-5.0
X6.3Y-4.9
X6.3Y-5.0
T6
X7.175Y-2.25
X7.375Y-2.25
T0
M30
